%TF.GenerationSoftware,KiCad,Pcbnew,8.0.4*%
%TF.CreationDate,2024-11-01T13:20:14+09:00*%
%TF.ProjectId,Avio-BMS,4176696f-2d42-44d5-932e-6b696361645f,rev?*%
%TF.SameCoordinates,Original*%
%TF.FileFunction,Paste,Top*%
%TF.FilePolarity,Positive*%
%FSLAX46Y46*%
G04 Gerber Fmt 4.6, Leading zero omitted, Abs format (unit mm)*
G04 Created by KiCad (PCBNEW 8.0.4) date 2024-11-01 13:20:14*
%MOMM*%
%LPD*%
G01*
G04 APERTURE LIST*
G04 Aperture macros list*
%AMRoundRect*
0 Rectangle with rounded corners*
0 $1 Rounding radius*
0 $2 $3 $4 $5 $6 $7 $8 $9 X,Y pos of 4 corners*
0 Add a 4 corners polygon primitive as box body*
4,1,4,$2,$3,$4,$5,$6,$7,$8,$9,$2,$3,0*
0 Add four circle primitives for the rounded corners*
1,1,$1+$1,$2,$3*
1,1,$1+$1,$4,$5*
1,1,$1+$1,$6,$7*
1,1,$1+$1,$8,$9*
0 Add four rect primitives between the rounded corners*
20,1,$1+$1,$2,$3,$4,$5,0*
20,1,$1+$1,$4,$5,$6,$7,0*
20,1,$1+$1,$6,$7,$8,$9,0*
20,1,$1+$1,$8,$9,$2,$3,0*%
%AMHorizOval*
0 Thick line with rounded ends*
0 $1 width*
0 $2 $3 position (X,Y) of the first rounded end (center of the circle)*
0 $4 $5 position (X,Y) of the second rounded end (center of the circle)*
0 Add line between two ends*
20,1,$1,$2,$3,$4,$5,0*
0 Add two circle primitives to create the rounded ends*
1,1,$1,$2,$3*
1,1,$1,$4,$5*%
%AMRotRect*
0 Rectangle, with rotation*
0 The origin of the aperture is its center*
0 $1 length*
0 $2 width*
0 $3 Rotation angle, in degrees counterclockwise*
0 Add horizontal line*
21,1,$1,$2,0,0,$3*%
G04 Aperture macros list end*
%ADD10C,0.000000*%
%ADD11C,0.010000*%
%ADD12RoundRect,0.237500X-0.300000X-0.237500X0.300000X-0.237500X0.300000X0.237500X-0.300000X0.237500X0*%
%ADD13RoundRect,0.250000X-0.097227X0.574524X-0.574524X0.097227X0.097227X-0.574524X0.574524X-0.097227X0*%
%ADD14RoundRect,0.237500X-0.237500X0.287500X-0.237500X-0.287500X0.237500X-0.287500X0.237500X0.287500X0*%
%ADD15RoundRect,0.237500X-0.044194X-0.380070X0.380070X0.044194X0.044194X0.380070X-0.380070X-0.044194X0*%
%ADD16RoundRect,0.250001X1.087175X0.433103X0.433103X1.087175X-1.087175X-0.433103X-0.433103X-1.087175X0*%
%ADD17RoundRect,0.250000X-0.337500X-0.475000X0.337500X-0.475000X0.337500X0.475000X-0.337500X0.475000X0*%
%ADD18RoundRect,0.218750X0.335876X0.026517X0.026517X0.335876X-0.335876X-0.026517X-0.026517X-0.335876X0*%
%ADD19RoundRect,0.237500X-0.287500X-0.237500X0.287500X-0.237500X0.287500X0.237500X-0.287500X0.237500X0*%
%ADD20RoundRect,0.250000X-0.650000X0.412500X-0.650000X-0.412500X0.650000X-0.412500X0.650000X0.412500X0*%
%ADD21RoundRect,0.237500X0.344715X-0.008839X-0.008839X0.344715X-0.344715X0.008839X0.008839X-0.344715X0*%
%ADD22RoundRect,0.218750X-0.026517X0.335876X-0.335876X0.026517X0.026517X-0.335876X0.335876X-0.026517X0*%
%ADD23RoundRect,0.237500X0.008839X0.344715X-0.344715X-0.008839X-0.008839X-0.344715X0.344715X0.008839X0*%
%ADD24RotRect,0.812800X0.254000X45.000000*%
%ADD25RotRect,1.803400X3.403600X45.000000*%
%ADD26RoundRect,0.237500X0.237500X-0.250000X0.237500X0.250000X-0.237500X0.250000X-0.237500X-0.250000X0*%
%ADD27RoundRect,0.237500X0.250000X0.237500X-0.250000X0.237500X-0.250000X-0.237500X0.250000X-0.237500X0*%
%ADD28RoundRect,0.237500X-0.344715X0.008839X0.008839X-0.344715X0.344715X-0.008839X-0.008839X0.344715X0*%
%ADD29HorizOval,0.240000X0.127279X-0.127279X-0.127279X0.127279X0*%
%ADD30RoundRect,0.250000X0.097227X-0.574524X0.574524X-0.097227X-0.097227X0.574524X-0.574524X0.097227X0*%
%ADD31RoundRect,0.237500X-0.237500X0.250000X-0.237500X-0.250000X0.237500X-0.250000X0.237500X0.250000X0*%
%ADD32RoundRect,0.218750X-0.218750X-0.256250X0.218750X-0.256250X0.218750X0.256250X-0.218750X0.256250X0*%
%ADD33RoundRect,0.237500X0.237500X-0.300000X0.237500X0.300000X-0.237500X0.300000X-0.237500X-0.300000X0*%
%ADD34RoundRect,0.237500X-0.008839X-0.344715X0.344715X0.008839X0.008839X0.344715X-0.344715X-0.008839X0*%
%ADD35RoundRect,0.150000X-0.150000X0.512500X-0.150000X-0.512500X0.150000X-0.512500X0.150000X0.512500X0*%
%ADD36R,0.600000X1.150000*%
%ADD37R,0.300000X1.150000*%
%ADD38RotRect,2.750000X6.400000X315.000000*%
%ADD39RoundRect,0.250000X0.167938X-0.751301X0.751301X-0.167938X-0.167938X0.751301X-0.751301X0.167938X0*%
%ADD40RoundRect,0.237500X-0.237500X0.300000X-0.237500X-0.300000X0.237500X-0.300000X0.237500X0.300000X0*%
%ADD41RotRect,1.200000X0.400000X225.000000*%
%ADD42RoundRect,0.237500X0.300000X0.237500X-0.300000X0.237500X-0.300000X-0.237500X0.300000X-0.237500X0*%
%ADD43RoundRect,0.237500X0.380070X-0.044194X-0.044194X0.380070X-0.380070X0.044194X0.044194X-0.380070X0*%
%ADD44R,2.286000X1.854500*%
%ADD45RoundRect,0.050400X0.249600X-0.069600X0.249600X0.069600X-0.249600X0.069600X-0.249600X-0.069600X0*%
%ADD46RoundRect,0.050400X0.069600X-0.249600X0.069600X0.249600X-0.069600X0.249600X-0.069600X-0.249600X0*%
%ADD47RoundRect,0.237500X0.044194X0.380070X-0.380070X-0.044194X-0.044194X-0.380070X0.380070X0.044194X0*%
%ADD48RoundRect,0.150000X-0.689429X0.477297X0.477297X-0.689429X0.689429X-0.477297X-0.477297X0.689429X0*%
%ADD49RoundRect,0.150000X0.468458X-0.256326X-0.256326X0.468458X-0.468458X0.256326X0.256326X-0.468458X0*%
G04 APERTURE END LIST*
D10*
%TO.C,U1*%
G36*
X170183415Y-75068877D02*
G01*
X169049640Y-76202652D01*
X167987707Y-75140719D01*
X169121482Y-74006944D01*
X170183415Y-75068877D01*
G37*
G36*
X171386769Y-76272231D02*
G01*
X170252994Y-77406006D01*
X169191061Y-76344073D01*
X170324836Y-75210298D01*
X171386769Y-76272231D01*
G37*
D11*
%TO.C,U3*%
X144784961Y-97761113D02*
X143300037Y-99246037D01*
X143158616Y-99104616D01*
X143759657Y-98503575D01*
X143575809Y-98319727D01*
X142974768Y-98920768D01*
X142833347Y-98779347D01*
X144318271Y-97294422D01*
X144784961Y-97761113D01*
G36*
X144784961Y-97761113D02*
G01*
X143300037Y-99246037D01*
X143158616Y-99104616D01*
X143759657Y-98503575D01*
X143575809Y-98319727D01*
X142974768Y-98920768D01*
X142833347Y-98779347D01*
X144318271Y-97294422D01*
X144784961Y-97761113D01*
G37*
X145435500Y-98411651D02*
X143950575Y-99896575D01*
X143809154Y-99755154D01*
X144410195Y-99154113D01*
X144226347Y-98970265D01*
X143625306Y-99571306D01*
X143483885Y-99429885D01*
X144968809Y-97944961D01*
X145435500Y-98411651D01*
G36*
X145435500Y-98411651D02*
G01*
X143950575Y-99896575D01*
X143809154Y-99755154D01*
X144410195Y-99154113D01*
X144226347Y-98970265D01*
X143625306Y-99571306D01*
X143483885Y-99429885D01*
X144968809Y-97944961D01*
X145435500Y-98411651D01*
G37*
X146086038Y-95809498D02*
X145484997Y-96410539D01*
X145668845Y-96594387D01*
X146269886Y-95993346D01*
X146411307Y-96134767D01*
X144926383Y-97619691D01*
X144459692Y-97153001D01*
X145944617Y-95668077D01*
X146086038Y-95809498D01*
G36*
X146086038Y-95809498D02*
G01*
X145484997Y-96410539D01*
X145668845Y-96594387D01*
X146269886Y-95993346D01*
X146411307Y-96134767D01*
X144926383Y-97619691D01*
X144459692Y-97153001D01*
X145944617Y-95668077D01*
X146086038Y-95809498D01*
G37*
X146736576Y-96460036D02*
X146135535Y-97061077D01*
X146319383Y-97244925D01*
X146920424Y-96643884D01*
X147061845Y-96785305D01*
X145576921Y-98270230D01*
X145110231Y-97803539D01*
X146595155Y-96318615D01*
X146736576Y-96460036D01*
G36*
X146736576Y-96460036D02*
G01*
X146135535Y-97061077D01*
X146319383Y-97244925D01*
X146920424Y-96643884D01*
X147061845Y-96785305D01*
X145576921Y-98270230D01*
X145110231Y-97803539D01*
X146595155Y-96318615D01*
X146736576Y-96460036D01*
G37*
%TO.C,U4*%
X140120066Y-76607490D02*
X139270066Y-76607490D01*
X139270066Y-75687491D01*
X140120066Y-75687490D01*
X140120066Y-76607490D01*
G36*
X140120066Y-76607490D02*
G01*
X139270066Y-76607490D01*
X139270066Y-75687491D01*
X140120066Y-75687490D01*
X140120066Y-76607490D01*
G37*
X140120066Y-77727490D02*
X139270066Y-77727489D01*
X139270066Y-76807490D01*
X140120066Y-76807490D01*
X140120066Y-77727490D01*
G36*
X140120066Y-77727490D02*
G01*
X139270066Y-77727489D01*
X139270066Y-76807490D01*
X140120066Y-76807490D01*
X140120066Y-77727490D01*
G37*
X141170065Y-77727490D02*
X140320067Y-77727490D01*
X140320066Y-76807490D01*
X141170066Y-76807490D01*
X141170065Y-77727490D01*
G36*
X141170065Y-77727490D02*
G01*
X140320067Y-77727490D01*
X140320066Y-76807490D01*
X141170066Y-76807490D01*
X141170065Y-77727490D01*
G37*
X141170066Y-76607490D02*
X140320066Y-76607490D01*
X140320067Y-75687490D01*
X141170065Y-75687490D01*
X141170066Y-76607490D01*
G36*
X141170066Y-76607490D02*
G01*
X140320066Y-76607490D01*
X140320067Y-75687490D01*
X141170065Y-75687490D01*
X141170066Y-76607490D01*
G37*
X142220066Y-75687491D02*
X142220066Y-76607490D01*
X141370066Y-76607490D01*
X141370066Y-75687490D01*
X142220066Y-75687491D01*
G36*
X142220066Y-75687491D02*
G01*
X142220066Y-76607490D01*
X141370066Y-76607490D01*
X141370066Y-75687490D01*
X142220066Y-75687491D01*
G37*
X142220066Y-77727489D02*
X141370066Y-77727490D01*
X141370066Y-76807490D01*
X142220066Y-76807490D01*
X142220066Y-77727489D01*
G36*
X142220066Y-77727489D02*
G01*
X141370066Y-77727490D01*
X141370066Y-76807490D01*
X142220066Y-76807490D01*
X142220066Y-77727489D01*
G37*
X139070066Y-77082490D02*
X138345066Y-77082490D01*
X138342065Y-77082490D01*
X138340066Y-77082490D01*
X138337066Y-77081490D01*
X138335066Y-77081490D01*
X138332066Y-77080490D01*
X138330066Y-77080490D01*
X138327066Y-77079490D01*
X138325066Y-77078490D01*
X138322066Y-77077490D01*
X138320066Y-77075490D01*
X138318066Y-77074490D01*
X138316067Y-77072490D01*
X138314066Y-77071489D01*
X138312066Y-77069490D01*
X138310066Y-77067489D01*
X138308066Y-77065490D01*
X138306067Y-77063490D01*
X138305066Y-77061490D01*
X138303066Y-77059490D01*
X138302067Y-77057490D01*
X138300066Y-77055490D01*
X138299066Y-77052490D01*
X138298066Y-77050490D01*
X138297066Y-77047490D01*
X138297067Y-77045490D01*
X138296066Y-77042490D01*
X138296066Y-77040490D01*
X138295066Y-77037490D01*
X138295065Y-77035490D01*
X138295066Y-77032490D01*
X138295065Y-76932490D01*
X138295066Y-76929490D01*
X138295066Y-76927490D01*
X138296066Y-76924490D01*
X138296066Y-76922489D01*
X138297066Y-76919490D01*
X138297066Y-76917490D01*
X138298066Y-76914490D01*
X138299066Y-76912490D01*
X138300065Y-76909490D01*
X138302066Y-76907489D01*
X138303066Y-76905490D01*
X138305066Y-76903489D01*
X138306066Y-76901490D01*
X138308066Y-76899490D01*
X138310066Y-76897490D01*
X138312066Y-76895490D01*
X138314066Y-76893489D01*
X138316066Y-76892490D01*
X138318066Y-76890490D01*
X138320066Y-76889489D01*
X138322066Y-76887490D01*
X138325066Y-76886491D01*
X138327066Y-76885490D01*
X138330066Y-76884490D01*
X138332066Y-76884490D01*
X138335066Y-76883490D01*
X138337066Y-76883490D01*
X138340066Y-76882490D01*
X138342066Y-76882490D01*
X138345066Y-76882490D01*
X138820066Y-76882490D01*
X138820066Y-76532490D01*
X138345066Y-76532490D01*
X138342066Y-76532490D01*
X138340066Y-76532490D01*
X138337066Y-76531490D01*
X138335066Y-76531490D01*
X138332066Y-76530490D01*
X138330066Y-76530490D01*
X138327066Y-76529490D01*
X138325066Y-76528489D01*
X138322066Y-76527490D01*
X138320066Y-76525491D01*
X138318066Y-76524490D01*
X138316066Y-76522490D01*
X138314066Y-76521491D01*
X138312066Y-76519490D01*
X138310066Y-76517490D01*
X138308066Y-76515490D01*
X138306066Y-76513490D01*
X138305066Y-76511491D01*
X138303066Y-76509490D01*
X138302066Y-76507491D01*
X138300065Y-76505490D01*
X138299066Y-76502490D01*
X138298066Y-76500490D01*
X138297066Y-76497490D01*
X138297066Y-76495490D01*
X138296066Y-76492491D01*
X138296066Y-76490490D01*
X138295066Y-76487490D01*
X138295066Y-76485490D01*
X138295065Y-76482490D01*
X138295066Y-76382490D01*
X138295065Y-76379490D01*
X138295066Y-76377490D01*
X138296066Y-76374490D01*
X138296066Y-76372490D01*
X138297067Y-76369490D01*
X138297066Y-76367490D01*
X138298066Y-76364490D01*
X138299066Y-76362490D01*
X138300066Y-76359490D01*
X138302067Y-76357490D01*
X138303066Y-76355490D01*
X138305066Y-76353490D01*
X138306067Y-76351490D01*
X138308066Y-76349490D01*
X138310066Y-76347491D01*
X138312066Y-76345490D01*
X138314066Y-76343491D01*
X138316067Y-76342490D01*
X138318066Y-76340490D01*
X138320066Y-76339490D01*
X138322066Y-76337490D01*
X138325066Y-76336490D01*
X138327066Y-76335490D01*
X138330066Y-76334490D01*
X138332066Y-76334490D01*
X138335066Y-76333490D01*
X138337066Y-76333490D01*
X138340066Y-76332490D01*
X138342065Y-76332490D01*
X138345066Y-76332490D01*
X139070066Y-76332490D01*
X139070066Y-77082490D01*
G36*
X139070066Y-77082490D02*
G01*
X138345066Y-77082490D01*
X138342065Y-77082490D01*
X138340066Y-77082490D01*
X138337066Y-77081490D01*
X138335066Y-77081490D01*
X138332066Y-77080490D01*
X138330066Y-77080490D01*
X138327066Y-77079490D01*
X138325066Y-77078490D01*
X138322066Y-77077490D01*
X138320066Y-77075490D01*
X138318066Y-77074490D01*
X138316067Y-77072490D01*
X138314066Y-77071489D01*
X138312066Y-77069490D01*
X138310066Y-77067489D01*
X138308066Y-77065490D01*
X138306067Y-77063490D01*
X138305066Y-77061490D01*
X138303066Y-77059490D01*
X138302067Y-77057490D01*
X138300066Y-77055490D01*
X138299066Y-77052490D01*
X138298066Y-77050490D01*
X138297066Y-77047490D01*
X138297067Y-77045490D01*
X138296066Y-77042490D01*
X138296066Y-77040490D01*
X138295066Y-77037490D01*
X138295065Y-77035490D01*
X138295066Y-77032490D01*
X138295065Y-76932490D01*
X138295066Y-76929490D01*
X138295066Y-76927490D01*
X138296066Y-76924490D01*
X138296066Y-76922489D01*
X138297066Y-76919490D01*
X138297066Y-76917490D01*
X138298066Y-76914490D01*
X138299066Y-76912490D01*
X138300065Y-76909490D01*
X138302066Y-76907489D01*
X138303066Y-76905490D01*
X138305066Y-76903489D01*
X138306066Y-76901490D01*
X138308066Y-76899490D01*
X138310066Y-76897490D01*
X138312066Y-76895490D01*
X138314066Y-76893489D01*
X138316066Y-76892490D01*
X138318066Y-76890490D01*
X138320066Y-76889489D01*
X138322066Y-76887490D01*
X138325066Y-76886491D01*
X138327066Y-76885490D01*
X138330066Y-76884490D01*
X138332066Y-76884490D01*
X138335066Y-76883490D01*
X138337066Y-76883490D01*
X138340066Y-76882490D01*
X138342066Y-76882490D01*
X138345066Y-76882490D01*
X138820066Y-76882490D01*
X138820066Y-76532490D01*
X138345066Y-76532490D01*
X138342066Y-76532490D01*
X138340066Y-76532490D01*
X138337066Y-76531490D01*
X138335066Y-76531490D01*
X138332066Y-76530490D01*
X138330066Y-76530490D01*
X138327066Y-76529490D01*
X138325066Y-76528489D01*
X138322066Y-76527490D01*
X138320066Y-76525491D01*
X138318066Y-76524490D01*
X138316066Y-76522490D01*
X138314066Y-76521491D01*
X138312066Y-76519490D01*
X138310066Y-76517490D01*
X138308066Y-76515490D01*
X138306066Y-76513490D01*
X138305066Y-76511491D01*
X138303066Y-76509490D01*
X138302066Y-76507491D01*
X138300065Y-76505490D01*
X138299066Y-76502490D01*
X138298066Y-76500490D01*
X138297066Y-76497490D01*
X138297066Y-76495490D01*
X138296066Y-76492491D01*
X138296066Y-76490490D01*
X138295066Y-76487490D01*
X138295066Y-76485490D01*
X138295065Y-76482490D01*
X138295066Y-76382490D01*
X138295065Y-76379490D01*
X138295066Y-76377490D01*
X138296066Y-76374490D01*
X138296066Y-76372490D01*
X138297067Y-76369490D01*
X138297066Y-76367490D01*
X138298066Y-76364490D01*
X138299066Y-76362490D01*
X138300066Y-76359490D01*
X138302067Y-76357490D01*
X138303066Y-76355490D01*
X138305066Y-76353490D01*
X138306067Y-76351490D01*
X138308066Y-76349490D01*
X138310066Y-76347491D01*
X138312066Y-76345490D01*
X138314066Y-76343491D01*
X138316067Y-76342490D01*
X138318066Y-76340490D01*
X138320066Y-76339490D01*
X138322066Y-76337490D01*
X138325066Y-76336490D01*
X138327066Y-76335490D01*
X138330066Y-76334490D01*
X138332066Y-76334490D01*
X138335066Y-76333490D01*
X138337066Y-76333490D01*
X138340066Y-76332490D01*
X138342065Y-76332490D01*
X138345066Y-76332490D01*
X139070066Y-76332490D01*
X139070066Y-77082490D01*
G37*
X143153066Y-76333490D02*
X143155066Y-76333490D01*
X143158066Y-76334490D01*
X143160066Y-76334490D01*
X143163066Y-76335490D01*
X143165066Y-76336490D01*
X143168066Y-76337490D01*
X143170066Y-76339490D01*
X143172066Y-76340490D01*
X143174065Y-76342490D01*
X143176066Y-76343491D01*
X143178066Y-76345490D01*
X143180066Y-76347491D01*
X143182066Y-76349490D01*
X143184065Y-76351490D01*
X143185066Y-76353490D01*
X143187066Y-76355490D01*
X143188065Y-76357490D01*
X143190066Y-76359490D01*
X143191066Y-76362490D01*
X143192066Y-76364490D01*
X143193066Y-76367490D01*
X143193065Y-76369490D01*
X143194066Y-76372490D01*
X143194066Y-76374490D01*
X143195066Y-76377490D01*
X143195067Y-76379490D01*
X143195066Y-76382490D01*
X143195067Y-76482490D01*
X143195066Y-76485490D01*
X143195066Y-76487490D01*
X143194066Y-76490490D01*
X143194066Y-76492491D01*
X143193066Y-76495490D01*
X143193066Y-76497490D01*
X143192066Y-76500490D01*
X143191066Y-76502490D01*
X143190067Y-76505490D01*
X143188066Y-76507491D01*
X143187066Y-76509490D01*
X143185066Y-76511491D01*
X143184066Y-76513490D01*
X143182066Y-76515490D01*
X143180066Y-76517490D01*
X143178066Y-76519490D01*
X143176066Y-76521491D01*
X143174066Y-76522490D01*
X143172066Y-76524490D01*
X143170066Y-76525491D01*
X143168066Y-76527490D01*
X143165066Y-76528489D01*
X143163066Y-76529490D01*
X143160066Y-76530490D01*
X143158066Y-76530490D01*
X143155066Y-76531490D01*
X143153066Y-76531490D01*
X143150066Y-76532490D01*
X143148066Y-76532490D01*
X143145066Y-76532490D01*
X142670066Y-76532490D01*
X142670066Y-76882490D01*
X143145066Y-76882490D01*
X143148066Y-76882490D01*
X143150066Y-76882490D01*
X143153066Y-76883490D01*
X143155066Y-76883490D01*
X143158066Y-76884490D01*
X143160066Y-76884490D01*
X143163066Y-76885490D01*
X143165066Y-76886491D01*
X143168066Y-76887490D01*
X143170066Y-76889489D01*
X143172066Y-76890490D01*
X143174066Y-76892490D01*
X143176066Y-76893489D01*
X143178066Y-76895490D01*
X143180066Y-76897490D01*
X143182066Y-76899490D01*
X143184066Y-76901490D01*
X143185066Y-76903489D01*
X143187066Y-76905490D01*
X143188066Y-76907489D01*
X143190067Y-76909490D01*
X143191066Y-76912490D01*
X143192066Y-76914490D01*
X143193066Y-76917490D01*
X143193066Y-76919490D01*
X143194066Y-76922489D01*
X143194066Y-76924490D01*
X143195066Y-76927490D01*
X143195066Y-76929490D01*
X143195067Y-76932490D01*
X143195066Y-77032490D01*
X143195067Y-77035490D01*
X143195066Y-77037490D01*
X143194066Y-77040490D01*
X143194066Y-77042490D01*
X143193065Y-77045490D01*
X143193066Y-77047490D01*
X143192066Y-77050490D01*
X143191066Y-77052490D01*
X143190066Y-77055490D01*
X143188065Y-77057490D01*
X143187066Y-77059490D01*
X143185066Y-77061490D01*
X143184065Y-77063490D01*
X143182066Y-77065490D01*
X143180066Y-77067489D01*
X143178066Y-77069490D01*
X143176066Y-77071489D01*
X143174065Y-77072490D01*
X143172066Y-77074490D01*
X143170066Y-77075490D01*
X143168066Y-77077490D01*
X143165066Y-77078490D01*
X143163066Y-77079490D01*
X143160066Y-77080490D01*
X143158066Y-77080490D01*
X143155066Y-77081490D01*
X143153066Y-77081490D01*
X143150066Y-77082490D01*
X143148067Y-77082490D01*
X143145066Y-77082490D01*
X142420066Y-77082490D01*
X142420066Y-76332490D01*
X143145066Y-76332490D01*
X143148067Y-76332490D01*
X143150066Y-76332490D01*
X143153066Y-76333490D01*
G36*
X143153066Y-76333490D02*
G01*
X143155066Y-76333490D01*
X143158066Y-76334490D01*
X143160066Y-76334490D01*
X143163066Y-76335490D01*
X143165066Y-76336490D01*
X143168066Y-76337490D01*
X143170066Y-76339490D01*
X143172066Y-76340490D01*
X143174065Y-76342490D01*
X143176066Y-76343491D01*
X143178066Y-76345490D01*
X143180066Y-76347491D01*
X143182066Y-76349490D01*
X143184065Y-76351490D01*
X143185066Y-76353490D01*
X143187066Y-76355490D01*
X143188065Y-76357490D01*
X143190066Y-76359490D01*
X143191066Y-76362490D01*
X143192066Y-76364490D01*
X143193066Y-76367490D01*
X143193065Y-76369490D01*
X143194066Y-76372490D01*
X143194066Y-76374490D01*
X143195066Y-76377490D01*
X143195067Y-76379490D01*
X143195066Y-76382490D01*
X143195067Y-76482490D01*
X143195066Y-76485490D01*
X143195066Y-76487490D01*
X143194066Y-76490490D01*
X143194066Y-76492491D01*
X143193066Y-76495490D01*
X143193066Y-76497490D01*
X143192066Y-76500490D01*
X143191066Y-76502490D01*
X143190067Y-76505490D01*
X143188066Y-76507491D01*
X143187066Y-76509490D01*
X143185066Y-76511491D01*
X143184066Y-76513490D01*
X143182066Y-76515490D01*
X143180066Y-76517490D01*
X143178066Y-76519490D01*
X143176066Y-76521491D01*
X143174066Y-76522490D01*
X143172066Y-76524490D01*
X143170066Y-76525491D01*
X143168066Y-76527490D01*
X143165066Y-76528489D01*
X143163066Y-76529490D01*
X143160066Y-76530490D01*
X143158066Y-76530490D01*
X143155066Y-76531490D01*
X143153066Y-76531490D01*
X143150066Y-76532490D01*
X143148066Y-76532490D01*
X143145066Y-76532490D01*
X142670066Y-76532490D01*
X142670066Y-76882490D01*
X143145066Y-76882490D01*
X143148066Y-76882490D01*
X143150066Y-76882490D01*
X143153066Y-76883490D01*
X143155066Y-76883490D01*
X143158066Y-76884490D01*
X143160066Y-76884490D01*
X143163066Y-76885490D01*
X143165066Y-76886491D01*
X143168066Y-76887490D01*
X143170066Y-76889489D01*
X143172066Y-76890490D01*
X143174066Y-76892490D01*
X143176066Y-76893489D01*
X143178066Y-76895490D01*
X143180066Y-76897490D01*
X143182066Y-76899490D01*
X143184066Y-76901490D01*
X143185066Y-76903489D01*
X143187066Y-76905490D01*
X143188066Y-76907489D01*
X143190067Y-76909490D01*
X143191066Y-76912490D01*
X143192066Y-76914490D01*
X143193066Y-76917490D01*
X143193066Y-76919490D01*
X143194066Y-76922489D01*
X143194066Y-76924490D01*
X143195066Y-76927490D01*
X143195066Y-76929490D01*
X143195067Y-76932490D01*
X143195066Y-77032490D01*
X143195067Y-77035490D01*
X143195066Y-77037490D01*
X143194066Y-77040490D01*
X143194066Y-77042490D01*
X143193065Y-77045490D01*
X143193066Y-77047490D01*
X143192066Y-77050490D01*
X143191066Y-77052490D01*
X143190066Y-77055490D01*
X143188065Y-77057490D01*
X143187066Y-77059490D01*
X143185066Y-77061490D01*
X143184065Y-77063490D01*
X143182066Y-77065490D01*
X143180066Y-77067489D01*
X143178066Y-77069490D01*
X143176066Y-77071489D01*
X143174065Y-77072490D01*
X143172066Y-77074490D01*
X143170066Y-77075490D01*
X143168066Y-77077490D01*
X143165066Y-77078490D01*
X143163066Y-77079490D01*
X143160066Y-77080490D01*
X143158066Y-77080490D01*
X143155066Y-77081490D01*
X143153066Y-77081490D01*
X143150066Y-77082490D01*
X143148067Y-77082490D01*
X143145066Y-77082490D01*
X142420066Y-77082490D01*
X142420066Y-76332490D01*
X143145066Y-76332490D01*
X143148067Y-76332490D01*
X143150066Y-76332490D01*
X143153066Y-76333490D01*
G37*
%TD*%
D12*
%TO.C,C27*%
X146127883Y-78378084D03*
X147852885Y-78378084D03*
%TD*%
D13*
%TO.C,C34*%
X138672125Y-92861293D03*
X137204879Y-94328539D03*
%TD*%
D14*
%TO.C,D5*%
X188250075Y-99662857D03*
X188250075Y-101412855D03*
%TD*%
D15*
%TO.C,C16*%
X158689642Y-99077440D03*
X159909402Y-97857680D03*
%TD*%
D16*
%TO.C,L3*%
X142004365Y-102946403D03*
X139900723Y-100842761D03*
%TD*%
D17*
%TO.C,C2*%
X159961421Y-57830793D03*
X162036421Y-57830793D03*
%TD*%
D18*
%TO.C,D3*%
X187182524Y-71062138D03*
X186068830Y-69948446D03*
%TD*%
D19*
%TO.C,D1*%
X159971667Y-55884303D03*
X161721665Y-55884303D03*
%TD*%
D20*
%TO.C,C1*%
X149346667Y-53813009D03*
X149346667Y-56938009D03*
%TD*%
D21*
%TO.C,R14*%
X185998120Y-72423318D03*
X184707650Y-71132850D03*
%TD*%
D22*
%TO.C,D6*%
X150710618Y-98359048D03*
X149596924Y-99472742D03*
%TD*%
D23*
%TO.C,R22*%
X160450339Y-86607611D03*
X159159869Y-87898081D03*
%TD*%
D15*
%TO.C,C13*%
X166236239Y-100896472D03*
X167455999Y-99676712D03*
%TD*%
D17*
%TO.C,C31*%
X140977885Y-66578085D03*
X143052885Y-66578085D03*
%TD*%
D24*
%TO.C,U1*%
X167602829Y-75669564D03*
X167956381Y-76023117D03*
X168309936Y-76376672D03*
X168663489Y-76730224D03*
X169017044Y-77083779D03*
X169370596Y-77437332D03*
X169724149Y-77790884D03*
X171771647Y-75743386D03*
X171418095Y-75389833D03*
X171064540Y-75036278D03*
X170710987Y-74682726D03*
X170357432Y-74329171D03*
X170003880Y-73975618D03*
X169650327Y-73622066D03*
D25*
X169687238Y-75706475D03*
%TD*%
D12*
%TO.C,C24*%
X144190384Y-79978085D03*
X145915386Y-79978085D03*
%TD*%
D26*
%TO.C,R23*%
X186549650Y-105416892D03*
X186549650Y-103591892D03*
%TD*%
D13*
%TO.C,C23*%
X148041188Y-101194118D03*
X146573942Y-102661364D03*
%TD*%
D27*
%TO.C,R30*%
X139065385Y-71478084D03*
X137240385Y-71478084D03*
%TD*%
D28*
%TO.C,R11*%
X169605604Y-83014789D03*
X170896074Y-84305259D03*
%TD*%
D26*
%TO.C,R2*%
X157346667Y-58096803D03*
X157346667Y-56271803D03*
%TD*%
D29*
%TO.C,U3*%
X145018307Y-95731716D03*
X144664753Y-96085270D03*
X144311200Y-96438823D03*
X143957647Y-96792377D03*
X143604093Y-97145930D03*
X143250540Y-97499483D03*
X142896986Y-97853037D03*
X144876885Y-99832936D03*
X145230439Y-99479382D03*
X145583992Y-99125829D03*
X145937545Y-98772275D03*
X146291099Y-98418722D03*
X146644652Y-98065169D03*
X146998206Y-97711615D03*
%TD*%
D26*
%TO.C,R1*%
X151346669Y-55464303D03*
X151346669Y-53639303D03*
%TD*%
D30*
%TO.C,C19*%
X154172998Y-104371902D03*
X155640244Y-102904656D03*
%TD*%
D31*
%TO.C,R5*%
X166963320Y-68184084D03*
X166963320Y-70009084D03*
%TD*%
D32*
%TO.C,D2*%
X163959167Y-50484300D03*
X165534169Y-50484300D03*
%TD*%
D21*
%TO.C,R18*%
X169785917Y-90205015D03*
X168495447Y-88914545D03*
%TD*%
D33*
%TO.C,C3*%
X166963320Y-66551000D03*
X166963320Y-64825998D03*
%TD*%
D15*
%TO.C,C14*%
X160766768Y-101313665D03*
X161986528Y-100093905D03*
%TD*%
D13*
%TO.C,C10*%
X178383094Y-82938197D03*
X176915848Y-84405443D03*
%TD*%
D28*
%TO.C,R13*%
X171541834Y-81170429D03*
X172832304Y-82460899D03*
%TD*%
D21*
%TO.C,R20*%
X172193615Y-89246886D03*
X170903145Y-87956416D03*
%TD*%
%TO.C,R17*%
X172123788Y-92542889D03*
X170833318Y-91252419D03*
%TD*%
D26*
%TO.C,R6*%
X164030551Y-72400103D03*
X164030551Y-70575103D03*
%TD*%
D34*
%TO.C,R10*%
X175083306Y-64506325D03*
X176373776Y-63215855D03*
%TD*%
D21*
%TO.C,R16*%
X174461660Y-94880760D03*
X173171190Y-93590290D03*
%TD*%
D27*
%TO.C,R25*%
X140565386Y-79991919D03*
X138740386Y-79991919D03*
%TD*%
D13*
%TO.C,C36*%
X137257910Y-91447081D03*
X135790664Y-92914327D03*
%TD*%
D35*
%TO.C,Q1*%
X170600326Y-64989233D03*
X168700328Y-64989233D03*
X169650327Y-67264233D03*
%TD*%
D36*
%TO.C,J2*%
X160530919Y-53966801D03*
X159730919Y-53966801D03*
D37*
X158580919Y-53966801D03*
X157580919Y-53966801D03*
X157080919Y-53966801D03*
X156080919Y-53966801D03*
D36*
X154130919Y-53966801D03*
X154930919Y-53966801D03*
D37*
X155580919Y-53966801D03*
X156580919Y-53966801D03*
X158080919Y-53966801D03*
X159080919Y-53966801D03*
%TD*%
D38*
%TO.C,L1*%
X160917557Y-78677880D03*
X164205603Y-81965926D03*
%TD*%
D33*
%TO.C,C5*%
X164030550Y-69012920D03*
X164030550Y-67287918D03*
%TD*%
D39*
%TO.C,C6*%
X171017442Y-70976351D03*
X173227150Y-68766643D03*
%TD*%
D27*
%TO.C,R28*%
X139365385Y-69578084D03*
X137540385Y-69578084D03*
%TD*%
D40*
%TO.C,C9*%
X184004594Y-75503308D03*
X184004594Y-77228310D03*
%TD*%
D21*
%TO.C,R19*%
X174537675Y-91590945D03*
X173247205Y-90300475D03*
%TD*%
D17*
%TO.C,C33*%
X140977885Y-70578084D03*
X143052885Y-70578084D03*
%TD*%
D31*
%TO.C,R3*%
X155446668Y-56271802D03*
X155446668Y-58096802D03*
%TD*%
D41*
%TO.C,U2*%
X169821270Y-94582007D03*
X169372257Y-94132994D03*
X168923244Y-93683981D03*
X168474232Y-93234968D03*
X168025219Y-92785956D03*
X167576206Y-92336943D03*
X167127193Y-91887930D03*
X166678180Y-91438917D03*
X166229168Y-90989904D03*
X165780155Y-90540892D03*
X165331142Y-90091879D03*
X164882129Y-89642866D03*
X161205174Y-93319821D03*
X161654187Y-93768834D03*
X162103200Y-94217847D03*
X162552212Y-94666860D03*
X163001225Y-95115872D03*
X163450238Y-95564885D03*
X163899251Y-96013898D03*
X164348264Y-96462911D03*
X164797276Y-96911924D03*
X165246289Y-97360936D03*
X165695302Y-97809949D03*
X166144315Y-98258962D03*
%TD*%
D13*
%TO.C,C12*%
X163170932Y-101384375D03*
X161703686Y-102851621D03*
%TD*%
D42*
%TO.C,C37*%
X142377886Y-81578084D03*
X140652884Y-81578084D03*
%TD*%
D43*
%TO.C,C26*%
X143498128Y-94257829D03*
X142278368Y-93038069D03*
%TD*%
D34*
%TO.C,R9*%
X176143966Y-65566986D03*
X177434436Y-64276516D03*
%TD*%
D30*
%TO.C,C18*%
X155587213Y-105786114D03*
X157054459Y-104318868D03*
%TD*%
D42*
%TO.C,C38*%
X137115386Y-78378085D03*
X135390384Y-78378085D03*
%TD*%
D13*
%TO.C,C30*%
X141509288Y-95705200D03*
X140042042Y-97172446D03*
%TD*%
D44*
%TO.C,L2*%
X136952885Y-86970334D03*
X136952885Y-83185834D03*
%TD*%
D14*
%TO.C,D4*%
X188140641Y-103638278D03*
X188140641Y-105388276D03*
%TD*%
D34*
%TO.C,R29*%
X148412419Y-98277301D03*
X149702889Y-96986831D03*
%TD*%
D45*
%TO.C,U4*%
X138595066Y-77457491D03*
D46*
X138995066Y-78357490D03*
X139495066Y-78357490D03*
X139995066Y-78357490D03*
X140495066Y-78357490D03*
X140995066Y-78357490D03*
X141495066Y-78357490D03*
X141995066Y-78357490D03*
X142495066Y-78357490D03*
D45*
X142895066Y-77457491D03*
X142895066Y-75957489D03*
D46*
X142495066Y-75057490D03*
X141995066Y-75057490D03*
X141495066Y-75057490D03*
X140995066Y-75057490D03*
X140495066Y-75057490D03*
X139995066Y-75057490D03*
X139495066Y-75057490D03*
X138995066Y-75057490D03*
D45*
X138595066Y-75957489D03*
%TD*%
D31*
%TO.C,R4*%
X167046668Y-52171802D03*
X167046668Y-53996802D03*
%TD*%
D47*
%TO.C,C25*%
X146795014Y-100011909D03*
X145575254Y-101231669D03*
%TD*%
D17*
%TO.C,C35*%
X140977885Y-68578084D03*
X143052885Y-68578084D03*
%TD*%
D34*
%TO.C,R12*%
X177204626Y-66627646D03*
X178495096Y-65337176D03*
%TD*%
D12*
%TO.C,C28*%
X141127883Y-72707490D03*
X142852885Y-72707490D03*
%TD*%
D27*
%TO.C,R26*%
X137165385Y-74578084D03*
X135340385Y-74578084D03*
%TD*%
D12*
%TO.C,C40*%
X133990385Y-71478084D03*
X135715387Y-71478084D03*
%TD*%
D23*
%TO.C,R8*%
X175321955Y-62146356D03*
X174031485Y-63436826D03*
%TD*%
D13*
%TO.C,C32*%
X140095075Y-94290987D03*
X138627829Y-95758233D03*
%TD*%
D39*
%TO.C,C4*%
X172643788Y-72602698D03*
X174853496Y-70392990D03*
%TD*%
D26*
%TO.C,R24*%
X186482308Y-101476828D03*
X186482308Y-99651828D03*
%TD*%
D47*
%TO.C,C15*%
X160970062Y-98918340D03*
X159750302Y-100138100D03*
%TD*%
D13*
%TO.C,C8*%
X176968882Y-81523982D03*
X175501636Y-82991228D03*
%TD*%
D48*
%TO.C,Q4*%
X170554894Y-106975822D03*
X169656869Y-107873848D03*
X168758843Y-108771874D03*
X167860817Y-109669899D03*
X171360996Y-113170078D03*
X172259021Y-112272052D03*
X173157047Y-111374026D03*
X174055073Y-110476001D03*
%TD*%
%TO.C,Q3*%
X176636013Y-100894703D03*
X175737988Y-101792729D03*
X174839962Y-102690755D03*
X173941936Y-103588780D03*
X177442115Y-107088959D03*
X178340140Y-106190933D03*
X179238166Y-105292907D03*
X180136192Y-104394882D03*
%TD*%
D21*
%TO.C,R15*%
X183377036Y-73348061D03*
X182086566Y-72057591D03*
%TD*%
%TO.C,R21*%
X169835415Y-86888685D03*
X168544945Y-85598215D03*
%TD*%
D26*
%TO.C,R7*%
X162574231Y-72400103D03*
X162574231Y-70575103D03*
%TD*%
D12*
%TO.C,C39*%
X137290384Y-73078084D03*
X139015386Y-73078084D03*
%TD*%
D30*
%TO.C,C17*%
X157001426Y-107200328D03*
X158468672Y-105733082D03*
%TD*%
D31*
%TO.C,R27*%
X139352885Y-66265584D03*
X139352885Y-68090584D03*
%TD*%
D49*
%TO.C,Q2*%
X173892966Y-81258819D03*
X175236468Y-79915317D03*
X172956049Y-78978400D03*
%TD*%
D17*
%TO.C,C22*%
X144277885Y-86978085D03*
X146352885Y-86978085D03*
%TD*%
D13*
%TO.C,C21*%
X149455403Y-102608330D03*
X147988157Y-104075576D03*
%TD*%
D17*
%TO.C,C29*%
X140977885Y-64578084D03*
X143052885Y-64578084D03*
%TD*%
D13*
%TO.C,C11*%
X168721720Y-100995467D03*
X167254474Y-102462713D03*
%TD*%
D17*
%TO.C,C20*%
X144277885Y-84978083D03*
X146352885Y-84978083D03*
%TD*%
D40*
%TO.C,C7*%
X182448959Y-75517281D03*
X182448959Y-77242283D03*
%TD*%
M02*
