%TF.GenerationSoftware,KiCad,Pcbnew,8.0.4*%
%TF.CreationDate,2024-11-01T13:20:14+09:00*%
%TF.ProjectId,Avio-BMS,4176696f-2d42-44d5-932e-6b696361645f,rev?*%
%TF.SameCoordinates,Original*%
%TF.FileFunction,Legend,Top*%
%TF.FilePolarity,Positive*%
%FSLAX46Y46*%
G04 Gerber Fmt 4.6, Leading zero omitted, Abs format (unit mm)*
G04 Created by KiCad (PCBNEW 8.0.4) date 2024-11-01 13:20:14*
%MOMM*%
%LPD*%
G01*
G04 APERTURE LIST*
%ADD10C,0.100000*%
%ADD11C,0.150000*%
%ADD12C,0.120000*%
%ADD13C,0.152400*%
%ADD14C,0.127000*%
%ADD15C,0.200000*%
G04 APERTURE END LIST*
D10*
X146346669Y-63784301D02*
X146346669Y-62684301D01*
X146346669Y-62284301D02*
X146346669Y-61184301D01*
X146346669Y-60784301D02*
X146346669Y-59684301D01*
X146346669Y-59284301D02*
X146346669Y-58184301D01*
X146346669Y-57784301D02*
X146346669Y-56684301D01*
X146346669Y-56284301D02*
X146346669Y-55184301D01*
X146346669Y-54784301D02*
X146346669Y-53684301D01*
X146346669Y-53284301D02*
X146346669Y-52184301D01*
X146346669Y-51784301D02*
X146346669Y-50684301D01*
X146346669Y-50284301D02*
X146346669Y-49184301D01*
X171346667Y-63784301D02*
X171346667Y-62684301D01*
X171346667Y-62284301D02*
X171346667Y-61184301D01*
X171346667Y-60784301D02*
X171346667Y-59684301D01*
X171346667Y-59284301D02*
X171346667Y-58184301D01*
X171346667Y-57784301D02*
X171346667Y-56684301D01*
X171346667Y-56284301D02*
X171346667Y-55184301D01*
X171346667Y-54784301D02*
X171346667Y-53684301D01*
X171346667Y-53284301D02*
X171346667Y-52184301D01*
X171346667Y-51784301D02*
X171346667Y-50684301D01*
X171346667Y-50284301D02*
X171346667Y-49184301D01*
X171346667Y-63784301D02*
X170246667Y-63784301D01*
X169846667Y-63784301D02*
X168746667Y-63784301D01*
X168346667Y-63784301D02*
X167246667Y-63784301D01*
X166846667Y-63784301D02*
X165746667Y-63784301D01*
X165346667Y-63784301D02*
X164246667Y-63784301D01*
X163846667Y-63784301D02*
X162746667Y-63784301D01*
X162346667Y-63784301D02*
X161246667Y-63784301D01*
X160846667Y-63784301D02*
X159746667Y-63784301D01*
X159346667Y-63784301D02*
X158246667Y-63784301D01*
X157846667Y-63784301D02*
X156746667Y-63784301D01*
X156346667Y-63784301D02*
X155246667Y-63784301D01*
X154846667Y-63784301D02*
X153746667Y-63784301D01*
X153346667Y-63784301D02*
X152246667Y-63784301D01*
X151846667Y-63784301D02*
X150746667Y-63784301D01*
X150346667Y-63784301D02*
X149246667Y-63784301D01*
X148846667Y-63784301D02*
X147746667Y-63784301D01*
X147346667Y-63784301D02*
X146346669Y-63784301D01*
D11*
X149530345Y-78737664D02*
X149482726Y-78785284D01*
X149482726Y-78785284D02*
X149339869Y-78832903D01*
X149339869Y-78832903D02*
X149244631Y-78832903D01*
X149244631Y-78832903D02*
X149101774Y-78785284D01*
X149101774Y-78785284D02*
X149006536Y-78690045D01*
X149006536Y-78690045D02*
X148958917Y-78594807D01*
X148958917Y-78594807D02*
X148911298Y-78404331D01*
X148911298Y-78404331D02*
X148911298Y-78261474D01*
X148911298Y-78261474D02*
X148958917Y-78070998D01*
X148958917Y-78070998D02*
X149006536Y-77975760D01*
X149006536Y-77975760D02*
X149101774Y-77880522D01*
X149101774Y-77880522D02*
X149244631Y-77832903D01*
X149244631Y-77832903D02*
X149339869Y-77832903D01*
X149339869Y-77832903D02*
X149482726Y-77880522D01*
X149482726Y-77880522D02*
X149530345Y-77928141D01*
X149911298Y-77928141D02*
X149958917Y-77880522D01*
X149958917Y-77880522D02*
X150054155Y-77832903D01*
X150054155Y-77832903D02*
X150292250Y-77832903D01*
X150292250Y-77832903D02*
X150387488Y-77880522D01*
X150387488Y-77880522D02*
X150435107Y-77928141D01*
X150435107Y-77928141D02*
X150482726Y-78023379D01*
X150482726Y-78023379D02*
X150482726Y-78118617D01*
X150482726Y-78118617D02*
X150435107Y-78261474D01*
X150435107Y-78261474D02*
X149863679Y-78832903D01*
X149863679Y-78832903D02*
X150482726Y-78832903D01*
X150816060Y-77832903D02*
X151482726Y-77832903D01*
X151482726Y-77832903D02*
X151054155Y-78832903D01*
X135289838Y-96752103D02*
X135289838Y-96819447D01*
X135289838Y-96819447D02*
X135222494Y-96954134D01*
X135222494Y-96954134D02*
X135155151Y-97021477D01*
X135155151Y-97021477D02*
X135020464Y-97088821D01*
X135020464Y-97088821D02*
X134885777Y-97088821D01*
X134885777Y-97088821D02*
X134784762Y-97055149D01*
X134784762Y-97055149D02*
X134616403Y-96954134D01*
X134616403Y-96954134D02*
X134515388Y-96853119D01*
X134515388Y-96853119D02*
X134414372Y-96684760D01*
X134414372Y-96684760D02*
X134380701Y-96583745D01*
X134380701Y-96583745D02*
X134380701Y-96449058D01*
X134380701Y-96449058D02*
X134448044Y-96314371D01*
X134448044Y-96314371D02*
X134515388Y-96247027D01*
X134515388Y-96247027D02*
X134650075Y-96179684D01*
X134650075Y-96179684D02*
X134717418Y-96179684D01*
X134885777Y-95876638D02*
X135323510Y-95438905D01*
X135323510Y-95438905D02*
X135357181Y-95943981D01*
X135357181Y-95943981D02*
X135458197Y-95842966D01*
X135458197Y-95842966D02*
X135559212Y-95809294D01*
X135559212Y-95809294D02*
X135626555Y-95809294D01*
X135626555Y-95809294D02*
X135727571Y-95842966D01*
X135727571Y-95842966D02*
X135895929Y-96011325D01*
X135895929Y-96011325D02*
X135929601Y-96112340D01*
X135929601Y-96112340D02*
X135929601Y-96179684D01*
X135929601Y-96179684D02*
X135895929Y-96280699D01*
X135895929Y-96280699D02*
X135693899Y-96482729D01*
X135693899Y-96482729D02*
X135592884Y-96516401D01*
X135592884Y-96516401D02*
X135525540Y-96516401D01*
X136165304Y-95068516D02*
X136636708Y-95539920D01*
X135727571Y-94967500D02*
X136064288Y-95640935D01*
X136064288Y-95640935D02*
X136502021Y-95203203D01*
X150500520Y-73883751D02*
X151214805Y-73883751D01*
X151214805Y-73883751D02*
X151357662Y-73931370D01*
X151357662Y-73931370D02*
X151452901Y-74026608D01*
X151452901Y-74026608D02*
X151500520Y-74169465D01*
X151500520Y-74169465D02*
X151500520Y-74264703D01*
X150500520Y-72931370D02*
X150500520Y-73407560D01*
X150500520Y-73407560D02*
X150976710Y-73455179D01*
X150976710Y-73455179D02*
X150929091Y-73407560D01*
X150929091Y-73407560D02*
X150881472Y-73312322D01*
X150881472Y-73312322D02*
X150881472Y-73074227D01*
X150881472Y-73074227D02*
X150929091Y-72978989D01*
X150929091Y-72978989D02*
X150976710Y-72931370D01*
X150976710Y-72931370D02*
X151071948Y-72883751D01*
X151071948Y-72883751D02*
X151310043Y-72883751D01*
X151310043Y-72883751D02*
X151405281Y-72931370D01*
X151405281Y-72931370D02*
X151452901Y-72978989D01*
X151452901Y-72978989D02*
X151500520Y-73074227D01*
X151500520Y-73074227D02*
X151500520Y-73312322D01*
X151500520Y-73312322D02*
X151452901Y-73407560D01*
X151452901Y-73407560D02*
X151405281Y-73455179D01*
X190260529Y-101019579D02*
X189260529Y-101019579D01*
X189260529Y-101019579D02*
X189260529Y-100781484D01*
X189260529Y-100781484D02*
X189308148Y-100638627D01*
X189308148Y-100638627D02*
X189403386Y-100543389D01*
X189403386Y-100543389D02*
X189498624Y-100495770D01*
X189498624Y-100495770D02*
X189689100Y-100448151D01*
X189689100Y-100448151D02*
X189831957Y-100448151D01*
X189831957Y-100448151D02*
X190022433Y-100495770D01*
X190022433Y-100495770D02*
X190117671Y-100543389D01*
X190117671Y-100543389D02*
X190212910Y-100638627D01*
X190212910Y-100638627D02*
X190260529Y-100781484D01*
X190260529Y-100781484D02*
X190260529Y-101019579D01*
X189260529Y-99543389D02*
X189260529Y-100019579D01*
X189260529Y-100019579D02*
X189736719Y-100067198D01*
X189736719Y-100067198D02*
X189689100Y-100019579D01*
X189689100Y-100019579D02*
X189641481Y-99924341D01*
X189641481Y-99924341D02*
X189641481Y-99686246D01*
X189641481Y-99686246D02*
X189689100Y-99591008D01*
X189689100Y-99591008D02*
X189736719Y-99543389D01*
X189736719Y-99543389D02*
X189831957Y-99495770D01*
X189831957Y-99495770D02*
X190070052Y-99495770D01*
X190070052Y-99495770D02*
X190165290Y-99543389D01*
X190165290Y-99543389D02*
X190212910Y-99591008D01*
X190212910Y-99591008D02*
X190260529Y-99686246D01*
X190260529Y-99686246D02*
X190260529Y-99924341D01*
X190260529Y-99924341D02*
X190212910Y-100019579D01*
X190212910Y-100019579D02*
X190165290Y-100067198D01*
X156977895Y-101297710D02*
X156977895Y-101365054D01*
X156977895Y-101365054D02*
X156910551Y-101499741D01*
X156910551Y-101499741D02*
X156843208Y-101567084D01*
X156843208Y-101567084D02*
X156708521Y-101634428D01*
X156708521Y-101634428D02*
X156573834Y-101634428D01*
X156573834Y-101634428D02*
X156472819Y-101600756D01*
X156472819Y-101600756D02*
X156304460Y-101499741D01*
X156304460Y-101499741D02*
X156203445Y-101398726D01*
X156203445Y-101398726D02*
X156102429Y-101230367D01*
X156102429Y-101230367D02*
X156068758Y-101129352D01*
X156068758Y-101129352D02*
X156068758Y-100994665D01*
X156068758Y-100994665D02*
X156136101Y-100859978D01*
X156136101Y-100859978D02*
X156203445Y-100792634D01*
X156203445Y-100792634D02*
X156338132Y-100725291D01*
X156338132Y-100725291D02*
X156405475Y-100725291D01*
X157718673Y-100691619D02*
X157314612Y-101095680D01*
X157516643Y-100893649D02*
X156809536Y-100186543D01*
X156809536Y-100186543D02*
X156843208Y-100354901D01*
X156843208Y-100354901D02*
X156843208Y-100489588D01*
X156843208Y-100489588D02*
X156809536Y-100590604D01*
X157617658Y-99378420D02*
X157482971Y-99513107D01*
X157482971Y-99513107D02*
X157449300Y-99614123D01*
X157449300Y-99614123D02*
X157449300Y-99681466D01*
X157449300Y-99681466D02*
X157482971Y-99849825D01*
X157482971Y-99849825D02*
X157583987Y-100018184D01*
X157583987Y-100018184D02*
X157853361Y-100287558D01*
X157853361Y-100287558D02*
X157954376Y-100321229D01*
X157954376Y-100321229D02*
X158021719Y-100321229D01*
X158021719Y-100321229D02*
X158122735Y-100287558D01*
X158122735Y-100287558D02*
X158257422Y-100152871D01*
X158257422Y-100152871D02*
X158291093Y-100051855D01*
X158291093Y-100051855D02*
X158291093Y-99984512D01*
X158291093Y-99984512D02*
X158257422Y-99883497D01*
X158257422Y-99883497D02*
X158089063Y-99715138D01*
X158089063Y-99715138D02*
X157988048Y-99681466D01*
X157988048Y-99681466D02*
X157920704Y-99681466D01*
X157920704Y-99681466D02*
X157819689Y-99715138D01*
X157819689Y-99715138D02*
X157685002Y-99849825D01*
X157685002Y-99849825D02*
X157651330Y-99950840D01*
X157651330Y-99950840D02*
X157651330Y-100018184D01*
X157651330Y-100018184D02*
X157685002Y-100119199D01*
X138900884Y-103710539D02*
X138564166Y-103373822D01*
X138564166Y-103373822D02*
X139271273Y-102666715D01*
X139776350Y-103171791D02*
X140214082Y-103609524D01*
X140214082Y-103609524D02*
X139709006Y-103643196D01*
X139709006Y-103643196D02*
X139810021Y-103744211D01*
X139810021Y-103744211D02*
X139843693Y-103845226D01*
X139843693Y-103845226D02*
X139843693Y-103912570D01*
X139843693Y-103912570D02*
X139810021Y-104013585D01*
X139810021Y-104013585D02*
X139641663Y-104181944D01*
X139641663Y-104181944D02*
X139540647Y-104215616D01*
X139540647Y-104215616D02*
X139473304Y-104215616D01*
X139473304Y-104215616D02*
X139372289Y-104181944D01*
X139372289Y-104181944D02*
X139170258Y-103979913D01*
X139170258Y-103979913D02*
X139136586Y-103878898D01*
X139136586Y-103878898D02*
X139136586Y-103811555D01*
X163980000Y-58190373D02*
X163932381Y-58237993D01*
X163932381Y-58237993D02*
X163789524Y-58285612D01*
X163789524Y-58285612D02*
X163694286Y-58285612D01*
X163694286Y-58285612D02*
X163551429Y-58237993D01*
X163551429Y-58237993D02*
X163456191Y-58142754D01*
X163456191Y-58142754D02*
X163408572Y-58047516D01*
X163408572Y-58047516D02*
X163360953Y-57857040D01*
X163360953Y-57857040D02*
X163360953Y-57714183D01*
X163360953Y-57714183D02*
X163408572Y-57523707D01*
X163408572Y-57523707D02*
X163456191Y-57428469D01*
X163456191Y-57428469D02*
X163551429Y-57333231D01*
X163551429Y-57333231D02*
X163694286Y-57285612D01*
X163694286Y-57285612D02*
X163789524Y-57285612D01*
X163789524Y-57285612D02*
X163932381Y-57333231D01*
X163932381Y-57333231D02*
X163980000Y-57380850D01*
X164360953Y-57380850D02*
X164408572Y-57333231D01*
X164408572Y-57333231D02*
X164503810Y-57285612D01*
X164503810Y-57285612D02*
X164741905Y-57285612D01*
X164741905Y-57285612D02*
X164837143Y-57333231D01*
X164837143Y-57333231D02*
X164884762Y-57380850D01*
X164884762Y-57380850D02*
X164932381Y-57476088D01*
X164932381Y-57476088D02*
X164932381Y-57571326D01*
X164932381Y-57571326D02*
X164884762Y-57714183D01*
X164884762Y-57714183D02*
X164313334Y-58285612D01*
X164313334Y-58285612D02*
X164932381Y-58285612D01*
X183503150Y-68175202D02*
X184210257Y-67468096D01*
X184210257Y-67468096D02*
X184378616Y-67636454D01*
X184378616Y-67636454D02*
X184445959Y-67771141D01*
X184445959Y-67771141D02*
X184445959Y-67905828D01*
X184445959Y-67905828D02*
X184412287Y-68006844D01*
X184412287Y-68006844D02*
X184311272Y-68175202D01*
X184311272Y-68175202D02*
X184210257Y-68276218D01*
X184210257Y-68276218D02*
X184041898Y-68377233D01*
X184041898Y-68377233D02*
X183940883Y-68410905D01*
X183940883Y-68410905D02*
X183806196Y-68410905D01*
X183806196Y-68410905D02*
X183671509Y-68343561D01*
X183671509Y-68343561D02*
X183503150Y-68175202D01*
X184850020Y-68107859D02*
X185287753Y-68545592D01*
X185287753Y-68545592D02*
X184782677Y-68579263D01*
X184782677Y-68579263D02*
X184883692Y-68680279D01*
X184883692Y-68680279D02*
X184917364Y-68781294D01*
X184917364Y-68781294D02*
X184917364Y-68848637D01*
X184917364Y-68848637D02*
X184883692Y-68949653D01*
X184883692Y-68949653D02*
X184715333Y-69118011D01*
X184715333Y-69118011D02*
X184614318Y-69151683D01*
X184614318Y-69151683D02*
X184546974Y-69151683D01*
X184546974Y-69151683D02*
X184445959Y-69118011D01*
X184445959Y-69118011D02*
X184243929Y-68915981D01*
X184243929Y-68915981D02*
X184210257Y-68814966D01*
X184210257Y-68814966D02*
X184210257Y-68747622D01*
X163408572Y-56339122D02*
X163408572Y-55339122D01*
X163408572Y-55339122D02*
X163646667Y-55339122D01*
X163646667Y-55339122D02*
X163789524Y-55386741D01*
X163789524Y-55386741D02*
X163884762Y-55481979D01*
X163884762Y-55481979D02*
X163932381Y-55577217D01*
X163932381Y-55577217D02*
X163980000Y-55767693D01*
X163980000Y-55767693D02*
X163980000Y-55910550D01*
X163980000Y-55910550D02*
X163932381Y-56101026D01*
X163932381Y-56101026D02*
X163884762Y-56196264D01*
X163884762Y-56196264D02*
X163789524Y-56291503D01*
X163789524Y-56291503D02*
X163646667Y-56339122D01*
X163646667Y-56339122D02*
X163408572Y-56339122D01*
X164932381Y-56339122D02*
X164360953Y-56339122D01*
X164646667Y-56339122D02*
X164646667Y-55339122D01*
X164646667Y-55339122D02*
X164551429Y-55481979D01*
X164551429Y-55481979D02*
X164456191Y-55577217D01*
X164456191Y-55577217D02*
X164360953Y-55624836D01*
X149706247Y-51542175D02*
X149753867Y-51589794D01*
X149753867Y-51589794D02*
X149801486Y-51732651D01*
X149801486Y-51732651D02*
X149801486Y-51827889D01*
X149801486Y-51827889D02*
X149753867Y-51970746D01*
X149753867Y-51970746D02*
X149658628Y-52065984D01*
X149658628Y-52065984D02*
X149563390Y-52113603D01*
X149563390Y-52113603D02*
X149372914Y-52161222D01*
X149372914Y-52161222D02*
X149230057Y-52161222D01*
X149230057Y-52161222D02*
X149039581Y-52113603D01*
X149039581Y-52113603D02*
X148944343Y-52065984D01*
X148944343Y-52065984D02*
X148849105Y-51970746D01*
X148849105Y-51970746D02*
X148801486Y-51827889D01*
X148801486Y-51827889D02*
X148801486Y-51732651D01*
X148801486Y-51732651D02*
X148849105Y-51589794D01*
X148849105Y-51589794D02*
X148896724Y-51542175D01*
X149801486Y-50589794D02*
X149801486Y-51161222D01*
X149801486Y-50875508D02*
X148801486Y-50875508D01*
X148801486Y-50875508D02*
X148944343Y-50970746D01*
X148944343Y-50970746D02*
X149039581Y-51065984D01*
X149039581Y-51065984D02*
X149087200Y-51161222D01*
X182170492Y-69042546D02*
X182271507Y-68470127D01*
X181766431Y-68638485D02*
X182473538Y-67931379D01*
X182473538Y-67931379D02*
X182742912Y-68200753D01*
X182742912Y-68200753D02*
X182776584Y-68301768D01*
X182776584Y-68301768D02*
X182776584Y-68369111D01*
X182776584Y-68369111D02*
X182742912Y-68470127D01*
X182742912Y-68470127D02*
X182641897Y-68571142D01*
X182641897Y-68571142D02*
X182540881Y-68604814D01*
X182540881Y-68604814D02*
X182473538Y-68604814D01*
X182473538Y-68604814D02*
X182372523Y-68571142D01*
X182372523Y-68571142D02*
X182103149Y-68301768D01*
X182843927Y-69715981D02*
X182439866Y-69311920D01*
X182641897Y-69513951D02*
X183349003Y-68806844D01*
X183349003Y-68806844D02*
X183180645Y-68840516D01*
X183180645Y-68840516D02*
X183045958Y-68840516D01*
X183045958Y-68840516D02*
X182944942Y-68806844D01*
X183921423Y-69850669D02*
X183450019Y-70322073D01*
X184022439Y-69412936D02*
X183349004Y-69749653D01*
X183349004Y-69749653D02*
X183786736Y-70187386D01*
X152136656Y-97576220D02*
X151429550Y-96869113D01*
X151429550Y-96869113D02*
X151597908Y-96700754D01*
X151597908Y-96700754D02*
X151732595Y-96633411D01*
X151732595Y-96633411D02*
X151867282Y-96633411D01*
X151867282Y-96633411D02*
X151968298Y-96667083D01*
X151968298Y-96667083D02*
X152136656Y-96768098D01*
X152136656Y-96768098D02*
X152237672Y-96869113D01*
X152237672Y-96869113D02*
X152338687Y-97037472D01*
X152338687Y-97037472D02*
X152372359Y-97138487D01*
X152372359Y-97138487D02*
X152372359Y-97273174D01*
X152372359Y-97273174D02*
X152305015Y-97407861D01*
X152305015Y-97407861D02*
X152136656Y-97576220D01*
X152439702Y-95858961D02*
X152305015Y-95993648D01*
X152305015Y-95993648D02*
X152271343Y-96094663D01*
X152271343Y-96094663D02*
X152271343Y-96162006D01*
X152271343Y-96162006D02*
X152305015Y-96330365D01*
X152305015Y-96330365D02*
X152406030Y-96498724D01*
X152406030Y-96498724D02*
X152675404Y-96768098D01*
X152675404Y-96768098D02*
X152776420Y-96801770D01*
X152776420Y-96801770D02*
X152843763Y-96801770D01*
X152843763Y-96801770D02*
X152944778Y-96768098D01*
X152944778Y-96768098D02*
X153079465Y-96633411D01*
X153079465Y-96633411D02*
X153113137Y-96532396D01*
X153113137Y-96532396D02*
X153113137Y-96465052D01*
X153113137Y-96465052D02*
X153079465Y-96364037D01*
X153079465Y-96364037D02*
X152911107Y-96195678D01*
X152911107Y-96195678D02*
X152810091Y-96162006D01*
X152810091Y-96162006D02*
X152742748Y-96162006D01*
X152742748Y-96162006D02*
X152641733Y-96195678D01*
X152641733Y-96195678D02*
X152507046Y-96330365D01*
X152507046Y-96330365D02*
X152473374Y-96431380D01*
X152473374Y-96431380D02*
X152473374Y-96498724D01*
X152473374Y-96498724D02*
X152507046Y-96599739D01*
X157515464Y-90256406D02*
X156943045Y-90155391D01*
X157111403Y-90660467D02*
X156404297Y-89953360D01*
X156404297Y-89953360D02*
X156673671Y-89683986D01*
X156673671Y-89683986D02*
X156774686Y-89650314D01*
X156774686Y-89650314D02*
X156842029Y-89650314D01*
X156842029Y-89650314D02*
X156943045Y-89683986D01*
X156943045Y-89683986D02*
X157044060Y-89785001D01*
X157044060Y-89785001D02*
X157077732Y-89886017D01*
X157077732Y-89886017D02*
X157077732Y-89953360D01*
X157077732Y-89953360D02*
X157044060Y-90054375D01*
X157044060Y-90054375D02*
X156774686Y-90323749D01*
X157145075Y-89347269D02*
X157145075Y-89279925D01*
X157145075Y-89279925D02*
X157178747Y-89178910D01*
X157178747Y-89178910D02*
X157347106Y-89010551D01*
X157347106Y-89010551D02*
X157448121Y-88976879D01*
X157448121Y-88976879D02*
X157515464Y-88976879D01*
X157515464Y-88976879D02*
X157616480Y-89010551D01*
X157616480Y-89010551D02*
X157683823Y-89077895D01*
X157683823Y-89077895D02*
X157751167Y-89212582D01*
X157751167Y-89212582D02*
X157751167Y-90020704D01*
X157751167Y-90020704D02*
X158188899Y-89582971D01*
X157818510Y-88673833D02*
X157818510Y-88606490D01*
X157818510Y-88606490D02*
X157852182Y-88505475D01*
X157852182Y-88505475D02*
X158020541Y-88337116D01*
X158020541Y-88337116D02*
X158121556Y-88303444D01*
X158121556Y-88303444D02*
X158188900Y-88303444D01*
X158188900Y-88303444D02*
X158289915Y-88337116D01*
X158289915Y-88337116D02*
X158357258Y-88404459D01*
X158357258Y-88404459D02*
X158424602Y-88539146D01*
X158424602Y-88539146D02*
X158424602Y-89347268D01*
X158424602Y-89347268D02*
X158862335Y-88909536D01*
X164524492Y-103116742D02*
X164524492Y-103184086D01*
X164524492Y-103184086D02*
X164457148Y-103318773D01*
X164457148Y-103318773D02*
X164389805Y-103386116D01*
X164389805Y-103386116D02*
X164255118Y-103453460D01*
X164255118Y-103453460D02*
X164120431Y-103453460D01*
X164120431Y-103453460D02*
X164019416Y-103419788D01*
X164019416Y-103419788D02*
X163851057Y-103318773D01*
X163851057Y-103318773D02*
X163750042Y-103217758D01*
X163750042Y-103217758D02*
X163649026Y-103049399D01*
X163649026Y-103049399D02*
X163615355Y-102948384D01*
X163615355Y-102948384D02*
X163615355Y-102813697D01*
X163615355Y-102813697D02*
X163682698Y-102679010D01*
X163682698Y-102679010D02*
X163750042Y-102611666D01*
X163750042Y-102611666D02*
X163884729Y-102544323D01*
X163884729Y-102544323D02*
X163952072Y-102544323D01*
X165265270Y-102510651D02*
X164861209Y-102914712D01*
X165063240Y-102712681D02*
X164356133Y-102005575D01*
X164356133Y-102005575D02*
X164389805Y-102173933D01*
X164389805Y-102173933D02*
X164389805Y-102308620D01*
X164389805Y-102308620D02*
X164356133Y-102409636D01*
X164793866Y-101567842D02*
X165231599Y-101130109D01*
X165231599Y-101130109D02*
X165265271Y-101635185D01*
X165265271Y-101635185D02*
X165366286Y-101534170D01*
X165366286Y-101534170D02*
X165467301Y-101500498D01*
X165467301Y-101500498D02*
X165534645Y-101500498D01*
X165534645Y-101500498D02*
X165635660Y-101534170D01*
X165635660Y-101534170D02*
X165804019Y-101702529D01*
X165804019Y-101702529D02*
X165837690Y-101803544D01*
X165837690Y-101803544D02*
X165837690Y-101870887D01*
X165837690Y-101870887D02*
X165804019Y-101971903D01*
X165804019Y-101971903D02*
X165601988Y-102173933D01*
X165601988Y-102173933D02*
X165500973Y-102207605D01*
X165500973Y-102207605D02*
X165433629Y-102207605D01*
X144910027Y-66937665D02*
X144862408Y-66985285D01*
X144862408Y-66985285D02*
X144719551Y-67032904D01*
X144719551Y-67032904D02*
X144624313Y-67032904D01*
X144624313Y-67032904D02*
X144481456Y-66985285D01*
X144481456Y-66985285D02*
X144386218Y-66890046D01*
X144386218Y-66890046D02*
X144338599Y-66794808D01*
X144338599Y-66794808D02*
X144290980Y-66604332D01*
X144290980Y-66604332D02*
X144290980Y-66461475D01*
X144290980Y-66461475D02*
X144338599Y-66270999D01*
X144338599Y-66270999D02*
X144386218Y-66175761D01*
X144386218Y-66175761D02*
X144481456Y-66080523D01*
X144481456Y-66080523D02*
X144624313Y-66032904D01*
X144624313Y-66032904D02*
X144719551Y-66032904D01*
X144719551Y-66032904D02*
X144862408Y-66080523D01*
X144862408Y-66080523D02*
X144910027Y-66128142D01*
X145243361Y-66032904D02*
X145862408Y-66032904D01*
X145862408Y-66032904D02*
X145529075Y-66413856D01*
X145529075Y-66413856D02*
X145671932Y-66413856D01*
X145671932Y-66413856D02*
X145767170Y-66461475D01*
X145767170Y-66461475D02*
X145814789Y-66509094D01*
X145814789Y-66509094D02*
X145862408Y-66604332D01*
X145862408Y-66604332D02*
X145862408Y-66842427D01*
X145862408Y-66842427D02*
X145814789Y-66937665D01*
X145814789Y-66937665D02*
X145767170Y-66985285D01*
X145767170Y-66985285D02*
X145671932Y-67032904D01*
X145671932Y-67032904D02*
X145386218Y-67032904D01*
X145386218Y-67032904D02*
X145290980Y-66985285D01*
X145290980Y-66985285D02*
X145243361Y-66937665D01*
X146814789Y-67032904D02*
X146243361Y-67032904D01*
X146529075Y-67032904D02*
X146529075Y-66032904D01*
X146529075Y-66032904D02*
X146433837Y-66175761D01*
X146433837Y-66175761D02*
X146338599Y-66270999D01*
X146338599Y-66270999D02*
X146243361Y-66318618D01*
X168762988Y-75859721D02*
X169335408Y-76432141D01*
X169335408Y-76432141D02*
X169436423Y-76465813D01*
X169436423Y-76465813D02*
X169503767Y-76465813D01*
X169503767Y-76465813D02*
X169604782Y-76432141D01*
X169604782Y-76432141D02*
X169739469Y-76297454D01*
X169739469Y-76297454D02*
X169773141Y-76196439D01*
X169773141Y-76196439D02*
X169773141Y-76129095D01*
X169773141Y-76129095D02*
X169739469Y-76028080D01*
X169739469Y-76028080D02*
X169167049Y-75455660D01*
X170581263Y-75455660D02*
X170177202Y-75859721D01*
X170379232Y-75657691D02*
X169672126Y-74950584D01*
X169672126Y-74950584D02*
X169705797Y-75118943D01*
X169705797Y-75118943D02*
X169705797Y-75253630D01*
X169705797Y-75253630D02*
X169672126Y-75354645D01*
X144510027Y-81737665D02*
X144462408Y-81785285D01*
X144462408Y-81785285D02*
X144319551Y-81832904D01*
X144319551Y-81832904D02*
X144224313Y-81832904D01*
X144224313Y-81832904D02*
X144081456Y-81785285D01*
X144081456Y-81785285D02*
X143986218Y-81690046D01*
X143986218Y-81690046D02*
X143938599Y-81594808D01*
X143938599Y-81594808D02*
X143890980Y-81404332D01*
X143890980Y-81404332D02*
X143890980Y-81261475D01*
X143890980Y-81261475D02*
X143938599Y-81070999D01*
X143938599Y-81070999D02*
X143986218Y-80975761D01*
X143986218Y-80975761D02*
X144081456Y-80880523D01*
X144081456Y-80880523D02*
X144224313Y-80832904D01*
X144224313Y-80832904D02*
X144319551Y-80832904D01*
X144319551Y-80832904D02*
X144462408Y-80880523D01*
X144462408Y-80880523D02*
X144510027Y-80928142D01*
X144890980Y-80928142D02*
X144938599Y-80880523D01*
X144938599Y-80880523D02*
X145033837Y-80832904D01*
X145033837Y-80832904D02*
X145271932Y-80832904D01*
X145271932Y-80832904D02*
X145367170Y-80880523D01*
X145367170Y-80880523D02*
X145414789Y-80928142D01*
X145414789Y-80928142D02*
X145462408Y-81023380D01*
X145462408Y-81023380D02*
X145462408Y-81118618D01*
X145462408Y-81118618D02*
X145414789Y-81261475D01*
X145414789Y-81261475D02*
X144843361Y-81832904D01*
X144843361Y-81832904D02*
X145462408Y-81832904D01*
X146319551Y-81166237D02*
X146319551Y-81832904D01*
X146081456Y-80785285D02*
X145843361Y-81499570D01*
X145843361Y-81499570D02*
X146462408Y-81499570D01*
X185413479Y-105111894D02*
X184937288Y-105445227D01*
X185413479Y-105683322D02*
X184413479Y-105683322D01*
X184413479Y-105683322D02*
X184413479Y-105302370D01*
X184413479Y-105302370D02*
X184461098Y-105207132D01*
X184461098Y-105207132D02*
X184508717Y-105159513D01*
X184508717Y-105159513D02*
X184603955Y-105111894D01*
X184603955Y-105111894D02*
X184746812Y-105111894D01*
X184746812Y-105111894D02*
X184842050Y-105159513D01*
X184842050Y-105159513D02*
X184889669Y-105207132D01*
X184889669Y-105207132D02*
X184937288Y-105302370D01*
X184937288Y-105302370D02*
X184937288Y-105683322D01*
X184508717Y-104730941D02*
X184461098Y-104683322D01*
X184461098Y-104683322D02*
X184413479Y-104588084D01*
X184413479Y-104588084D02*
X184413479Y-104349989D01*
X184413479Y-104349989D02*
X184461098Y-104254751D01*
X184461098Y-104254751D02*
X184508717Y-104207132D01*
X184508717Y-104207132D02*
X184603955Y-104159513D01*
X184603955Y-104159513D02*
X184699193Y-104159513D01*
X184699193Y-104159513D02*
X184842050Y-104207132D01*
X184842050Y-104207132D02*
X185413479Y-104778560D01*
X185413479Y-104778560D02*
X185413479Y-104159513D01*
X184413479Y-103826179D02*
X184413479Y-103207132D01*
X184413479Y-103207132D02*
X184794431Y-103540465D01*
X184794431Y-103540465D02*
X184794431Y-103397608D01*
X184794431Y-103397608D02*
X184842050Y-103302370D01*
X184842050Y-103302370D02*
X184889669Y-103254751D01*
X184889669Y-103254751D02*
X184984907Y-103207132D01*
X184984907Y-103207132D02*
X185223002Y-103207132D01*
X185223002Y-103207132D02*
X185318240Y-103254751D01*
X185318240Y-103254751D02*
X185365860Y-103302370D01*
X185365860Y-103302370D02*
X185413479Y-103397608D01*
X185413479Y-103397608D02*
X185413479Y-103683322D01*
X185413479Y-103683322D02*
X185365860Y-103778560D01*
X185365860Y-103778560D02*
X185318240Y-103826179D01*
X144782745Y-105078287D02*
X144782745Y-105145631D01*
X144782745Y-105145631D02*
X144715401Y-105280318D01*
X144715401Y-105280318D02*
X144648058Y-105347661D01*
X144648058Y-105347661D02*
X144513371Y-105415005D01*
X144513371Y-105415005D02*
X144378684Y-105415005D01*
X144378684Y-105415005D02*
X144277669Y-105381333D01*
X144277669Y-105381333D02*
X144109310Y-105280318D01*
X144109310Y-105280318D02*
X144008295Y-105179303D01*
X144008295Y-105179303D02*
X143907279Y-105010944D01*
X143907279Y-105010944D02*
X143873608Y-104909929D01*
X143873608Y-104909929D02*
X143873608Y-104775242D01*
X143873608Y-104775242D02*
X143940951Y-104640555D01*
X143940951Y-104640555D02*
X144008295Y-104573211D01*
X144008295Y-104573211D02*
X144142982Y-104505868D01*
X144142982Y-104505868D02*
X144210325Y-104505868D01*
X144479699Y-104236494D02*
X144479699Y-104169150D01*
X144479699Y-104169150D02*
X144513371Y-104068135D01*
X144513371Y-104068135D02*
X144681730Y-103899776D01*
X144681730Y-103899776D02*
X144782745Y-103866104D01*
X144782745Y-103866104D02*
X144850088Y-103866104D01*
X144850088Y-103866104D02*
X144951104Y-103899776D01*
X144951104Y-103899776D02*
X145018447Y-103967120D01*
X145018447Y-103967120D02*
X145085791Y-104101807D01*
X145085791Y-104101807D02*
X145085791Y-104909929D01*
X145085791Y-104909929D02*
X145523523Y-104472196D01*
X145052119Y-103529387D02*
X145489852Y-103091654D01*
X145489852Y-103091654D02*
X145523524Y-103596730D01*
X145523524Y-103596730D02*
X145624539Y-103495715D01*
X145624539Y-103495715D02*
X145725554Y-103462043D01*
X145725554Y-103462043D02*
X145792898Y-103462043D01*
X145792898Y-103462043D02*
X145893913Y-103495715D01*
X145893913Y-103495715D02*
X146062272Y-103664074D01*
X146062272Y-103664074D02*
X146095943Y-103765089D01*
X146095943Y-103765089D02*
X146095943Y-103832432D01*
X146095943Y-103832432D02*
X146062272Y-103933448D01*
X146062272Y-103933448D02*
X145860241Y-104135478D01*
X145860241Y-104135478D02*
X145759226Y-104169150D01*
X145759226Y-104169150D02*
X145691882Y-104169150D01*
X131210027Y-71932903D02*
X130876694Y-71456712D01*
X130638599Y-71932903D02*
X130638599Y-70932903D01*
X130638599Y-70932903D02*
X131019551Y-70932903D01*
X131019551Y-70932903D02*
X131114789Y-70980522D01*
X131114789Y-70980522D02*
X131162408Y-71028141D01*
X131162408Y-71028141D02*
X131210027Y-71123379D01*
X131210027Y-71123379D02*
X131210027Y-71266236D01*
X131210027Y-71266236D02*
X131162408Y-71361474D01*
X131162408Y-71361474D02*
X131114789Y-71409093D01*
X131114789Y-71409093D02*
X131019551Y-71456712D01*
X131019551Y-71456712D02*
X130638599Y-71456712D01*
X131543361Y-70932903D02*
X132162408Y-70932903D01*
X132162408Y-70932903D02*
X131829075Y-71313855D01*
X131829075Y-71313855D02*
X131971932Y-71313855D01*
X131971932Y-71313855D02*
X132067170Y-71361474D01*
X132067170Y-71361474D02*
X132114789Y-71409093D01*
X132114789Y-71409093D02*
X132162408Y-71504331D01*
X132162408Y-71504331D02*
X132162408Y-71742426D01*
X132162408Y-71742426D02*
X132114789Y-71837664D01*
X132114789Y-71837664D02*
X132067170Y-71885284D01*
X132067170Y-71885284D02*
X131971932Y-71932903D01*
X131971932Y-71932903D02*
X131686218Y-71932903D01*
X131686218Y-71932903D02*
X131590980Y-71885284D01*
X131590980Y-71885284D02*
X131543361Y-71837664D01*
X132781456Y-70932903D02*
X132876694Y-70932903D01*
X132876694Y-70932903D02*
X132971932Y-70980522D01*
X132971932Y-70980522D02*
X133019551Y-71028141D01*
X133019551Y-71028141D02*
X133067170Y-71123379D01*
X133067170Y-71123379D02*
X133114789Y-71313855D01*
X133114789Y-71313855D02*
X133114789Y-71551950D01*
X133114789Y-71551950D02*
X133067170Y-71742426D01*
X133067170Y-71742426D02*
X133019551Y-71837664D01*
X133019551Y-71837664D02*
X132971932Y-71885284D01*
X132971932Y-71885284D02*
X132876694Y-71932903D01*
X132876694Y-71932903D02*
X132781456Y-71932903D01*
X132781456Y-71932903D02*
X132686218Y-71885284D01*
X132686218Y-71885284D02*
X132638599Y-71837664D01*
X132638599Y-71837664D02*
X132590980Y-71742426D01*
X132590980Y-71742426D02*
X132543361Y-71551950D01*
X132543361Y-71551950D02*
X132543361Y-71313855D01*
X132543361Y-71313855D02*
X132590980Y-71123379D01*
X132590980Y-71123379D02*
X132638599Y-71028141D01*
X132638599Y-71028141D02*
X132686218Y-70980522D01*
X132686218Y-70980522D02*
X132781456Y-70932903D01*
X171666695Y-85719091D02*
X171767710Y-85146672D01*
X171262634Y-85315030D02*
X171969741Y-84607924D01*
X171969741Y-84607924D02*
X172239115Y-84877298D01*
X172239115Y-84877298D02*
X172272787Y-84978313D01*
X172272787Y-84978313D02*
X172272787Y-85045656D01*
X172272787Y-85045656D02*
X172239115Y-85146672D01*
X172239115Y-85146672D02*
X172138100Y-85247687D01*
X172138100Y-85247687D02*
X172037084Y-85281359D01*
X172037084Y-85281359D02*
X171969741Y-85281359D01*
X171969741Y-85281359D02*
X171868726Y-85247687D01*
X171868726Y-85247687D02*
X171599352Y-84978313D01*
X172340130Y-86392526D02*
X171936069Y-85988465D01*
X172138100Y-86190496D02*
X172845206Y-85483389D01*
X172845206Y-85483389D02*
X172676848Y-85517061D01*
X172676848Y-85517061D02*
X172542161Y-85517061D01*
X172542161Y-85517061D02*
X172441145Y-85483389D01*
X173013565Y-87065962D02*
X172609504Y-86661901D01*
X172811535Y-86863931D02*
X173518642Y-86156824D01*
X173518642Y-86156824D02*
X173350283Y-86190496D01*
X173350283Y-86190496D02*
X173215596Y-86190496D01*
X173215596Y-86190496D02*
X173114581Y-86156824D01*
X157601486Y-60250969D02*
X157125295Y-60584302D01*
X157601486Y-60822397D02*
X156601486Y-60822397D01*
X156601486Y-60822397D02*
X156601486Y-60441445D01*
X156601486Y-60441445D02*
X156649105Y-60346207D01*
X156649105Y-60346207D02*
X156696724Y-60298588D01*
X156696724Y-60298588D02*
X156791962Y-60250969D01*
X156791962Y-60250969D02*
X156934819Y-60250969D01*
X156934819Y-60250969D02*
X157030057Y-60298588D01*
X157030057Y-60298588D02*
X157077676Y-60346207D01*
X157077676Y-60346207D02*
X157125295Y-60441445D01*
X157125295Y-60441445D02*
X157125295Y-60822397D01*
X156696724Y-59870016D02*
X156649105Y-59822397D01*
X156649105Y-59822397D02*
X156601486Y-59727159D01*
X156601486Y-59727159D02*
X156601486Y-59489064D01*
X156601486Y-59489064D02*
X156649105Y-59393826D01*
X156649105Y-59393826D02*
X156696724Y-59346207D01*
X156696724Y-59346207D02*
X156791962Y-59298588D01*
X156791962Y-59298588D02*
X156887200Y-59298588D01*
X156887200Y-59298588D02*
X157030057Y-59346207D01*
X157030057Y-59346207D02*
X157601486Y-59917635D01*
X157601486Y-59917635D02*
X157601486Y-59298588D01*
X147106042Y-94979536D02*
X146739693Y-95345885D01*
X146739693Y-95345885D02*
X146718143Y-95410535D01*
X146718143Y-95410535D02*
X146718143Y-95453635D01*
X146718143Y-95453635D02*
X146739693Y-95518284D01*
X146739693Y-95518284D02*
X146825893Y-95604484D01*
X146825893Y-95604484D02*
X146890543Y-95626034D01*
X146890543Y-95626034D02*
X146933643Y-95626034D01*
X146933643Y-95626034D02*
X146998292Y-95604484D01*
X146998292Y-95604484D02*
X147364641Y-95238136D01*
X147537040Y-95410535D02*
X147817189Y-95690684D01*
X147817189Y-95690684D02*
X147493940Y-95712234D01*
X147493940Y-95712234D02*
X147558590Y-95776883D01*
X147558590Y-95776883D02*
X147580140Y-95841533D01*
X147580140Y-95841533D02*
X147580140Y-95884633D01*
X147580140Y-95884633D02*
X147558590Y-95949283D01*
X147558590Y-95949283D02*
X147450841Y-96057032D01*
X147450841Y-96057032D02*
X147386191Y-96078582D01*
X147386191Y-96078582D02*
X147343091Y-96078582D01*
X147343091Y-96078582D02*
X147278441Y-96057032D01*
X147278441Y-96057032D02*
X147149142Y-95927733D01*
X147149142Y-95927733D02*
X147127592Y-95863083D01*
X147127592Y-95863083D02*
X147127592Y-95819983D01*
X151801488Y-51450970D02*
X151325297Y-51784303D01*
X151801488Y-52022398D02*
X150801488Y-52022398D01*
X150801488Y-52022398D02*
X150801488Y-51641446D01*
X150801488Y-51641446D02*
X150849107Y-51546208D01*
X150849107Y-51546208D02*
X150896726Y-51498589D01*
X150896726Y-51498589D02*
X150991964Y-51450970D01*
X150991964Y-51450970D02*
X151134821Y-51450970D01*
X151134821Y-51450970D02*
X151230059Y-51498589D01*
X151230059Y-51498589D02*
X151277678Y-51546208D01*
X151277678Y-51546208D02*
X151325297Y-51641446D01*
X151325297Y-51641446D02*
X151325297Y-52022398D01*
X151801488Y-50498589D02*
X151801488Y-51070017D01*
X151801488Y-50784303D02*
X150801488Y-50784303D01*
X150801488Y-50784303D02*
X150944345Y-50879541D01*
X150944345Y-50879541D02*
X151039583Y-50974779D01*
X151039583Y-50974779D02*
X151087202Y-51070017D01*
X143431008Y-106315357D02*
X143835069Y-106719418D01*
X142925932Y-107224494D02*
X143633039Y-106517387D01*
X143363665Y-107662227D02*
X144070772Y-106955120D01*
X144070772Y-106955120D02*
X144340146Y-107224494D01*
X144340146Y-107224494D02*
X144373817Y-107325510D01*
X144373817Y-107325510D02*
X144373817Y-107392853D01*
X144373817Y-107392853D02*
X144340146Y-107493868D01*
X144340146Y-107493868D02*
X144239130Y-107594884D01*
X144239130Y-107594884D02*
X144138115Y-107628555D01*
X144138115Y-107628555D02*
X144070772Y-107628555D01*
X144070772Y-107628555D02*
X143969756Y-107594884D01*
X143969756Y-107594884D02*
X143700382Y-107325510D01*
X145080924Y-107965273D02*
X144946237Y-107830586D01*
X144946237Y-107830586D02*
X144845222Y-107796914D01*
X144845222Y-107796914D02*
X144777878Y-107796914D01*
X144777878Y-107796914D02*
X144609520Y-107830586D01*
X144609520Y-107830586D02*
X144441161Y-107931601D01*
X144441161Y-107931601D02*
X144171787Y-108200975D01*
X144171787Y-108200975D02*
X144138115Y-108301990D01*
X144138115Y-108301990D02*
X144138115Y-108369334D01*
X144138115Y-108369334D02*
X144171787Y-108470349D01*
X144171787Y-108470349D02*
X144306474Y-108605036D01*
X144306474Y-108605036D02*
X144407489Y-108638708D01*
X144407489Y-108638708D02*
X144474833Y-108638708D01*
X144474833Y-108638708D02*
X144575848Y-108605036D01*
X144575848Y-108605036D02*
X144744207Y-108436677D01*
X144744207Y-108436677D02*
X144777878Y-108335662D01*
X144777878Y-108335662D02*
X144777878Y-108268319D01*
X144777878Y-108268319D02*
X144744207Y-108167303D01*
X144744207Y-108167303D02*
X144609520Y-108032616D01*
X144609520Y-108032616D02*
X144508504Y-107998945D01*
X144508504Y-107998945D02*
X144441161Y-107998945D01*
X144441161Y-107998945D02*
X144340146Y-108032616D01*
X152314525Y-106710613D02*
X152314525Y-106777957D01*
X152314525Y-106777957D02*
X152247181Y-106912644D01*
X152247181Y-106912644D02*
X152179838Y-106979987D01*
X152179838Y-106979987D02*
X152045151Y-107047331D01*
X152045151Y-107047331D02*
X151910464Y-107047331D01*
X151910464Y-107047331D02*
X151809449Y-107013659D01*
X151809449Y-107013659D02*
X151641090Y-106912644D01*
X151641090Y-106912644D02*
X151540075Y-106811629D01*
X151540075Y-106811629D02*
X151439059Y-106643270D01*
X151439059Y-106643270D02*
X151405388Y-106542255D01*
X151405388Y-106542255D02*
X151405388Y-106407568D01*
X151405388Y-106407568D02*
X151472731Y-106272881D01*
X151472731Y-106272881D02*
X151540075Y-106205537D01*
X151540075Y-106205537D02*
X151674762Y-106138194D01*
X151674762Y-106138194D02*
X151742105Y-106138194D01*
X153055303Y-106104522D02*
X152651242Y-106508583D01*
X152853273Y-106306552D02*
X152146166Y-105599446D01*
X152146166Y-105599446D02*
X152179838Y-105767804D01*
X152179838Y-105767804D02*
X152179838Y-105902491D01*
X152179838Y-105902491D02*
X152146166Y-106003507D01*
X153392021Y-105767804D02*
X153526708Y-105633117D01*
X153526708Y-105633117D02*
X153560380Y-105532102D01*
X153560380Y-105532102D02*
X153560380Y-105464758D01*
X153560380Y-105464758D02*
X153526708Y-105296400D01*
X153526708Y-105296400D02*
X153425693Y-105128041D01*
X153425693Y-105128041D02*
X153156319Y-104858667D01*
X153156319Y-104858667D02*
X153055304Y-104824995D01*
X153055304Y-104824995D02*
X152987960Y-104824995D01*
X152987960Y-104824995D02*
X152886945Y-104858667D01*
X152886945Y-104858667D02*
X152752258Y-104993354D01*
X152752258Y-104993354D02*
X152718586Y-105094369D01*
X152718586Y-105094369D02*
X152718586Y-105161713D01*
X152718586Y-105161713D02*
X152752258Y-105262728D01*
X152752258Y-105262728D02*
X152920617Y-105431087D01*
X152920617Y-105431087D02*
X153021632Y-105464758D01*
X153021632Y-105464758D02*
X153088975Y-105464758D01*
X153088975Y-105464758D02*
X153189991Y-105431087D01*
X153189991Y-105431087D02*
X153324678Y-105296400D01*
X153324678Y-105296400D02*
X153358349Y-105195384D01*
X153358349Y-105195384D02*
X153358349Y-105128041D01*
X153358349Y-105128041D02*
X153324678Y-105027026D01*
X166101486Y-69242175D02*
X165625295Y-69575508D01*
X166101486Y-69813603D02*
X165101486Y-69813603D01*
X165101486Y-69813603D02*
X165101486Y-69432651D01*
X165101486Y-69432651D02*
X165149105Y-69337413D01*
X165149105Y-69337413D02*
X165196724Y-69289794D01*
X165196724Y-69289794D02*
X165291962Y-69242175D01*
X165291962Y-69242175D02*
X165434819Y-69242175D01*
X165434819Y-69242175D02*
X165530057Y-69289794D01*
X165530057Y-69289794D02*
X165577676Y-69337413D01*
X165577676Y-69337413D02*
X165625295Y-69432651D01*
X165625295Y-69432651D02*
X165625295Y-69813603D01*
X165101486Y-68337413D02*
X165101486Y-68813603D01*
X165101486Y-68813603D02*
X165577676Y-68861222D01*
X165577676Y-68861222D02*
X165530057Y-68813603D01*
X165530057Y-68813603D02*
X165482438Y-68718365D01*
X165482438Y-68718365D02*
X165482438Y-68480270D01*
X165482438Y-68480270D02*
X165530057Y-68385032D01*
X165530057Y-68385032D02*
X165577676Y-68337413D01*
X165577676Y-68337413D02*
X165672914Y-68289794D01*
X165672914Y-68289794D02*
X165911009Y-68289794D01*
X165911009Y-68289794D02*
X166006247Y-68337413D01*
X166006247Y-68337413D02*
X166053867Y-68385032D01*
X166053867Y-68385032D02*
X166101486Y-68480270D01*
X166101486Y-68480270D02*
X166101486Y-68718365D01*
X166101486Y-68718365D02*
X166053867Y-68813603D01*
X166053867Y-68813603D02*
X166006247Y-68861222D01*
X164008573Y-49339119D02*
X164008573Y-48339119D01*
X164008573Y-48339119D02*
X164246668Y-48339119D01*
X164246668Y-48339119D02*
X164389525Y-48386738D01*
X164389525Y-48386738D02*
X164484763Y-48481976D01*
X164484763Y-48481976D02*
X164532382Y-48577214D01*
X164532382Y-48577214D02*
X164580001Y-48767690D01*
X164580001Y-48767690D02*
X164580001Y-48910547D01*
X164580001Y-48910547D02*
X164532382Y-49101023D01*
X164532382Y-49101023D02*
X164484763Y-49196261D01*
X164484763Y-49196261D02*
X164389525Y-49291500D01*
X164389525Y-49291500D02*
X164246668Y-49339119D01*
X164246668Y-49339119D02*
X164008573Y-49339119D01*
X164960954Y-48434357D02*
X165008573Y-48386738D01*
X165008573Y-48386738D02*
X165103811Y-48339119D01*
X165103811Y-48339119D02*
X165341906Y-48339119D01*
X165341906Y-48339119D02*
X165437144Y-48386738D01*
X165437144Y-48386738D02*
X165484763Y-48434357D01*
X165484763Y-48434357D02*
X165532382Y-48529595D01*
X165532382Y-48529595D02*
X165532382Y-48624833D01*
X165532382Y-48624833D02*
X165484763Y-48767690D01*
X165484763Y-48767690D02*
X164913335Y-49339119D01*
X164913335Y-49339119D02*
X165532382Y-49339119D01*
X129201488Y-90367634D02*
X129915773Y-90367634D01*
X129915773Y-90367634D02*
X130058630Y-90415253D01*
X130058630Y-90415253D02*
X130153869Y-90510491D01*
X130153869Y-90510491D02*
X130201488Y-90653348D01*
X130201488Y-90653348D02*
X130201488Y-90748586D01*
X129201488Y-89462872D02*
X129201488Y-89653348D01*
X129201488Y-89653348D02*
X129249107Y-89748586D01*
X129249107Y-89748586D02*
X129296726Y-89796205D01*
X129296726Y-89796205D02*
X129439583Y-89891443D01*
X129439583Y-89891443D02*
X129630059Y-89939062D01*
X129630059Y-89939062D02*
X130011011Y-89939062D01*
X130011011Y-89939062D02*
X130106249Y-89891443D01*
X130106249Y-89891443D02*
X130153869Y-89843824D01*
X130153869Y-89843824D02*
X130201488Y-89748586D01*
X130201488Y-89748586D02*
X130201488Y-89558110D01*
X130201488Y-89558110D02*
X130153869Y-89462872D01*
X130153869Y-89462872D02*
X130106249Y-89415253D01*
X130106249Y-89415253D02*
X130011011Y-89367634D01*
X130011011Y-89367634D02*
X129772916Y-89367634D01*
X129772916Y-89367634D02*
X129677678Y-89415253D01*
X129677678Y-89415253D02*
X129630059Y-89462872D01*
X129630059Y-89462872D02*
X129582440Y-89558110D01*
X129582440Y-89558110D02*
X129582440Y-89748586D01*
X129582440Y-89748586D02*
X129630059Y-89843824D01*
X129630059Y-89843824D02*
X129677678Y-89891443D01*
X129677678Y-89891443D02*
X129772916Y-89939062D01*
X167353344Y-90437979D02*
X167454359Y-89865560D01*
X166949283Y-90033918D02*
X167656390Y-89326812D01*
X167656390Y-89326812D02*
X167925764Y-89596186D01*
X167925764Y-89596186D02*
X167959436Y-89697201D01*
X167959436Y-89697201D02*
X167959436Y-89764544D01*
X167959436Y-89764544D02*
X167925764Y-89865560D01*
X167925764Y-89865560D02*
X167824749Y-89966575D01*
X167824749Y-89966575D02*
X167723733Y-90000247D01*
X167723733Y-90000247D02*
X167656390Y-90000247D01*
X167656390Y-90000247D02*
X167555375Y-89966575D01*
X167555375Y-89966575D02*
X167286001Y-89697201D01*
X168026779Y-91111414D02*
X167622718Y-90707353D01*
X167824749Y-90909384D02*
X168531855Y-90202277D01*
X168531855Y-90202277D02*
X168363497Y-90235949D01*
X168363497Y-90235949D02*
X168228810Y-90235949D01*
X168228810Y-90235949D02*
X168127794Y-90202277D01*
X168834901Y-91111415D02*
X168801230Y-91010399D01*
X168801230Y-91010399D02*
X168801230Y-90943056D01*
X168801230Y-90943056D02*
X168834901Y-90842041D01*
X168834901Y-90842041D02*
X168868573Y-90808369D01*
X168868573Y-90808369D02*
X168969588Y-90774697D01*
X168969588Y-90774697D02*
X169036932Y-90774697D01*
X169036932Y-90774697D02*
X169137947Y-90808369D01*
X169137947Y-90808369D02*
X169272634Y-90943056D01*
X169272634Y-90943056D02*
X169306306Y-91044071D01*
X169306306Y-91044071D02*
X169306306Y-91111415D01*
X169306306Y-91111415D02*
X169272634Y-91212430D01*
X169272634Y-91212430D02*
X169238962Y-91246102D01*
X169238962Y-91246102D02*
X169137947Y-91279773D01*
X169137947Y-91279773D02*
X169070604Y-91279773D01*
X169070604Y-91279773D02*
X168969588Y-91246102D01*
X168969588Y-91246102D02*
X168834901Y-91111415D01*
X168834901Y-91111415D02*
X168733886Y-91077743D01*
X168733886Y-91077743D02*
X168666543Y-91077743D01*
X168666543Y-91077743D02*
X168565527Y-91111415D01*
X168565527Y-91111415D02*
X168430840Y-91246102D01*
X168430840Y-91246102D02*
X168397169Y-91347117D01*
X168397169Y-91347117D02*
X168397169Y-91414460D01*
X168397169Y-91414460D02*
X168430840Y-91515476D01*
X168430840Y-91515476D02*
X168565527Y-91650163D01*
X168565527Y-91650163D02*
X168666543Y-91683834D01*
X168666543Y-91683834D02*
X168733886Y-91683834D01*
X168733886Y-91683834D02*
X168834901Y-91650163D01*
X168834901Y-91650163D02*
X168969588Y-91515476D01*
X168969588Y-91515476D02*
X169003260Y-91414460D01*
X169003260Y-91414460D02*
X169003260Y-91347117D01*
X169003260Y-91347117D02*
X168969588Y-91246102D01*
X166006247Y-65842175D02*
X166053867Y-65889794D01*
X166053867Y-65889794D02*
X166101486Y-66032651D01*
X166101486Y-66032651D02*
X166101486Y-66127889D01*
X166101486Y-66127889D02*
X166053867Y-66270746D01*
X166053867Y-66270746D02*
X165958628Y-66365984D01*
X165958628Y-66365984D02*
X165863390Y-66413603D01*
X165863390Y-66413603D02*
X165672914Y-66461222D01*
X165672914Y-66461222D02*
X165530057Y-66461222D01*
X165530057Y-66461222D02*
X165339581Y-66413603D01*
X165339581Y-66413603D02*
X165244343Y-66365984D01*
X165244343Y-66365984D02*
X165149105Y-66270746D01*
X165149105Y-66270746D02*
X165101486Y-66127889D01*
X165101486Y-66127889D02*
X165101486Y-66032651D01*
X165101486Y-66032651D02*
X165149105Y-65889794D01*
X165149105Y-65889794D02*
X165196724Y-65842175D01*
X165101486Y-65508841D02*
X165101486Y-64889794D01*
X165101486Y-64889794D02*
X165482438Y-65223127D01*
X165482438Y-65223127D02*
X165482438Y-65080270D01*
X165482438Y-65080270D02*
X165530057Y-64985032D01*
X165530057Y-64985032D02*
X165577676Y-64937413D01*
X165577676Y-64937413D02*
X165672914Y-64889794D01*
X165672914Y-64889794D02*
X165911009Y-64889794D01*
X165911009Y-64889794D02*
X166006247Y-64937413D01*
X166006247Y-64937413D02*
X166053867Y-64985032D01*
X166053867Y-64985032D02*
X166101486Y-65080270D01*
X166101486Y-65080270D02*
X166101486Y-65365984D01*
X166101486Y-65365984D02*
X166053867Y-65461222D01*
X166053867Y-65461222D02*
X166006247Y-65508841D01*
X159055021Y-103533935D02*
X159055021Y-103601279D01*
X159055021Y-103601279D02*
X158987677Y-103735966D01*
X158987677Y-103735966D02*
X158920334Y-103803309D01*
X158920334Y-103803309D02*
X158785647Y-103870653D01*
X158785647Y-103870653D02*
X158650960Y-103870653D01*
X158650960Y-103870653D02*
X158549945Y-103836981D01*
X158549945Y-103836981D02*
X158381586Y-103735966D01*
X158381586Y-103735966D02*
X158280571Y-103634951D01*
X158280571Y-103634951D02*
X158179555Y-103466592D01*
X158179555Y-103466592D02*
X158145884Y-103365577D01*
X158145884Y-103365577D02*
X158145884Y-103230890D01*
X158145884Y-103230890D02*
X158213227Y-103096203D01*
X158213227Y-103096203D02*
X158280571Y-103028859D01*
X158280571Y-103028859D02*
X158415258Y-102961516D01*
X158415258Y-102961516D02*
X158482601Y-102961516D01*
X159795799Y-102927844D02*
X159391738Y-103331905D01*
X159593769Y-103129874D02*
X158886662Y-102422768D01*
X158886662Y-102422768D02*
X158920334Y-102591126D01*
X158920334Y-102591126D02*
X158920334Y-102725813D01*
X158920334Y-102725813D02*
X158886662Y-102826829D01*
X159930487Y-101850348D02*
X160401891Y-102321752D01*
X159492754Y-101749332D02*
X159829471Y-102422767D01*
X159829471Y-102422767D02*
X160267204Y-101985035D01*
X173611764Y-84024991D02*
X173712779Y-83452572D01*
X173207703Y-83620930D02*
X173914810Y-82913824D01*
X173914810Y-82913824D02*
X174184184Y-83183198D01*
X174184184Y-83183198D02*
X174217856Y-83284213D01*
X174217856Y-83284213D02*
X174217856Y-83351556D01*
X174217856Y-83351556D02*
X174184184Y-83452572D01*
X174184184Y-83452572D02*
X174083169Y-83553587D01*
X174083169Y-83553587D02*
X173982153Y-83587259D01*
X173982153Y-83587259D02*
X173914810Y-83587259D01*
X173914810Y-83587259D02*
X173813795Y-83553587D01*
X173813795Y-83553587D02*
X173544421Y-83284213D01*
X174285199Y-84698426D02*
X173881138Y-84294365D01*
X174083169Y-84496396D02*
X174790275Y-83789289D01*
X174790275Y-83789289D02*
X174621917Y-83822961D01*
X174621917Y-83822961D02*
X174487230Y-83822961D01*
X174487230Y-83822961D02*
X174386214Y-83789289D01*
X175228008Y-84227022D02*
X175665741Y-84664755D01*
X175665741Y-84664755D02*
X175160665Y-84698427D01*
X175160665Y-84698427D02*
X175261680Y-84799442D01*
X175261680Y-84799442D02*
X175295352Y-84900457D01*
X175295352Y-84900457D02*
X175295352Y-84967801D01*
X175295352Y-84967801D02*
X175261680Y-85068816D01*
X175261680Y-85068816D02*
X175093321Y-85237175D01*
X175093321Y-85237175D02*
X174992306Y-85270846D01*
X174992306Y-85270846D02*
X174924963Y-85270846D01*
X174924963Y-85270846D02*
X174823947Y-85237175D01*
X174823947Y-85237175D02*
X174621917Y-85035144D01*
X174621917Y-85035144D02*
X174588245Y-84934129D01*
X174588245Y-84934129D02*
X174588245Y-84866785D01*
X171832865Y-87408027D02*
X171933880Y-86835608D01*
X171428804Y-87003966D02*
X172135911Y-86296860D01*
X172135911Y-86296860D02*
X172405285Y-86566234D01*
X172405285Y-86566234D02*
X172438957Y-86667249D01*
X172438957Y-86667249D02*
X172438957Y-86734592D01*
X172438957Y-86734592D02*
X172405285Y-86835608D01*
X172405285Y-86835608D02*
X172304270Y-86936623D01*
X172304270Y-86936623D02*
X172203254Y-86970295D01*
X172203254Y-86970295D02*
X172135911Y-86970295D01*
X172135911Y-86970295D02*
X172034896Y-86936623D01*
X172034896Y-86936623D02*
X171765522Y-86667249D01*
X172742002Y-87037638D02*
X172809346Y-87037638D01*
X172809346Y-87037638D02*
X172910361Y-87071310D01*
X172910361Y-87071310D02*
X173078720Y-87239669D01*
X173078720Y-87239669D02*
X173112392Y-87340684D01*
X173112392Y-87340684D02*
X173112392Y-87408027D01*
X173112392Y-87408027D02*
X173078720Y-87509043D01*
X173078720Y-87509043D02*
X173011376Y-87576386D01*
X173011376Y-87576386D02*
X172876689Y-87643730D01*
X172876689Y-87643730D02*
X172068567Y-87643730D01*
X172068567Y-87643730D02*
X172506300Y-88081462D01*
X173651140Y-87812089D02*
X173718483Y-87879432D01*
X173718483Y-87879432D02*
X173752155Y-87980447D01*
X173752155Y-87980447D02*
X173752155Y-88047791D01*
X173752155Y-88047791D02*
X173718483Y-88148806D01*
X173718483Y-88148806D02*
X173617468Y-88317165D01*
X173617468Y-88317165D02*
X173449109Y-88485524D01*
X173449109Y-88485524D02*
X173280751Y-88586539D01*
X173280751Y-88586539D02*
X173179735Y-88620211D01*
X173179735Y-88620211D02*
X173112392Y-88620211D01*
X173112392Y-88620211D02*
X173011377Y-88586539D01*
X173011377Y-88586539D02*
X172944033Y-88519195D01*
X172944033Y-88519195D02*
X172910361Y-88418180D01*
X172910361Y-88418180D02*
X172910361Y-88350837D01*
X172910361Y-88350837D02*
X172944033Y-88249821D01*
X172944033Y-88249821D02*
X173045048Y-88081463D01*
X173045048Y-88081463D02*
X173213407Y-87913104D01*
X173213407Y-87913104D02*
X173381766Y-87812089D01*
X173381766Y-87812089D02*
X173482781Y-87778417D01*
X173482781Y-87778417D02*
X173550125Y-87778417D01*
X173550125Y-87778417D02*
X173651140Y-87812089D01*
X169691215Y-92775853D02*
X169792230Y-92203434D01*
X169287154Y-92371792D02*
X169994261Y-91664686D01*
X169994261Y-91664686D02*
X170263635Y-91934060D01*
X170263635Y-91934060D02*
X170297307Y-92035075D01*
X170297307Y-92035075D02*
X170297307Y-92102418D01*
X170297307Y-92102418D02*
X170263635Y-92203434D01*
X170263635Y-92203434D02*
X170162620Y-92304449D01*
X170162620Y-92304449D02*
X170061604Y-92338121D01*
X170061604Y-92338121D02*
X169994261Y-92338121D01*
X169994261Y-92338121D02*
X169893246Y-92304449D01*
X169893246Y-92304449D02*
X169623872Y-92035075D01*
X170364650Y-93449288D02*
X169960589Y-93045227D01*
X170162620Y-93247258D02*
X170869726Y-92540151D01*
X170869726Y-92540151D02*
X170701368Y-92573823D01*
X170701368Y-92573823D02*
X170566681Y-92573823D01*
X170566681Y-92573823D02*
X170465665Y-92540151D01*
X171307459Y-92977884D02*
X171778864Y-93449289D01*
X171778864Y-93449289D02*
X170768711Y-93853350D01*
X166001486Y-71641769D02*
X165525295Y-71975102D01*
X166001486Y-72213197D02*
X165001486Y-72213197D01*
X165001486Y-72213197D02*
X165001486Y-71832245D01*
X165001486Y-71832245D02*
X165049105Y-71737007D01*
X165049105Y-71737007D02*
X165096724Y-71689388D01*
X165096724Y-71689388D02*
X165191962Y-71641769D01*
X165191962Y-71641769D02*
X165334819Y-71641769D01*
X165334819Y-71641769D02*
X165430057Y-71689388D01*
X165430057Y-71689388D02*
X165477676Y-71737007D01*
X165477676Y-71737007D02*
X165525295Y-71832245D01*
X165525295Y-71832245D02*
X165525295Y-72213197D01*
X165001486Y-70784626D02*
X165001486Y-70975102D01*
X165001486Y-70975102D02*
X165049105Y-71070340D01*
X165049105Y-71070340D02*
X165096724Y-71117959D01*
X165096724Y-71117959D02*
X165239581Y-71213197D01*
X165239581Y-71213197D02*
X165430057Y-71260816D01*
X165430057Y-71260816D02*
X165811009Y-71260816D01*
X165811009Y-71260816D02*
X165906247Y-71213197D01*
X165906247Y-71213197D02*
X165953867Y-71165578D01*
X165953867Y-71165578D02*
X166001486Y-71070340D01*
X166001486Y-71070340D02*
X166001486Y-70879864D01*
X166001486Y-70879864D02*
X165953867Y-70784626D01*
X165953867Y-70784626D02*
X165906247Y-70737007D01*
X165906247Y-70737007D02*
X165811009Y-70689388D01*
X165811009Y-70689388D02*
X165572914Y-70689388D01*
X165572914Y-70689388D02*
X165477676Y-70737007D01*
X165477676Y-70737007D02*
X165430057Y-70784626D01*
X165430057Y-70784626D02*
X165382438Y-70879864D01*
X165382438Y-70879864D02*
X165382438Y-71070340D01*
X165382438Y-71070340D02*
X165430057Y-71165578D01*
X165430057Y-71165578D02*
X165477676Y-71213197D01*
X165477676Y-71213197D02*
X165572914Y-71260816D01*
X177813703Y-62351683D02*
X177241284Y-62250668D01*
X177409642Y-62755744D02*
X176702536Y-62048637D01*
X176702536Y-62048637D02*
X176971910Y-61779263D01*
X176971910Y-61779263D02*
X177072925Y-61745591D01*
X177072925Y-61745591D02*
X177140268Y-61745591D01*
X177140268Y-61745591D02*
X177241284Y-61779263D01*
X177241284Y-61779263D02*
X177342299Y-61880278D01*
X177342299Y-61880278D02*
X177375971Y-61981294D01*
X177375971Y-61981294D02*
X177375971Y-62048637D01*
X177375971Y-62048637D02*
X177342299Y-62149652D01*
X177342299Y-62149652D02*
X177072925Y-62419026D01*
X178487138Y-61678248D02*
X178083077Y-62082309D01*
X178285108Y-61880278D02*
X177578001Y-61173172D01*
X177578001Y-61173172D02*
X177611673Y-61341530D01*
X177611673Y-61341530D02*
X177611673Y-61476217D01*
X177611673Y-61476217D02*
X177578001Y-61577233D01*
X178217765Y-60533408D02*
X178285108Y-60466065D01*
X178285108Y-60466065D02*
X178386123Y-60432393D01*
X178386123Y-60432393D02*
X178453467Y-60432393D01*
X178453467Y-60432393D02*
X178554482Y-60466065D01*
X178554482Y-60466065D02*
X178722841Y-60567080D01*
X178722841Y-60567080D02*
X178891200Y-60735439D01*
X178891200Y-60735439D02*
X178992215Y-60903797D01*
X178992215Y-60903797D02*
X179025887Y-61004813D01*
X179025887Y-61004813D02*
X179025887Y-61072156D01*
X179025887Y-61072156D02*
X178992215Y-61173171D01*
X178992215Y-61173171D02*
X178924871Y-61240515D01*
X178924871Y-61240515D02*
X178823856Y-61274187D01*
X178823856Y-61274187D02*
X178756513Y-61274187D01*
X178756513Y-61274187D02*
X178655497Y-61240515D01*
X178655497Y-61240515D02*
X178487139Y-61139500D01*
X178487139Y-61139500D02*
X178318780Y-60971141D01*
X178318780Y-60971141D02*
X178217765Y-60802782D01*
X178217765Y-60802782D02*
X178184093Y-60701767D01*
X178184093Y-60701767D02*
X178184093Y-60634423D01*
X178184093Y-60634423D02*
X178217765Y-60533408D01*
X172029087Y-95113724D02*
X172130102Y-94541305D01*
X171625026Y-94709663D02*
X172332133Y-94002557D01*
X172332133Y-94002557D02*
X172601507Y-94271931D01*
X172601507Y-94271931D02*
X172635179Y-94372946D01*
X172635179Y-94372946D02*
X172635179Y-94440289D01*
X172635179Y-94440289D02*
X172601507Y-94541305D01*
X172601507Y-94541305D02*
X172500492Y-94642320D01*
X172500492Y-94642320D02*
X172399476Y-94675992D01*
X172399476Y-94675992D02*
X172332133Y-94675992D01*
X172332133Y-94675992D02*
X172231118Y-94642320D01*
X172231118Y-94642320D02*
X171961744Y-94372946D01*
X172702522Y-95787159D02*
X172298461Y-95383098D01*
X172500492Y-95585129D02*
X173207598Y-94878022D01*
X173207598Y-94878022D02*
X173039240Y-94911694D01*
X173039240Y-94911694D02*
X172904553Y-94911694D01*
X172904553Y-94911694D02*
X172803537Y-94878022D01*
X174015721Y-95686144D02*
X173881034Y-95551457D01*
X173881034Y-95551457D02*
X173780018Y-95517786D01*
X173780018Y-95517786D02*
X173712675Y-95517786D01*
X173712675Y-95517786D02*
X173544316Y-95551457D01*
X173544316Y-95551457D02*
X173375957Y-95652473D01*
X173375957Y-95652473D02*
X173106583Y-95921847D01*
X173106583Y-95921847D02*
X173072912Y-96022862D01*
X173072912Y-96022862D02*
X173072912Y-96090205D01*
X173072912Y-96090205D02*
X173106583Y-96191221D01*
X173106583Y-96191221D02*
X173241270Y-96325908D01*
X173241270Y-96325908D02*
X173342286Y-96359579D01*
X173342286Y-96359579D02*
X173409629Y-96359579D01*
X173409629Y-96359579D02*
X173510644Y-96325908D01*
X173510644Y-96325908D02*
X173679003Y-96157549D01*
X173679003Y-96157549D02*
X173712675Y-96056534D01*
X173712675Y-96056534D02*
X173712675Y-95989190D01*
X173712675Y-95989190D02*
X173679003Y-95888175D01*
X173679003Y-95888175D02*
X173544316Y-95753488D01*
X173544316Y-95753488D02*
X173443301Y-95719816D01*
X173443301Y-95719816D02*
X173375957Y-95719816D01*
X173375957Y-95719816D02*
X173274942Y-95753488D01*
X139022528Y-81732903D02*
X138689195Y-81256712D01*
X138451100Y-81732903D02*
X138451100Y-80732903D01*
X138451100Y-80732903D02*
X138832052Y-80732903D01*
X138832052Y-80732903D02*
X138927290Y-80780522D01*
X138927290Y-80780522D02*
X138974909Y-80828141D01*
X138974909Y-80828141D02*
X139022528Y-80923379D01*
X139022528Y-80923379D02*
X139022528Y-81066236D01*
X139022528Y-81066236D02*
X138974909Y-81161474D01*
X138974909Y-81161474D02*
X138927290Y-81209093D01*
X138927290Y-81209093D02*
X138832052Y-81256712D01*
X138832052Y-81256712D02*
X138451100Y-81256712D01*
X139403481Y-80828141D02*
X139451100Y-80780522D01*
X139451100Y-80780522D02*
X139546338Y-80732903D01*
X139546338Y-80732903D02*
X139784433Y-80732903D01*
X139784433Y-80732903D02*
X139879671Y-80780522D01*
X139879671Y-80780522D02*
X139927290Y-80828141D01*
X139927290Y-80828141D02*
X139974909Y-80923379D01*
X139974909Y-80923379D02*
X139974909Y-81018617D01*
X139974909Y-81018617D02*
X139927290Y-81161474D01*
X139927290Y-81161474D02*
X139355862Y-81732903D01*
X139355862Y-81732903D02*
X139974909Y-81732903D01*
X140879671Y-80732903D02*
X140403481Y-80732903D01*
X140403481Y-80732903D02*
X140355862Y-81209093D01*
X140355862Y-81209093D02*
X140403481Y-81161474D01*
X140403481Y-81161474D02*
X140498719Y-81113855D01*
X140498719Y-81113855D02*
X140736814Y-81113855D01*
X140736814Y-81113855D02*
X140832052Y-81161474D01*
X140832052Y-81161474D02*
X140879671Y-81209093D01*
X140879671Y-81209093D02*
X140927290Y-81304331D01*
X140927290Y-81304331D02*
X140927290Y-81542426D01*
X140927290Y-81542426D02*
X140879671Y-81637664D01*
X140879671Y-81637664D02*
X140832052Y-81685284D01*
X140832052Y-81685284D02*
X140736814Y-81732903D01*
X140736814Y-81732903D02*
X140498719Y-81732903D01*
X140498719Y-81732903D02*
X140403481Y-81685284D01*
X140403481Y-81685284D02*
X140355862Y-81637664D01*
X133875623Y-95337891D02*
X133875623Y-95405235D01*
X133875623Y-95405235D02*
X133808279Y-95539922D01*
X133808279Y-95539922D02*
X133740936Y-95607265D01*
X133740936Y-95607265D02*
X133606249Y-95674609D01*
X133606249Y-95674609D02*
X133471562Y-95674609D01*
X133471562Y-95674609D02*
X133370547Y-95640937D01*
X133370547Y-95640937D02*
X133202188Y-95539922D01*
X133202188Y-95539922D02*
X133101173Y-95438907D01*
X133101173Y-95438907D02*
X133000157Y-95270548D01*
X133000157Y-95270548D02*
X132966486Y-95169533D01*
X132966486Y-95169533D02*
X132966486Y-95034846D01*
X132966486Y-95034846D02*
X133033829Y-94900159D01*
X133033829Y-94900159D02*
X133101173Y-94832815D01*
X133101173Y-94832815D02*
X133235860Y-94765472D01*
X133235860Y-94765472D02*
X133303203Y-94765472D01*
X133471562Y-94462426D02*
X133909295Y-94024693D01*
X133909295Y-94024693D02*
X133942966Y-94529769D01*
X133942966Y-94529769D02*
X134043982Y-94428754D01*
X134043982Y-94428754D02*
X134144997Y-94395082D01*
X134144997Y-94395082D02*
X134212340Y-94395082D01*
X134212340Y-94395082D02*
X134313356Y-94428754D01*
X134313356Y-94428754D02*
X134481714Y-94597113D01*
X134481714Y-94597113D02*
X134515386Y-94698128D01*
X134515386Y-94698128D02*
X134515386Y-94765472D01*
X134515386Y-94765472D02*
X134481714Y-94866487D01*
X134481714Y-94866487D02*
X134279684Y-95068517D01*
X134279684Y-95068517D02*
X134178669Y-95102189D01*
X134178669Y-95102189D02*
X134111325Y-95102189D01*
X134515386Y-93418601D02*
X134380699Y-93553288D01*
X134380699Y-93553288D02*
X134347028Y-93654304D01*
X134347028Y-93654304D02*
X134347028Y-93721647D01*
X134347028Y-93721647D02*
X134380699Y-93890006D01*
X134380699Y-93890006D02*
X134481715Y-94058365D01*
X134481715Y-94058365D02*
X134751089Y-94327739D01*
X134751089Y-94327739D02*
X134852104Y-94361410D01*
X134852104Y-94361410D02*
X134919447Y-94361410D01*
X134919447Y-94361410D02*
X135020463Y-94327739D01*
X135020463Y-94327739D02*
X135155150Y-94193052D01*
X135155150Y-94193052D02*
X135188821Y-94092036D01*
X135188821Y-94092036D02*
X135188821Y-94024693D01*
X135188821Y-94024693D02*
X135155150Y-93923678D01*
X135155150Y-93923678D02*
X134986791Y-93755319D01*
X134986791Y-93755319D02*
X134885776Y-93721647D01*
X134885776Y-93721647D02*
X134818432Y-93721647D01*
X134818432Y-93721647D02*
X134717417Y-93755319D01*
X134717417Y-93755319D02*
X134582730Y-93890006D01*
X134582730Y-93890006D02*
X134549058Y-93991021D01*
X134549058Y-93991021D02*
X134549058Y-94058365D01*
X134549058Y-94058365D02*
X134582730Y-94159380D01*
X172600384Y-67221971D02*
X172552765Y-67317209D01*
X172552765Y-67317209D02*
X172457527Y-67412447D01*
X172457527Y-67412447D02*
X172314669Y-67555304D01*
X172314669Y-67555304D02*
X172267050Y-67650542D01*
X172267050Y-67650542D02*
X172267050Y-67745780D01*
X172505146Y-67698161D02*
X172457527Y-67793399D01*
X172457527Y-67793399D02*
X172362288Y-67888637D01*
X172362288Y-67888637D02*
X172171812Y-67936256D01*
X172171812Y-67936256D02*
X171838479Y-67936256D01*
X171838479Y-67936256D02*
X171648003Y-67888637D01*
X171648003Y-67888637D02*
X171552765Y-67793399D01*
X171552765Y-67793399D02*
X171505146Y-67698161D01*
X171505146Y-67698161D02*
X171505146Y-67507685D01*
X171505146Y-67507685D02*
X171552765Y-67412447D01*
X171552765Y-67412447D02*
X171648003Y-67317209D01*
X171648003Y-67317209D02*
X171838479Y-67269590D01*
X171838479Y-67269590D02*
X172171812Y-67269590D01*
X172171812Y-67269590D02*
X172362288Y-67317209D01*
X172362288Y-67317209D02*
X172457527Y-67412447D01*
X172457527Y-67412447D02*
X172505146Y-67507685D01*
X172505146Y-67507685D02*
X172505146Y-67698161D01*
X172505146Y-66317209D02*
X172505146Y-66888637D01*
X172505146Y-66602923D02*
X171505146Y-66602923D01*
X171505146Y-66602923D02*
X171648003Y-66698161D01*
X171648003Y-66698161D02*
X171743241Y-66793399D01*
X171743241Y-66793399D02*
X171790860Y-66888637D01*
X163613333Y-52339121D02*
X163613333Y-53053406D01*
X163613333Y-53053406D02*
X163565714Y-53196263D01*
X163565714Y-53196263D02*
X163470476Y-53291502D01*
X163470476Y-53291502D02*
X163327619Y-53339121D01*
X163327619Y-53339121D02*
X163232381Y-53339121D01*
X164041905Y-52434359D02*
X164089524Y-52386740D01*
X164089524Y-52386740D02*
X164184762Y-52339121D01*
X164184762Y-52339121D02*
X164422857Y-52339121D01*
X164422857Y-52339121D02*
X164518095Y-52386740D01*
X164518095Y-52386740D02*
X164565714Y-52434359D01*
X164565714Y-52434359D02*
X164613333Y-52529597D01*
X164613333Y-52529597D02*
X164613333Y-52624835D01*
X164613333Y-52624835D02*
X164565714Y-52767692D01*
X164565714Y-52767692D02*
X163994286Y-53339121D01*
X163994286Y-53339121D02*
X164613333Y-53339121D01*
X129201485Y-81867635D02*
X129915770Y-81867635D01*
X129915770Y-81867635D02*
X130058627Y-81915254D01*
X130058627Y-81915254D02*
X130153866Y-82010492D01*
X130153866Y-82010492D02*
X130201485Y-82153349D01*
X130201485Y-82153349D02*
X130201485Y-82248587D01*
X129201485Y-81486682D02*
X129201485Y-80820016D01*
X129201485Y-80820016D02*
X130201485Y-81248587D01*
X163006247Y-68342175D02*
X163053867Y-68389794D01*
X163053867Y-68389794D02*
X163101486Y-68532651D01*
X163101486Y-68532651D02*
X163101486Y-68627889D01*
X163101486Y-68627889D02*
X163053867Y-68770746D01*
X163053867Y-68770746D02*
X162958628Y-68865984D01*
X162958628Y-68865984D02*
X162863390Y-68913603D01*
X162863390Y-68913603D02*
X162672914Y-68961222D01*
X162672914Y-68961222D02*
X162530057Y-68961222D01*
X162530057Y-68961222D02*
X162339581Y-68913603D01*
X162339581Y-68913603D02*
X162244343Y-68865984D01*
X162244343Y-68865984D02*
X162149105Y-68770746D01*
X162149105Y-68770746D02*
X162101486Y-68627889D01*
X162101486Y-68627889D02*
X162101486Y-68532651D01*
X162101486Y-68532651D02*
X162149105Y-68389794D01*
X162149105Y-68389794D02*
X162196724Y-68342175D01*
X162101486Y-67437413D02*
X162101486Y-67913603D01*
X162101486Y-67913603D02*
X162577676Y-67961222D01*
X162577676Y-67961222D02*
X162530057Y-67913603D01*
X162530057Y-67913603D02*
X162482438Y-67818365D01*
X162482438Y-67818365D02*
X162482438Y-67580270D01*
X162482438Y-67580270D02*
X162530057Y-67485032D01*
X162530057Y-67485032D02*
X162577676Y-67437413D01*
X162577676Y-67437413D02*
X162672914Y-67389794D01*
X162672914Y-67389794D02*
X162911009Y-67389794D01*
X162911009Y-67389794D02*
X163006247Y-67437413D01*
X163006247Y-67437413D02*
X163053867Y-67485032D01*
X163053867Y-67485032D02*
X163101486Y-67580270D01*
X163101486Y-67580270D02*
X163101486Y-67818365D01*
X163101486Y-67818365D02*
X163053867Y-67913603D01*
X163053867Y-67913603D02*
X163006247Y-67961222D01*
X175016423Y-67747621D02*
X175016423Y-67814965D01*
X175016423Y-67814965D02*
X174949079Y-67949652D01*
X174949079Y-67949652D02*
X174881736Y-68016995D01*
X174881736Y-68016995D02*
X174747049Y-68084339D01*
X174747049Y-68084339D02*
X174612362Y-68084339D01*
X174612362Y-68084339D02*
X174511347Y-68050667D01*
X174511347Y-68050667D02*
X174342988Y-67949652D01*
X174342988Y-67949652D02*
X174241973Y-67848637D01*
X174241973Y-67848637D02*
X174140957Y-67680278D01*
X174140957Y-67680278D02*
X174107286Y-67579263D01*
X174107286Y-67579263D02*
X174107286Y-67444576D01*
X174107286Y-67444576D02*
X174174629Y-67309889D01*
X174174629Y-67309889D02*
X174241973Y-67242545D01*
X174241973Y-67242545D02*
X174376660Y-67175202D01*
X174376660Y-67175202D02*
X174444003Y-67175202D01*
X174982751Y-66501767D02*
X174848064Y-66636454D01*
X174848064Y-66636454D02*
X174814392Y-66737469D01*
X174814392Y-66737469D02*
X174814392Y-66804812D01*
X174814392Y-66804812D02*
X174848064Y-66973171D01*
X174848064Y-66973171D02*
X174949079Y-67141530D01*
X174949079Y-67141530D02*
X175218453Y-67410904D01*
X175218453Y-67410904D02*
X175319469Y-67444576D01*
X175319469Y-67444576D02*
X175386812Y-67444576D01*
X175386812Y-67444576D02*
X175487827Y-67410904D01*
X175487827Y-67410904D02*
X175622514Y-67276217D01*
X175622514Y-67276217D02*
X175656186Y-67175202D01*
X175656186Y-67175202D02*
X175656186Y-67107858D01*
X175656186Y-67107858D02*
X175622514Y-67006843D01*
X175622514Y-67006843D02*
X175454156Y-66838484D01*
X175454156Y-66838484D02*
X175353140Y-66804812D01*
X175353140Y-66804812D02*
X175285797Y-66804812D01*
X175285797Y-66804812D02*
X175184782Y-66838484D01*
X175184782Y-66838484D02*
X175050095Y-66973171D01*
X175050095Y-66973171D02*
X175016423Y-67074186D01*
X175016423Y-67074186D02*
X175016423Y-67141530D01*
X175016423Y-67141530D02*
X175050095Y-67242545D01*
X135247527Y-69807903D02*
X134914194Y-69331712D01*
X134676099Y-69807903D02*
X134676099Y-68807903D01*
X134676099Y-68807903D02*
X135057051Y-68807903D01*
X135057051Y-68807903D02*
X135152289Y-68855522D01*
X135152289Y-68855522D02*
X135199908Y-68903141D01*
X135199908Y-68903141D02*
X135247527Y-68998379D01*
X135247527Y-68998379D02*
X135247527Y-69141236D01*
X135247527Y-69141236D02*
X135199908Y-69236474D01*
X135199908Y-69236474D02*
X135152289Y-69284093D01*
X135152289Y-69284093D02*
X135057051Y-69331712D01*
X135057051Y-69331712D02*
X134676099Y-69331712D01*
X135628480Y-68903141D02*
X135676099Y-68855522D01*
X135676099Y-68855522D02*
X135771337Y-68807903D01*
X135771337Y-68807903D02*
X136009432Y-68807903D01*
X136009432Y-68807903D02*
X136104670Y-68855522D01*
X136104670Y-68855522D02*
X136152289Y-68903141D01*
X136152289Y-68903141D02*
X136199908Y-68998379D01*
X136199908Y-68998379D02*
X136199908Y-69093617D01*
X136199908Y-69093617D02*
X136152289Y-69236474D01*
X136152289Y-69236474D02*
X135580861Y-69807903D01*
X135580861Y-69807903D02*
X136199908Y-69807903D01*
X136771337Y-69236474D02*
X136676099Y-69188855D01*
X136676099Y-69188855D02*
X136628480Y-69141236D01*
X136628480Y-69141236D02*
X136580861Y-69045998D01*
X136580861Y-69045998D02*
X136580861Y-68998379D01*
X136580861Y-68998379D02*
X136628480Y-68903141D01*
X136628480Y-68903141D02*
X136676099Y-68855522D01*
X136676099Y-68855522D02*
X136771337Y-68807903D01*
X136771337Y-68807903D02*
X136961813Y-68807903D01*
X136961813Y-68807903D02*
X137057051Y-68855522D01*
X137057051Y-68855522D02*
X137104670Y-68903141D01*
X137104670Y-68903141D02*
X137152289Y-68998379D01*
X137152289Y-68998379D02*
X137152289Y-69045998D01*
X137152289Y-69045998D02*
X137104670Y-69141236D01*
X137104670Y-69141236D02*
X137057051Y-69188855D01*
X137057051Y-69188855D02*
X136961813Y-69236474D01*
X136961813Y-69236474D02*
X136771337Y-69236474D01*
X136771337Y-69236474D02*
X136676099Y-69284093D01*
X136676099Y-69284093D02*
X136628480Y-69331712D01*
X136628480Y-69331712D02*
X136580861Y-69426950D01*
X136580861Y-69426950D02*
X136580861Y-69617426D01*
X136580861Y-69617426D02*
X136628480Y-69712664D01*
X136628480Y-69712664D02*
X136676099Y-69760284D01*
X136676099Y-69760284D02*
X136771337Y-69807903D01*
X136771337Y-69807903D02*
X136961813Y-69807903D01*
X136961813Y-69807903D02*
X137057051Y-69760284D01*
X137057051Y-69760284D02*
X137104670Y-69712664D01*
X137104670Y-69712664D02*
X137152289Y-69617426D01*
X137152289Y-69617426D02*
X137152289Y-69426950D01*
X137152289Y-69426950D02*
X137104670Y-69331712D01*
X137104670Y-69331712D02*
X137057051Y-69284093D01*
X137057051Y-69284093D02*
X136961813Y-69236474D01*
X184306247Y-79142175D02*
X184353867Y-79189794D01*
X184353867Y-79189794D02*
X184401486Y-79332651D01*
X184401486Y-79332651D02*
X184401486Y-79427889D01*
X184401486Y-79427889D02*
X184353867Y-79570746D01*
X184353867Y-79570746D02*
X184258628Y-79665984D01*
X184258628Y-79665984D02*
X184163390Y-79713603D01*
X184163390Y-79713603D02*
X183972914Y-79761222D01*
X183972914Y-79761222D02*
X183830057Y-79761222D01*
X183830057Y-79761222D02*
X183639581Y-79713603D01*
X183639581Y-79713603D02*
X183544343Y-79665984D01*
X183544343Y-79665984D02*
X183449105Y-79570746D01*
X183449105Y-79570746D02*
X183401486Y-79427889D01*
X183401486Y-79427889D02*
X183401486Y-79332651D01*
X183401486Y-79332651D02*
X183449105Y-79189794D01*
X183449105Y-79189794D02*
X183496724Y-79142175D01*
X184401486Y-78665984D02*
X184401486Y-78475508D01*
X184401486Y-78475508D02*
X184353867Y-78380270D01*
X184353867Y-78380270D02*
X184306247Y-78332651D01*
X184306247Y-78332651D02*
X184163390Y-78237413D01*
X184163390Y-78237413D02*
X183972914Y-78189794D01*
X183972914Y-78189794D02*
X183591962Y-78189794D01*
X183591962Y-78189794D02*
X183496724Y-78237413D01*
X183496724Y-78237413D02*
X183449105Y-78285032D01*
X183449105Y-78285032D02*
X183401486Y-78380270D01*
X183401486Y-78380270D02*
X183401486Y-78570746D01*
X183401486Y-78570746D02*
X183449105Y-78665984D01*
X183449105Y-78665984D02*
X183496724Y-78713603D01*
X183496724Y-78713603D02*
X183591962Y-78761222D01*
X183591962Y-78761222D02*
X183830057Y-78761222D01*
X183830057Y-78761222D02*
X183925295Y-78713603D01*
X183925295Y-78713603D02*
X183972914Y-78665984D01*
X183972914Y-78665984D02*
X184020533Y-78570746D01*
X184020533Y-78570746D02*
X184020533Y-78380270D01*
X184020533Y-78380270D02*
X183972914Y-78285032D01*
X183972914Y-78285032D02*
X183925295Y-78237413D01*
X183925295Y-78237413D02*
X183830057Y-78189794D01*
X174176925Y-89752086D02*
X174277940Y-89179667D01*
X173772864Y-89348025D02*
X174479971Y-88640919D01*
X174479971Y-88640919D02*
X174749345Y-88910293D01*
X174749345Y-88910293D02*
X174783017Y-89011308D01*
X174783017Y-89011308D02*
X174783017Y-89078651D01*
X174783017Y-89078651D02*
X174749345Y-89179667D01*
X174749345Y-89179667D02*
X174648330Y-89280682D01*
X174648330Y-89280682D02*
X174547314Y-89314354D01*
X174547314Y-89314354D02*
X174479971Y-89314354D01*
X174479971Y-89314354D02*
X174378956Y-89280682D01*
X174378956Y-89280682D02*
X174109582Y-89011308D01*
X174850360Y-90425521D02*
X174446299Y-90021460D01*
X174648330Y-90223491D02*
X175355436Y-89516384D01*
X175355436Y-89516384D02*
X175187078Y-89550056D01*
X175187078Y-89550056D02*
X175052391Y-89550056D01*
X175052391Y-89550056D02*
X174951375Y-89516384D01*
X175187078Y-90762239D02*
X175321765Y-90896926D01*
X175321765Y-90896926D02*
X175422780Y-90930598D01*
X175422780Y-90930598D02*
X175490124Y-90930598D01*
X175490124Y-90930598D02*
X175658482Y-90896926D01*
X175658482Y-90896926D02*
X175826841Y-90795911D01*
X175826841Y-90795911D02*
X176096215Y-90526537D01*
X176096215Y-90526537D02*
X176129887Y-90425522D01*
X176129887Y-90425522D02*
X176129887Y-90358178D01*
X176129887Y-90358178D02*
X176096215Y-90257163D01*
X176096215Y-90257163D02*
X175961528Y-90122476D01*
X175961528Y-90122476D02*
X175860513Y-90088804D01*
X175860513Y-90088804D02*
X175793169Y-90088804D01*
X175793169Y-90088804D02*
X175692154Y-90122476D01*
X175692154Y-90122476D02*
X175523795Y-90290835D01*
X175523795Y-90290835D02*
X175490124Y-90391850D01*
X175490124Y-90391850D02*
X175490124Y-90459193D01*
X175490124Y-90459193D02*
X175523795Y-90560209D01*
X175523795Y-90560209D02*
X175658482Y-90694896D01*
X175658482Y-90694896D02*
X175759498Y-90728567D01*
X175759498Y-90728567D02*
X175826841Y-90728567D01*
X175826841Y-90728567D02*
X175927856Y-90694896D01*
X144910027Y-70837664D02*
X144862408Y-70885284D01*
X144862408Y-70885284D02*
X144719551Y-70932903D01*
X144719551Y-70932903D02*
X144624313Y-70932903D01*
X144624313Y-70932903D02*
X144481456Y-70885284D01*
X144481456Y-70885284D02*
X144386218Y-70790045D01*
X144386218Y-70790045D02*
X144338599Y-70694807D01*
X144338599Y-70694807D02*
X144290980Y-70504331D01*
X144290980Y-70504331D02*
X144290980Y-70361474D01*
X144290980Y-70361474D02*
X144338599Y-70170998D01*
X144338599Y-70170998D02*
X144386218Y-70075760D01*
X144386218Y-70075760D02*
X144481456Y-69980522D01*
X144481456Y-69980522D02*
X144624313Y-69932903D01*
X144624313Y-69932903D02*
X144719551Y-69932903D01*
X144719551Y-69932903D02*
X144862408Y-69980522D01*
X144862408Y-69980522D02*
X144910027Y-70028141D01*
X145243361Y-69932903D02*
X145862408Y-69932903D01*
X145862408Y-69932903D02*
X145529075Y-70313855D01*
X145529075Y-70313855D02*
X145671932Y-70313855D01*
X145671932Y-70313855D02*
X145767170Y-70361474D01*
X145767170Y-70361474D02*
X145814789Y-70409093D01*
X145814789Y-70409093D02*
X145862408Y-70504331D01*
X145862408Y-70504331D02*
X145862408Y-70742426D01*
X145862408Y-70742426D02*
X145814789Y-70837664D01*
X145814789Y-70837664D02*
X145767170Y-70885284D01*
X145767170Y-70885284D02*
X145671932Y-70932903D01*
X145671932Y-70932903D02*
X145386218Y-70932903D01*
X145386218Y-70932903D02*
X145290980Y-70885284D01*
X145290980Y-70885284D02*
X145243361Y-70837664D01*
X146195742Y-69932903D02*
X146814789Y-69932903D01*
X146814789Y-69932903D02*
X146481456Y-70313855D01*
X146481456Y-70313855D02*
X146624313Y-70313855D01*
X146624313Y-70313855D02*
X146719551Y-70361474D01*
X146719551Y-70361474D02*
X146767170Y-70409093D01*
X146767170Y-70409093D02*
X146814789Y-70504331D01*
X146814789Y-70504331D02*
X146814789Y-70742426D01*
X146814789Y-70742426D02*
X146767170Y-70837664D01*
X146767170Y-70837664D02*
X146719551Y-70885284D01*
X146719551Y-70885284D02*
X146624313Y-70932903D01*
X146624313Y-70932903D02*
X146338599Y-70932903D01*
X146338599Y-70932903D02*
X146243361Y-70885284D01*
X146243361Y-70885284D02*
X146195742Y-70837664D01*
X155901487Y-60150968D02*
X155425296Y-60484301D01*
X155901487Y-60722396D02*
X154901487Y-60722396D01*
X154901487Y-60722396D02*
X154901487Y-60341444D01*
X154901487Y-60341444D02*
X154949106Y-60246206D01*
X154949106Y-60246206D02*
X154996725Y-60198587D01*
X154996725Y-60198587D02*
X155091963Y-60150968D01*
X155091963Y-60150968D02*
X155234820Y-60150968D01*
X155234820Y-60150968D02*
X155330058Y-60198587D01*
X155330058Y-60198587D02*
X155377677Y-60246206D01*
X155377677Y-60246206D02*
X155425296Y-60341444D01*
X155425296Y-60341444D02*
X155425296Y-60722396D01*
X154901487Y-59817634D02*
X154901487Y-59198587D01*
X154901487Y-59198587D02*
X155282439Y-59531920D01*
X155282439Y-59531920D02*
X155282439Y-59389063D01*
X155282439Y-59389063D02*
X155330058Y-59293825D01*
X155330058Y-59293825D02*
X155377677Y-59246206D01*
X155377677Y-59246206D02*
X155472915Y-59198587D01*
X155472915Y-59198587D02*
X155711010Y-59198587D01*
X155711010Y-59198587D02*
X155806248Y-59246206D01*
X155806248Y-59246206D02*
X155853868Y-59293825D01*
X155853868Y-59293825D02*
X155901487Y-59389063D01*
X155901487Y-59389063D02*
X155901487Y-59674777D01*
X155901487Y-59674777D02*
X155853868Y-59770015D01*
X155853868Y-59770015D02*
X155806248Y-59817634D01*
X168407349Y-97922537D02*
X168979769Y-98494957D01*
X168979769Y-98494957D02*
X169080784Y-98528629D01*
X169080784Y-98528629D02*
X169148128Y-98528629D01*
X169148128Y-98528629D02*
X169249143Y-98494957D01*
X169249143Y-98494957D02*
X169383830Y-98360270D01*
X169383830Y-98360270D02*
X169417502Y-98259255D01*
X169417502Y-98259255D02*
X169417502Y-98191911D01*
X169417502Y-98191911D02*
X169383830Y-98090896D01*
X169383830Y-98090896D02*
X168811410Y-97518476D01*
X169181800Y-97282774D02*
X169181800Y-97215431D01*
X169181800Y-97215431D02*
X169215471Y-97114415D01*
X169215471Y-97114415D02*
X169383830Y-96946057D01*
X169383830Y-96946057D02*
X169484845Y-96912385D01*
X169484845Y-96912385D02*
X169552189Y-96912385D01*
X169552189Y-96912385D02*
X169653204Y-96946057D01*
X169653204Y-96946057D02*
X169720548Y-97013400D01*
X169720548Y-97013400D02*
X169787891Y-97148087D01*
X169787891Y-97148087D02*
X169787891Y-97956209D01*
X169787891Y-97956209D02*
X170225624Y-97518476D01*
X160009616Y-104983504D02*
X160009616Y-105050848D01*
X160009616Y-105050848D02*
X159942272Y-105185535D01*
X159942272Y-105185535D02*
X159874929Y-105252878D01*
X159874929Y-105252878D02*
X159740242Y-105320222D01*
X159740242Y-105320222D02*
X159605555Y-105320222D01*
X159605555Y-105320222D02*
X159504540Y-105286550D01*
X159504540Y-105286550D02*
X159336181Y-105185535D01*
X159336181Y-105185535D02*
X159235166Y-105084520D01*
X159235166Y-105084520D02*
X159134150Y-104916161D01*
X159134150Y-104916161D02*
X159100479Y-104815146D01*
X159100479Y-104815146D02*
X159100479Y-104680459D01*
X159100479Y-104680459D02*
X159167822Y-104545772D01*
X159167822Y-104545772D02*
X159235166Y-104478428D01*
X159235166Y-104478428D02*
X159369853Y-104411085D01*
X159369853Y-104411085D02*
X159437196Y-104411085D01*
X160750394Y-104377413D02*
X160346333Y-104781474D01*
X160548364Y-104579443D02*
X159841257Y-103872337D01*
X159841257Y-103872337D02*
X159874929Y-104040695D01*
X159874929Y-104040695D02*
X159874929Y-104175382D01*
X159874929Y-104175382D02*
X159841257Y-104276398D01*
X160380005Y-103468275D02*
X160380005Y-103400932D01*
X160380005Y-103400932D02*
X160413677Y-103299917D01*
X160413677Y-103299917D02*
X160582036Y-103131558D01*
X160582036Y-103131558D02*
X160683051Y-103097886D01*
X160683051Y-103097886D02*
X160750395Y-103097886D01*
X160750395Y-103097886D02*
X160851410Y-103131558D01*
X160851410Y-103131558D02*
X160918753Y-103198901D01*
X160918753Y-103198901D02*
X160986097Y-103333588D01*
X160986097Y-103333588D02*
X160986097Y-104141710D01*
X160986097Y-104141710D02*
X161423830Y-103703978D01*
X140872527Y-83367664D02*
X140824908Y-83415284D01*
X140824908Y-83415284D02*
X140682051Y-83462903D01*
X140682051Y-83462903D02*
X140586813Y-83462903D01*
X140586813Y-83462903D02*
X140443956Y-83415284D01*
X140443956Y-83415284D02*
X140348718Y-83320045D01*
X140348718Y-83320045D02*
X140301099Y-83224807D01*
X140301099Y-83224807D02*
X140253480Y-83034331D01*
X140253480Y-83034331D02*
X140253480Y-82891474D01*
X140253480Y-82891474D02*
X140301099Y-82700998D01*
X140301099Y-82700998D02*
X140348718Y-82605760D01*
X140348718Y-82605760D02*
X140443956Y-82510522D01*
X140443956Y-82510522D02*
X140586813Y-82462903D01*
X140586813Y-82462903D02*
X140682051Y-82462903D01*
X140682051Y-82462903D02*
X140824908Y-82510522D01*
X140824908Y-82510522D02*
X140872527Y-82558141D01*
X141205861Y-82462903D02*
X141824908Y-82462903D01*
X141824908Y-82462903D02*
X141491575Y-82843855D01*
X141491575Y-82843855D02*
X141634432Y-82843855D01*
X141634432Y-82843855D02*
X141729670Y-82891474D01*
X141729670Y-82891474D02*
X141777289Y-82939093D01*
X141777289Y-82939093D02*
X141824908Y-83034331D01*
X141824908Y-83034331D02*
X141824908Y-83272426D01*
X141824908Y-83272426D02*
X141777289Y-83367664D01*
X141777289Y-83367664D02*
X141729670Y-83415284D01*
X141729670Y-83415284D02*
X141634432Y-83462903D01*
X141634432Y-83462903D02*
X141348718Y-83462903D01*
X141348718Y-83462903D02*
X141253480Y-83415284D01*
X141253480Y-83415284D02*
X141205861Y-83367664D01*
X142158242Y-82462903D02*
X142824908Y-82462903D01*
X142824908Y-82462903D02*
X142396337Y-83462903D01*
X143240077Y-92386982D02*
X143172733Y-92386982D01*
X143172733Y-92386982D02*
X143038046Y-92319638D01*
X143038046Y-92319638D02*
X142970703Y-92252295D01*
X142970703Y-92252295D02*
X142903359Y-92117608D01*
X142903359Y-92117608D02*
X142903359Y-91982921D01*
X142903359Y-91982921D02*
X142937031Y-91881906D01*
X142937031Y-91881906D02*
X143038046Y-91713547D01*
X143038046Y-91713547D02*
X143139061Y-91612532D01*
X143139061Y-91612532D02*
X143307420Y-91511516D01*
X143307420Y-91511516D02*
X143408435Y-91477845D01*
X143408435Y-91477845D02*
X143543122Y-91477845D01*
X143543122Y-91477845D02*
X143677809Y-91545188D01*
X143677809Y-91545188D02*
X143745153Y-91612532D01*
X143745153Y-91612532D02*
X143812496Y-91747219D01*
X143812496Y-91747219D02*
X143812496Y-91814562D01*
X144081870Y-92083936D02*
X144149214Y-92083936D01*
X144149214Y-92083936D02*
X144250229Y-92117608D01*
X144250229Y-92117608D02*
X144418588Y-92285967D01*
X144418588Y-92285967D02*
X144452260Y-92386982D01*
X144452260Y-92386982D02*
X144452260Y-92454325D01*
X144452260Y-92454325D02*
X144418588Y-92555341D01*
X144418588Y-92555341D02*
X144351244Y-92622684D01*
X144351244Y-92622684D02*
X144216557Y-92690028D01*
X144216557Y-92690028D02*
X143408435Y-92690028D01*
X143408435Y-92690028D02*
X143846168Y-93127760D01*
X145159367Y-93026745D02*
X145024680Y-92892058D01*
X145024680Y-92892058D02*
X144923664Y-92858387D01*
X144923664Y-92858387D02*
X144856321Y-92858387D01*
X144856321Y-92858387D02*
X144687962Y-92892058D01*
X144687962Y-92892058D02*
X144519603Y-92993074D01*
X144519603Y-92993074D02*
X144250229Y-93262448D01*
X144250229Y-93262448D02*
X144216558Y-93363463D01*
X144216558Y-93363463D02*
X144216558Y-93430806D01*
X144216558Y-93430806D02*
X144250229Y-93531822D01*
X144250229Y-93531822D02*
X144384916Y-93666509D01*
X144384916Y-93666509D02*
X144485932Y-93700180D01*
X144485932Y-93700180D02*
X144553275Y-93700180D01*
X144553275Y-93700180D02*
X144654290Y-93666509D01*
X144654290Y-93666509D02*
X144822649Y-93498150D01*
X144822649Y-93498150D02*
X144856321Y-93397135D01*
X144856321Y-93397135D02*
X144856321Y-93329791D01*
X144856321Y-93329791D02*
X144822649Y-93228776D01*
X144822649Y-93228776D02*
X144687962Y-93094089D01*
X144687962Y-93094089D02*
X144586947Y-93060417D01*
X144586947Y-93060417D02*
X144519603Y-93060417D01*
X144519603Y-93060417D02*
X144418588Y-93094089D01*
X178950421Y-63414966D02*
X178378002Y-63313951D01*
X178546360Y-63819027D02*
X177839254Y-63111920D01*
X177839254Y-63111920D02*
X178108628Y-62842546D01*
X178108628Y-62842546D02*
X178209643Y-62808874D01*
X178209643Y-62808874D02*
X178276986Y-62808874D01*
X178276986Y-62808874D02*
X178378002Y-62842546D01*
X178378002Y-62842546D02*
X178479017Y-62943561D01*
X178479017Y-62943561D02*
X178512689Y-63044577D01*
X178512689Y-63044577D02*
X178512689Y-63111920D01*
X178512689Y-63111920D02*
X178479017Y-63212935D01*
X178479017Y-63212935D02*
X178209643Y-63482309D01*
X179287139Y-63078248D02*
X179421826Y-62943561D01*
X179421826Y-62943561D02*
X179455498Y-62842546D01*
X179455498Y-62842546D02*
X179455498Y-62775203D01*
X179455498Y-62775203D02*
X179421826Y-62606844D01*
X179421826Y-62606844D02*
X179320811Y-62438485D01*
X179320811Y-62438485D02*
X179051437Y-62169111D01*
X179051437Y-62169111D02*
X178950421Y-62135439D01*
X178950421Y-62135439D02*
X178883078Y-62135439D01*
X178883078Y-62135439D02*
X178782063Y-62169111D01*
X178782063Y-62169111D02*
X178647376Y-62303798D01*
X178647376Y-62303798D02*
X178613704Y-62404813D01*
X178613704Y-62404813D02*
X178613704Y-62472157D01*
X178613704Y-62472157D02*
X178647376Y-62573172D01*
X178647376Y-62573172D02*
X178815734Y-62741531D01*
X178815734Y-62741531D02*
X178916750Y-62775203D01*
X178916750Y-62775203D02*
X178984093Y-62775203D01*
X178984093Y-62775203D02*
X179085108Y-62741531D01*
X179085108Y-62741531D02*
X179219795Y-62606844D01*
X179219795Y-62606844D02*
X179253467Y-62505829D01*
X179253467Y-62505829D02*
X179253467Y-62438485D01*
X179253467Y-62438485D02*
X179219795Y-62337470D01*
X153735811Y-108131896D02*
X153735811Y-108199240D01*
X153735811Y-108199240D02*
X153668467Y-108333927D01*
X153668467Y-108333927D02*
X153601124Y-108401270D01*
X153601124Y-108401270D02*
X153466437Y-108468614D01*
X153466437Y-108468614D02*
X153331750Y-108468614D01*
X153331750Y-108468614D02*
X153230735Y-108434942D01*
X153230735Y-108434942D02*
X153062376Y-108333927D01*
X153062376Y-108333927D02*
X152961361Y-108232912D01*
X152961361Y-108232912D02*
X152860345Y-108064553D01*
X152860345Y-108064553D02*
X152826674Y-107963538D01*
X152826674Y-107963538D02*
X152826674Y-107828851D01*
X152826674Y-107828851D02*
X152894017Y-107694164D01*
X152894017Y-107694164D02*
X152961361Y-107626820D01*
X152961361Y-107626820D02*
X153096048Y-107559477D01*
X153096048Y-107559477D02*
X153163391Y-107559477D01*
X154476589Y-107525805D02*
X154072528Y-107929866D01*
X154274559Y-107727835D02*
X153567452Y-107020729D01*
X153567452Y-107020729D02*
X153601124Y-107189087D01*
X153601124Y-107189087D02*
X153601124Y-107323774D01*
X153601124Y-107323774D02*
X153567452Y-107424790D01*
X154476590Y-106717683D02*
X154375574Y-106751354D01*
X154375574Y-106751354D02*
X154308231Y-106751354D01*
X154308231Y-106751354D02*
X154207216Y-106717683D01*
X154207216Y-106717683D02*
X154173544Y-106684011D01*
X154173544Y-106684011D02*
X154139872Y-106582996D01*
X154139872Y-106582996D02*
X154139872Y-106515652D01*
X154139872Y-106515652D02*
X154173544Y-106414637D01*
X154173544Y-106414637D02*
X154308231Y-106279950D01*
X154308231Y-106279950D02*
X154409246Y-106246278D01*
X154409246Y-106246278D02*
X154476590Y-106246278D01*
X154476590Y-106246278D02*
X154577605Y-106279950D01*
X154577605Y-106279950D02*
X154611277Y-106313622D01*
X154611277Y-106313622D02*
X154644948Y-106414637D01*
X154644948Y-106414637D02*
X154644948Y-106481980D01*
X154644948Y-106481980D02*
X154611277Y-106582996D01*
X154611277Y-106582996D02*
X154476590Y-106717683D01*
X154476590Y-106717683D02*
X154442918Y-106818698D01*
X154442918Y-106818698D02*
X154442918Y-106886041D01*
X154442918Y-106886041D02*
X154476590Y-106987057D01*
X154476590Y-106987057D02*
X154611277Y-107121744D01*
X154611277Y-107121744D02*
X154712292Y-107155415D01*
X154712292Y-107155415D02*
X154779635Y-107155415D01*
X154779635Y-107155415D02*
X154880651Y-107121744D01*
X154880651Y-107121744D02*
X155015338Y-106987057D01*
X155015338Y-106987057D02*
X155049009Y-106886041D01*
X155049009Y-106886041D02*
X155049009Y-106818698D01*
X155049009Y-106818698D02*
X155015338Y-106717683D01*
X155015338Y-106717683D02*
X154880651Y-106582996D01*
X154880651Y-106582996D02*
X154779635Y-106549324D01*
X154779635Y-106549324D02*
X154712292Y-106549324D01*
X154712292Y-106549324D02*
X154611277Y-106582996D01*
X135610027Y-80137664D02*
X135562408Y-80185284D01*
X135562408Y-80185284D02*
X135419551Y-80232903D01*
X135419551Y-80232903D02*
X135324313Y-80232903D01*
X135324313Y-80232903D02*
X135181456Y-80185284D01*
X135181456Y-80185284D02*
X135086218Y-80090045D01*
X135086218Y-80090045D02*
X135038599Y-79994807D01*
X135038599Y-79994807D02*
X134990980Y-79804331D01*
X134990980Y-79804331D02*
X134990980Y-79661474D01*
X134990980Y-79661474D02*
X135038599Y-79470998D01*
X135038599Y-79470998D02*
X135086218Y-79375760D01*
X135086218Y-79375760D02*
X135181456Y-79280522D01*
X135181456Y-79280522D02*
X135324313Y-79232903D01*
X135324313Y-79232903D02*
X135419551Y-79232903D01*
X135419551Y-79232903D02*
X135562408Y-79280522D01*
X135562408Y-79280522D02*
X135610027Y-79328141D01*
X135943361Y-79232903D02*
X136562408Y-79232903D01*
X136562408Y-79232903D02*
X136229075Y-79613855D01*
X136229075Y-79613855D02*
X136371932Y-79613855D01*
X136371932Y-79613855D02*
X136467170Y-79661474D01*
X136467170Y-79661474D02*
X136514789Y-79709093D01*
X136514789Y-79709093D02*
X136562408Y-79804331D01*
X136562408Y-79804331D02*
X136562408Y-80042426D01*
X136562408Y-80042426D02*
X136514789Y-80137664D01*
X136514789Y-80137664D02*
X136467170Y-80185284D01*
X136467170Y-80185284D02*
X136371932Y-80232903D01*
X136371932Y-80232903D02*
X136086218Y-80232903D01*
X136086218Y-80232903D02*
X135990980Y-80185284D01*
X135990980Y-80185284D02*
X135943361Y-80137664D01*
X137133837Y-79661474D02*
X137038599Y-79613855D01*
X137038599Y-79613855D02*
X136990980Y-79566236D01*
X136990980Y-79566236D02*
X136943361Y-79470998D01*
X136943361Y-79470998D02*
X136943361Y-79423379D01*
X136943361Y-79423379D02*
X136990980Y-79328141D01*
X136990980Y-79328141D02*
X137038599Y-79280522D01*
X137038599Y-79280522D02*
X137133837Y-79232903D01*
X137133837Y-79232903D02*
X137324313Y-79232903D01*
X137324313Y-79232903D02*
X137419551Y-79280522D01*
X137419551Y-79280522D02*
X137467170Y-79328141D01*
X137467170Y-79328141D02*
X137514789Y-79423379D01*
X137514789Y-79423379D02*
X137514789Y-79470998D01*
X137514789Y-79470998D02*
X137467170Y-79566236D01*
X137467170Y-79566236D02*
X137419551Y-79613855D01*
X137419551Y-79613855D02*
X137324313Y-79661474D01*
X137324313Y-79661474D02*
X137133837Y-79661474D01*
X137133837Y-79661474D02*
X137038599Y-79709093D01*
X137038599Y-79709093D02*
X136990980Y-79756712D01*
X136990980Y-79756712D02*
X136943361Y-79851950D01*
X136943361Y-79851950D02*
X136943361Y-80042426D01*
X136943361Y-80042426D02*
X136990980Y-80137664D01*
X136990980Y-80137664D02*
X137038599Y-80185284D01*
X137038599Y-80185284D02*
X137133837Y-80232903D01*
X137133837Y-80232903D02*
X137324313Y-80232903D01*
X137324313Y-80232903D02*
X137419551Y-80185284D01*
X137419551Y-80185284D02*
X137467170Y-80137664D01*
X137467170Y-80137664D02*
X137514789Y-80042426D01*
X137514789Y-80042426D02*
X137514789Y-79851950D01*
X137514789Y-79851950D02*
X137467170Y-79756712D01*
X137467170Y-79756712D02*
X137419551Y-79709093D01*
X137419551Y-79709093D02*
X137324313Y-79661474D01*
X176501487Y-75646207D02*
X176501487Y-75074779D01*
X177501487Y-75360493D02*
X176501487Y-75360493D01*
X177501487Y-74741445D02*
X176501487Y-74741445D01*
X176501487Y-74741445D02*
X176501487Y-74360493D01*
X176501487Y-74360493D02*
X176549106Y-74265255D01*
X176549106Y-74265255D02*
X176596725Y-74217636D01*
X176596725Y-74217636D02*
X176691963Y-74170017D01*
X176691963Y-74170017D02*
X176834820Y-74170017D01*
X176834820Y-74170017D02*
X176930058Y-74217636D01*
X176930058Y-74217636D02*
X176977677Y-74265255D01*
X176977677Y-74265255D02*
X177025296Y-74360493D01*
X177025296Y-74360493D02*
X177025296Y-74741445D01*
X176834820Y-73312874D02*
X177501487Y-73312874D01*
X176453868Y-73550969D02*
X177168153Y-73789064D01*
X177168153Y-73789064D02*
X177168153Y-73170017D01*
X138174566Y-99601478D02*
X138174566Y-99668822D01*
X138174566Y-99668822D02*
X138107222Y-99803509D01*
X138107222Y-99803509D02*
X138039879Y-99870852D01*
X138039879Y-99870852D02*
X137905192Y-99938196D01*
X137905192Y-99938196D02*
X137770505Y-99938196D01*
X137770505Y-99938196D02*
X137669490Y-99904524D01*
X137669490Y-99904524D02*
X137501131Y-99803509D01*
X137501131Y-99803509D02*
X137400116Y-99702494D01*
X137400116Y-99702494D02*
X137299100Y-99534135D01*
X137299100Y-99534135D02*
X137265429Y-99433120D01*
X137265429Y-99433120D02*
X137265429Y-99298433D01*
X137265429Y-99298433D02*
X137332772Y-99163746D01*
X137332772Y-99163746D02*
X137400116Y-99096402D01*
X137400116Y-99096402D02*
X137534803Y-99029059D01*
X137534803Y-99029059D02*
X137602146Y-99029059D01*
X137770505Y-98726013D02*
X138208238Y-98288280D01*
X138208238Y-98288280D02*
X138241909Y-98793356D01*
X138241909Y-98793356D02*
X138342925Y-98692341D01*
X138342925Y-98692341D02*
X138443940Y-98658669D01*
X138443940Y-98658669D02*
X138511283Y-98658669D01*
X138511283Y-98658669D02*
X138612299Y-98692341D01*
X138612299Y-98692341D02*
X138780657Y-98860700D01*
X138780657Y-98860700D02*
X138814329Y-98961715D01*
X138814329Y-98961715D02*
X138814329Y-99029059D01*
X138814329Y-99029059D02*
X138780657Y-99130074D01*
X138780657Y-99130074D02*
X138578627Y-99332104D01*
X138578627Y-99332104D02*
X138477612Y-99365776D01*
X138477612Y-99365776D02*
X138410268Y-99365776D01*
X138645971Y-97850547D02*
X138713314Y-97783204D01*
X138713314Y-97783204D02*
X138814329Y-97749532D01*
X138814329Y-97749532D02*
X138881673Y-97749532D01*
X138881673Y-97749532D02*
X138982688Y-97783204D01*
X138982688Y-97783204D02*
X139151047Y-97884219D01*
X139151047Y-97884219D02*
X139319406Y-98052578D01*
X139319406Y-98052578D02*
X139420421Y-98220936D01*
X139420421Y-98220936D02*
X139454093Y-98321952D01*
X139454093Y-98321952D02*
X139454093Y-98389295D01*
X139454093Y-98389295D02*
X139420421Y-98490310D01*
X139420421Y-98490310D02*
X139353077Y-98557654D01*
X139353077Y-98557654D02*
X139252062Y-98591326D01*
X139252062Y-98591326D02*
X139184719Y-98591326D01*
X139184719Y-98591326D02*
X139083703Y-98557654D01*
X139083703Y-98557654D02*
X138915345Y-98456639D01*
X138915345Y-98456639D02*
X138746986Y-98288280D01*
X138746986Y-98288280D02*
X138645971Y-98119921D01*
X138645971Y-98119921D02*
X138612299Y-98018906D01*
X138612299Y-98018906D02*
X138612299Y-97951562D01*
X138612299Y-97951562D02*
X138645971Y-97850547D01*
X134375704Y-85244750D02*
X134375704Y-85720940D01*
X134375704Y-85720940D02*
X133375704Y-85720940D01*
X133470942Y-84959035D02*
X133423323Y-84911416D01*
X133423323Y-84911416D02*
X133375704Y-84816178D01*
X133375704Y-84816178D02*
X133375704Y-84578083D01*
X133375704Y-84578083D02*
X133423323Y-84482845D01*
X133423323Y-84482845D02*
X133470942Y-84435226D01*
X133470942Y-84435226D02*
X133566180Y-84387607D01*
X133566180Y-84387607D02*
X133661418Y-84387607D01*
X133661418Y-84387607D02*
X133804275Y-84435226D01*
X133804275Y-84435226D02*
X134375704Y-85006654D01*
X134375704Y-85006654D02*
X134375704Y-84387607D01*
X190080384Y-105277842D02*
X189080384Y-105277842D01*
X189080384Y-105277842D02*
X189080384Y-105039747D01*
X189080384Y-105039747D02*
X189128003Y-104896890D01*
X189128003Y-104896890D02*
X189223241Y-104801652D01*
X189223241Y-104801652D02*
X189318479Y-104754033D01*
X189318479Y-104754033D02*
X189508955Y-104706414D01*
X189508955Y-104706414D02*
X189651812Y-104706414D01*
X189651812Y-104706414D02*
X189842288Y-104754033D01*
X189842288Y-104754033D02*
X189937526Y-104801652D01*
X189937526Y-104801652D02*
X190032765Y-104896890D01*
X190032765Y-104896890D02*
X190080384Y-105039747D01*
X190080384Y-105039747D02*
X190080384Y-105277842D01*
X189413717Y-103849271D02*
X190080384Y-103849271D01*
X189032765Y-104087366D02*
X189747050Y-104325461D01*
X189747050Y-104325461D02*
X189747050Y-103706414D01*
X151226158Y-96106772D02*
X150653739Y-96005757D01*
X150822097Y-96510833D02*
X150114991Y-95803726D01*
X150114991Y-95803726D02*
X150384365Y-95534352D01*
X150384365Y-95534352D02*
X150485380Y-95500680D01*
X150485380Y-95500680D02*
X150552723Y-95500680D01*
X150552723Y-95500680D02*
X150653739Y-95534352D01*
X150653739Y-95534352D02*
X150754754Y-95635367D01*
X150754754Y-95635367D02*
X150788426Y-95736383D01*
X150788426Y-95736383D02*
X150788426Y-95803726D01*
X150788426Y-95803726D02*
X150754754Y-95904741D01*
X150754754Y-95904741D02*
X150485380Y-96174115D01*
X150855769Y-95197635D02*
X150855769Y-95130291D01*
X150855769Y-95130291D02*
X150889441Y-95029276D01*
X150889441Y-95029276D02*
X151057800Y-94860917D01*
X151057800Y-94860917D02*
X151158815Y-94827245D01*
X151158815Y-94827245D02*
X151226158Y-94827245D01*
X151226158Y-94827245D02*
X151327174Y-94860917D01*
X151327174Y-94860917D02*
X151394517Y-94928261D01*
X151394517Y-94928261D02*
X151461861Y-95062948D01*
X151461861Y-95062948D02*
X151461861Y-95871070D01*
X151461861Y-95871070D02*
X151899593Y-95433337D01*
X152236311Y-95096619D02*
X152370998Y-94961932D01*
X152370998Y-94961932D02*
X152404670Y-94860917D01*
X152404670Y-94860917D02*
X152404670Y-94793573D01*
X152404670Y-94793573D02*
X152370998Y-94625215D01*
X152370998Y-94625215D02*
X152269983Y-94456856D01*
X152269983Y-94456856D02*
X152000609Y-94187482D01*
X152000609Y-94187482D02*
X151899594Y-94153810D01*
X151899594Y-94153810D02*
X151832250Y-94153810D01*
X151832250Y-94153810D02*
X151731235Y-94187482D01*
X151731235Y-94187482D02*
X151596548Y-94322169D01*
X151596548Y-94322169D02*
X151562876Y-94423184D01*
X151562876Y-94423184D02*
X151562876Y-94490528D01*
X151562876Y-94490528D02*
X151596548Y-94591543D01*
X151596548Y-94591543D02*
X151764907Y-94759902D01*
X151764907Y-94759902D02*
X151865922Y-94793573D01*
X151865922Y-94793573D02*
X151933265Y-94793573D01*
X151933265Y-94793573D02*
X152034281Y-94759902D01*
X152034281Y-94759902D02*
X152168968Y-94625215D01*
X152168968Y-94625215D02*
X152202639Y-94524199D01*
X152202639Y-94524199D02*
X152202639Y-94456856D01*
X152202639Y-94456856D02*
X152168968Y-94355841D01*
X136540576Y-77318141D02*
X137189393Y-77318141D01*
X137189393Y-77318141D02*
X137265725Y-77279975D01*
X137265725Y-77279975D02*
X137303891Y-77241810D01*
X137303891Y-77241810D02*
X137342056Y-77165478D01*
X137342056Y-77165478D02*
X137342056Y-77012815D01*
X137342056Y-77012815D02*
X137303891Y-76936484D01*
X137303891Y-76936484D02*
X137265725Y-76898318D01*
X137265725Y-76898318D02*
X137189393Y-76860152D01*
X137189393Y-76860152D02*
X136540576Y-76860152D01*
X136807736Y-76135004D02*
X137342056Y-76135004D01*
X136502411Y-76325832D02*
X137074896Y-76516661D01*
X137074896Y-76516661D02*
X137074896Y-76020506D01*
X168931487Y-53250968D02*
X168455296Y-53584301D01*
X168931487Y-53822396D02*
X167931487Y-53822396D01*
X167931487Y-53822396D02*
X167931487Y-53441444D01*
X167931487Y-53441444D02*
X167979106Y-53346206D01*
X167979106Y-53346206D02*
X168026725Y-53298587D01*
X168026725Y-53298587D02*
X168121963Y-53250968D01*
X168121963Y-53250968D02*
X168264820Y-53250968D01*
X168264820Y-53250968D02*
X168360058Y-53298587D01*
X168360058Y-53298587D02*
X168407677Y-53346206D01*
X168407677Y-53346206D02*
X168455296Y-53441444D01*
X168455296Y-53441444D02*
X168455296Y-53822396D01*
X168264820Y-52393825D02*
X168931487Y-52393825D01*
X167883868Y-52631920D02*
X168598153Y-52870015D01*
X168598153Y-52870015D02*
X168598153Y-52250968D01*
X143722085Y-104017625D02*
X143722085Y-104084969D01*
X143722085Y-104084969D02*
X143654741Y-104219656D01*
X143654741Y-104219656D02*
X143587398Y-104286999D01*
X143587398Y-104286999D02*
X143452711Y-104354343D01*
X143452711Y-104354343D02*
X143318024Y-104354343D01*
X143318024Y-104354343D02*
X143217009Y-104320671D01*
X143217009Y-104320671D02*
X143048650Y-104219656D01*
X143048650Y-104219656D02*
X142947635Y-104118641D01*
X142947635Y-104118641D02*
X142846619Y-103950282D01*
X142846619Y-103950282D02*
X142812948Y-103849267D01*
X142812948Y-103849267D02*
X142812948Y-103714580D01*
X142812948Y-103714580D02*
X142880291Y-103579893D01*
X142880291Y-103579893D02*
X142947635Y-103512549D01*
X142947635Y-103512549D02*
X143082322Y-103445206D01*
X143082322Y-103445206D02*
X143149665Y-103445206D01*
X143419039Y-103175832D02*
X143419039Y-103108488D01*
X143419039Y-103108488D02*
X143452711Y-103007473D01*
X143452711Y-103007473D02*
X143621070Y-102839114D01*
X143621070Y-102839114D02*
X143722085Y-102805442D01*
X143722085Y-102805442D02*
X143789428Y-102805442D01*
X143789428Y-102805442D02*
X143890444Y-102839114D01*
X143890444Y-102839114D02*
X143957787Y-102906458D01*
X143957787Y-102906458D02*
X144025131Y-103041145D01*
X144025131Y-103041145D02*
X144025131Y-103849267D01*
X144025131Y-103849267D02*
X144462863Y-103411534D01*
X144395520Y-102064664D02*
X144058802Y-102401381D01*
X144058802Y-102401381D02*
X144361848Y-102771770D01*
X144361848Y-102771770D02*
X144361848Y-102704427D01*
X144361848Y-102704427D02*
X144395520Y-102603412D01*
X144395520Y-102603412D02*
X144563879Y-102435053D01*
X144563879Y-102435053D02*
X144664894Y-102401381D01*
X144664894Y-102401381D02*
X144732238Y-102401381D01*
X144732238Y-102401381D02*
X144833253Y-102435053D01*
X144833253Y-102435053D02*
X145001612Y-102603412D01*
X145001612Y-102603412D02*
X145035283Y-102704427D01*
X145035283Y-102704427D02*
X145035283Y-102771770D01*
X145035283Y-102771770D02*
X145001612Y-102872786D01*
X145001612Y-102872786D02*
X144833253Y-103041144D01*
X144833253Y-103041144D02*
X144732238Y-103074816D01*
X144732238Y-103074816D02*
X144664894Y-103074816D01*
X144910027Y-68937665D02*
X144862408Y-68985285D01*
X144862408Y-68985285D02*
X144719551Y-69032904D01*
X144719551Y-69032904D02*
X144624313Y-69032904D01*
X144624313Y-69032904D02*
X144481456Y-68985285D01*
X144481456Y-68985285D02*
X144386218Y-68890046D01*
X144386218Y-68890046D02*
X144338599Y-68794808D01*
X144338599Y-68794808D02*
X144290980Y-68604332D01*
X144290980Y-68604332D02*
X144290980Y-68461475D01*
X144290980Y-68461475D02*
X144338599Y-68270999D01*
X144338599Y-68270999D02*
X144386218Y-68175761D01*
X144386218Y-68175761D02*
X144481456Y-68080523D01*
X144481456Y-68080523D02*
X144624313Y-68032904D01*
X144624313Y-68032904D02*
X144719551Y-68032904D01*
X144719551Y-68032904D02*
X144862408Y-68080523D01*
X144862408Y-68080523D02*
X144910027Y-68128142D01*
X145243361Y-68032904D02*
X145862408Y-68032904D01*
X145862408Y-68032904D02*
X145529075Y-68413856D01*
X145529075Y-68413856D02*
X145671932Y-68413856D01*
X145671932Y-68413856D02*
X145767170Y-68461475D01*
X145767170Y-68461475D02*
X145814789Y-68509094D01*
X145814789Y-68509094D02*
X145862408Y-68604332D01*
X145862408Y-68604332D02*
X145862408Y-68842427D01*
X145862408Y-68842427D02*
X145814789Y-68937665D01*
X145814789Y-68937665D02*
X145767170Y-68985285D01*
X145767170Y-68985285D02*
X145671932Y-69032904D01*
X145671932Y-69032904D02*
X145386218Y-69032904D01*
X145386218Y-69032904D02*
X145290980Y-68985285D01*
X145290980Y-68985285D02*
X145243361Y-68937665D01*
X146767170Y-68032904D02*
X146290980Y-68032904D01*
X146290980Y-68032904D02*
X146243361Y-68509094D01*
X146243361Y-68509094D02*
X146290980Y-68461475D01*
X146290980Y-68461475D02*
X146386218Y-68413856D01*
X146386218Y-68413856D02*
X146624313Y-68413856D01*
X146624313Y-68413856D02*
X146719551Y-68461475D01*
X146719551Y-68461475D02*
X146767170Y-68509094D01*
X146767170Y-68509094D02*
X146814789Y-68604332D01*
X146814789Y-68604332D02*
X146814789Y-68842427D01*
X146814789Y-68842427D02*
X146767170Y-68937665D01*
X146767170Y-68937665D02*
X146719551Y-68985285D01*
X146719551Y-68985285D02*
X146624313Y-69032904D01*
X146624313Y-69032904D02*
X146386218Y-69032904D01*
X146386218Y-69032904D02*
X146290980Y-68985285D01*
X146290980Y-68985285D02*
X146243361Y-68937665D01*
X178813703Y-67951683D02*
X178241284Y-67850668D01*
X178409642Y-68355744D02*
X177702536Y-67648637D01*
X177702536Y-67648637D02*
X177971910Y-67379263D01*
X177971910Y-67379263D02*
X178072925Y-67345591D01*
X178072925Y-67345591D02*
X178140268Y-67345591D01*
X178140268Y-67345591D02*
X178241284Y-67379263D01*
X178241284Y-67379263D02*
X178342299Y-67480278D01*
X178342299Y-67480278D02*
X178375971Y-67581294D01*
X178375971Y-67581294D02*
X178375971Y-67648637D01*
X178375971Y-67648637D02*
X178342299Y-67749652D01*
X178342299Y-67749652D02*
X178072925Y-68019026D01*
X179487138Y-67278248D02*
X179083077Y-67682309D01*
X179285108Y-67480278D02*
X178578001Y-66773172D01*
X178578001Y-66773172D02*
X178611673Y-66941530D01*
X178611673Y-66941530D02*
X178611673Y-67076217D01*
X178611673Y-67076217D02*
X178578001Y-67177233D01*
X179116749Y-66369110D02*
X179116749Y-66301767D01*
X179116749Y-66301767D02*
X179150421Y-66200752D01*
X179150421Y-66200752D02*
X179318780Y-66032393D01*
X179318780Y-66032393D02*
X179419795Y-65998721D01*
X179419795Y-65998721D02*
X179487139Y-65998721D01*
X179487139Y-65998721D02*
X179588154Y-66032393D01*
X179588154Y-66032393D02*
X179655497Y-66099736D01*
X179655497Y-66099736D02*
X179722841Y-66234423D01*
X179722841Y-66234423D02*
X179722841Y-67042545D01*
X179722841Y-67042545D02*
X180160574Y-66604813D01*
X144910027Y-73037664D02*
X144862408Y-73085284D01*
X144862408Y-73085284D02*
X144719551Y-73132903D01*
X144719551Y-73132903D02*
X144624313Y-73132903D01*
X144624313Y-73132903D02*
X144481456Y-73085284D01*
X144481456Y-73085284D02*
X144386218Y-72990045D01*
X144386218Y-72990045D02*
X144338599Y-72894807D01*
X144338599Y-72894807D02*
X144290980Y-72704331D01*
X144290980Y-72704331D02*
X144290980Y-72561474D01*
X144290980Y-72561474D02*
X144338599Y-72370998D01*
X144338599Y-72370998D02*
X144386218Y-72275760D01*
X144386218Y-72275760D02*
X144481456Y-72180522D01*
X144481456Y-72180522D02*
X144624313Y-72132903D01*
X144624313Y-72132903D02*
X144719551Y-72132903D01*
X144719551Y-72132903D02*
X144862408Y-72180522D01*
X144862408Y-72180522D02*
X144910027Y-72228141D01*
X145290980Y-72228141D02*
X145338599Y-72180522D01*
X145338599Y-72180522D02*
X145433837Y-72132903D01*
X145433837Y-72132903D02*
X145671932Y-72132903D01*
X145671932Y-72132903D02*
X145767170Y-72180522D01*
X145767170Y-72180522D02*
X145814789Y-72228141D01*
X145814789Y-72228141D02*
X145862408Y-72323379D01*
X145862408Y-72323379D02*
X145862408Y-72418617D01*
X145862408Y-72418617D02*
X145814789Y-72561474D01*
X145814789Y-72561474D02*
X145243361Y-73132903D01*
X145243361Y-73132903D02*
X145862408Y-73132903D01*
X146433837Y-72561474D02*
X146338599Y-72513855D01*
X146338599Y-72513855D02*
X146290980Y-72466236D01*
X146290980Y-72466236D02*
X146243361Y-72370998D01*
X146243361Y-72370998D02*
X146243361Y-72323379D01*
X146243361Y-72323379D02*
X146290980Y-72228141D01*
X146290980Y-72228141D02*
X146338599Y-72180522D01*
X146338599Y-72180522D02*
X146433837Y-72132903D01*
X146433837Y-72132903D02*
X146624313Y-72132903D01*
X146624313Y-72132903D02*
X146719551Y-72180522D01*
X146719551Y-72180522D02*
X146767170Y-72228141D01*
X146767170Y-72228141D02*
X146814789Y-72323379D01*
X146814789Y-72323379D02*
X146814789Y-72370998D01*
X146814789Y-72370998D02*
X146767170Y-72466236D01*
X146767170Y-72466236D02*
X146719551Y-72513855D01*
X146719551Y-72513855D02*
X146624313Y-72561474D01*
X146624313Y-72561474D02*
X146433837Y-72561474D01*
X146433837Y-72561474D02*
X146338599Y-72609093D01*
X146338599Y-72609093D02*
X146290980Y-72656712D01*
X146290980Y-72656712D02*
X146243361Y-72751950D01*
X146243361Y-72751950D02*
X146243361Y-72942426D01*
X146243361Y-72942426D02*
X146290980Y-73037664D01*
X146290980Y-73037664D02*
X146338599Y-73085284D01*
X146338599Y-73085284D02*
X146433837Y-73132903D01*
X146433837Y-73132903D02*
X146624313Y-73132903D01*
X146624313Y-73132903D02*
X146719551Y-73085284D01*
X146719551Y-73085284D02*
X146767170Y-73037664D01*
X146767170Y-73037664D02*
X146814789Y-72942426D01*
X146814789Y-72942426D02*
X146814789Y-72751950D01*
X146814789Y-72751950D02*
X146767170Y-72656712D01*
X146767170Y-72656712D02*
X146719551Y-72609093D01*
X146719551Y-72609093D02*
X146624313Y-72561474D01*
X132610027Y-75032903D02*
X132276694Y-74556712D01*
X132038599Y-75032903D02*
X132038599Y-74032903D01*
X132038599Y-74032903D02*
X132419551Y-74032903D01*
X132419551Y-74032903D02*
X132514789Y-74080522D01*
X132514789Y-74080522D02*
X132562408Y-74128141D01*
X132562408Y-74128141D02*
X132610027Y-74223379D01*
X132610027Y-74223379D02*
X132610027Y-74366236D01*
X132610027Y-74366236D02*
X132562408Y-74461474D01*
X132562408Y-74461474D02*
X132514789Y-74509093D01*
X132514789Y-74509093D02*
X132419551Y-74556712D01*
X132419551Y-74556712D02*
X132038599Y-74556712D01*
X132990980Y-74128141D02*
X133038599Y-74080522D01*
X133038599Y-74080522D02*
X133133837Y-74032903D01*
X133133837Y-74032903D02*
X133371932Y-74032903D01*
X133371932Y-74032903D02*
X133467170Y-74080522D01*
X133467170Y-74080522D02*
X133514789Y-74128141D01*
X133514789Y-74128141D02*
X133562408Y-74223379D01*
X133562408Y-74223379D02*
X133562408Y-74318617D01*
X133562408Y-74318617D02*
X133514789Y-74461474D01*
X133514789Y-74461474D02*
X132943361Y-75032903D01*
X132943361Y-75032903D02*
X133562408Y-75032903D01*
X134419551Y-74032903D02*
X134229075Y-74032903D01*
X134229075Y-74032903D02*
X134133837Y-74080522D01*
X134133837Y-74080522D02*
X134086218Y-74128141D01*
X134086218Y-74128141D02*
X133990980Y-74270998D01*
X133990980Y-74270998D02*
X133943361Y-74461474D01*
X133943361Y-74461474D02*
X133943361Y-74842426D01*
X133943361Y-74842426D02*
X133990980Y-74937664D01*
X133990980Y-74937664D02*
X134038599Y-74985284D01*
X134038599Y-74985284D02*
X134133837Y-75032903D01*
X134133837Y-75032903D02*
X134324313Y-75032903D01*
X134324313Y-75032903D02*
X134419551Y-74985284D01*
X134419551Y-74985284D02*
X134467170Y-74937664D01*
X134467170Y-74937664D02*
X134514789Y-74842426D01*
X134514789Y-74842426D02*
X134514789Y-74604331D01*
X134514789Y-74604331D02*
X134467170Y-74509093D01*
X134467170Y-74509093D02*
X134419551Y-74461474D01*
X134419551Y-74461474D02*
X134324313Y-74413855D01*
X134324313Y-74413855D02*
X134133837Y-74413855D01*
X134133837Y-74413855D02*
X134038599Y-74461474D01*
X134038599Y-74461474D02*
X133990980Y-74509093D01*
X133990980Y-74509093D02*
X133943361Y-74604331D01*
X128010028Y-71837664D02*
X127962409Y-71885284D01*
X127962409Y-71885284D02*
X127819552Y-71932903D01*
X127819552Y-71932903D02*
X127724314Y-71932903D01*
X127724314Y-71932903D02*
X127581457Y-71885284D01*
X127581457Y-71885284D02*
X127486219Y-71790045D01*
X127486219Y-71790045D02*
X127438600Y-71694807D01*
X127438600Y-71694807D02*
X127390981Y-71504331D01*
X127390981Y-71504331D02*
X127390981Y-71361474D01*
X127390981Y-71361474D02*
X127438600Y-71170998D01*
X127438600Y-71170998D02*
X127486219Y-71075760D01*
X127486219Y-71075760D02*
X127581457Y-70980522D01*
X127581457Y-70980522D02*
X127724314Y-70932903D01*
X127724314Y-70932903D02*
X127819552Y-70932903D01*
X127819552Y-70932903D02*
X127962409Y-70980522D01*
X127962409Y-70980522D02*
X128010028Y-71028141D01*
X128867171Y-71266236D02*
X128867171Y-71932903D01*
X128629076Y-70885284D02*
X128390981Y-71599569D01*
X128390981Y-71599569D02*
X129010028Y-71599569D01*
X129581457Y-70932903D02*
X129676695Y-70932903D01*
X129676695Y-70932903D02*
X129771933Y-70980522D01*
X129771933Y-70980522D02*
X129819552Y-71028141D01*
X129819552Y-71028141D02*
X129867171Y-71123379D01*
X129867171Y-71123379D02*
X129914790Y-71313855D01*
X129914790Y-71313855D02*
X129914790Y-71551950D01*
X129914790Y-71551950D02*
X129867171Y-71742426D01*
X129867171Y-71742426D02*
X129819552Y-71837664D01*
X129819552Y-71837664D02*
X129771933Y-71885284D01*
X129771933Y-71885284D02*
X129676695Y-71932903D01*
X129676695Y-71932903D02*
X129581457Y-71932903D01*
X129581457Y-71932903D02*
X129486219Y-71885284D01*
X129486219Y-71885284D02*
X129438600Y-71837664D01*
X129438600Y-71837664D02*
X129390981Y-71742426D01*
X129390981Y-71742426D02*
X129343362Y-71551950D01*
X129343362Y-71551950D02*
X129343362Y-71313855D01*
X129343362Y-71313855D02*
X129390981Y-71123379D01*
X129390981Y-71123379D02*
X129438600Y-71028141D01*
X129438600Y-71028141D02*
X129486219Y-70980522D01*
X129486219Y-70980522D02*
X129581457Y-70932903D01*
X176950421Y-61214965D02*
X176378002Y-61113950D01*
X176546360Y-61619026D02*
X175839254Y-60911919D01*
X175839254Y-60911919D02*
X176108628Y-60642545D01*
X176108628Y-60642545D02*
X176209643Y-60608873D01*
X176209643Y-60608873D02*
X176276986Y-60608873D01*
X176276986Y-60608873D02*
X176378002Y-60642545D01*
X176378002Y-60642545D02*
X176479017Y-60743560D01*
X176479017Y-60743560D02*
X176512689Y-60844576D01*
X176512689Y-60844576D02*
X176512689Y-60911919D01*
X176512689Y-60911919D02*
X176479017Y-61012934D01*
X176479017Y-61012934D02*
X176209643Y-61282308D01*
X176950421Y-60406843D02*
X176849406Y-60440515D01*
X176849406Y-60440515D02*
X176782063Y-60440515D01*
X176782063Y-60440515D02*
X176681047Y-60406843D01*
X176681047Y-60406843D02*
X176647376Y-60373171D01*
X176647376Y-60373171D02*
X176613704Y-60272156D01*
X176613704Y-60272156D02*
X176613704Y-60204812D01*
X176613704Y-60204812D02*
X176647376Y-60103797D01*
X176647376Y-60103797D02*
X176782063Y-59969110D01*
X176782063Y-59969110D02*
X176883078Y-59935438D01*
X176883078Y-59935438D02*
X176950421Y-59935438D01*
X176950421Y-59935438D02*
X177051437Y-59969110D01*
X177051437Y-59969110D02*
X177085108Y-60002782D01*
X177085108Y-60002782D02*
X177118780Y-60103797D01*
X177118780Y-60103797D02*
X177118780Y-60171141D01*
X177118780Y-60171141D02*
X177085108Y-60272156D01*
X177085108Y-60272156D02*
X176950421Y-60406843D01*
X176950421Y-60406843D02*
X176916750Y-60507858D01*
X176916750Y-60507858D02*
X176916750Y-60575202D01*
X176916750Y-60575202D02*
X176950421Y-60676217D01*
X176950421Y-60676217D02*
X177085108Y-60810904D01*
X177085108Y-60810904D02*
X177186124Y-60844576D01*
X177186124Y-60844576D02*
X177253467Y-60844576D01*
X177253467Y-60844576D02*
X177354482Y-60810904D01*
X177354482Y-60810904D02*
X177489169Y-60676217D01*
X177489169Y-60676217D02*
X177522841Y-60575202D01*
X177522841Y-60575202D02*
X177522841Y-60507858D01*
X177522841Y-60507858D02*
X177489169Y-60406843D01*
X177489169Y-60406843D02*
X177354482Y-60272156D01*
X177354482Y-60272156D02*
X177253467Y-60238484D01*
X177253467Y-60238484D02*
X177186124Y-60238484D01*
X177186124Y-60238484D02*
X177085108Y-60272156D01*
X136767424Y-98194336D02*
X136767424Y-98261680D01*
X136767424Y-98261680D02*
X136700080Y-98396367D01*
X136700080Y-98396367D02*
X136632737Y-98463710D01*
X136632737Y-98463710D02*
X136498050Y-98531054D01*
X136498050Y-98531054D02*
X136363363Y-98531054D01*
X136363363Y-98531054D02*
X136262348Y-98497382D01*
X136262348Y-98497382D02*
X136093989Y-98396367D01*
X136093989Y-98396367D02*
X135992974Y-98295352D01*
X135992974Y-98295352D02*
X135891958Y-98126993D01*
X135891958Y-98126993D02*
X135858287Y-98025978D01*
X135858287Y-98025978D02*
X135858287Y-97891291D01*
X135858287Y-97891291D02*
X135925630Y-97756604D01*
X135925630Y-97756604D02*
X135992974Y-97689260D01*
X135992974Y-97689260D02*
X136127661Y-97621917D01*
X136127661Y-97621917D02*
X136195004Y-97621917D01*
X136363363Y-97318871D02*
X136801096Y-96881138D01*
X136801096Y-96881138D02*
X136834767Y-97386214D01*
X136834767Y-97386214D02*
X136935783Y-97285199D01*
X136935783Y-97285199D02*
X137036798Y-97251527D01*
X137036798Y-97251527D02*
X137104141Y-97251527D01*
X137104141Y-97251527D02*
X137205157Y-97285199D01*
X137205157Y-97285199D02*
X137373515Y-97453558D01*
X137373515Y-97453558D02*
X137407187Y-97554573D01*
X137407187Y-97554573D02*
X137407187Y-97621917D01*
X137407187Y-97621917D02*
X137373515Y-97722932D01*
X137373515Y-97722932D02*
X137171485Y-97924962D01*
X137171485Y-97924962D02*
X137070470Y-97958634D01*
X137070470Y-97958634D02*
X137003126Y-97958634D01*
X137137813Y-96679107D02*
X137137813Y-96611764D01*
X137137813Y-96611764D02*
X137171485Y-96510749D01*
X137171485Y-96510749D02*
X137339844Y-96342390D01*
X137339844Y-96342390D02*
X137440859Y-96308718D01*
X137440859Y-96308718D02*
X137508203Y-96308718D01*
X137508203Y-96308718D02*
X137609218Y-96342390D01*
X137609218Y-96342390D02*
X137676561Y-96409733D01*
X137676561Y-96409733D02*
X137743905Y-96544420D01*
X137743905Y-96544420D02*
X137743905Y-97352542D01*
X137743905Y-97352542D02*
X138181638Y-96914810D01*
X176483078Y-69347621D02*
X176483078Y-69414965D01*
X176483078Y-69414965D02*
X176415734Y-69549652D01*
X176415734Y-69549652D02*
X176348391Y-69616995D01*
X176348391Y-69616995D02*
X176213704Y-69684339D01*
X176213704Y-69684339D02*
X176079017Y-69684339D01*
X176079017Y-69684339D02*
X175978002Y-69650667D01*
X175978002Y-69650667D02*
X175809643Y-69549652D01*
X175809643Y-69549652D02*
X175708628Y-69448637D01*
X175708628Y-69448637D02*
X175607612Y-69280278D01*
X175607612Y-69280278D02*
X175573941Y-69179263D01*
X175573941Y-69179263D02*
X175573941Y-69044576D01*
X175573941Y-69044576D02*
X175641284Y-68909889D01*
X175641284Y-68909889D02*
X175708628Y-68842545D01*
X175708628Y-68842545D02*
X175843315Y-68775202D01*
X175843315Y-68775202D02*
X175910658Y-68775202D01*
X176685108Y-68337469D02*
X177156513Y-68808873D01*
X176247376Y-68236454D02*
X176584093Y-68909889D01*
X176584093Y-68909889D02*
X177021826Y-68472156D01*
X185310781Y-101295664D02*
X184834590Y-101628997D01*
X185310781Y-101867092D02*
X184310781Y-101867092D01*
X184310781Y-101867092D02*
X184310781Y-101486140D01*
X184310781Y-101486140D02*
X184358400Y-101390902D01*
X184358400Y-101390902D02*
X184406019Y-101343283D01*
X184406019Y-101343283D02*
X184501257Y-101295664D01*
X184501257Y-101295664D02*
X184644114Y-101295664D01*
X184644114Y-101295664D02*
X184739352Y-101343283D01*
X184739352Y-101343283D02*
X184786971Y-101390902D01*
X184786971Y-101390902D02*
X184834590Y-101486140D01*
X184834590Y-101486140D02*
X184834590Y-101867092D01*
X184406019Y-100914711D02*
X184358400Y-100867092D01*
X184358400Y-100867092D02*
X184310781Y-100771854D01*
X184310781Y-100771854D02*
X184310781Y-100533759D01*
X184310781Y-100533759D02*
X184358400Y-100438521D01*
X184358400Y-100438521D02*
X184406019Y-100390902D01*
X184406019Y-100390902D02*
X184501257Y-100343283D01*
X184501257Y-100343283D02*
X184596495Y-100343283D01*
X184596495Y-100343283D02*
X184739352Y-100390902D01*
X184739352Y-100390902D02*
X185310781Y-100962330D01*
X185310781Y-100962330D02*
X185310781Y-100343283D01*
X184644114Y-99486140D02*
X185310781Y-99486140D01*
X184263162Y-99724235D02*
X184977447Y-99962330D01*
X184977447Y-99962330D02*
X184977447Y-99343283D01*
X162281195Y-98115730D02*
X162281195Y-98183074D01*
X162281195Y-98183074D02*
X162213851Y-98317761D01*
X162213851Y-98317761D02*
X162146508Y-98385104D01*
X162146508Y-98385104D02*
X162011821Y-98452448D01*
X162011821Y-98452448D02*
X161877134Y-98452448D01*
X161877134Y-98452448D02*
X161776119Y-98418776D01*
X161776119Y-98418776D02*
X161607760Y-98317761D01*
X161607760Y-98317761D02*
X161506745Y-98216746D01*
X161506745Y-98216746D02*
X161405729Y-98048387D01*
X161405729Y-98048387D02*
X161372058Y-97947372D01*
X161372058Y-97947372D02*
X161372058Y-97812685D01*
X161372058Y-97812685D02*
X161439401Y-97677998D01*
X161439401Y-97677998D02*
X161506745Y-97610654D01*
X161506745Y-97610654D02*
X161641432Y-97543311D01*
X161641432Y-97543311D02*
X161708775Y-97543311D01*
X163021973Y-97509639D02*
X162617912Y-97913700D01*
X162819943Y-97711669D02*
X162112836Y-97004563D01*
X162112836Y-97004563D02*
X162146508Y-97172921D01*
X162146508Y-97172921D02*
X162146508Y-97307608D01*
X162146508Y-97307608D02*
X162112836Y-97408624D01*
X162954630Y-96162769D02*
X162617912Y-96499486D01*
X162617912Y-96499486D02*
X162920958Y-96869875D01*
X162920958Y-96869875D02*
X162920958Y-96802532D01*
X162920958Y-96802532D02*
X162954630Y-96701517D01*
X162954630Y-96701517D02*
X163122989Y-96533158D01*
X163122989Y-96533158D02*
X163224004Y-96499486D01*
X163224004Y-96499486D02*
X163291348Y-96499486D01*
X163291348Y-96499486D02*
X163392363Y-96533158D01*
X163392363Y-96533158D02*
X163560722Y-96701517D01*
X163560722Y-96701517D02*
X163594393Y-96802532D01*
X163594393Y-96802532D02*
X163594393Y-96869875D01*
X163594393Y-96869875D02*
X163560722Y-96970891D01*
X163560722Y-96970891D02*
X163392363Y-97139249D01*
X163392363Y-97139249D02*
X163291348Y-97172921D01*
X163291348Y-97172921D02*
X163224004Y-97172921D01*
X172799749Y-107672194D02*
X172766077Y-107571179D01*
X172766077Y-107571179D02*
X172766077Y-107436492D01*
X172766077Y-107436492D02*
X172766077Y-107234461D01*
X172766077Y-107234461D02*
X172732405Y-107133446D01*
X172732405Y-107133446D02*
X172665062Y-107066103D01*
X172530375Y-107268133D02*
X172496703Y-107167118D01*
X172496703Y-107167118D02*
X172496703Y-107032431D01*
X172496703Y-107032431D02*
X172597718Y-106864072D01*
X172597718Y-106864072D02*
X172833421Y-106628370D01*
X172833421Y-106628370D02*
X173001779Y-106527355D01*
X173001779Y-106527355D02*
X173136466Y-106527355D01*
X173136466Y-106527355D02*
X173237482Y-106561026D01*
X173237482Y-106561026D02*
X173372169Y-106695713D01*
X173372169Y-106695713D02*
X173405840Y-106796729D01*
X173405840Y-106796729D02*
X173405840Y-106931416D01*
X173405840Y-106931416D02*
X173304825Y-107099774D01*
X173304825Y-107099774D02*
X173069123Y-107335477D01*
X173069123Y-107335477D02*
X172900764Y-107436492D01*
X172900764Y-107436492D02*
X172766077Y-107436492D01*
X172766077Y-107436492D02*
X172665062Y-107402820D01*
X172665062Y-107402820D02*
X172530375Y-107268133D01*
X173910917Y-107705866D02*
X173439512Y-108177270D01*
X174011932Y-107268133D02*
X173338497Y-107604851D01*
X173338497Y-107604851D02*
X173776230Y-108042583D01*
X178986934Y-101909273D02*
X178953262Y-101808258D01*
X178953262Y-101808258D02*
X178953262Y-101673571D01*
X178953262Y-101673571D02*
X178953262Y-101471540D01*
X178953262Y-101471540D02*
X178919590Y-101370525D01*
X178919590Y-101370525D02*
X178852247Y-101303182D01*
X178717560Y-101505212D02*
X178683888Y-101404197D01*
X178683888Y-101404197D02*
X178683888Y-101269510D01*
X178683888Y-101269510D02*
X178784903Y-101101151D01*
X178784903Y-101101151D02*
X179020606Y-100865449D01*
X179020606Y-100865449D02*
X179188964Y-100764434D01*
X179188964Y-100764434D02*
X179323651Y-100764434D01*
X179323651Y-100764434D02*
X179424667Y-100798105D01*
X179424667Y-100798105D02*
X179559354Y-100932792D01*
X179559354Y-100932792D02*
X179593025Y-101033808D01*
X179593025Y-101033808D02*
X179593025Y-101168495D01*
X179593025Y-101168495D02*
X179492010Y-101336853D01*
X179492010Y-101336853D02*
X179256308Y-101572556D01*
X179256308Y-101572556D02*
X179087949Y-101673571D01*
X179087949Y-101673571D02*
X178953262Y-101673571D01*
X178953262Y-101673571D02*
X178852247Y-101639899D01*
X178852247Y-101639899D02*
X178717560Y-101505212D01*
X179963415Y-101336853D02*
X180401147Y-101774586D01*
X180401147Y-101774586D02*
X179896071Y-101808258D01*
X179896071Y-101808258D02*
X179997086Y-101909273D01*
X179997086Y-101909273D02*
X180030758Y-102010288D01*
X180030758Y-102010288D02*
X180030758Y-102077632D01*
X180030758Y-102077632D02*
X179997086Y-102178647D01*
X179997086Y-102178647D02*
X179828728Y-102347006D01*
X179828728Y-102347006D02*
X179727712Y-102380678D01*
X179727712Y-102380678D02*
X179660369Y-102380678D01*
X179660369Y-102380678D02*
X179559354Y-102347006D01*
X179559354Y-102347006D02*
X179357323Y-102144975D01*
X179357323Y-102144975D02*
X179323651Y-102043960D01*
X179323651Y-102043960D02*
X179323651Y-101976617D01*
X179622174Y-70236410D02*
X179723189Y-69663991D01*
X179218113Y-69832349D02*
X179925220Y-69125243D01*
X179925220Y-69125243D02*
X180194594Y-69394617D01*
X180194594Y-69394617D02*
X180228266Y-69495632D01*
X180228266Y-69495632D02*
X180228266Y-69562975D01*
X180228266Y-69562975D02*
X180194594Y-69663991D01*
X180194594Y-69663991D02*
X180093579Y-69765006D01*
X180093579Y-69765006D02*
X179992563Y-69798678D01*
X179992563Y-69798678D02*
X179925220Y-69798678D01*
X179925220Y-69798678D02*
X179824205Y-69765006D01*
X179824205Y-69765006D02*
X179554831Y-69495632D01*
X180295609Y-70909845D02*
X179891548Y-70505784D01*
X180093579Y-70707815D02*
X180800685Y-70000708D01*
X180800685Y-70000708D02*
X180632327Y-70034380D01*
X180632327Y-70034380D02*
X180497640Y-70034380D01*
X180497640Y-70034380D02*
X180396624Y-70000708D01*
X181642479Y-70842502D02*
X181305762Y-70505784D01*
X181305762Y-70505784D02*
X180935373Y-70808830D01*
X180935373Y-70808830D02*
X181002716Y-70808830D01*
X181002716Y-70808830D02*
X181103731Y-70842502D01*
X181103731Y-70842502D02*
X181272090Y-71010861D01*
X181272090Y-71010861D02*
X181305762Y-71111876D01*
X181305762Y-71111876D02*
X181305762Y-71179220D01*
X181305762Y-71179220D02*
X181272090Y-71280235D01*
X181272090Y-71280235D02*
X181103731Y-71448594D01*
X181103731Y-71448594D02*
X181002716Y-71482265D01*
X181002716Y-71482265D02*
X180935373Y-71482265D01*
X180935373Y-71482265D02*
X180834357Y-71448594D01*
X180834357Y-71448594D02*
X180665999Y-71280235D01*
X180665999Y-71280235D02*
X180632327Y-71179220D01*
X180632327Y-71179220D02*
X180632327Y-71111876D01*
X158584764Y-59140120D02*
X159156192Y-59140120D01*
X158870478Y-60140120D02*
X158870478Y-59140120D01*
X159489526Y-60140120D02*
X159489526Y-59140120D01*
X159489526Y-59140120D02*
X159870478Y-59140120D01*
X159870478Y-59140120D02*
X159965716Y-59187739D01*
X159965716Y-59187739D02*
X160013335Y-59235358D01*
X160013335Y-59235358D02*
X160060954Y-59330596D01*
X160060954Y-59330596D02*
X160060954Y-59473453D01*
X160060954Y-59473453D02*
X160013335Y-59568691D01*
X160013335Y-59568691D02*
X159965716Y-59616310D01*
X159965716Y-59616310D02*
X159870478Y-59663929D01*
X159870478Y-59663929D02*
X159489526Y-59663929D01*
X160394288Y-59140120D02*
X161013335Y-59140120D01*
X161013335Y-59140120D02*
X160680002Y-59521072D01*
X160680002Y-59521072D02*
X160822859Y-59521072D01*
X160822859Y-59521072D02*
X160918097Y-59568691D01*
X160918097Y-59568691D02*
X160965716Y-59616310D01*
X160965716Y-59616310D02*
X161013335Y-59711548D01*
X161013335Y-59711548D02*
X161013335Y-59949643D01*
X161013335Y-59949643D02*
X160965716Y-60044881D01*
X160965716Y-60044881D02*
X160918097Y-60092501D01*
X160918097Y-60092501D02*
X160822859Y-60140120D01*
X160822859Y-60140120D02*
X160537145Y-60140120D01*
X160537145Y-60140120D02*
X160441907Y-60092501D01*
X160441907Y-60092501D02*
X160394288Y-60044881D01*
X152763332Y-112839122D02*
X152763332Y-113553407D01*
X152763332Y-113553407D02*
X152715713Y-113696264D01*
X152715713Y-113696264D02*
X152620475Y-113791503D01*
X152620475Y-113791503D02*
X152477618Y-113839122D01*
X152477618Y-113839122D02*
X152382380Y-113839122D01*
X153287142Y-113839122D02*
X153477618Y-113839122D01*
X153477618Y-113839122D02*
X153572856Y-113791503D01*
X153572856Y-113791503D02*
X153620475Y-113743883D01*
X153620475Y-113743883D02*
X153715713Y-113601026D01*
X153715713Y-113601026D02*
X153763332Y-113410550D01*
X153763332Y-113410550D02*
X153763332Y-113029598D01*
X153763332Y-113029598D02*
X153715713Y-112934360D01*
X153715713Y-112934360D02*
X153668094Y-112886741D01*
X153668094Y-112886741D02*
X153572856Y-112839122D01*
X153572856Y-112839122D02*
X153382380Y-112839122D01*
X153382380Y-112839122D02*
X153287142Y-112886741D01*
X153287142Y-112886741D02*
X153239523Y-112934360D01*
X153239523Y-112934360D02*
X153191904Y-113029598D01*
X153191904Y-113029598D02*
X153191904Y-113267693D01*
X153191904Y-113267693D02*
X153239523Y-113362931D01*
X153239523Y-113362931D02*
X153287142Y-113410550D01*
X153287142Y-113410550D02*
X153382380Y-113458169D01*
X153382380Y-113458169D02*
X153572856Y-113458169D01*
X153572856Y-113458169D02*
X153668094Y-113410550D01*
X153668094Y-113410550D02*
X153715713Y-113362931D01*
X153715713Y-113362931D02*
X153763332Y-113267693D01*
X193801485Y-80617635D02*
X194515770Y-80617635D01*
X194515770Y-80617635D02*
X194658627Y-80665254D01*
X194658627Y-80665254D02*
X194753866Y-80760492D01*
X194753866Y-80760492D02*
X194801485Y-80903349D01*
X194801485Y-80903349D02*
X194801485Y-80998587D01*
X194801485Y-79617635D02*
X194801485Y-80189063D01*
X194801485Y-79903349D02*
X193801485Y-79903349D01*
X193801485Y-79903349D02*
X193944342Y-79998587D01*
X193944342Y-79998587D02*
X194039580Y-80093825D01*
X194039580Y-80093825D02*
X194087199Y-80189063D01*
X169474665Y-85049826D02*
X169575680Y-84477407D01*
X169070604Y-84645765D02*
X169777711Y-83938659D01*
X169777711Y-83938659D02*
X170047085Y-84208033D01*
X170047085Y-84208033D02*
X170080757Y-84309048D01*
X170080757Y-84309048D02*
X170080757Y-84376391D01*
X170080757Y-84376391D02*
X170047085Y-84477407D01*
X170047085Y-84477407D02*
X169946070Y-84578422D01*
X169946070Y-84578422D02*
X169845054Y-84612094D01*
X169845054Y-84612094D02*
X169777711Y-84612094D01*
X169777711Y-84612094D02*
X169676696Y-84578422D01*
X169676696Y-84578422D02*
X169407322Y-84309048D01*
X170383802Y-84679437D02*
X170451146Y-84679437D01*
X170451146Y-84679437D02*
X170552161Y-84713109D01*
X170552161Y-84713109D02*
X170720520Y-84881468D01*
X170720520Y-84881468D02*
X170754192Y-84982483D01*
X170754192Y-84982483D02*
X170754192Y-85049826D01*
X170754192Y-85049826D02*
X170720520Y-85150842D01*
X170720520Y-85150842D02*
X170653176Y-85218185D01*
X170653176Y-85218185D02*
X170518489Y-85285529D01*
X170518489Y-85285529D02*
X169710367Y-85285529D01*
X169710367Y-85285529D02*
X170148100Y-85723261D01*
X170821535Y-86396697D02*
X170417474Y-85992636D01*
X170619505Y-86194666D02*
X171326612Y-85487559D01*
X171326612Y-85487559D02*
X171158253Y-85521231D01*
X171158253Y-85521231D02*
X171023566Y-85521231D01*
X171023566Y-85521231D02*
X170922551Y-85487559D01*
X161601486Y-71642175D02*
X161125295Y-71975508D01*
X161601486Y-72213603D02*
X160601486Y-72213603D01*
X160601486Y-72213603D02*
X160601486Y-71832651D01*
X160601486Y-71832651D02*
X160649105Y-71737413D01*
X160649105Y-71737413D02*
X160696724Y-71689794D01*
X160696724Y-71689794D02*
X160791962Y-71642175D01*
X160791962Y-71642175D02*
X160934819Y-71642175D01*
X160934819Y-71642175D02*
X161030057Y-71689794D01*
X161030057Y-71689794D02*
X161077676Y-71737413D01*
X161077676Y-71737413D02*
X161125295Y-71832651D01*
X161125295Y-71832651D02*
X161125295Y-72213603D01*
X160601486Y-71308841D02*
X160601486Y-70642175D01*
X160601486Y-70642175D02*
X161601486Y-71070746D01*
X193801486Y-91117636D02*
X194515771Y-91117636D01*
X194515771Y-91117636D02*
X194658628Y-91165255D01*
X194658628Y-91165255D02*
X194753867Y-91260493D01*
X194753867Y-91260493D02*
X194801486Y-91403350D01*
X194801486Y-91403350D02*
X194801486Y-91498588D01*
X193801486Y-90736683D02*
X193801486Y-90117636D01*
X193801486Y-90117636D02*
X194182438Y-90450969D01*
X194182438Y-90450969D02*
X194182438Y-90308112D01*
X194182438Y-90308112D02*
X194230057Y-90212874D01*
X194230057Y-90212874D02*
X194277676Y-90165255D01*
X194277676Y-90165255D02*
X194372914Y-90117636D01*
X194372914Y-90117636D02*
X194611009Y-90117636D01*
X194611009Y-90117636D02*
X194706247Y-90165255D01*
X194706247Y-90165255D02*
X194753867Y-90212874D01*
X194753867Y-90212874D02*
X194801486Y-90308112D01*
X194801486Y-90308112D02*
X194801486Y-90593826D01*
X194801486Y-90593826D02*
X194753867Y-90689064D01*
X194753867Y-90689064D02*
X194706247Y-90736683D01*
X134410027Y-73437664D02*
X134362408Y-73485284D01*
X134362408Y-73485284D02*
X134219551Y-73532903D01*
X134219551Y-73532903D02*
X134124313Y-73532903D01*
X134124313Y-73532903D02*
X133981456Y-73485284D01*
X133981456Y-73485284D02*
X133886218Y-73390045D01*
X133886218Y-73390045D02*
X133838599Y-73294807D01*
X133838599Y-73294807D02*
X133790980Y-73104331D01*
X133790980Y-73104331D02*
X133790980Y-72961474D01*
X133790980Y-72961474D02*
X133838599Y-72770998D01*
X133838599Y-72770998D02*
X133886218Y-72675760D01*
X133886218Y-72675760D02*
X133981456Y-72580522D01*
X133981456Y-72580522D02*
X134124313Y-72532903D01*
X134124313Y-72532903D02*
X134219551Y-72532903D01*
X134219551Y-72532903D02*
X134362408Y-72580522D01*
X134362408Y-72580522D02*
X134410027Y-72628141D01*
X134743361Y-72532903D02*
X135362408Y-72532903D01*
X135362408Y-72532903D02*
X135029075Y-72913855D01*
X135029075Y-72913855D02*
X135171932Y-72913855D01*
X135171932Y-72913855D02*
X135267170Y-72961474D01*
X135267170Y-72961474D02*
X135314789Y-73009093D01*
X135314789Y-73009093D02*
X135362408Y-73104331D01*
X135362408Y-73104331D02*
X135362408Y-73342426D01*
X135362408Y-73342426D02*
X135314789Y-73437664D01*
X135314789Y-73437664D02*
X135267170Y-73485284D01*
X135267170Y-73485284D02*
X135171932Y-73532903D01*
X135171932Y-73532903D02*
X134886218Y-73532903D01*
X134886218Y-73532903D02*
X134790980Y-73485284D01*
X134790980Y-73485284D02*
X134743361Y-73437664D01*
X135838599Y-73532903D02*
X136029075Y-73532903D01*
X136029075Y-73532903D02*
X136124313Y-73485284D01*
X136124313Y-73485284D02*
X136171932Y-73437664D01*
X136171932Y-73437664D02*
X136267170Y-73294807D01*
X136267170Y-73294807D02*
X136314789Y-73104331D01*
X136314789Y-73104331D02*
X136314789Y-72723379D01*
X136314789Y-72723379D02*
X136267170Y-72628141D01*
X136267170Y-72628141D02*
X136219551Y-72580522D01*
X136219551Y-72580522D02*
X136124313Y-72532903D01*
X136124313Y-72532903D02*
X135933837Y-72532903D01*
X135933837Y-72532903D02*
X135838599Y-72580522D01*
X135838599Y-72580522D02*
X135790980Y-72628141D01*
X135790980Y-72628141D02*
X135743361Y-72723379D01*
X135743361Y-72723379D02*
X135743361Y-72961474D01*
X135743361Y-72961474D02*
X135790980Y-73056712D01*
X135790980Y-73056712D02*
X135838599Y-73104331D01*
X135838599Y-73104331D02*
X135933837Y-73151950D01*
X135933837Y-73151950D02*
X136124313Y-73151950D01*
X136124313Y-73151950D02*
X136219551Y-73104331D01*
X136219551Y-73104331D02*
X136267170Y-73056712D01*
X136267170Y-73056712D02*
X136314789Y-72961474D01*
X176735543Y-58829743D02*
X176735543Y-58258315D01*
X177735543Y-58544029D02*
X176735543Y-58544029D01*
X177735543Y-57924981D02*
X176735543Y-57924981D01*
X176735543Y-57924981D02*
X176735543Y-57544029D01*
X176735543Y-57544029D02*
X176783162Y-57448791D01*
X176783162Y-57448791D02*
X176830781Y-57401172D01*
X176830781Y-57401172D02*
X176926019Y-57353553D01*
X176926019Y-57353553D02*
X177068876Y-57353553D01*
X177068876Y-57353553D02*
X177164114Y-57401172D01*
X177164114Y-57401172D02*
X177211733Y-57448791D01*
X177211733Y-57448791D02*
X177259352Y-57544029D01*
X177259352Y-57544029D02*
X177259352Y-57924981D01*
X177735543Y-56401172D02*
X177735543Y-56972600D01*
X177735543Y-56686886D02*
X176735543Y-56686886D01*
X176735543Y-56686886D02*
X176878400Y-56782124D01*
X176878400Y-56782124D02*
X176973638Y-56877362D01*
X176973638Y-56877362D02*
X177021257Y-56972600D01*
X150500519Y-70278444D02*
X151214804Y-70278444D01*
X151214804Y-70278444D02*
X151357661Y-70326063D01*
X151357661Y-70326063D02*
X151452900Y-70421301D01*
X151452900Y-70421301D02*
X151500519Y-70564158D01*
X151500519Y-70564158D02*
X151500519Y-70659396D01*
X150833852Y-69373682D02*
X151500519Y-69373682D01*
X150452900Y-69611777D02*
X151167185Y-69849872D01*
X151167185Y-69849872D02*
X151167185Y-69230825D01*
X161263333Y-112839122D02*
X161263333Y-113553407D01*
X161263333Y-113553407D02*
X161215714Y-113696264D01*
X161215714Y-113696264D02*
X161120476Y-113791503D01*
X161120476Y-113791503D02*
X160977619Y-113839122D01*
X160977619Y-113839122D02*
X160882381Y-113839122D01*
X161882381Y-113267693D02*
X161787143Y-113220074D01*
X161787143Y-113220074D02*
X161739524Y-113172455D01*
X161739524Y-113172455D02*
X161691905Y-113077217D01*
X161691905Y-113077217D02*
X161691905Y-113029598D01*
X161691905Y-113029598D02*
X161739524Y-112934360D01*
X161739524Y-112934360D02*
X161787143Y-112886741D01*
X161787143Y-112886741D02*
X161882381Y-112839122D01*
X161882381Y-112839122D02*
X162072857Y-112839122D01*
X162072857Y-112839122D02*
X162168095Y-112886741D01*
X162168095Y-112886741D02*
X162215714Y-112934360D01*
X162215714Y-112934360D02*
X162263333Y-113029598D01*
X162263333Y-113029598D02*
X162263333Y-113077217D01*
X162263333Y-113077217D02*
X162215714Y-113172455D01*
X162215714Y-113172455D02*
X162168095Y-113220074D01*
X162168095Y-113220074D02*
X162072857Y-113267693D01*
X162072857Y-113267693D02*
X161882381Y-113267693D01*
X161882381Y-113267693D02*
X161787143Y-113315312D01*
X161787143Y-113315312D02*
X161739524Y-113362931D01*
X161739524Y-113362931D02*
X161691905Y-113458169D01*
X161691905Y-113458169D02*
X161691905Y-113648645D01*
X161691905Y-113648645D02*
X161739524Y-113743883D01*
X161739524Y-113743883D02*
X161787143Y-113791503D01*
X161787143Y-113791503D02*
X161882381Y-113839122D01*
X161882381Y-113839122D02*
X162072857Y-113839122D01*
X162072857Y-113839122D02*
X162168095Y-113791503D01*
X162168095Y-113791503D02*
X162215714Y-113743883D01*
X162215714Y-113743883D02*
X162263333Y-113648645D01*
X162263333Y-113648645D02*
X162263333Y-113458169D01*
X162263333Y-113458169D02*
X162215714Y-113362931D01*
X162215714Y-113362931D02*
X162168095Y-113315312D01*
X162168095Y-113315312D02*
X162072857Y-113267693D01*
X155157095Y-109553182D02*
X155157095Y-109620526D01*
X155157095Y-109620526D02*
X155089751Y-109755213D01*
X155089751Y-109755213D02*
X155022408Y-109822556D01*
X155022408Y-109822556D02*
X154887721Y-109889900D01*
X154887721Y-109889900D02*
X154753034Y-109889900D01*
X154753034Y-109889900D02*
X154652019Y-109856228D01*
X154652019Y-109856228D02*
X154483660Y-109755213D01*
X154483660Y-109755213D02*
X154382645Y-109654198D01*
X154382645Y-109654198D02*
X154281629Y-109485839D01*
X154281629Y-109485839D02*
X154247958Y-109384824D01*
X154247958Y-109384824D02*
X154247958Y-109250137D01*
X154247958Y-109250137D02*
X154315301Y-109115450D01*
X154315301Y-109115450D02*
X154382645Y-109048106D01*
X154382645Y-109048106D02*
X154517332Y-108980763D01*
X154517332Y-108980763D02*
X154584675Y-108980763D01*
X155897873Y-108947091D02*
X155493812Y-109351152D01*
X155695843Y-109149121D02*
X154988736Y-108442015D01*
X154988736Y-108442015D02*
X155022408Y-108610373D01*
X155022408Y-108610373D02*
X155022408Y-108745060D01*
X155022408Y-108745060D02*
X154988736Y-108846076D01*
X155426469Y-108004282D02*
X155897874Y-107532877D01*
X155897874Y-107532877D02*
X156301935Y-108543030D01*
X138307704Y-67733441D02*
X137831513Y-68066774D01*
X138307704Y-68304869D02*
X137307704Y-68304869D01*
X137307704Y-68304869D02*
X137307704Y-67923917D01*
X137307704Y-67923917D02*
X137355323Y-67828679D01*
X137355323Y-67828679D02*
X137402942Y-67781060D01*
X137402942Y-67781060D02*
X137498180Y-67733441D01*
X137498180Y-67733441D02*
X137641037Y-67733441D01*
X137641037Y-67733441D02*
X137736275Y-67781060D01*
X137736275Y-67781060D02*
X137783894Y-67828679D01*
X137783894Y-67828679D02*
X137831513Y-67923917D01*
X137831513Y-67923917D02*
X137831513Y-68304869D01*
X137402942Y-67352488D02*
X137355323Y-67304869D01*
X137355323Y-67304869D02*
X137307704Y-67209631D01*
X137307704Y-67209631D02*
X137307704Y-66971536D01*
X137307704Y-66971536D02*
X137355323Y-66876298D01*
X137355323Y-66876298D02*
X137402942Y-66828679D01*
X137402942Y-66828679D02*
X137498180Y-66781060D01*
X137498180Y-66781060D02*
X137593418Y-66781060D01*
X137593418Y-66781060D02*
X137736275Y-66828679D01*
X137736275Y-66828679D02*
X138307704Y-67400107D01*
X138307704Y-67400107D02*
X138307704Y-66781060D01*
X137307704Y-66447726D02*
X137307704Y-65781060D01*
X137307704Y-65781060D02*
X138307704Y-66209631D01*
X175036502Y-78371927D02*
X175002830Y-78270912D01*
X175002830Y-78270912D02*
X175002830Y-78136225D01*
X175002830Y-78136225D02*
X175002830Y-77934194D01*
X175002830Y-77934194D02*
X174969158Y-77833179D01*
X174969158Y-77833179D02*
X174901815Y-77765836D01*
X174767128Y-77967866D02*
X174733456Y-77866851D01*
X174733456Y-77866851D02*
X174733456Y-77732164D01*
X174733456Y-77732164D02*
X174834471Y-77563805D01*
X174834471Y-77563805D02*
X175070174Y-77328103D01*
X175070174Y-77328103D02*
X175238532Y-77227088D01*
X175238532Y-77227088D02*
X175373219Y-77227088D01*
X175373219Y-77227088D02*
X175474235Y-77260759D01*
X175474235Y-77260759D02*
X175608922Y-77395446D01*
X175608922Y-77395446D02*
X175642593Y-77496462D01*
X175642593Y-77496462D02*
X175642593Y-77631149D01*
X175642593Y-77631149D02*
X175541578Y-77799507D01*
X175541578Y-77799507D02*
X175305876Y-78035210D01*
X175305876Y-78035210D02*
X175137517Y-78136225D01*
X175137517Y-78136225D02*
X175002830Y-78136225D01*
X175002830Y-78136225D02*
X174901815Y-78102553D01*
X174901815Y-78102553D02*
X174767128Y-77967866D01*
X175979311Y-77900523D02*
X176046654Y-77900523D01*
X176046654Y-77900523D02*
X176147670Y-77934194D01*
X176147670Y-77934194D02*
X176316028Y-78102553D01*
X176316028Y-78102553D02*
X176349700Y-78203568D01*
X176349700Y-78203568D02*
X176349700Y-78270912D01*
X176349700Y-78270912D02*
X176316028Y-78371927D01*
X176316028Y-78371927D02*
X176248685Y-78439271D01*
X176248685Y-78439271D02*
X176113998Y-78506614D01*
X176113998Y-78506614D02*
X175305876Y-78506614D01*
X175305876Y-78506614D02*
X175743609Y-78944347D01*
X128331008Y-97615357D02*
X128735069Y-98019418D01*
X127825932Y-98524494D02*
X128533039Y-97817387D01*
X128263665Y-98962227D02*
X128970772Y-98255120D01*
X128970772Y-98255120D02*
X129240146Y-98524494D01*
X129240146Y-98524494D02*
X129273817Y-98625510D01*
X129273817Y-98625510D02*
X129273817Y-98692853D01*
X129273817Y-98692853D02*
X129240146Y-98793868D01*
X129240146Y-98793868D02*
X129139130Y-98894884D01*
X129139130Y-98894884D02*
X129038115Y-98928555D01*
X129038115Y-98928555D02*
X128970772Y-98928555D01*
X128970772Y-98928555D02*
X128869756Y-98894884D01*
X128869756Y-98894884D02*
X128600382Y-98625510D01*
X130014596Y-99298945D02*
X129677878Y-98962227D01*
X129677878Y-98962227D02*
X129307489Y-99265273D01*
X129307489Y-99265273D02*
X129374833Y-99265273D01*
X129374833Y-99265273D02*
X129475848Y-99298945D01*
X129475848Y-99298945D02*
X129644207Y-99467303D01*
X129644207Y-99467303D02*
X129677878Y-99568319D01*
X129677878Y-99568319D02*
X129677878Y-99635662D01*
X129677878Y-99635662D02*
X129644207Y-99736677D01*
X129644207Y-99736677D02*
X129475848Y-99905036D01*
X129475848Y-99905036D02*
X129374833Y-99938708D01*
X129374833Y-99938708D02*
X129307489Y-99938708D01*
X129307489Y-99938708D02*
X129206474Y-99905036D01*
X129206474Y-99905036D02*
X129038115Y-99736677D01*
X129038115Y-99736677D02*
X129004443Y-99635662D01*
X129004443Y-99635662D02*
X129004443Y-99568319D01*
X147672527Y-87595165D02*
X147624908Y-87642785D01*
X147624908Y-87642785D02*
X147482051Y-87690404D01*
X147482051Y-87690404D02*
X147386813Y-87690404D01*
X147386813Y-87690404D02*
X147243956Y-87642785D01*
X147243956Y-87642785D02*
X147148718Y-87547546D01*
X147148718Y-87547546D02*
X147101099Y-87452308D01*
X147101099Y-87452308D02*
X147053480Y-87261832D01*
X147053480Y-87261832D02*
X147053480Y-87118975D01*
X147053480Y-87118975D02*
X147101099Y-86928499D01*
X147101099Y-86928499D02*
X147148718Y-86833261D01*
X147148718Y-86833261D02*
X147243956Y-86738023D01*
X147243956Y-86738023D02*
X147386813Y-86690404D01*
X147386813Y-86690404D02*
X147482051Y-86690404D01*
X147482051Y-86690404D02*
X147624908Y-86738023D01*
X147624908Y-86738023D02*
X147672527Y-86785642D01*
X148053480Y-86785642D02*
X148101099Y-86738023D01*
X148101099Y-86738023D02*
X148196337Y-86690404D01*
X148196337Y-86690404D02*
X148434432Y-86690404D01*
X148434432Y-86690404D02*
X148529670Y-86738023D01*
X148529670Y-86738023D02*
X148577289Y-86785642D01*
X148577289Y-86785642D02*
X148624908Y-86880880D01*
X148624908Y-86880880D02*
X148624908Y-86976118D01*
X148624908Y-86976118D02*
X148577289Y-87118975D01*
X148577289Y-87118975D02*
X148005861Y-87690404D01*
X148005861Y-87690404D02*
X148624908Y-87690404D01*
X149005861Y-86785642D02*
X149053480Y-86738023D01*
X149053480Y-86738023D02*
X149148718Y-86690404D01*
X149148718Y-86690404D02*
X149386813Y-86690404D01*
X149386813Y-86690404D02*
X149482051Y-86738023D01*
X149482051Y-86738023D02*
X149529670Y-86785642D01*
X149529670Y-86785642D02*
X149577289Y-86880880D01*
X149577289Y-86880880D02*
X149577289Y-86976118D01*
X149577289Y-86976118D02*
X149529670Y-87118975D01*
X149529670Y-87118975D02*
X148958242Y-87690404D01*
X148958242Y-87690404D02*
X149577289Y-87690404D01*
X122107704Y-74739989D02*
X122107704Y-74168561D01*
X123107704Y-74454275D02*
X122107704Y-74454275D01*
X123107704Y-73835227D02*
X122107704Y-73835227D01*
X122107704Y-73835227D02*
X122107704Y-73454275D01*
X122107704Y-73454275D02*
X122155323Y-73359037D01*
X122155323Y-73359037D02*
X122202942Y-73311418D01*
X122202942Y-73311418D02*
X122298180Y-73263799D01*
X122298180Y-73263799D02*
X122441037Y-73263799D01*
X122441037Y-73263799D02*
X122536275Y-73311418D01*
X122536275Y-73311418D02*
X122583894Y-73359037D01*
X122583894Y-73359037D02*
X122631513Y-73454275D01*
X122631513Y-73454275D02*
X122631513Y-73835227D01*
X122202942Y-72882846D02*
X122155323Y-72835227D01*
X122155323Y-72835227D02*
X122107704Y-72739989D01*
X122107704Y-72739989D02*
X122107704Y-72501894D01*
X122107704Y-72501894D02*
X122155323Y-72406656D01*
X122155323Y-72406656D02*
X122202942Y-72359037D01*
X122202942Y-72359037D02*
X122298180Y-72311418D01*
X122298180Y-72311418D02*
X122393418Y-72311418D01*
X122393418Y-72311418D02*
X122536275Y-72359037D01*
X122536275Y-72359037D02*
X123107704Y-72930465D01*
X123107704Y-72930465D02*
X123107704Y-72311418D01*
X146055538Y-106492500D02*
X146055538Y-106559844D01*
X146055538Y-106559844D02*
X145988194Y-106694531D01*
X145988194Y-106694531D02*
X145920851Y-106761874D01*
X145920851Y-106761874D02*
X145786164Y-106829218D01*
X145786164Y-106829218D02*
X145651477Y-106829218D01*
X145651477Y-106829218D02*
X145550462Y-106795546D01*
X145550462Y-106795546D02*
X145382103Y-106694531D01*
X145382103Y-106694531D02*
X145281088Y-106593516D01*
X145281088Y-106593516D02*
X145180072Y-106425157D01*
X145180072Y-106425157D02*
X145146401Y-106324142D01*
X145146401Y-106324142D02*
X145146401Y-106189455D01*
X145146401Y-106189455D02*
X145213744Y-106054768D01*
X145213744Y-106054768D02*
X145281088Y-105987424D01*
X145281088Y-105987424D02*
X145415775Y-105920081D01*
X145415775Y-105920081D02*
X145483118Y-105920081D01*
X145752492Y-105650707D02*
X145752492Y-105583363D01*
X145752492Y-105583363D02*
X145786164Y-105482348D01*
X145786164Y-105482348D02*
X145954523Y-105313989D01*
X145954523Y-105313989D02*
X146055538Y-105280317D01*
X146055538Y-105280317D02*
X146122881Y-105280317D01*
X146122881Y-105280317D02*
X146223897Y-105313989D01*
X146223897Y-105313989D02*
X146291240Y-105381333D01*
X146291240Y-105381333D02*
X146358584Y-105516020D01*
X146358584Y-105516020D02*
X146358584Y-106324142D01*
X146358584Y-106324142D02*
X146796316Y-105886409D01*
X147469752Y-105212974D02*
X147065691Y-105617035D01*
X147267721Y-105415004D02*
X146560614Y-104707897D01*
X146560614Y-104707897D02*
X146594286Y-104876256D01*
X146594286Y-104876256D02*
X146594286Y-105010943D01*
X146594286Y-105010943D02*
X146560614Y-105111958D01*
X144910027Y-64937665D02*
X144862408Y-64985285D01*
X144862408Y-64985285D02*
X144719551Y-65032904D01*
X144719551Y-65032904D02*
X144624313Y-65032904D01*
X144624313Y-65032904D02*
X144481456Y-64985285D01*
X144481456Y-64985285D02*
X144386218Y-64890046D01*
X144386218Y-64890046D02*
X144338599Y-64794808D01*
X144338599Y-64794808D02*
X144290980Y-64604332D01*
X144290980Y-64604332D02*
X144290980Y-64461475D01*
X144290980Y-64461475D02*
X144338599Y-64270999D01*
X144338599Y-64270999D02*
X144386218Y-64175761D01*
X144386218Y-64175761D02*
X144481456Y-64080523D01*
X144481456Y-64080523D02*
X144624313Y-64032904D01*
X144624313Y-64032904D02*
X144719551Y-64032904D01*
X144719551Y-64032904D02*
X144862408Y-64080523D01*
X144862408Y-64080523D02*
X144910027Y-64128142D01*
X145290980Y-64128142D02*
X145338599Y-64080523D01*
X145338599Y-64080523D02*
X145433837Y-64032904D01*
X145433837Y-64032904D02*
X145671932Y-64032904D01*
X145671932Y-64032904D02*
X145767170Y-64080523D01*
X145767170Y-64080523D02*
X145814789Y-64128142D01*
X145814789Y-64128142D02*
X145862408Y-64223380D01*
X145862408Y-64223380D02*
X145862408Y-64318618D01*
X145862408Y-64318618D02*
X145814789Y-64461475D01*
X145814789Y-64461475D02*
X145243361Y-65032904D01*
X145243361Y-65032904D02*
X145862408Y-65032904D01*
X146338599Y-65032904D02*
X146529075Y-65032904D01*
X146529075Y-65032904D02*
X146624313Y-64985285D01*
X146624313Y-64985285D02*
X146671932Y-64937665D01*
X146671932Y-64937665D02*
X146767170Y-64794808D01*
X146767170Y-64794808D02*
X146814789Y-64604332D01*
X146814789Y-64604332D02*
X146814789Y-64223380D01*
X146814789Y-64223380D02*
X146767170Y-64128142D01*
X146767170Y-64128142D02*
X146719551Y-64080523D01*
X146719551Y-64080523D02*
X146624313Y-64032904D01*
X146624313Y-64032904D02*
X146433837Y-64032904D01*
X146433837Y-64032904D02*
X146338599Y-64080523D01*
X146338599Y-64080523D02*
X146290980Y-64128142D01*
X146290980Y-64128142D02*
X146243361Y-64223380D01*
X146243361Y-64223380D02*
X146243361Y-64461475D01*
X146243361Y-64461475D02*
X146290980Y-64556713D01*
X146290980Y-64556713D02*
X146338599Y-64604332D01*
X146338599Y-64604332D02*
X146433837Y-64651951D01*
X146433837Y-64651951D02*
X146624313Y-64651951D01*
X146624313Y-64651951D02*
X146719551Y-64604332D01*
X146719551Y-64604332D02*
X146767170Y-64556713D01*
X146767170Y-64556713D02*
X146814789Y-64461475D01*
X165383627Y-104842083D02*
X165383627Y-104909427D01*
X165383627Y-104909427D02*
X165316283Y-105044114D01*
X165316283Y-105044114D02*
X165248940Y-105111457D01*
X165248940Y-105111457D02*
X165114253Y-105178801D01*
X165114253Y-105178801D02*
X164979566Y-105178801D01*
X164979566Y-105178801D02*
X164878551Y-105145129D01*
X164878551Y-105145129D02*
X164710192Y-105044114D01*
X164710192Y-105044114D02*
X164609177Y-104943099D01*
X164609177Y-104943099D02*
X164508161Y-104774740D01*
X164508161Y-104774740D02*
X164474490Y-104673725D01*
X164474490Y-104673725D02*
X164474490Y-104539038D01*
X164474490Y-104539038D02*
X164541833Y-104404351D01*
X164541833Y-104404351D02*
X164609177Y-104337007D01*
X164609177Y-104337007D02*
X164743864Y-104269664D01*
X164743864Y-104269664D02*
X164811207Y-104269664D01*
X166124405Y-104235992D02*
X165720344Y-104640053D01*
X165922375Y-104438022D02*
X165215268Y-103730916D01*
X165215268Y-103730916D02*
X165248940Y-103899274D01*
X165248940Y-103899274D02*
X165248940Y-104033961D01*
X165248940Y-104033961D02*
X165215268Y-104134977D01*
X166797841Y-103562557D02*
X166393780Y-103966618D01*
X166595810Y-103764587D02*
X165888703Y-103057480D01*
X165888703Y-103057480D02*
X165922375Y-103225839D01*
X165922375Y-103225839D02*
X165922375Y-103360526D01*
X165922375Y-103360526D02*
X165888703Y-103461541D01*
X147710027Y-85337663D02*
X147662408Y-85385283D01*
X147662408Y-85385283D02*
X147519551Y-85432902D01*
X147519551Y-85432902D02*
X147424313Y-85432902D01*
X147424313Y-85432902D02*
X147281456Y-85385283D01*
X147281456Y-85385283D02*
X147186218Y-85290044D01*
X147186218Y-85290044D02*
X147138599Y-85194806D01*
X147138599Y-85194806D02*
X147090980Y-85004330D01*
X147090980Y-85004330D02*
X147090980Y-84861473D01*
X147090980Y-84861473D02*
X147138599Y-84670997D01*
X147138599Y-84670997D02*
X147186218Y-84575759D01*
X147186218Y-84575759D02*
X147281456Y-84480521D01*
X147281456Y-84480521D02*
X147424313Y-84432902D01*
X147424313Y-84432902D02*
X147519551Y-84432902D01*
X147519551Y-84432902D02*
X147662408Y-84480521D01*
X147662408Y-84480521D02*
X147710027Y-84528140D01*
X148090980Y-84528140D02*
X148138599Y-84480521D01*
X148138599Y-84480521D02*
X148233837Y-84432902D01*
X148233837Y-84432902D02*
X148471932Y-84432902D01*
X148471932Y-84432902D02*
X148567170Y-84480521D01*
X148567170Y-84480521D02*
X148614789Y-84528140D01*
X148614789Y-84528140D02*
X148662408Y-84623378D01*
X148662408Y-84623378D02*
X148662408Y-84718616D01*
X148662408Y-84718616D02*
X148614789Y-84861473D01*
X148614789Y-84861473D02*
X148043361Y-85432902D01*
X148043361Y-85432902D02*
X148662408Y-85432902D01*
X149281456Y-84432902D02*
X149376694Y-84432902D01*
X149376694Y-84432902D02*
X149471932Y-84480521D01*
X149471932Y-84480521D02*
X149519551Y-84528140D01*
X149519551Y-84528140D02*
X149567170Y-84623378D01*
X149567170Y-84623378D02*
X149614789Y-84813854D01*
X149614789Y-84813854D02*
X149614789Y-85051949D01*
X149614789Y-85051949D02*
X149567170Y-85242425D01*
X149567170Y-85242425D02*
X149519551Y-85337663D01*
X149519551Y-85337663D02*
X149471932Y-85385283D01*
X149471932Y-85385283D02*
X149376694Y-85432902D01*
X149376694Y-85432902D02*
X149281456Y-85432902D01*
X149281456Y-85432902D02*
X149186218Y-85385283D01*
X149186218Y-85385283D02*
X149138599Y-85337663D01*
X149138599Y-85337663D02*
X149090980Y-85242425D01*
X149090980Y-85242425D02*
X149043361Y-85051949D01*
X149043361Y-85051949D02*
X149043361Y-84813854D01*
X149043361Y-84813854D02*
X149090980Y-84623378D01*
X149090980Y-84623378D02*
X149138599Y-84528140D01*
X149138599Y-84528140D02*
X149186218Y-84480521D01*
X149186218Y-84480521D02*
X149281456Y-84432902D01*
X156678129Y-92681838D02*
X157183205Y-93186914D01*
X157183205Y-93186914D02*
X157250548Y-93321601D01*
X157250548Y-93321601D02*
X157250548Y-93456288D01*
X157250548Y-93456288D02*
X157183205Y-93590975D01*
X157183205Y-93590975D02*
X157115861Y-93658319D01*
X157721953Y-93052227D02*
X157014846Y-92345120D01*
X157014846Y-92345120D02*
X157284220Y-92075746D01*
X157284220Y-92075746D02*
X157385236Y-92042075D01*
X157385236Y-92042075D02*
X157452579Y-92042075D01*
X157452579Y-92042075D02*
X157553594Y-92075746D01*
X157553594Y-92075746D02*
X157654610Y-92176762D01*
X157654610Y-92176762D02*
X157688281Y-92277777D01*
X157688281Y-92277777D02*
X157688281Y-92345120D01*
X157688281Y-92345120D02*
X157654610Y-92446136D01*
X157654610Y-92446136D02*
X157385236Y-92715510D01*
X158799449Y-91974731D02*
X158395388Y-92378792D01*
X158597419Y-92176762D02*
X157890312Y-91469655D01*
X157890312Y-91469655D02*
X157923984Y-91638014D01*
X157923984Y-91638014D02*
X157923984Y-91772701D01*
X157923984Y-91772701D02*
X157890312Y-91873716D01*
X158542200Y-90958545D02*
X158979933Y-90520813D01*
X158979933Y-90520813D02*
X159013605Y-91025889D01*
X159013605Y-91025889D02*
X159114620Y-90924874D01*
X159114620Y-90924874D02*
X159215635Y-90891202D01*
X159215635Y-90891202D02*
X159282979Y-90891202D01*
X159282979Y-90891202D02*
X159383994Y-90924874D01*
X159383994Y-90924874D02*
X159552353Y-91093232D01*
X159552353Y-91093232D02*
X159586025Y-91194248D01*
X159586025Y-91194248D02*
X159586025Y-91261591D01*
X159586025Y-91261591D02*
X159552353Y-91362606D01*
X159552353Y-91362606D02*
X159350322Y-91564637D01*
X159350322Y-91564637D02*
X159249307Y-91598309D01*
X159249307Y-91598309D02*
X159181964Y-91598309D01*
X163363996Y-87550963D02*
X162959935Y-87955024D01*
X163161965Y-87752994D02*
X162454859Y-87045887D01*
X162454859Y-87045887D02*
X162488530Y-87214246D01*
X162488530Y-87214246D02*
X162488530Y-87348933D01*
X162488530Y-87348933D02*
X162454859Y-87449948D01*
X182706247Y-79142175D02*
X182753867Y-79189794D01*
X182753867Y-79189794D02*
X182801486Y-79332651D01*
X182801486Y-79332651D02*
X182801486Y-79427889D01*
X182801486Y-79427889D02*
X182753867Y-79570746D01*
X182753867Y-79570746D02*
X182658628Y-79665984D01*
X182658628Y-79665984D02*
X182563390Y-79713603D01*
X182563390Y-79713603D02*
X182372914Y-79761222D01*
X182372914Y-79761222D02*
X182230057Y-79761222D01*
X182230057Y-79761222D02*
X182039581Y-79713603D01*
X182039581Y-79713603D02*
X181944343Y-79665984D01*
X181944343Y-79665984D02*
X181849105Y-79570746D01*
X181849105Y-79570746D02*
X181801486Y-79427889D01*
X181801486Y-79427889D02*
X181801486Y-79332651D01*
X181801486Y-79332651D02*
X181849105Y-79189794D01*
X181849105Y-79189794D02*
X181896724Y-79142175D01*
X181801486Y-78808841D02*
X181801486Y-78142175D01*
X181801486Y-78142175D02*
X182801486Y-78570746D01*
D12*
%TO.C,C27*%
X146844117Y-77868084D02*
X147136651Y-77868084D01*
X146844117Y-78888084D02*
X147136651Y-78888084D01*
%TO.C,C34*%
X137603512Y-92890459D02*
X137234045Y-93259926D01*
X138642959Y-93929906D02*
X138273492Y-94299373D01*
%TO.C,J5*%
X152045701Y-74880418D02*
X152045701Y-73550418D01*
X153375701Y-74880418D02*
X152045701Y-74880418D01*
X154645702Y-72220418D02*
X159785700Y-72220418D01*
X154645702Y-74880418D02*
X154645702Y-72220418D01*
X154645702Y-74880418D02*
X159785700Y-74880418D01*
X159785700Y-74880418D02*
X159785700Y-72220418D01*
%TO.C,D5*%
X187515075Y-98877856D02*
X187515075Y-101337856D01*
X188985075Y-98877856D02*
X187515075Y-98877856D01*
X188985075Y-101337856D02*
X188985075Y-98877856D01*
%TO.C,C16*%
X158835471Y-98210362D02*
X159042324Y-98003509D01*
X159556720Y-98931611D02*
X159763573Y-98724758D01*
%TO.C,L3*%
X140416602Y-103281971D02*
X139565155Y-102430524D01*
X142339933Y-101358640D02*
X141488486Y-100507193D01*
%TO.C,C2*%
X160737668Y-57095793D02*
X161260174Y-57095793D01*
X160737668Y-58565793D02*
X161260174Y-58565793D01*
%TO.C,D3*%
X185540267Y-70459331D02*
X187156007Y-72075069D01*
X187156007Y-72075069D02*
X188195454Y-71035622D01*
X188195454Y-71035622D02*
X186579716Y-69419882D01*
%TO.C,D1*%
X159186666Y-55149303D02*
X159186666Y-56619303D01*
X159186666Y-56619303D02*
X161646666Y-56619303D01*
X161646666Y-55149303D02*
X159186666Y-55149303D01*
%TO.C,C1*%
X148436667Y-54664257D02*
X148436667Y-56086761D01*
X150256667Y-54664257D02*
X150256667Y-56086761D01*
%TO.C,R14*%
X185163539Y-72327664D02*
X184803305Y-71967431D01*
X185902465Y-71588737D02*
X185542231Y-71228504D01*
%TO.C,D6*%
X150107809Y-100001304D02*
X151723548Y-98385565D01*
X150684101Y-97346118D02*
X149068362Y-98961857D01*
X151723548Y-98385565D02*
X150684101Y-97346118D01*
%TO.C,R22*%
X159615758Y-86703266D02*
X159255524Y-87063500D01*
X160354684Y-87442192D02*
X159994450Y-87802426D01*
%TO.C,C13*%
X166382068Y-100029394D02*
X166588921Y-99822541D01*
X167103317Y-100750643D02*
X167310170Y-100543790D01*
%TO.C,C31*%
X141754132Y-65843085D02*
X142276638Y-65843085D01*
X141754132Y-67313085D02*
X142276638Y-67313085D01*
D13*
%TO.C,U1*%
X166966220Y-75356245D02*
X167116099Y-75506123D01*
X169337008Y-72985457D02*
X166966220Y-75356245D01*
X169486886Y-73135336D02*
X169337008Y-72985457D01*
X169887590Y-78277614D02*
X170037468Y-78427493D01*
X170037468Y-78427493D02*
X172408256Y-76056705D01*
X172408256Y-76056705D02*
X172258377Y-75906827D01*
X167132383Y-76244421D02*
G75*
G02*
X167027973Y-76140010I-65542J38869D01*
G01*
D12*
%TO.C,C24*%
X144906618Y-79468085D02*
X145199152Y-79468085D01*
X144906618Y-80488085D02*
X145199152Y-80488085D01*
%TO.C,R23*%
X186027150Y-104759116D02*
X186027150Y-104249668D01*
X187072150Y-104759116D02*
X187072150Y-104249668D01*
%TO.C,C23*%
X146972575Y-101223284D02*
X146603108Y-101592751D01*
X148012022Y-102262731D02*
X147642555Y-102632198D01*
%TO.C,R30*%
X138407609Y-70955584D02*
X137898161Y-70955584D01*
X138407609Y-72000584D02*
X137898161Y-72000584D01*
%TO.C,R11*%
X169701259Y-83849370D02*
X170061493Y-84209604D01*
X170440185Y-83110444D02*
X170800419Y-83470678D01*
%TO.C,R2*%
X156824167Y-57439027D02*
X156824167Y-56929579D01*
X157869167Y-57439027D02*
X157869167Y-56929579D01*
D14*
%TO.C,U3*%
X142472722Y-98135879D02*
X142515149Y-98093453D01*
X142748494Y-98411651D02*
X142472722Y-98135879D01*
X144594043Y-100257200D02*
X144318271Y-99981428D01*
X144636469Y-100214773D02*
X144594043Y-100257200D01*
X145258723Y-95349879D02*
X145301149Y-95307452D01*
X145301149Y-95307452D02*
X145576921Y-95583224D01*
X147146698Y-97153001D02*
X147422470Y-97428773D01*
X147422470Y-97428773D02*
X147380043Y-97471199D01*
D15*
X144552621Y-95166031D02*
G75*
G02*
X144352621Y-95166031I-100000J0D01*
G01*
X144352621Y-95166031D02*
G75*
G02*
X144552621Y-95166031I100000J0D01*
G01*
D12*
%TO.C,R1*%
X150824169Y-54806527D02*
X150824169Y-54297079D01*
X151869169Y-54806527D02*
X151869169Y-54297079D01*
%TO.C,TP6*%
X140614407Y-109078084D02*
X142452885Y-107239606D01*
X142452885Y-110916562D02*
X140614407Y-109078084D01*
X144291363Y-109078084D02*
X142452885Y-107239606D01*
X144291363Y-109078084D02*
X142452885Y-110916562D01*
%TO.C,C19*%
X154202164Y-103303289D02*
X154571631Y-102933822D01*
X155241611Y-104342736D02*
X155611078Y-103973269D01*
%TO.C,R5*%
X166440820Y-68841860D02*
X166440820Y-69351308D01*
X167485820Y-68841860D02*
X167485820Y-69351308D01*
%TO.C,D2*%
X163261668Y-49749300D02*
X163261668Y-51219300D01*
X163261668Y-51219300D02*
X165546668Y-51219300D01*
X165546668Y-49749300D02*
X163261668Y-49749300D01*
%TO.C,J6*%
X122036669Y-86174301D02*
X122036669Y-93894301D01*
X122036669Y-93894301D02*
X128656669Y-93894301D01*
X122746669Y-87184301D02*
X122746669Y-92884301D01*
X122746669Y-92884301D02*
X127046669Y-92884301D01*
X125346669Y-86174301D02*
X125346669Y-87184301D01*
X125346669Y-93894301D02*
X125346669Y-92884301D01*
X127046669Y-87184301D02*
X122746669Y-87184301D01*
X127046669Y-92884301D02*
X127046669Y-87184301D01*
X127656669Y-88434301D02*
X128656669Y-88434301D01*
X127656669Y-89634301D02*
X127656669Y-88434301D01*
X127656669Y-90434301D02*
X128256669Y-90434301D01*
X127656669Y-91634301D02*
X127656669Y-90434301D01*
X128256669Y-89634301D02*
X127656669Y-89634301D01*
X128256669Y-90434301D02*
X128256669Y-89634301D01*
X128656669Y-86174301D02*
X122036669Y-86174301D01*
X128656669Y-88434301D02*
X128656669Y-86174301D01*
X128656669Y-91634301D02*
X127656669Y-91634301D01*
X128656669Y-93894301D02*
X128656669Y-91634301D01*
X128956669Y-85874301D02*
X127706669Y-85874301D01*
X128956669Y-87124301D02*
X128956669Y-85874301D01*
%TO.C,R18*%
X168951336Y-90109360D02*
X168591102Y-89749126D01*
X169690262Y-89370434D02*
X169330028Y-89010200D01*
%TO.C,C3*%
X166453320Y-65834766D02*
X166453320Y-65542232D01*
X167473320Y-65834766D02*
X167473320Y-65542232D01*
%TO.C,C14*%
X160912597Y-100446587D02*
X161119450Y-100239734D01*
X161633846Y-101167836D02*
X161840699Y-100960983D01*
%TO.C,C10*%
X177314481Y-82967363D02*
X176945014Y-83336830D01*
X178353928Y-84006810D02*
X177984461Y-84376277D01*
%TO.C,R13*%
X171637489Y-82005010D02*
X171997723Y-82365244D01*
X172376415Y-81266084D02*
X172736649Y-81626318D01*
%TO.C,R20*%
X171359034Y-89151231D02*
X170998800Y-88790997D01*
X172097960Y-88412305D02*
X171737726Y-88052071D01*
%TO.C,R17*%
X171289207Y-92447234D02*
X170928973Y-92087000D01*
X172028133Y-91708308D02*
X171667899Y-91348074D01*
%TO.C,R6*%
X163508051Y-71742327D02*
X163508051Y-71232879D01*
X164553051Y-71742327D02*
X164553051Y-71232879D01*
%TO.C,R10*%
X175178961Y-63671744D02*
X175539195Y-63311510D01*
X175917887Y-64410670D02*
X176278121Y-64050436D01*
%TO.C,R16*%
X173627079Y-94785105D02*
X173266845Y-94424871D01*
X174366005Y-94046179D02*
X174005771Y-93685945D01*
%TO.C,R25*%
X139907610Y-79469419D02*
X139398162Y-79469419D01*
X139907610Y-80514419D02*
X139398162Y-80514419D01*
%TO.C,C36*%
X136189297Y-91476247D02*
X135819830Y-91845714D01*
X137228744Y-92515694D02*
X136859277Y-92885161D01*
%TO.C,Q1*%
X168090326Y-66126733D02*
X168090327Y-65326733D01*
X168090326Y-66126733D02*
X168090327Y-66926733D01*
X171210328Y-66126733D02*
X171210327Y-65326733D01*
X171210328Y-66126733D02*
X171210327Y-66926733D01*
X171490327Y-65066733D02*
X171160327Y-64826733D01*
X171490327Y-64586733D01*
X171490327Y-65066733D01*
G36*
X171490327Y-65066733D02*
G01*
X171160327Y-64826733D01*
X171490327Y-64586733D01*
X171490327Y-65066733D01*
G37*
D14*
%TO.C,J2*%
X152860919Y-46621801D02*
X152860919Y-48001801D01*
X152860919Y-46621801D02*
X161800919Y-46621801D01*
X152860919Y-50441801D02*
X152860919Y-52031801D01*
X161800919Y-46621801D02*
X161800919Y-48001801D01*
X161800919Y-50441801D02*
X161800919Y-52031801D01*
D15*
X160630919Y-55221801D02*
G75*
G02*
X160430919Y-55221801I-100000J0D01*
G01*
X160430919Y-55221801D02*
G75*
G02*
X160630919Y-55221801I100000J0D01*
G01*
D12*
%TO.C,J7*%
X122036666Y-77674302D02*
X122036666Y-85394302D01*
X122036666Y-85394302D02*
X128656666Y-85394302D01*
X122746666Y-78684302D02*
X122746666Y-84384302D01*
X122746666Y-84384302D02*
X127046666Y-84384302D01*
X125346666Y-77674302D02*
X125346666Y-78684302D01*
X125346666Y-85394302D02*
X125346666Y-84384302D01*
X127046666Y-78684302D02*
X122746666Y-78684302D01*
X127046666Y-84384302D02*
X127046666Y-78684302D01*
X127656666Y-79934302D02*
X128656666Y-79934302D01*
X127656666Y-81134302D02*
X127656666Y-79934302D01*
X127656666Y-81934302D02*
X128256666Y-81934302D01*
X127656666Y-83134302D02*
X127656666Y-81934302D01*
X128256666Y-81134302D02*
X127656666Y-81134302D01*
X128256666Y-81934302D02*
X128256666Y-81134302D01*
X128656666Y-77674302D02*
X122036666Y-77674302D01*
X128656666Y-79934302D02*
X128656666Y-77674302D01*
X128656666Y-83134302D02*
X127656666Y-83134302D01*
X128656666Y-85394302D02*
X128656666Y-83134302D01*
X128956666Y-77374302D02*
X127706666Y-77374302D01*
X128956666Y-78624302D02*
X128956666Y-77374302D01*
%TO.C,C5*%
X163520550Y-68296686D02*
X163520550Y-68004152D01*
X164540550Y-68296686D02*
X164540550Y-68004152D01*
%TO.C,C6*%
X170975898Y-69730961D02*
X171981760Y-68725099D01*
X172262832Y-71017895D02*
X173268694Y-70012033D01*
%TO.C,R28*%
X138707609Y-69055584D02*
X138198161Y-69055584D01*
X138707609Y-70100584D02*
X138198161Y-70100584D01*
%TO.C,C9*%
X183494594Y-76219542D02*
X183494594Y-76512076D01*
X184514594Y-76219542D02*
X184514594Y-76512076D01*
%TO.C,R19*%
X173703094Y-91495290D02*
X173342860Y-91135056D01*
X174442020Y-90756364D02*
X174081786Y-90396130D01*
%TO.C,C33*%
X141754132Y-69843084D02*
X142276638Y-69843084D01*
X141754132Y-71313084D02*
X142276638Y-71313084D01*
%TO.C,R3*%
X154924168Y-56929578D02*
X154924168Y-57439026D01*
X155969168Y-56929578D02*
X155969168Y-57439026D01*
D11*
%TO.C,U2*%
X160881673Y-92253858D02*
X161275885Y-92648070D01*
X163816166Y-89319365D02*
X160881673Y-92253858D01*
X163816166Y-89319365D02*
X164210378Y-89713577D01*
X167210278Y-98582463D02*
X166816066Y-98188251D01*
X170144771Y-95647970D02*
X167210278Y-98582463D01*
X170144771Y-95647970D02*
X169750559Y-95253758D01*
D12*
X170609694Y-94977987D02*
X170270283Y-95317398D01*
X170206643Y-94914347D01*
X170609694Y-94977987D01*
G36*
X170609694Y-94977987D02*
G01*
X170270283Y-95317398D01*
X170206643Y-94914347D01*
X170609694Y-94977987D01*
G37*
%TO.C,C12*%
X162102319Y-101413541D02*
X161732852Y-101783008D01*
X163141766Y-102452988D02*
X162772299Y-102822455D01*
%TO.C,C37*%
X141661652Y-81068084D02*
X141369118Y-81068084D01*
X141661652Y-82088084D02*
X141369118Y-82088084D01*
%TO.C,C26*%
X142631050Y-94112000D02*
X142424197Y-93905147D01*
X143352299Y-93390751D02*
X143145446Y-93183898D01*
%TO.C,R9*%
X176239621Y-64732405D02*
X176599855Y-64372171D01*
X176978547Y-65471331D02*
X177338781Y-65111097D01*
%TO.C,C18*%
X155616379Y-104717501D02*
X155985846Y-104348034D01*
X156655826Y-105756948D02*
X157025293Y-105387481D01*
%TO.C,C38*%
X136399152Y-77868085D02*
X136106618Y-77868085D01*
X136399152Y-78888085D02*
X136106618Y-78888085D01*
%TO.C,TP4*%
X177846668Y-73084303D02*
X177846668Y-75684303D01*
X177846668Y-73084303D02*
X180446668Y-73084303D01*
X180446668Y-73084303D02*
X180446668Y-75684303D01*
X180446668Y-75684303D02*
X177846668Y-75684303D01*
%TO.C,C30*%
X140440675Y-95734366D02*
X140071208Y-96103833D01*
X141480122Y-96773813D02*
X141110655Y-97143280D01*
%TO.C,L2*%
X134820885Y-82946084D02*
X135509885Y-82946084D01*
X134820885Y-87210084D02*
X134820885Y-82946084D01*
X135509885Y-87210084D02*
X134820885Y-87210084D01*
X138395885Y-87210084D02*
X139084885Y-87210084D01*
X139084885Y-82946084D02*
X138395885Y-82946084D01*
X139084885Y-87210084D02*
X139084885Y-82946084D01*
%TO.C,D4*%
X187405641Y-102853277D02*
X187405641Y-105313277D01*
X188875641Y-102853277D02*
X187405641Y-102853277D01*
X188875641Y-105313277D02*
X188875641Y-102853277D01*
%TO.C,R29*%
X148508074Y-97442720D02*
X148868308Y-97082486D01*
X149247000Y-98181646D02*
X149607234Y-97821412D01*
D14*
%TO.C,U4*%
X138495066Y-74957490D02*
X138645066Y-74957490D01*
X138495066Y-75607490D02*
X138495066Y-74957490D01*
X138495066Y-78457490D02*
X138495066Y-77807490D01*
X138645066Y-78457490D02*
X138495066Y-78457490D01*
X142845066Y-78457490D02*
X142995066Y-78457490D01*
X142995066Y-74957490D02*
X142845066Y-74957490D01*
X142995066Y-75607490D02*
X142995066Y-74957490D01*
X142995066Y-78457490D02*
X142995066Y-77807490D01*
D15*
X137845066Y-77457490D02*
G75*
G02*
X137645066Y-77457490I-100000J0D01*
G01*
X137645066Y-77457490D02*
G75*
G02*
X137845066Y-77457490I100000J0D01*
G01*
D12*
%TO.C,R4*%
X166524168Y-52829578D02*
X166524168Y-53339026D01*
X167569168Y-52829578D02*
X167569168Y-53339026D01*
%TO.C,C25*%
X145927936Y-100157738D02*
X145721083Y-100364591D01*
X146649185Y-100878987D02*
X146442332Y-101085840D01*
%TO.C,C35*%
X141754132Y-67843084D02*
X142276638Y-67843084D01*
X141754132Y-69313084D02*
X142276638Y-69313084D01*
%TO.C,R12*%
X177300281Y-65793065D02*
X177660515Y-65432831D01*
X178039207Y-66531991D02*
X178399441Y-66171757D01*
%TO.C,C28*%
X141844117Y-72197490D02*
X142136651Y-72197490D01*
X141844117Y-73217490D02*
X142136651Y-73217490D01*
%TO.C,R26*%
X136507609Y-74055584D02*
X135998161Y-74055584D01*
X136507609Y-75100584D02*
X135998161Y-75100584D01*
%TO.C,C40*%
X134706619Y-70968084D02*
X134999153Y-70968084D01*
X134706619Y-71988084D02*
X134999153Y-71988084D01*
%TO.C,R8*%
X174487374Y-62242011D02*
X174127140Y-62602245D01*
X175226300Y-62980937D02*
X174866066Y-63341171D01*
%TO.C,C32*%
X139026462Y-94320153D02*
X138656995Y-94689620D01*
X140065909Y-95359600D02*
X139696442Y-95729067D01*
%TO.C,C4*%
X172602244Y-71357308D02*
X173608106Y-70351446D01*
X173889178Y-72644242D02*
X174895040Y-71638380D01*
%TO.C,R24*%
X185959808Y-100819052D02*
X185959808Y-100309604D01*
X187004808Y-100819052D02*
X187004808Y-100309604D01*
%TO.C,C15*%
X160102984Y-99064169D02*
X159896131Y-99271022D01*
X160824233Y-99785418D02*
X160617380Y-99992271D01*
%TO.C,C8*%
X175900269Y-81553148D02*
X175530802Y-81922615D01*
X176939716Y-82592595D02*
X176570249Y-82962062D01*
%TO.C,Q4*%
X169147752Y-111883143D02*
X167768893Y-110504285D01*
X169147752Y-111883143D02*
X170526610Y-113262002D01*
X172768138Y-108262757D02*
X171389280Y-106883898D01*
X172768138Y-108262757D02*
X174146997Y-109641615D01*
X171194826Y-106357104D02*
X170791775Y-106420743D01*
X170855415Y-106017693D01*
X171194826Y-106357104D01*
G36*
X171194826Y-106357104D02*
G01*
X170791775Y-106420743D01*
X170855415Y-106017693D01*
X171194826Y-106357104D01*
G37*
%TO.C,Q3*%
X175228871Y-105802024D02*
X173850012Y-104423166D01*
X175228871Y-105802024D02*
X176607729Y-107180883D01*
X178849257Y-102181638D02*
X177470399Y-100802779D01*
X178849257Y-102181638D02*
X180228116Y-103560496D01*
X177275945Y-100275985D02*
X176872894Y-100339624D01*
X176936534Y-99936574D01*
X177275945Y-100275985D01*
G36*
X177275945Y-100275985D02*
G01*
X176872894Y-100339624D01*
X176936534Y-99936574D01*
X177275945Y-100275985D01*
G37*
%TO.C,R15*%
X182542455Y-73252406D02*
X182182221Y-72892172D01*
X183281381Y-72513480D02*
X182921147Y-72153246D01*
%TO.C,TP3*%
X158546669Y-63085301D02*
X158546669Y-60485301D01*
X161146669Y-60485301D02*
X158546669Y-60485301D01*
X161146669Y-60485301D02*
X161146669Y-63085301D01*
X161146669Y-63085301D02*
X158546669Y-63085301D01*
%TO.C,J9*%
X148936666Y-114174303D02*
X148936666Y-115424303D01*
X149236666Y-114474303D02*
X149236666Y-121094303D01*
X149236666Y-117784303D02*
X150246666Y-117784303D01*
X149236666Y-121094303D02*
X156956666Y-121094303D01*
X150186666Y-114174303D02*
X148936666Y-114174303D01*
X150246666Y-116084303D02*
X150246666Y-120384303D01*
X150246666Y-120384303D02*
X155946666Y-120384303D01*
X151496666Y-114474303D02*
X149236666Y-114474303D01*
X151496666Y-115474303D02*
X151496666Y-114474303D01*
X152696666Y-114874303D02*
X152696666Y-115474303D01*
X152696666Y-115474303D02*
X151496666Y-115474303D01*
X153496666Y-114874303D02*
X152696666Y-114874303D01*
X153496666Y-115474303D02*
X153496666Y-114874303D01*
X154696666Y-114474303D02*
X154696666Y-115474303D01*
X154696666Y-115474303D02*
X153496666Y-115474303D01*
X155946666Y-116084303D02*
X150246666Y-116084303D01*
X155946666Y-120384303D02*
X155946666Y-116084303D01*
X156956666Y-114474303D02*
X154696666Y-114474303D01*
X156956666Y-117784303D02*
X155946666Y-117784303D01*
X156956666Y-121094303D02*
X156956666Y-114474303D01*
%TO.C,J1*%
X185736666Y-84444302D02*
X185736666Y-85694302D01*
X185736666Y-85694302D02*
X186986666Y-85694302D01*
X186036666Y-75174302D02*
X186036666Y-77884302D01*
X186036666Y-77884302D02*
X187036666Y-77884302D01*
X186036666Y-82684302D02*
X186036666Y-85394302D01*
X186036666Y-85394302D02*
X192656666Y-85394302D01*
X186436666Y-79484302D02*
X186436666Y-81084302D01*
X186436666Y-81084302D02*
X187036666Y-81084302D01*
X187036666Y-77884302D02*
X187036666Y-79484302D01*
X187036666Y-79484302D02*
X186436666Y-79484302D01*
X187036666Y-81084302D02*
X187036666Y-82684302D01*
X187036666Y-82684302D02*
X186036666Y-82684302D01*
X187646666Y-76184302D02*
X187646666Y-84384302D01*
X187646666Y-84384302D02*
X191946666Y-84384302D01*
X189346666Y-75174301D02*
X189346666Y-76184302D01*
X189346666Y-85394302D02*
X189346666Y-84384302D01*
X191946666Y-76184302D02*
X187646666Y-76184302D01*
X191946666Y-84384302D02*
X191946666Y-76184302D01*
X192656666Y-75174302D02*
X186036666Y-75174302D01*
X192656666Y-85394302D02*
X192656666Y-75174302D01*
%TO.C,R21*%
X169000834Y-86793030D02*
X168640600Y-86432796D01*
X169739760Y-86054104D02*
X169379526Y-85693870D01*
%TO.C,R7*%
X162051731Y-71742327D02*
X162051731Y-71232879D01*
X163096731Y-71742327D02*
X163096731Y-71232879D01*
%TO.C,J3*%
X185736667Y-95444303D02*
X185736667Y-96694303D01*
X185736667Y-96694303D02*
X186986667Y-96694303D01*
X186036667Y-86174303D02*
X186036667Y-88884303D01*
X186036667Y-88884303D02*
X187036667Y-88884303D01*
X186036667Y-93684303D02*
X186036667Y-96394303D01*
X186036667Y-96394303D02*
X192656667Y-96394303D01*
X186436667Y-90484303D02*
X186436667Y-92084303D01*
X186436667Y-92084303D02*
X187036667Y-92084303D01*
X187036667Y-88884303D02*
X187036667Y-90484303D01*
X187036667Y-90484303D02*
X186436667Y-90484303D01*
X187036667Y-92084303D02*
X187036667Y-93684303D01*
X187036667Y-93684303D02*
X186036667Y-93684303D01*
X187646667Y-87184303D02*
X187646667Y-95384303D01*
X187646667Y-95384303D02*
X191946667Y-95384303D01*
X189346667Y-86174302D02*
X189346667Y-87184303D01*
X189346667Y-96394303D02*
X189346667Y-95384303D01*
X191946667Y-87184303D02*
X187646667Y-87184303D01*
X191946667Y-95384303D02*
X191946667Y-87184303D01*
X192656667Y-86174303D02*
X186036667Y-86174303D01*
X192656667Y-96394303D02*
X192656667Y-86174303D01*
%TO.C,C39*%
X138006618Y-72568084D02*
X138299152Y-72568084D01*
X138006618Y-73588084D02*
X138299152Y-73588084D01*
%TO.C,TP1*%
X173620724Y-56237839D02*
X173620724Y-58897839D01*
X173680723Y-56237839D02*
X173620724Y-56237839D01*
X173680723Y-56237839D02*
X173680723Y-58897839D01*
X173680723Y-58897839D02*
X173620724Y-58897839D01*
X174950724Y-56237839D02*
X176280724Y-56237839D01*
X176280724Y-56237839D02*
X176280724Y-57567839D01*
%TO.C,J4*%
X152045700Y-71275111D02*
X152045700Y-69945111D01*
X153375700Y-71275111D02*
X152045700Y-71275111D01*
X154645701Y-68615111D02*
X159785699Y-68615111D01*
X154645701Y-71275111D02*
X154645701Y-68615111D01*
X154645701Y-71275111D02*
X159785699Y-71275111D01*
X159785699Y-71275111D02*
X159785699Y-68615111D01*
%TO.C,J8*%
X157436667Y-114174303D02*
X157436667Y-115424303D01*
X157736667Y-114474303D02*
X157736667Y-121094303D01*
X157736667Y-117784303D02*
X158746667Y-117784303D01*
X157736667Y-121094303D02*
X165456667Y-121094303D01*
X158686667Y-114174303D02*
X157436667Y-114174303D01*
X158746667Y-116084303D02*
X158746667Y-120384303D01*
X158746667Y-120384303D02*
X164446667Y-120384303D01*
X159996667Y-114474303D02*
X157736667Y-114474303D01*
X159996667Y-115474303D02*
X159996667Y-114474303D01*
X161196667Y-114874303D02*
X161196667Y-115474303D01*
X161196667Y-115474303D02*
X159996667Y-115474303D01*
X161996667Y-114874303D02*
X161196667Y-114874303D01*
X161996667Y-115474303D02*
X161996667Y-114874303D01*
X163196667Y-114474303D02*
X163196667Y-115474303D01*
X163196667Y-115474303D02*
X161996667Y-115474303D01*
X164446667Y-116084303D02*
X158746667Y-116084303D01*
X164446667Y-120384303D02*
X164446667Y-116084303D01*
X165456667Y-114474303D02*
X163196667Y-114474303D01*
X165456667Y-117784303D02*
X164446667Y-117784303D01*
X165456667Y-121094303D02*
X165456667Y-114474303D01*
%TO.C,C17*%
X157030592Y-106131715D02*
X157400059Y-105762248D01*
X158070039Y-107171162D02*
X158439506Y-106801695D01*
%TO.C,R27*%
X138830385Y-66923360D02*
X138830385Y-67432808D01*
X139875385Y-66923360D02*
X139875385Y-67432808D01*
%TO.C,Q2*%
X172657296Y-80885821D02*
X172091611Y-80320135D01*
X172657296Y-80885821D02*
X173222982Y-81451506D01*
X174863470Y-78679647D02*
X174297784Y-78113962D01*
X174863470Y-78679647D02*
X175429155Y-79245333D01*
X173548251Y-82172755D02*
X173208840Y-81833344D01*
X173611891Y-81769704D01*
X173548251Y-82172755D01*
G36*
X173548251Y-82172755D02*
G01*
X173208840Y-81833344D01*
X173611891Y-81769704D01*
X173548251Y-82172755D01*
G37*
%TO.C,TP5*%
X125514407Y-100378084D02*
X127352885Y-98539606D01*
X127352885Y-102216562D02*
X125514407Y-100378084D01*
X129191363Y-100378084D02*
X127352885Y-98539606D01*
X129191363Y-100378084D02*
X127352885Y-102216562D01*
%TO.C,C22*%
X145054132Y-86243085D02*
X145576638Y-86243085D01*
X145054132Y-87713085D02*
X145576638Y-87713085D01*
%TO.C,TP2*%
X124066194Y-72138890D02*
X124066194Y-74798890D01*
X124126193Y-72138890D02*
X124066194Y-72138890D01*
X124126193Y-72138890D02*
X124126193Y-74798890D01*
X124126193Y-74798890D02*
X124066194Y-74798890D01*
X125396194Y-72138890D02*
X126726194Y-72138890D01*
X126726194Y-72138890D02*
X126726194Y-73468890D01*
%TO.C,C21*%
X148386790Y-102637496D02*
X148017323Y-103006963D01*
X149426237Y-103676943D02*
X149056770Y-104046410D01*
%TO.C,C29*%
X141754132Y-63843084D02*
X142276638Y-63843084D01*
X141754132Y-65313084D02*
X142276638Y-65313084D01*
%TO.C,C11*%
X167653107Y-101024633D02*
X167283640Y-101394100D01*
X168692554Y-102064080D02*
X168323087Y-102433547D01*
%TO.C,C20*%
X145054132Y-84243083D02*
X145576638Y-84243083D01*
X145054132Y-85713083D02*
X145576638Y-85713083D01*
%TO.C,JP1*%
X159304826Y-89552710D02*
X161284725Y-87572811D01*
X159764445Y-90931568D02*
X159340181Y-90507304D01*
X162239319Y-87608166D02*
X162663583Y-88032430D01*
X162698938Y-88987024D02*
X160719039Y-90966923D01*
X159340181Y-90507304D02*
G75*
G02*
X159340181Y-89517354I494975J494975D01*
G01*
X160754395Y-90931568D02*
G75*
G02*
X159764445Y-90931568I-494975J494975D01*
G01*
X161249369Y-87608166D02*
G75*
G02*
X162239319Y-87608166I494975J-494973D01*
G01*
X162663583Y-88032430D02*
G75*
G02*
X162663583Y-89022380I-494973J-494975D01*
G01*
%TO.C,C7*%
X181938959Y-76233515D02*
X181938959Y-76526049D01*
X182958959Y-76233515D02*
X182958959Y-76526049D01*
%TD*%
M02*
