M48
; DRILL file {KiCad 8.0.4} date 2024-11-01T13:20:20+0900
; FORMAT={-:-/ absolute / inch / decimal}
; #@! TF.CreationDate,2024-11-01T13:20:20+09:00
; #@! TF.GenerationSoftware,Kicad,Pcbnew,8.0.4
; #@! TF.FileFunction,Plated,1,2,PTH
FMAT,2
INCH
; #@! TA.AperFunction,Plated,PTH,ComponentDrill
T1C0.0079
; #@! TA.AperFunction,Plated,PTH,ViaDrill
T2C0.0118
; #@! TA.AperFunction,Plated,PTH,ComponentDrill
T3C0.0197
; #@! TA.AperFunction,Plated,PTH,ComponentDrill
T4C0.0236
; #@! TA.AperFunction,Plated,PTH,ComponentDrill
T5C0.0374
; #@! TA.AperFunction,Plated,PTH,ComponentDrill
T6C0.0394
; #@! TA.AperFunction,Plated,PTH,ComponentDrill
T7C0.0433
; #@! TA.AperFunction,Plated,PTH,ComponentDrill
T8C0.1260
%
G90
G05
T1
X5.4909Y-3.02
X5.5205Y-2.9895
X5.5205Y-3.02
X5.5205Y-3.0505
X5.5618Y-2.9895
X5.5618Y-3.02
X5.5618Y-3.0505
X5.5913Y-3.02
X5.6648Y-3.8636
X5.6788Y-3.8497
X5.6788Y-3.8775
X5.6927Y-3.8358
X5.6927Y-3.8636
X5.6927Y-3.8915
X5.7066Y-3.8219
X5.7066Y-3.8497
X5.7066Y-3.8775
X5.7205Y-3.8079
X5.7205Y-3.8358
X5.7205Y-3.8636
X5.7344Y-3.8219
X5.7344Y-3.8497
X5.7484Y-3.8358
T2
X4.6697Y-3.4666
X4.6735Y-3.2376
X4.7008Y-3.6936
X4.7123Y-3.0119
X4.7383Y-3.4322
X4.7383Y-3.5267
X4.7383Y-3.6291
X4.7383Y-3.7157
X4.7604Y-3.7784
X4.7619Y-3.322
X4.7662Y-3.9131
X4.7851Y-2.7947
X4.8168Y-2.9833
X4.8168Y-3.1801
X4.8168Y-3.9675
X4.8272Y-3.8452
X4.8328Y-3.2432
X4.8603Y-3.4165
X4.8603Y-3.4834
X4.8603Y-3.5582
X4.8603Y-3.6251
X4.8603Y-3.6921
X4.8643Y-4.12
X4.8885Y-3.9065
X4.8902Y-2.5912
X4.894Y-3.7562
X4.9107Y-3.6726
X4.9194Y-3.3692
X4.9553Y-4.0178
X4.9776Y-3.8397
X4.9831Y-3.745
X4.9929Y-4.3096
X4.9942Y-3.322
X5.0136Y-2.5896
X5.0136Y-2.7864
X5.0136Y-2.9833
X5.0136Y-3.1801
X5.0136Y-3.377
X5.0136Y-4.1644
X5.0139Y-3.1409
X5.0252Y-2.4061
X5.0332Y-3.6504
X5.0533Y-3.5109
X5.0611Y-4.0791
X5.0666Y-3.8285
X5.0722Y-3.9009
X5.0848Y-2.7708
X5.0848Y-2.8889
X5.0848Y-2.9755
X5.0848Y-3.07
X5.1001Y-3.7172
X5.1005Y-3.2669
X5.1112Y-3.6504
X5.1163Y-3.5109
X5.1223Y-3.9956
X5.1223Y-4.1403
X5.132Y-2.6606
X5.1446Y-3.9065
X5.1669Y-3.784
X5.178Y-3.6504
X5.1792Y-3.5109
X5.1836Y-4.2016
X5.2003Y-4.0735
X5.2029Y-2.9361
X5.2029Y-3.0464
X5.2029Y-3.1448
X5.2105Y-2.9833
X5.2105Y-3.1801
X5.2105Y-3.377
X5.2105Y-3.7707
X5.217Y-3.9789
X5.2186Y-2.5661
X5.2226Y-2.8141
X5.2304Y-2.2157
X5.2304Y-4.5385
X5.2337Y-3.8508
X5.2422Y-2.7354
X5.2448Y-3.6504
X5.2501Y-3.5109
X5.2671Y-3.706
X5.2727Y-4.1459
X5.2737Y-3.07
X5.2737Y-3.1054
X5.2894Y-4.0513
X5.2949Y-3.6782
X5.2949Y-3.7339
X5.2949Y-3.9121
X5.321Y-2.6527
X5.321Y-3.5109
X5.3228Y-3.706
X5.3228Y-3.7617
X5.3287Y-4.6192
X5.3446Y-2.9795
X5.3446Y-3.0424
X5.3446Y-2.8771
X5.3446Y-3.0109
X5.345Y-4.2183
X5.3506Y-3.7339
X5.3506Y-3.7896
X5.3506Y-3.9677
X5.3562Y-4.3853
X5.3603Y-2.4795
X5.3673Y-4.1292
X5.3713Y-2.1081
X5.3784Y-3.7617
X5.3784Y-3.8174
X5.38Y-2.9795
X5.38Y-3.0109
X5.38Y-3.0424
X5.3997Y-3.5109
X5.4007Y-4.0178
X5.4063Y-3.7896
X5.4063Y-3.8452
X5.4073Y-2.1959
X5.4073Y-2.3927
X5.4073Y-3.1801
X5.4073Y-3.9675
X5.4073Y-4.1644
X5.4073Y-4.5581
X5.4076Y-2.5976
X5.4118Y-4.2851
X5.4118Y-4.441
X5.4155Y-2.9795
X5.4155Y-3.0109
X5.4155Y-3.0424
X5.4341Y-3.8174
X5.4341Y-4.196
X5.4397Y-3.8786
X5.462Y-4.0791
X5.4675Y-3.5947
X5.4675Y-3.8508
X5.4675Y-3.9065
X5.4706Y-2.4795
X5.4785Y-3.5109
X5.4787Y-4.3519
X5.4787Y-4.5078
X5.4954Y-3.8786
X5.5009Y-4.2628
X5.5021Y-3.3495
X5.5058Y-2.2943
X5.5121Y-4.1292
X5.528Y-4.732
X5.5455Y-3.5947
X5.5455Y-3.6726
X5.5493Y-2.4716
X5.551Y-4.3575
X5.551Y-4.4243
X5.5566Y-4.1737
X5.5566Y-4.5858
X5.5572Y-3.5109
X5.5651Y-3.3495
X5.5743Y-2.0021
X5.59Y-3.9399
X5.6012Y-4.2183
X5.6042Y-2.1959
X5.6042Y-2.3927
X5.6042Y-4.1644
X5.6042Y-4.7549
X5.6067Y-4.48
X5.6123Y-3.7395
X5.6123Y-3.9176
X5.6123Y-3.2629
X5.6123Y-3.3062
X5.6123Y-3.3495
X5.6179Y-3.9677
X5.6234Y-3.6058
X5.6346Y-4.3965
X5.6359Y-3.5109
X5.6401Y-3.9455
X5.6513Y-4.6804
X5.6674Y-2.8417
X5.6674Y-2.8732
X5.6674Y-2.9046
X5.6674Y-2.9361
X5.6674Y-2.9676
X5.6674Y-2.9991
X5.6674Y-3.0306
X5.668Y-4.2406
X5.6735Y-4.0123
X5.6779Y-3.6826
X5.6832Y-2.5188
X5.6832Y-2.5582
X5.6832Y-2.5976
X5.6832Y-2.6763
X5.6832Y-2.7157
X5.6832Y-2.7629
X5.6832Y-2.8023
X5.6832Y-2.6369
X5.6847Y-4.5579
X5.6958Y-4.0345
X5.6958Y-4.3129
X5.6958Y-4.4577
X5.6989Y-2.8417
X5.6989Y-2.8732
X5.6989Y-2.9046
X5.6989Y-2.9361
X5.6989Y-2.9676
X5.6989Y-2.9991
X5.6989Y-3.0306
X5.7026Y-2.0975
X5.7026Y-2.2943
X5.7069Y-3.7228
X5.7181Y-3.6893
X5.7226Y-2.5188
X5.7226Y-2.5582
X5.7226Y-2.5976
X5.7226Y-2.6369
X5.7226Y-2.6763
X5.7226Y-2.7157
X5.7226Y-2.7629
X5.7226Y-2.8023
X5.7236Y-4.0624
X5.7292Y-3.5446
X5.7292Y-3.6114
X5.7292Y-3.745
X5.7403Y-3.7116
X5.7403Y-4.3575
X5.7422Y-4.8131
X5.7459Y-4.0847
X5.7515Y-3.7673
X5.7626Y-3.7339
X5.7738Y-3.7896
X5.7793Y-4.1181
X5.7793Y-4.6414
X5.7849Y-3.7562
X5.7849Y-4.402
X5.7905Y-4.5078
X5.7912Y-1.9283
X5.796Y-4.7695
X5.7974Y-3.133
X5.7974Y-3.1684
X5.801Y-1.999
X5.801Y-2.1959
X5.801Y-2.3927
X5.801Y-2.5896
X5.801Y-2.7864
X5.801Y-2.9833
X5.801Y-4.2628
X5.801Y-4.3612
X5.801Y-4.5581
X5.8016Y-3.6058
X5.8016Y-4.1403
X5.8072Y-3.4889
X5.8072Y-3.7784
X5.8127Y-3.6949
X5.8131Y-3.3102
X5.8131Y-3.3417
X5.8131Y-3.3771
X5.8131Y-3.4125
X5.8131Y-3.448
X5.8239Y-3.9176
X5.8294Y-3.8007
X5.8485Y-3.3102
X5.8485Y-3.4125
X5.8485Y-3.448
X5.8485Y-3.3417
X5.8485Y-3.3771
X5.8545Y-3.6532
X5.8562Y-2.2982
X5.8573Y-4.3965
X5.8628Y-3.5446
X5.8684Y-3.7506
X5.8722Y-3.0858
X5.8851Y-4.5134
X5.8955Y-2.2982
X5.8962Y-4.647
X5.8962Y-4.7695
X5.8995Y-2.4912
X5.8995Y-2.688
X5.8995Y-3.2786
X5.8995Y-3.4754
X5.9046Y-3.7033
X5.9185Y-4.1348
X5.9352Y-4.3965
X5.9391Y-2.7511
X5.9391Y-2.8968
X5.9408Y-3.6225
X5.9428Y-2.2353
X5.9519Y-3.7562
X5.9519Y-4.0234
X5.9663Y-4.8605
X5.9785Y-1.8885
X5.9822Y-2.2353
X5.9853Y-4.5134
X5.9965Y-3.8118
X5.9965Y-3.9677
X5.9979Y-2.3927
X5.9979Y-2.5896
X5.9979Y-2.9833
X5.9979Y-3.1801
X5.9979Y-3.377
X5.9979Y-3.5738
X5.9979Y-4.1644
X5.9979Y-4.2628
X5.9979Y-4.5581
X6.002Y-3.8954
X6.002Y-4.0178
X6.0076Y-4.7695
X6.0132Y-3.6949
X6.0187Y-4.3909
X6.0466Y-4.1737
X6.0855Y-3.7673
X6.0909Y-3.9171
X6.0963Y-2.4912
X6.0963Y-3.0817
X6.0963Y-3.2786
X6.0963Y-3.4754
X6.0963Y-3.6723
X6.0967Y-3.8452
X6.0967Y-4.3909
X6.1023Y-4.7082
X6.1078Y-4.235
X6.1078Y-4.5134
X6.1354Y-3.8725
X6.1354Y-3.9839
X6.1577Y-4.0062
X6.1691Y-4.2962
X6.18Y-4.0284
X6.1855Y-3.8224
X6.1855Y-3.9338
X6.1948Y-2.3927
X6.1948Y-2.5896
X6.1948Y-2.9833
X6.1948Y-3.1801
X6.1948Y-3.377
X6.1948Y-3.5738
X6.1948Y-3.7707
X6.1948Y-4.5581
X6.1948Y-4.7549
X6.195Y-4.8732
X6.1969Y-4.3909
X6.2022Y-4.0507
X6.2078Y-3.956
X6.208Y-4.5134
X6.2245Y-4.073
X6.2301Y-3.9783
X6.2457Y-1.8837
X6.2468Y-4.0952
X6.2524Y-3.7556
X6.2524Y-4.0006
X6.2581Y-4.2851
X6.2691Y-4.1175
X6.2746Y-4.0229
X6.2804Y-4.5635
X6.2932Y-3.2786
X6.2969Y-4.0451
X6.2969Y-4.1453
X6.2971Y-4.402
X6.3025Y-3.7055
X6.3025Y-4.0841
X6.308Y-4.1788
X6.313Y-3.7935
X6.3303Y-4.1119
X6.3472Y-4.3074
X6.3522Y-2.9049
X6.3548Y-3.8408
X6.3621Y-2.6982
X6.3804Y-4.1843
X6.3806Y-4.4855
X6.3916Y-3.377
X6.3916Y-4.7549
X6.4021Y-2.6478
X6.4021Y-2.7369
X6.4027Y-4.1175
X6.4083Y-4.0785
X6.4196Y-4.3797
X6.4229Y-4.8507
X6.425Y-4.2289
X6.4319Y-2.2011
X6.4319Y-2.2562
X6.4319Y-2.2956
X6.4417Y-3.9338
X6.4417Y-4.1565
X6.453Y-4.5579
X6.4579Y-2.9075
X6.4606Y-4.1109
X6.4728Y-1.9138
X6.4751Y-3.9672
X6.4751Y-4.279
X6.4773Y-3.7239
X6.4809Y-4.441
X6.4862Y-4.201
X6.4864Y-4.6359
X6.49Y-3.4754
X6.4982Y-3.3244
X6.5023Y-2.8706
X6.5029Y-3.995
X6.5079Y-2.6534
X6.5079Y-2.8204
X6.5176Y-2.5738
X6.5191Y-2.7314
X6.5252Y-4.0173
X6.5252Y-4.3291
X6.526Y-3.2966
X6.526Y-3.3523
X6.5358Y-3.4984
X6.5358Y-3.7323
X6.5363Y-4.0618
X6.5363Y-4.2066
X6.5365Y-4.4967
X6.5511Y-3.2715
X6.5539Y-3.3244
X6.5597Y-2.8287
X6.5622Y-2.943
X6.5642Y-3.0138
X6.5719Y-3.4622
X6.5747Y-2.8984
X6.5753Y-4.3792
X6.5761Y-3.2465
X6.5789Y-3.2994
X6.5809Y-4.2066
X6.5885Y-1.999
X6.5885Y-2.3927
X6.5885Y-4.5581
X6.5885Y-4.7549
X6.5914Y-3.3494
X6.5918Y-3.0768
X6.5962Y-3.037
X6.597Y-2.8761
X6.6026Y-2.9231
X6.604Y-3.2743
X6.6137Y-3.3271
X6.6201Y-4.5022
X6.6249Y-2.9008
X6.6304Y-2.6534
X6.6304Y-2.9509
X6.636Y-2.7703
X6.6374Y-2.8567
X6.6421Y-4.3903
X6.6443Y-3.5903
X6.6448Y-4.7938
X6.6474Y-3.1216
X6.6477Y-4.0618
X6.6527Y-2.9286
X6.6703Y-2.9908
X6.6869Y-2.0975
X6.6869Y-2.2943
X6.6869Y-2.4912
X6.6869Y-4.6565
X6.6922Y-4.0618
X6.6926Y-1.9782
X6.6926Y-2.9686
X6.7028Y-3.2158
X6.7084Y-3.0289
X6.7145Y-3.9616
X6.7203Y-4.5022
X6.7256Y-4.3848
X6.7299Y-2.7176
X6.7306Y-3.0066
X6.7312Y-3.789
X6.7362Y-3.2492
X6.7362Y-3.0567
X6.7585Y-3.0344
X6.7594Y-2.6122
X6.7696Y-3.2826
X6.7696Y-4.0274
X6.7702Y-3.75
X6.7752Y-2.7425
X6.7853Y-2.1959
X6.7853Y-2.3927
X6.7853Y-3.377
X6.7853Y-4.5581
X6.7863Y-3.1545
X6.7924Y-3.8837
X6.7947Y-3.5847
X6.8086Y-2.7759
X6.8253Y-3.316
X6.8261Y-4.5189
X6.8267Y-2.9236
X6.8281Y-4.0079
X6.842Y-2.6534
X6.842Y-2.8093
X6.8444Y-2.566
X6.8444Y-3.1486
X6.8481Y-4.2845
X6.8517Y-2.9486
X6.8531Y-3.2881
X6.8531Y-3.3438
X6.8545Y-2.8957
X6.8554Y-4.7037
X6.8592Y-3.9727
X6.8648Y-3.8781
X6.8698Y-2.6256
X6.8759Y-4.407
X6.8768Y-2.9737
X6.8796Y-2.9208
X6.881Y-3.316
X6.881Y-3.3717
X6.8815Y-3.7946
X6.8837Y-4.1582
X6.8999Y-2.0754
X6.9032Y-2.659
X6.9046Y-2.9458
X6.906Y-4.2807
X6.9088Y-3.3438
X6.9088Y-3.3995
X6.9144Y-2.7258
X6.9149Y-3.9059
X6.9185Y-3.6529
X6.9207Y-4.5022
X6.9366Y-3.3717
X6.9366Y-3.4273
X6.9366Y-3.1044
X6.9422Y-2.7536
X6.9422Y-2.9095
X6.9428Y-4.3346
X6.9595Y-4.2511
X6.9617Y-3.1295
X6.9645Y-3.3995
X6.9645Y-3.0766
X6.965Y-3.7779
X6.97Y-2.7258
X6.9812Y-2.8706
X6.9817Y-3.8391
X6.982Y-4.441
X6.9822Y-2.2943
X6.9822Y-2.3927
X6.9822Y-4.5581
X6.9867Y-3.5443
X6.9867Y-3.5999
X6.9867Y-3.1545
X6.9873Y-4.2901
X6.9895Y-3.1016
X6.9923Y-3.0487
X6.9979Y-2.9875
X7.0007Y-3.9383
X7.004Y-4.0396
X7.0118Y-3.1796
X7.0146Y-3.1267
X7.0174Y-3.0738
X7.0318Y-3.8892
X7.0369Y-2.8371
X7.0369Y-3.2046
X7.0396Y-3.1517
X7.0424Y-3.0988
X7.048Y-3.0153
X7.0497Y-4.5825
X7.0541Y-3.9449
X7.0619Y-3.2297
X7.0647Y-3.1768
X7.0675Y-3.1239
X7.0703Y-2.6033
X7.087Y-2.8427
X7.0875Y-3.7556
X7.0877Y-4.2573
X7.0897Y-3.2018
X7.0901Y-2.2032
X7.0925Y-3.0487
X7.0925Y-3.1489
X7.0925Y-3.2937
X7.0925Y-3.3605
X7.0925Y-3.4162
X7.0931Y-3.5385
X7.0931Y-3.6053
X7.0931Y-3.7055
X7.1176Y-3.174
X7.1209Y-4.1788
X7.1265Y-3.4605
X7.1315Y-3.0877
X7.1371Y-2.8928
X7.1371Y-2.9374
X7.1488Y-3.5941
X7.1488Y-3.7278
X7.1599Y-4.1398
X7.171Y-3.8837
X7.179Y-2.7864
X7.179Y-3.1801
X7.179Y-3.377
X7.1816Y-2.9151
X7.1822Y-3.7834
X7.1877Y-3.5663
X7.1983Y-3.0988
X7.1989Y-4.1008
X7.2047Y-4.2071
X7.21Y-3.9226
X7.2186Y-2.7472
X7.2211Y-3.9894
X7.2267Y-3.828
X7.2379Y-3.5496
X7.2434Y-4.0563
X7.249Y-3.7055
X7.254Y-3.0988
X7.2768Y-3.8781
X7.2774Y-3.2786
X7.2882Y-4.1236
X7.2895Y-3.944
X7.2895Y-4.0661
X7.2935Y-3.4939
X7.2991Y-3.6554
X7.3097Y-3.0988
X7.3207Y-2.7982
X7.3436Y-3.6108
X7.3709Y-3.1044
X7.372Y-4.2588
X7.3759Y-2.5896
X7.3759Y-2.9833
X7.3759Y-3.1801
X7.3759Y-3.377
X7.3759Y-3.7707
X7.3826Y-3.4382
X7.3937Y-3.5607
X7.4012Y-2.5376
X7.4743Y-2.8849
X7.4923Y-4.0639
X7.5727Y-3.5738
X7.5727Y-3.7707
X7.5727Y-3.9675
X7.5729Y-2.8259
X7.5815Y-3.853
X7.6375Y-3.6308
X7.6452Y-3.1742
X7.6589Y-3.4028
T3
X5.0981Y-2.3751
X5.0981Y-4.3795
X5.1257Y-2.3083
X5.1257Y-2.4419
X5.1257Y-4.3127
X5.1257Y-4.4463
X5.1926Y-2.2806
X5.1926Y-2.4696
X5.1926Y-4.285
X5.1926Y-4.474
X5.2594Y-2.3083
X5.2594Y-2.4419
X5.2594Y-4.3127
X5.2594Y-4.4463
X5.287Y-2.3751
X5.287Y-4.3795
X7.1025Y-2.3751
X7.1025Y-4.3795
X7.1301Y-2.3083
X7.1301Y-2.4419
X7.1301Y-4.3127
X7.1301Y-4.4463
X7.1969Y-2.2806
X7.1969Y-2.4696
X7.1969Y-4.285
X7.1969Y-4.474
X7.2638Y-2.3083
X7.2638Y-2.4419
X7.2638Y-4.3127
X7.2638Y-4.4463
X7.2914Y-2.3751
X7.2914Y-4.3795
T5
X4.9349Y-3.1608
X4.9349Y-3.2592
X4.9349Y-3.4954
X4.9349Y-3.5939
X5.9782Y-4.6372
X6.0766Y-4.6372
X6.3129Y-4.6372
X6.4113Y-4.6372
X7.4546Y-3.0624
X7.4546Y-3.1608
X7.4546Y-3.2592
X7.4546Y-3.4954
X7.4546Y-3.5939
X7.4546Y-3.6923
T6
X4.9369Y-2.8925
X6.0384Y-2.7537
X6.0384Y-2.8957
X6.1384Y-2.7537
X6.1384Y-2.8957
X6.2384Y-2.7537
X6.2384Y-2.8957
X6.8878Y-2.2665
T7
X5.0139Y-3.9519
X5.6084Y-4.2944
X6.2932Y-2.4325
X7.053Y-2.9285
T8
X5.1926Y-2.3751
X5.1926Y-4.3795
X7.1969Y-2.3751
X7.1969Y-4.3795
T4
G00X6.0241Y-1.9536
M15
G01X6.0241Y-1.9221
M16
G05
G00X6.0241Y-2.1241
M15
G01X6.0241Y-2.0808
M16
G05
G00X6.3642Y-1.9536
M15
G01X6.3642Y-1.9221
M16
G05
G00X6.3642Y-2.1241
M15
G01X6.3642Y-2.0808
M16
G05
M30
