%TF.GenerationSoftware,KiCad,Pcbnew,8.0.4*%
%TF.CreationDate,2024-11-01T13:20:14+09:00*%
%TF.ProjectId,Avio-BMS,4176696f-2d42-44d5-932e-6b696361645f,rev?*%
%TF.SameCoordinates,Original*%
%TF.FileFunction,Copper,L2,Bot*%
%TF.FilePolarity,Positive*%
%FSLAX46Y46*%
G04 Gerber Fmt 4.6, Leading zero omitted, Abs format (unit mm)*
G04 Created by KiCad (PCBNEW 8.0.4) date 2024-11-01 13:20:14*
%MOMM*%
%LPD*%
G01*
G04 APERTURE LIST*
G04 Aperture macros list*
%AMRoundRect*
0 Rectangle with rounded corners*
0 $1 Rounding radius*
0 $2 $3 $4 $5 $6 $7 $8 $9 X,Y pos of 4 corners*
0 Add a 4 corners polygon primitive as box body*
4,1,4,$2,$3,$4,$5,$6,$7,$8,$9,$2,$3,0*
0 Add four circle primitives for the rounded corners*
1,1,$1+$1,$2,$3*
1,1,$1+$1,$4,$5*
1,1,$1+$1,$6,$7*
1,1,$1+$1,$8,$9*
0 Add four rect primitives between the rounded corners*
20,1,$1+$1,$2,$3,$4,$5,0*
20,1,$1+$1,$4,$5,$6,$7,0*
20,1,$1+$1,$6,$7,$8,$9,0*
20,1,$1+$1,$8,$9,$2,$3,0*%
G04 Aperture macros list end*
%TA.AperFunction,ComponentPad*%
%ADD10R,1.700000X1.700000*%
%TD*%
%TA.AperFunction,ComponentPad*%
%ADD11O,1.700000X1.700000*%
%TD*%
%TA.AperFunction,ComponentPad*%
%ADD12C,0.300000*%
%TD*%
%TA.AperFunction,ComponentPad*%
%ADD13C,2.200000*%
%TD*%
%TA.AperFunction,ComponentPad*%
%ADD14RoundRect,0.250000X-0.725000X0.600000X-0.725000X-0.600000X0.725000X-0.600000X0.725000X0.600000X0*%
%TD*%
%TA.AperFunction,ComponentPad*%
%ADD15O,1.950000X1.700000*%
%TD*%
%TA.AperFunction,ComponentPad*%
%ADD16O,1.000000X1.800000*%
%TD*%
%TA.AperFunction,ComponentPad*%
%ADD17O,1.000000X2.100000*%
%TD*%
%TA.AperFunction,ComponentPad*%
%ADD18C,0.800000*%
%TD*%
%TA.AperFunction,ComponentPad*%
%ADD19C,6.400000*%
%TD*%
%TA.AperFunction,ComponentPad*%
%ADD20RoundRect,0.250000X-0.600000X-0.725000X0.600000X-0.725000X0.600000X0.725000X-0.600000X0.725000X0*%
%TD*%
%TA.AperFunction,ComponentPad*%
%ADD21O,1.700000X1.950000*%
%TD*%
%TA.AperFunction,ComponentPad*%
%ADD22RoundRect,0.250000X0.725000X-0.600000X0.725000X0.600000X-0.725000X0.600000X-0.725000X-0.600000X0*%
%TD*%
%TA.AperFunction,ViaPad*%
%ADD23C,0.600000*%
%TD*%
%TA.AperFunction,Conductor*%
%ADD24C,0.200000*%
%TD*%
%TA.AperFunction,Conductor*%
%ADD25C,1.000000*%
%TD*%
%TA.AperFunction,Conductor*%
%ADD26C,2.000000*%
%TD*%
%TA.AperFunction,Conductor*%
%ADD27C,0.400000*%
%TD*%
G04 APERTURE END LIST*
D10*
%TO.P,J5,1,Pin_1*%
%TO.N,GND*%
X153375701Y-73550418D03*
D11*
%TO.P,J5,2,Pin_2*%
%TO.N,/Li-ionBatteryCharger\u002CPowerPath/D2*%
X155915701Y-73550418D03*
%TO.P,J5,3,Pin_3*%
%TO.N,/Li-ionBatteryCharger\u002CPowerPath/V_{IN}*%
X158455700Y-73550418D03*
%TD*%
D12*
%TO.P,U3,16*%
%TO.N,GND*%
X145301149Y-96721666D03*
%TO.P,U3,17*%
X145654703Y-97075219D03*
%TO.P,U3,18*%
X146008256Y-97428773D03*
%TO.P,U3,19*%
X144947596Y-97075219D03*
%TO.P,U3,20*%
X145301149Y-97428773D03*
%TO.P,U3,21*%
X145654703Y-97782326D03*
%TO.P,U3,22*%
X144594043Y-97428773D03*
%TO.P,U3,23*%
X144947596Y-97782326D03*
%TO.P,U3,24*%
X145301149Y-98135879D03*
%TO.P,U3,25*%
X144240489Y-97782326D03*
%TO.P,U3,26*%
X144594043Y-98135879D03*
%TO.P,U3,27*%
X144947596Y-98489433D03*
%TO.P,U3,28*%
X143886936Y-98135879D03*
%TO.P,U3,29*%
X144240489Y-98489433D03*
%TO.P,U3,30*%
X144594043Y-98842986D03*
%TD*%
D13*
%TO.P,TP6,1,1*%
%TO.N,+3.3V*%
X142452885Y-109078084D03*
%TD*%
D14*
%TO.P,J6,1,Pin_1*%
%TO.N,GND*%
X125346669Y-88784301D03*
D15*
%TO.P,J6,2,Pin_2*%
%TO.N,+3.3V*%
X125346669Y-91284301D03*
%TD*%
D16*
%TO.P,J2,S1,SHIELD*%
%TO.N,Net-(C1-Pad1)*%
X161650919Y-49221801D03*
%TO.P,J2,S2,SHIELD*%
X153010919Y-49221801D03*
D17*
%TO.P,J2,S3,SHIELD*%
X161650919Y-53401801D03*
%TO.P,J2,S4,SHIELD*%
X153010919Y-53401801D03*
%TD*%
D14*
%TO.P,J7,1,Pin_1*%
%TO.N,GND*%
X125346666Y-80284302D03*
D15*
%TO.P,J7,2,Pin_2*%
%TO.N,+6V*%
X125346666Y-82784302D03*
%TD*%
D18*
%TO.P,H1,1,1*%
%TO.N,GND*%
X180402511Y-60328458D03*
X181105455Y-58631402D03*
X181105455Y-62025514D03*
X182802511Y-57928458D03*
D19*
X182802511Y-60328458D03*
D18*
X182802511Y-62728458D03*
X184499567Y-58631402D03*
X184499567Y-62025514D03*
X185202511Y-60328458D03*
%TD*%
%TO.P,H4,1,1*%
%TO.N,GND*%
X129490824Y-60328458D03*
X130193768Y-58631402D03*
X130193768Y-62025514D03*
X131890824Y-57928458D03*
D19*
X131890824Y-60328458D03*
D18*
X131890824Y-62728458D03*
X133587880Y-58631402D03*
X133587880Y-62025514D03*
X134290824Y-60328458D03*
%TD*%
D13*
%TO.P,TP4,1,1*%
%TO.N,Main-Bat*%
X179146668Y-74384303D03*
%TD*%
D12*
%TO.P,U4,22,PGND__1*%
%TO.N,GND*%
X139470066Y-76707490D03*
%TO.P,U4,23,PGND__2*%
X140220066Y-77482490D03*
%TO.P,U4,24,PGND__3*%
X140220066Y-76707490D03*
%TO.P,U4,25,PGND__4*%
X140220066Y-75932490D03*
%TO.P,U4,26,PGND__5*%
X141270066Y-77482490D03*
%TO.P,U4,27,PGND__6*%
X141270066Y-76707490D03*
%TO.P,U4,28,PGND__7*%
X141270066Y-75932490D03*
%TO.P,U4,29,PGND__8*%
X142020066Y-76707490D03*
%TD*%
D18*
%TO.P,H3,1,1*%
%TO.N,GND*%
X129490825Y-111240147D03*
X130193769Y-109543091D03*
X130193769Y-112937203D03*
X131890825Y-108840147D03*
D19*
X131890825Y-111240147D03*
D18*
X131890825Y-113640147D03*
X133587881Y-109543091D03*
X133587881Y-112937203D03*
X134290825Y-111240147D03*
%TD*%
D13*
%TO.P,TP3,1,1*%
%TO.N,VBUS*%
X159846669Y-61785301D03*
%TD*%
D20*
%TO.P,J9,1,Pin_1*%
%TO.N,GND*%
X151846666Y-117784303D03*
D21*
%TO.P,J9,2,Pin_2*%
%TO.N,+6V*%
X154346666Y-117784303D03*
%TD*%
D22*
%TO.P,J1,1,Pin_1*%
%TO.N,GND*%
X189346666Y-82784302D03*
D15*
%TO.P,J1,2,Pin_2*%
%TO.N,NTC1*%
X189346666Y-80284302D03*
%TO.P,J1,3,Pin_3*%
%TO.N,Main-Bat*%
X189346666Y-77784302D03*
%TD*%
D22*
%TO.P,J3,1,Pin_1*%
%TO.N,GND*%
X189346667Y-93784303D03*
D15*
%TO.P,J3,2,Pin_2*%
%TO.N,NTC2*%
X189346667Y-91284303D03*
%TO.P,J3,3,Pin_3*%
%TO.N,V2*%
X189346667Y-88784303D03*
%TD*%
D10*
%TO.P,TP1,1,1*%
%TO.N,GND*%
X174950724Y-57567839D03*
%TD*%
%TO.P,J4,1,Pin_1*%
%TO.N,GND*%
X153375700Y-69945111D03*
D11*
%TO.P,J4,2,Pin_2*%
%TO.N,/Li-ionBatteryCharger\u002CPowerPath/D1*%
X155915700Y-69945111D03*
%TO.P,J4,3,Pin_3*%
%TO.N,/Li-ionBatteryCharger\u002CPowerPath/V_{IN}*%
X158455699Y-69945111D03*
%TD*%
D20*
%TO.P,J8,1,Pin_1*%
%TO.N,GND*%
X160346667Y-117784303D03*
D21*
%TO.P,J8,2,Pin_2*%
%TO.N,+3.3V*%
X162846667Y-117784303D03*
%TD*%
D13*
%TO.P,TP5,1,1*%
%TO.N,+6V*%
X127352885Y-100378084D03*
%TD*%
D10*
%TO.P,TP2,1,1*%
%TO.N,GND*%
X125396194Y-73468890D03*
%TD*%
D18*
%TO.P,H2,1,1*%
%TO.N,GND*%
X180402511Y-111240145D03*
X181105455Y-109543089D03*
X181105455Y-112937201D03*
X182802511Y-108840145D03*
D19*
X182802511Y-111240145D03*
D18*
X182802511Y-113640145D03*
X184499567Y-109543089D03*
X184499567Y-112937201D03*
X185202511Y-111240145D03*
%TD*%
D23*
%TO.N,VCC*%
X185152885Y-100178084D03*
X185152886Y-103278085D03*
%TO.N,V1*%
X167034032Y-82460901D03*
X166468345Y-84440800D03*
X177604750Y-77437486D03*
X178806832Y-80053780D03*
X178099725Y-80760887D03*
X179513939Y-79346673D03*
X166397635Y-83097298D03*
X177534039Y-78780990D03*
X178241146Y-78073883D03*
X178736121Y-81397282D03*
X180786729Y-80619466D03*
X174105099Y-73551355D03*
X176826932Y-79488096D03*
X165054131Y-84440799D03*
X167741138Y-83168007D03*
X173397993Y-74258461D03*
X177463329Y-80124490D03*
X180150334Y-79983068D03*
X165761237Y-83733693D03*
X178170436Y-79417384D03*
X167104741Y-83804404D03*
X165761239Y-85147906D03*
X176190537Y-78851700D03*
X175377890Y-74824147D03*
X174034389Y-74894857D03*
X174670783Y-75531254D03*
X167543450Y-77139417D03*
X179443227Y-80690175D03*
X176897644Y-78144593D03*
X178877543Y-78710277D03*
X179372515Y-82033679D03*
X180079622Y-81326573D03*
X174741495Y-74187751D03*
%TO.N,Net-(Q3A-S1)*%
X161412004Y-97557160D03*
X171947895Y-102294774D03*
%TO.N,V2*%
X164099010Y-104416095D03*
X175730917Y-92784187D03*
X175412719Y-108729445D03*
%TO.N,~{VALID1}*%
X181013000Y-87896954D03*
X166927437Y-87940507D03*
%TO.N,Net-(Q3B-S2)*%
X174847033Y-105618177D03*
X160351344Y-96355077D03*
%TO.N,~{VALID2}*%
X182568635Y-90583960D03*
X166008198Y-88859745D03*
%TO.N,/Li-ionBatteryCharger\u002CPowerPath/V_{IN}*%
X171689382Y-66350417D03*
%TO.N,/Li-ionBatteryCharger\u002CPowerPath/D1*%
X168589666Y-72561406D03*
X166615984Y-71848081D03*
%TO.N,NTC*%
X170940561Y-69025875D03*
X166680477Y-74753437D03*
%TO.N,Net-(Q3B-G2)*%
X164523274Y-94587310D03*
X173432820Y-101799800D03*
%TO.N,Net-(Q3A-G1)*%
X166008198Y-94799442D03*
X177816882Y-100032033D03*
%TO.N,UV2*%
X172584290Y-91051776D03*
X168765914Y-91193199D03*
%TO.N,Net-(U1-CLPROG)*%
X166730550Y-76550419D03*
X164030552Y-73850418D03*
%TO.N,Net-(U3-EN)*%
X147926115Y-99507643D03*
X144218586Y-93537372D03*
%TO.N,GND*%
X132511187Y-101063278D03*
X142552885Y-83978085D03*
X121542550Y-70985944D03*
X157112791Y-97089342D03*
X192346667Y-90775509D03*
X144390581Y-115771099D03*
X182427214Y-96099392D03*
X147346667Y-55775509D03*
X128551389Y-103608862D03*
X163618173Y-105574623D03*
X121060683Y-99391955D03*
X175483429Y-86347029D03*
X139157991Y-110538509D03*
X151946667Y-56775509D03*
X120352885Y-94378085D03*
X138168041Y-98517693D03*
X144352885Y-68978084D03*
X187518383Y-87331268D03*
X124733012Y-93285103D03*
X185665767Y-78710276D03*
X176911781Y-95957971D03*
X181281705Y-73477686D03*
X176190536Y-87054136D03*
X180150334Y-77437484D03*
X127639340Y-61115769D03*
X166028048Y-114215464D03*
X155138604Y-107568660D03*
X174790460Y-96382235D03*
X177901730Y-102604775D03*
X177477466Y-108968736D03*
X148552886Y-84878084D03*
X132346667Y-85775509D03*
X154997183Y-119589475D03*
X151852885Y-47968980D03*
X147501851Y-88618198D03*
X148774643Y-111669880D03*
X144752885Y-74578084D03*
X159234111Y-104584674D03*
X171947895Y-83377181D03*
X123452885Y-93778085D03*
X159846667Y-83275509D03*
X150754542Y-111669880D03*
X157678476Y-100483454D03*
X136652885Y-76478084D03*
X146653323Y-96254952D03*
X169846667Y-118275509D03*
X129152885Y-75578084D03*
X138026620Y-96962058D03*
X156694239Y-109124295D03*
X179018963Y-76588956D03*
X165173808Y-101473404D03*
X184251553Y-78710276D03*
X172937845Y-70507838D03*
X187247679Y-108172882D03*
X128352885Y-89178085D03*
X157346667Y-115775509D03*
X143952885Y-76178084D03*
X159375533Y-102180511D03*
X143952885Y-76978084D03*
X147077587Y-114498307D03*
X126430069Y-97527744D03*
X187346667Y-85775509D03*
X143952885Y-73778084D03*
X168777847Y-121762782D03*
X133152886Y-69478084D03*
X137460934Y-108841452D03*
X194536172Y-86431268D03*
X158244162Y-101049140D03*
X151544026Y-123456679D03*
X157346667Y-95775509D03*
X179584649Y-66123775D03*
X173786373Y-67396568D03*
X174649039Y-111938584D03*
X129541339Y-94416474D03*
X147346667Y-108275509D03*
X169846667Y-63275509D03*
X147346667Y-60775509D03*
X151178806Y-95406424D03*
X143117789Y-111669880D03*
X143152885Y-89178084D03*
X184846667Y-83275509D03*
X138733727Y-103608862D03*
X180164472Y-91573909D03*
X162769645Y-103594724D03*
X137346667Y-115775509D03*
X135905300Y-94840738D03*
X145352885Y-63978084D03*
X133925401Y-105305918D03*
X166998148Y-73619107D03*
X150946667Y-56775509D03*
X129552886Y-82978084D03*
X143952885Y-72178084D03*
X168978572Y-74387322D03*
X162614086Y-67255146D03*
X163369908Y-57307543D03*
X176897643Y-86347029D03*
X136152885Y-62978084D03*
X166022336Y-106847415D03*
X167988098Y-84508552D03*
X135752885Y-77278084D03*
X136612406Y-95547845D03*
X143952885Y-74578085D03*
X173362109Y-84225709D03*
X147252886Y-79578084D03*
X176331958Y-73901950D03*
X148916064Y-90032412D03*
X180008913Y-72204894D03*
X141137890Y-106013025D03*
X149152886Y-78378085D03*
X141352885Y-85078085D03*
X156405684Y-101756247D03*
X187989289Y-64454955D03*
X147346667Y-115775509D03*
X154846667Y-83275509D03*
X173846667Y-79975509D03*
X150852885Y-69878084D03*
X155138604Y-114639728D03*
X127346667Y-105775509D03*
X164466701Y-100766297D03*
X137178092Y-102053227D03*
X170958471Y-76367221D03*
X168412888Y-74953006D03*
X136612406Y-96962058D03*
X142346667Y-60775509D03*
X144352885Y-70178084D03*
X145804794Y-94275053D03*
X152346667Y-108275509D03*
X182998611Y-106861553D03*
X152593020Y-121145110D03*
X167012286Y-111231478D03*
X177321907Y-72912001D03*
X137460934Y-112801250D03*
X175624851Y-69235045D03*
X130107024Y-101487542D03*
X124308748Y-95406424D03*
X127352885Y-79778085D03*
X173786373Y-71356366D03*
X137319513Y-96254952D03*
X126571490Y-95123581D03*
X190305044Y-103223271D03*
X182346667Y-80775509D03*
X148552886Y-85778084D03*
X130672709Y-99224800D03*
X147346667Y-110775509D03*
X180871579Y-106140309D03*
X180164472Y-94119493D03*
X122611692Y-97669165D03*
X165739494Y-109958685D03*
X180150334Y-83660024D03*
X148746667Y-58375509D03*
X147346667Y-75775509D03*
X177463328Y-91438198D03*
X175258601Y-52715984D03*
X170830663Y-111372899D03*
X160224061Y-106140309D03*
X143952885Y-72978085D03*
X145352885Y-67978084D03*
X162346667Y-120775509D03*
X159941218Y-105291781D03*
X142552103Y-94982159D03*
X160082639Y-103736146D03*
X187346667Y-80775509D03*
X123452885Y-90378085D03*
X150895963Y-92012311D03*
X140855047Y-91305204D03*
X164755256Y-117750998D03*
X123553330Y-104648651D03*
X168412362Y-67396568D03*
X175342008Y-67537989D03*
X185946667Y-71075509D03*
X132552885Y-65178084D03*
X171665578Y-77074326D03*
X167346667Y-60775509D03*
X137352885Y-65978084D03*
X187801225Y-90442538D03*
X152346667Y-115775509D03*
X135752886Y-73078084D03*
X149481750Y-114639728D03*
X177746171Y-75881849D03*
X181578686Y-94685179D03*
X147219008Y-121145110D03*
X182413076Y-74043371D03*
X142552885Y-82878084D03*
X160082639Y-94119493D03*
X179062308Y-116394252D03*
X127346667Y-75775509D03*
X165301092Y-67396568D03*
X146087637Y-95689266D03*
X145521952Y-95123581D03*
X137552885Y-75678085D03*
X124167327Y-99224800D03*
X157346667Y-120775509D03*
X177346667Y-60775509D03*
X163369908Y-55907543D03*
X133352885Y-89178085D03*
X182144371Y-98644977D03*
X136430033Y-53545106D03*
X134491086Y-94840738D03*
X148552885Y-87578085D03*
X157401346Y-111528458D03*
X187346667Y-75775509D03*
X176190536Y-85639923D03*
X168149369Y-114356885D03*
X173941932Y-108827314D03*
X136046721Y-111387037D03*
X194189278Y-80623875D03*
X131662659Y-106720132D03*
X137152885Y-89178084D03*
X149846667Y-68275509D03*
X172346667Y-85775509D03*
X135152886Y-89178084D03*
X185255641Y-88745482D03*
X144956266Y-94557895D03*
X136652885Y-75678084D03*
X145352885Y-64978084D03*
X159522666Y-115912520D03*
X137346667Y-105775509D03*
X129152885Y-70378085D03*
X170694953Y-114356885D03*
X153582969Y-106013025D03*
X118609252Y-88052567D03*
X174776323Y-84225709D03*
X183134321Y-99634926D03*
X152734441Y-93850789D03*
X157537055Y-102887618D03*
X139152885Y-89178084D03*
X159946930Y-111811301D03*
X152346667Y-65775509D03*
X150330278Y-105023076D03*
X144673424Y-102477491D03*
X130107024Y-105164497D03*
X146936165Y-95406424D03*
X143966317Y-107710082D03*
X172089317Y-69659309D03*
X145352885Y-66978084D03*
X127346667Y-80775509D03*
X144752885Y-75378084D03*
X147346667Y-50775509D03*
X173381959Y-114781149D03*
X156971370Y-102321932D03*
X172346667Y-60775509D03*
X149976724Y-94062921D03*
X135905300Y-100780435D03*
X168709342Y-111514320D03*
X180028763Y-108134346D03*
X184831377Y-98503555D03*
X167346667Y-50775509D03*
X144673424Y-113225514D03*
X180150334Y-86771294D03*
X145946216Y-103750284D03*
X132346667Y-75775509D03*
X184124270Y-94119493D03*
X154846667Y-78275509D03*
X127346667Y-70775509D03*
X141137890Y-116478206D03*
X147652885Y-84878084D03*
X169992482Y-75401230D03*
X183417163Y-101331983D03*
X157346667Y-80775509D03*
X169426800Y-75966915D03*
X133783979Y-94133631D03*
X170392787Y-76932905D03*
X132852885Y-56278084D03*
X142410682Y-113791200D03*
X135905300Y-96254952D03*
X167705782Y-74245897D03*
X119693393Y-76501989D03*
X123452885Y-86778084D03*
X163618173Y-99917769D03*
X132346667Y-95775509D03*
X146936165Y-111811301D03*
X150852886Y-73578085D03*
X157684188Y-114639728D03*
X165301092Y-71639208D03*
X177346667Y-115775509D03*
X137346667Y-60775509D03*
X187346667Y-65775509D03*
X192352885Y-71778085D03*
X158102740Y-103453303D03*
X192346667Y-95775509D03*
X167563833Y-73053422D03*
X144846667Y-58275509D03*
X149846667Y-88275509D03*
X192571024Y-97864963D03*
X152875862Y-111528458D03*
X174224775Y-100907719D03*
X140855047Y-93285103D03*
X134491086Y-99366222D03*
X168850764Y-103170460D03*
X149846667Y-83275509D03*
X129152885Y-77978084D03*
X158809847Y-101614825D03*
X162068250Y-113932621D03*
X140411140Y-120193240D03*
X149764592Y-118033841D03*
X158668426Y-104018988D03*
X145352885Y-70178084D03*
X135152885Y-67378085D03*
X118707927Y-82235661D03*
X124212056Y-65816817D03*
X147346667Y-70775509D03*
X144673424Y-109548559D03*
X172346667Y-115775509D03*
X183558585Y-97230763D03*
X154846667Y-63275509D03*
X158956981Y-108841452D03*
X152451598Y-102053227D03*
X155839999Y-98362134D03*
X144752885Y-76978084D03*
X139157991Y-114498307D03*
X174493480Y-66689461D03*
X186528433Y-91715330D03*
X163193909Y-107413101D03*
X158809847Y-95392286D03*
X122752886Y-82378084D03*
X135348054Y-117327701D03*
X128834232Y-99083379D03*
X181281705Y-74609057D03*
X142346667Y-55775509D03*
X126819197Y-109463238D03*
X120352885Y-87178084D03*
X147252886Y-80478084D03*
X129824181Y-92719418D03*
X130352886Y-67578084D03*
X131238395Y-96113530D03*
X143542053Y-118882369D03*
X152346667Y-80775509D03*
X181578686Y-91291066D03*
X133952885Y-78878085D03*
X177341757Y-112801250D03*
X137346667Y-55775509D03*
X147652885Y-87578085D03*
X139846667Y-58275509D03*
X135752885Y-75678084D03*
X175483429Y-84932816D03*
X154846667Y-88275509D03*
X131521237Y-92719418D03*
X132152885Y-74578084D03*
X187221402Y-78851698D03*
X157112791Y-99917769D03*
X187346667Y-95775509D03*
X167346667Y-120775509D03*
X144352885Y-71178084D03*
X132852885Y-115278084D03*
X132152885Y-77378084D03*
X165739494Y-102039089D03*
X179174523Y-100200612D03*
X155839999Y-101190561D03*
X135752886Y-76478084D03*
X136329564Y-104881654D03*
X132935451Y-97810587D03*
X174069216Y-83518602D03*
X163369908Y-58307543D03*
X132652886Y-71478084D03*
X141152885Y-89178085D03*
X145352885Y-71178084D03*
X123452885Y-92078084D03*
X141587396Y-50852942D03*
X192346667Y-100775509D03*
X149746667Y-58375509D03*
X147346667Y-65775509D03*
X127346667Y-85775509D03*
X138875148Y-91305204D03*
X142552103Y-99507643D03*
X157352886Y-123778084D03*
X180164472Y-89876853D03*
X162614086Y-69517888D03*
X127346667Y-65775509D03*
X138875148Y-99224800D03*
X174366196Y-98503555D03*
X172346667Y-55775509D03*
X154846667Y-93275509D03*
X163142728Y-123209006D03*
X139752885Y-85078084D03*
X147360429Y-105164497D03*
X171962033Y-95250864D03*
X138026620Y-106578711D03*
X147643272Y-93850789D03*
X183841427Y-90159695D03*
X141986418Y-100073328D03*
X182346667Y-85775509D03*
X140996468Y-110679930D03*
X152027334Y-114639728D03*
X122346667Y-100775509D03*
X122346667Y-75775509D03*
X148703932Y-92790128D03*
X144352885Y-63978084D03*
X167422412Y-85074237D03*
X167346667Y-115775509D03*
X120352885Y-92178084D03*
X146370480Y-94840738D03*
X161219722Y-109407138D03*
X172527719Y-98644977D03*
X178736121Y-72063472D03*
X120914636Y-95972109D03*
X137552885Y-77278084D03*
X144352885Y-67978084D03*
X152346667Y-60775509D03*
X182837340Y-78710276D03*
X158640982Y-47844780D03*
X145239109Y-93709367D03*
X152346667Y-75775509D03*
X143259210Y-100214750D03*
X144752885Y-76178084D03*
X140006519Y-104881654D03*
X167153707Y-106847415D03*
X163058200Y-111245615D03*
X171099896Y-77640011D03*
X164408193Y-48609907D03*
X138875148Y-97810587D03*
X183982849Y-103029039D03*
X177346667Y-58275509D03*
X134349665Y-102901755D03*
X170972084Y-96240814D03*
X119399679Y-93816365D03*
X163906728Y-115771099D03*
X149764592Y-121145110D03*
X165583934Y-69376467D03*
X120952885Y-84378084D03*
X144752885Y-72978084D03*
X193992507Y-92223553D03*
X162628224Y-104584674D03*
X144752885Y-72178085D03*
X169846667Y-58275509D03*
X180087474Y-55960690D03*
X140996468Y-112376986D03*
X147652885Y-85778085D03*
X157346667Y-90775509D03*
X133952885Y-77978085D03*
X171099367Y-82528653D03*
X145352885Y-68978084D03*
X139723676Y-108275767D03*
X189846667Y-73275509D03*
X136652885Y-77278084D03*
X164466701Y-108685893D03*
X151178806Y-102194649D03*
X137319513Y-97669165D03*
X175786122Y-114356885D03*
X178608837Y-98786398D03*
X152346667Y-85775509D03*
X175638989Y-99210662D03*
X120352885Y-89578084D03*
X142346667Y-105775509D03*
X174126161Y-119473309D03*
X176346095Y-110100107D03*
X149846667Y-63275509D03*
X181861528Y-105150359D03*
X154708628Y-99493505D03*
X176331958Y-69942152D03*
X122346667Y-80775509D03*
X137346667Y-80775509D03*
X132086923Y-103467441D03*
X129952885Y-89178085D03*
X157346667Y-60775509D03*
X123452885Y-88478085D03*
X174776323Y-85639923D03*
X152310177Y-96820637D03*
X142552885Y-85078084D03*
X170547820Y-100624876D03*
X176770359Y-107978786D03*
X185397062Y-92846701D03*
X144752885Y-73778085D03*
X131552885Y-89178084D03*
X137346667Y-100775509D03*
X152346667Y-90775509D03*
X177463328Y-90023985D03*
X124952885Y-85578084D03*
X149057486Y-95265002D03*
X169991018Y-50246428D03*
X152310177Y-100780435D03*
X172372160Y-80124490D03*
X169846667Y-53275509D03*
X135763878Y-107144396D03*
X157346667Y-65775509D03*
X133218294Y-92719418D03*
X148552885Y-86678085D03*
X170250839Y-81680125D03*
X157346667Y-85775509D03*
X160789746Y-104443252D03*
X145804794Y-110679930D03*
X177336045Y-97513606D03*
X165159670Y-72912001D03*
X164613835Y-112801250D03*
X147652885Y-86678085D03*
X185119932Y-104740233D03*
X159941218Y-102746196D03*
X144107738Y-101911806D03*
X180150334Y-85357080D03*
X157346667Y-75775509D03*
X182346667Y-70775509D03*
X139582255Y-98517693D03*
X181140284Y-78427433D03*
X146794744Y-117892419D03*
X154855761Y-111528458D03*
X135198193Y-95547845D03*
X138952885Y-62978084D03*
X137552885Y-76478084D03*
X146794744Y-104598812D03*
X169982134Y-103170460D03*
X145380530Y-103184598D03*
X154855761Y-97669165D03*
X126852885Y-84378084D03*
X142346667Y-120775509D03*
X177039064Y-69235045D03*
X145352885Y-65978085D03*
X145521952Y-91729468D03*
X148067536Y-96537794D03*
X144846667Y-53275509D03*
X132152885Y-79878084D03*
X134491086Y-93426525D03*
X165546667Y-65375509D03*
X147360429Y-91588047D03*
X142693525Y-100780435D03*
X145521952Y-90032412D03*
X147095274Y-48979598D03*
X128692810Y-97244901D03*
X142269261Y-107144396D03*
X164846667Y-88275509D03*
X142834946Y-91588047D03*
X148552885Y-84078084D03*
X144352885Y-65978085D03*
X135198193Y-94133631D03*
X132346667Y-80775509D03*
X145852309Y-122252320D03*
X166022336Y-103170460D03*
X162062538Y-106281730D03*
X168553783Y-70366416D03*
X164749544Y-106705994D03*
X182851478Y-104160410D03*
X143952885Y-75378084D03*
X147501851Y-95972109D03*
X127844282Y-92719418D03*
X154572919Y-95689266D03*
X125864383Y-102053227D03*
X140952885Y-62778084D03*
X168271466Y-73680213D03*
X162346667Y-85775509D03*
X152346667Y-105775509D03*
X173846667Y-65175509D03*
X174069216Y-84932816D03*
X129152885Y-73378084D03*
X147652885Y-84078084D03*
X152451598Y-98941957D03*
X144352886Y-66978084D03*
X144352885Y-64978084D03*
X180023051Y-95392286D03*
%TO.N,/Li-ionBatteryCharger\u002CPowerPath/\u002ACHRG*%
X161346669Y-73784302D03*
X183352885Y-69778084D03*
X161596668Y-68534304D03*
X168843238Y-79287734D03*
%TO.N,/Li-ionBatteryCharger\u002CPowerPath/D2*%
X167430552Y-78150419D03*
%TD*%
D24*
%TO.N,VCC*%
X185152885Y-100178084D02*
X185152886Y-103278085D01*
%TO.N,V1*%
X177569923Y-78006127D02*
X177216368Y-77652575D01*
D25*
X170241085Y-79960952D02*
X165478395Y-84723642D01*
D24*
X177216368Y-77652575D02*
X176509262Y-77652573D01*
X167543450Y-77139417D02*
X170241085Y-79837052D01*
D26*
X177569923Y-78006127D02*
X174741495Y-75177702D01*
D25*
X174670783Y-75531254D02*
X170241085Y-79960952D01*
D24*
%TO.N,Net-(Q3A-S1)*%
X161412004Y-97557160D02*
X162954621Y-97557160D01*
X167692235Y-102294774D02*
X171947895Y-102294774D01*
X162954621Y-97557160D02*
X167692235Y-102294774D01*
D25*
%TO.N,V2*%
X172018606Y-105335333D02*
X165018246Y-105335333D01*
X175730917Y-92784187D02*
X180503887Y-97557160D01*
X175412719Y-108729445D02*
X172018606Y-105335333D01*
X180503887Y-97557160D02*
X180503888Y-101799800D01*
X175766273Y-92819543D02*
X175730917Y-92784187D01*
X183120181Y-92819543D02*
X175766273Y-92819543D01*
X187155423Y-88784301D02*
X183120181Y-92819543D01*
X189346669Y-88784301D02*
X187155423Y-88784301D01*
X175412717Y-106890968D02*
X175412719Y-108729445D01*
X180503888Y-101799800D02*
X175412717Y-106890968D01*
X165018246Y-105335333D02*
X164099010Y-104416095D01*
D24*
%TO.N,~{VALID1}*%
X180969447Y-87940507D02*
X166927437Y-87940507D01*
X181013000Y-87896954D02*
X180969447Y-87940507D01*
%TO.N,Net-(Q3B-S2)*%
X160351344Y-99196524D02*
X165173808Y-104018988D01*
X165173808Y-104018988D02*
X172540737Y-104018988D01*
X160351344Y-96355077D02*
X160351344Y-99196524D01*
X172540737Y-104018988D02*
X174139924Y-105618175D01*
X174139924Y-105618175D02*
X174847033Y-105618177D01*
%TO.N,~{VALID2}*%
X180985844Y-89001168D02*
X166149619Y-89001168D01*
X182568635Y-90583960D02*
X180985844Y-89001168D01*
X166149619Y-89001168D02*
X166008198Y-88859745D01*
D25*
%TO.N,Main-Bat*%
X189166474Y-77604107D02*
X189346666Y-77784302D01*
D27*
%TO.N,/Li-ionBatteryCharger\u002CPowerPath/V_{IN}*%
X158455699Y-69945110D02*
X162050392Y-66350417D01*
X162050392Y-66350417D02*
X171689382Y-66350417D01*
D24*
%TO.N,/Li-ionBatteryCharger\u002CPowerPath/D1*%
X168589666Y-72561406D02*
X167876341Y-71848081D01*
X167876341Y-71848081D02*
X166615984Y-71848081D01*
%TO.N,NTC*%
X168442436Y-69025875D02*
X166015984Y-71452326D01*
X166015984Y-74088944D02*
X166680477Y-74753437D01*
X170940561Y-69025875D02*
X168442436Y-69025875D01*
X166015984Y-71452326D02*
X166015984Y-74088944D01*
%TO.N,Net-(Q3B-G2)*%
X168836626Y-98900662D02*
X164523274Y-94587310D01*
X170392261Y-98900662D02*
X168836626Y-98900662D01*
X173432820Y-101799800D02*
X173291398Y-101799800D01*
X173291398Y-101799800D02*
X170392261Y-98900662D01*
%TO.N,Net-(Q3A-G1)*%
X177816882Y-100032033D02*
X175200585Y-97415737D01*
X168624492Y-97415737D02*
X166008198Y-94799442D01*
X175200585Y-97415737D02*
X168624492Y-97415737D01*
%TO.N,UV2*%
X172584290Y-91051776D02*
X172442870Y-91193200D01*
X172442870Y-91193200D02*
X168765914Y-91193199D01*
%TO.N,Net-(U1-CLPROG)*%
X164030552Y-73850418D02*
X166730550Y-76550419D01*
%TO.N,Net-(U3-EN)*%
X149906014Y-94982159D02*
X149906014Y-97527744D01*
X147926115Y-93002260D02*
X149906014Y-94982159D01*
X149906014Y-97527744D02*
X147926115Y-99507643D01*
X144218586Y-93537372D02*
X144753697Y-93002260D01*
X144753697Y-93002260D02*
X147926115Y-93002260D01*
D25*
%TO.N,+6V*%
X121789951Y-94815149D02*
X146434103Y-119459302D01*
X152847094Y-119459303D02*
X154346666Y-117959732D01*
X154346666Y-117959732D02*
X154346666Y-117784303D01*
X125346666Y-82784302D02*
X121789950Y-86341018D01*
X146434103Y-119459302D02*
X152847094Y-119459303D01*
X121789950Y-86341018D02*
X121789951Y-94815149D01*
D24*
%TO.N,/Li-ionBatteryCharger\u002CPowerPath/\u002ACHRG*%
X168843238Y-79287734D02*
X166850099Y-79287734D01*
X166850099Y-79287734D02*
X161346669Y-73784302D01*
X182000674Y-68425873D02*
X161705099Y-68425873D01*
X161705099Y-68425873D02*
X161596668Y-68534304D01*
X183352885Y-69778084D02*
X182000674Y-68425873D01*
%TO.N,/Li-ionBatteryCharger\u002CPowerPath/D2*%
X155915700Y-73550419D02*
X157065700Y-72400419D01*
X161180551Y-72400419D02*
X166930551Y-78150419D01*
X166930551Y-78150419D02*
X167430552Y-78150419D01*
X157065700Y-72400419D02*
X161180551Y-72400419D01*
%TD*%
%TA.AperFunction,Conductor*%
%TO.N,V1*%
G36*
X174210343Y-72989446D02*
G01*
X174228006Y-72996762D01*
X174313219Y-73053699D01*
X174320644Y-73059793D01*
X175869452Y-74608601D01*
X175875546Y-74616026D01*
X175932483Y-74701239D01*
X175939799Y-74718903D01*
X175958832Y-74814588D01*
X175958832Y-74833707D01*
X175939799Y-74929391D01*
X175932483Y-74947054D01*
X175875546Y-75032267D01*
X175869452Y-75039692D01*
X174603486Y-76305658D01*
X174596061Y-76311752D01*
X174510848Y-76368689D01*
X174493185Y-76376005D01*
X174397501Y-76395038D01*
X174378382Y-76395038D01*
X174282697Y-76376005D01*
X174265033Y-76368689D01*
X174179820Y-76311752D01*
X174172395Y-76305658D01*
X172623587Y-74756850D01*
X172617493Y-74749425D01*
X172560556Y-74664212D01*
X172553240Y-74646549D01*
X172545692Y-74608601D01*
X172534207Y-74550862D01*
X172534207Y-74531746D01*
X172553240Y-74436061D01*
X172560556Y-74418397D01*
X172617497Y-74333177D01*
X172623582Y-74325764D01*
X173889558Y-73059788D01*
X173896971Y-73053703D01*
X173982192Y-72996761D01*
X173999854Y-72989446D01*
X174095542Y-72970413D01*
X174114656Y-72970413D01*
X174210343Y-72989446D01*
G37*
%TD.AperFunction*%
%TD*%
%TA.AperFunction,Conductor*%
%TO.N,V1*%
G36*
X167139276Y-81898992D02*
G01*
X167156939Y-81906308D01*
X167242152Y-81963245D01*
X167249577Y-81969339D01*
X168232698Y-82952461D01*
X168238792Y-82959886D01*
X168295729Y-83045099D01*
X168303045Y-83062763D01*
X168322078Y-83158448D01*
X168322078Y-83177567D01*
X168303045Y-83273251D01*
X168295729Y-83290914D01*
X168238792Y-83376127D01*
X168232698Y-83383552D01*
X165976784Y-85639467D01*
X165969359Y-85645561D01*
X165884146Y-85702498D01*
X165866483Y-85709814D01*
X165770799Y-85728847D01*
X165751680Y-85728847D01*
X165655995Y-85709814D01*
X165638331Y-85702498D01*
X165553118Y-85645561D01*
X165545693Y-85639467D01*
X164562571Y-84656345D01*
X164556477Y-84648920D01*
X164499540Y-84563707D01*
X164492224Y-84546044D01*
X164473191Y-84450357D01*
X164473191Y-84431241D01*
X164492224Y-84335556D01*
X164499540Y-84317892D01*
X164556481Y-84232672D01*
X164562566Y-84225259D01*
X166818491Y-81969334D01*
X166825904Y-81963249D01*
X166911125Y-81906307D01*
X166928787Y-81898992D01*
X167024475Y-81879959D01*
X167043589Y-81879959D01*
X167139276Y-81898992D01*
G37*
%TD.AperFunction*%
%TD*%
%TA.AperFunction,Conductor*%
%TO.N,V1*%
G36*
X177660538Y-76734200D02*
G01*
X177705233Y-76752713D01*
X177771901Y-76797259D01*
X177790691Y-76812680D01*
X181450374Y-80472363D01*
X181465795Y-80491153D01*
X181510340Y-80557819D01*
X181528855Y-80602519D01*
X181542067Y-80668941D01*
X181542067Y-80717323D01*
X181528855Y-80783744D01*
X181510340Y-80828444D01*
X181465795Y-80895110D01*
X181450374Y-80913900D01*
X178709929Y-83654345D01*
X178691139Y-83669766D01*
X178624473Y-83714311D01*
X178579773Y-83732826D01*
X178513352Y-83746038D01*
X178464970Y-83746038D01*
X178398548Y-83732826D01*
X178353848Y-83714311D01*
X178287182Y-83669766D01*
X178268392Y-83654345D01*
X174608709Y-79994662D01*
X174593288Y-79975872D01*
X174548743Y-79909206D01*
X174530229Y-79864509D01*
X174517016Y-79798080D01*
X174517016Y-79749707D01*
X174530229Y-79683276D01*
X174548741Y-79638585D01*
X174593293Y-79571908D01*
X174608704Y-79553130D01*
X177349159Y-76812675D01*
X177367937Y-76797264D01*
X177434614Y-76752712D01*
X177479305Y-76734200D01*
X177545736Y-76720987D01*
X177594110Y-76720987D01*
X177660538Y-76734200D01*
G37*
%TD.AperFunction*%
%TD*%
%TA.AperFunction,Conductor*%
%TO.N,GND*%
G36*
X157975318Y-46289837D02*
G01*
X159224202Y-46329481D01*
X159228098Y-46329668D01*
X160475049Y-46408914D01*
X160478898Y-46409219D01*
X161722833Y-46528000D01*
X161726656Y-46528428D01*
X162966126Y-46686607D01*
X162969928Y-46687154D01*
X164203771Y-46884583D01*
X164207567Y-46885252D01*
X165434549Y-47121734D01*
X165438305Y-47122520D01*
X166657137Y-47397805D01*
X166660862Y-47398708D01*
X167870372Y-47712533D01*
X167874129Y-47713572D01*
X169073029Y-48065600D01*
X169076686Y-48066737D01*
X170263823Y-48456630D01*
X170267522Y-48457910D01*
X171441680Y-48885269D01*
X171445285Y-48886647D01*
X172605335Y-49351061D01*
X172608901Y-49352555D01*
X173690996Y-49826129D01*
X173753524Y-49853494D01*
X173757104Y-49855128D01*
X174885332Y-50392166D01*
X174888790Y-50393881D01*
X175999443Y-50966462D01*
X176002846Y-50968286D01*
X176734416Y-51375321D01*
X177094682Y-51575768D01*
X177098090Y-51577735D01*
X178170138Y-52219573D01*
X178173481Y-52221648D01*
X179224565Y-52897138D01*
X179227839Y-52899316D01*
X180257006Y-53607846D01*
X180260189Y-53610112D01*
X181266365Y-54350944D01*
X181269490Y-54353321D01*
X182251665Y-55125713D01*
X182254687Y-55128169D01*
X183211847Y-55931322D01*
X183214820Y-55933898D01*
X184145978Y-56766981D01*
X184148869Y-56769651D01*
X185053152Y-57631884D01*
X185055952Y-57634640D01*
X185932428Y-58525133D01*
X185935143Y-58527981D01*
X186782891Y-59445801D01*
X186785515Y-59448733D01*
X187603751Y-60393027D01*
X187606266Y-60396024D01*
X188394156Y-61365837D01*
X188396548Y-61368878D01*
X189053268Y-62231798D01*
X189153252Y-62363175D01*
X189155585Y-62366344D01*
X189880327Y-63384103D01*
X189882559Y-63387344D01*
X190574674Y-64427627D01*
X190576801Y-64430937D01*
X191235548Y-65492636D01*
X191237569Y-65496012D01*
X191862294Y-66578067D01*
X191864204Y-66581500D01*
X192008554Y-66850917D01*
X192454298Y-67682858D01*
X192456094Y-67686342D01*
X193000809Y-68785415D01*
X193010943Y-68805861D01*
X193012627Y-68809400D01*
X193046430Y-68883418D01*
X193531666Y-69945938D01*
X193533244Y-69949542D01*
X194015980Y-71102019D01*
X194017442Y-71105672D01*
X194463353Y-72272838D01*
X194464699Y-72276536D01*
X194873354Y-73457269D01*
X194874582Y-73461007D01*
X195245579Y-74654142D01*
X195246687Y-74657917D01*
X195579626Y-75862165D01*
X195580615Y-75865974D01*
X195875198Y-77080260D01*
X195876064Y-77084098D01*
X196131955Y-78307038D01*
X196132700Y-78310902D01*
X196349665Y-79541378D01*
X196350287Y-79545263D01*
X196528106Y-80782019D01*
X196528604Y-80785922D01*
X196667092Y-82027682D01*
X196667466Y-82031599D01*
X196766484Y-83277114D01*
X196766734Y-83281041D01*
X196826188Y-84529126D01*
X196826312Y-84533059D01*
X196846135Y-85782336D01*
X196846135Y-85786270D01*
X196826312Y-87035546D01*
X196826188Y-87039479D01*
X196766734Y-88287564D01*
X196766484Y-88291491D01*
X196667466Y-89537006D01*
X196667092Y-89540923D01*
X196528604Y-90782683D01*
X196528106Y-90786586D01*
X196350287Y-92023342D01*
X196349665Y-92027227D01*
X196132700Y-93257703D01*
X196131955Y-93261567D01*
X195876064Y-94484507D01*
X195875198Y-94488345D01*
X195580615Y-95702631D01*
X195579626Y-95706440D01*
X195246687Y-96910688D01*
X195245579Y-96914463D01*
X194874582Y-98107598D01*
X194873354Y-98111336D01*
X194464699Y-99292069D01*
X194463353Y-99295767D01*
X194017442Y-100462933D01*
X194015980Y-100466586D01*
X193533244Y-101619063D01*
X193531666Y-101622667D01*
X193012634Y-102759191D01*
X193010943Y-102762744D01*
X192456101Y-103882249D01*
X192454298Y-103885747D01*
X191864207Y-104987100D01*
X191862294Y-104990538D01*
X191237569Y-106072593D01*
X191235548Y-106075969D01*
X190576801Y-107137668D01*
X190574674Y-107140978D01*
X189882559Y-108181261D01*
X189880327Y-108184502D01*
X189155585Y-109202261D01*
X189153252Y-109205430D01*
X188396568Y-110199701D01*
X188394136Y-110202794D01*
X187606280Y-111172564D01*
X187603751Y-111175578D01*
X186785515Y-112119872D01*
X186782891Y-112122804D01*
X185935143Y-113040624D01*
X185932428Y-113043472D01*
X185055956Y-113933961D01*
X185053152Y-113936721D01*
X184148869Y-114798954D01*
X184145978Y-114801624D01*
X183214820Y-115634707D01*
X183211847Y-115637283D01*
X182254687Y-116440436D01*
X182251633Y-116442918D01*
X181269496Y-117215279D01*
X181266365Y-117217661D01*
X180260189Y-117958493D01*
X180256983Y-117960776D01*
X179227841Y-118669288D01*
X179224565Y-118671467D01*
X178173481Y-119346957D01*
X178170138Y-119349032D01*
X177098090Y-119990870D01*
X177094682Y-119992837D01*
X176002879Y-120600301D01*
X175999411Y-120602160D01*
X174888823Y-121174708D01*
X174885298Y-121176455D01*
X173757104Y-121713477D01*
X173753524Y-121715111D01*
X172608933Y-122216036D01*
X172605304Y-122217557D01*
X171445319Y-122681945D01*
X171441644Y-122683349D01*
X170267532Y-123110691D01*
X170263813Y-123111978D01*
X169076736Y-123501852D01*
X169072979Y-123503020D01*
X167874147Y-123855028D01*
X167870354Y-123856077D01*
X166660911Y-124169885D01*
X166657087Y-124170812D01*
X165438353Y-124446075D01*
X165434502Y-124446881D01*
X164207606Y-124683346D01*
X164203731Y-124684029D01*
X162969974Y-124881444D01*
X162966079Y-124882004D01*
X161726700Y-125040172D01*
X161722790Y-125040609D01*
X160478934Y-125159383D01*
X160475012Y-125159694D01*
X159228116Y-125238936D01*
X159224185Y-125239124D01*
X157975318Y-125278769D01*
X157971384Y-125278831D01*
X156721950Y-125278831D01*
X156718016Y-125278769D01*
X155469148Y-125239124D01*
X155465217Y-125238936D01*
X154218321Y-125159694D01*
X154214399Y-125159383D01*
X152970543Y-125040609D01*
X152966633Y-125040172D01*
X151727254Y-124882004D01*
X151723359Y-124881444D01*
X150489602Y-124684029D01*
X150485727Y-124683346D01*
X149258831Y-124446881D01*
X149254980Y-124446075D01*
X148036246Y-124170812D01*
X148032422Y-124169885D01*
X146822979Y-123856077D01*
X146819186Y-123855028D01*
X145968872Y-123605354D01*
X145620344Y-123503017D01*
X145616608Y-123501855D01*
X145272522Y-123388846D01*
X144429520Y-123111978D01*
X144425801Y-123110691D01*
X143251689Y-122683349D01*
X143248014Y-122681945D01*
X142088029Y-122217557D01*
X142084400Y-122216036D01*
X140939809Y-121715111D01*
X140936229Y-121713477D01*
X139808035Y-121176455D01*
X139804510Y-121174708D01*
X138693922Y-120602160D01*
X138690454Y-120600301D01*
X137598651Y-119992837D01*
X137595243Y-119990870D01*
X136523195Y-119349032D01*
X136519852Y-119346957D01*
X135468768Y-118671467D01*
X135465492Y-118669288D01*
X134806659Y-118215715D01*
X134436339Y-117960768D01*
X134433144Y-117958493D01*
X133426968Y-117217661D01*
X133423837Y-117215279D01*
X132950862Y-116843327D01*
X132441675Y-116442898D01*
X132438646Y-116440436D01*
X131481486Y-115637283D01*
X131478513Y-115634707D01*
X130547355Y-114801624D01*
X130544464Y-114798954D01*
X129640181Y-113936721D01*
X129637377Y-113933961D01*
X129222278Y-113512224D01*
X128760902Y-113043469D01*
X128758190Y-113040624D01*
X127910442Y-112122804D01*
X127907818Y-112119872D01*
X127460361Y-111603479D01*
X127089562Y-111175555D01*
X127087072Y-111172587D01*
X126299170Y-110202760D01*
X126296792Y-110199735D01*
X125540074Y-109205420D01*
X125537748Y-109202261D01*
X125287891Y-108851386D01*
X124813000Y-108184494D01*
X124810774Y-108181261D01*
X124655260Y-107947516D01*
X124118646Y-107140957D01*
X124116532Y-107137668D01*
X123836682Y-106686636D01*
X123572171Y-106260324D01*
X123457785Y-106075969D01*
X123455764Y-106072593D01*
X123247485Y-105711844D01*
X122831024Y-104990512D01*
X122829140Y-104987126D01*
X122239015Y-103885709D01*
X122237252Y-103882287D01*
X121682370Y-102762703D01*
X121680718Y-102759232D01*
X121211052Y-101730805D01*
X121161667Y-101622667D01*
X121160089Y-101619063D01*
X120677353Y-100466586D01*
X120675891Y-100462933D01*
X120517258Y-100047712D01*
X120229968Y-99295734D01*
X120228646Y-99292102D01*
X119819969Y-98111306D01*
X119818761Y-98107628D01*
X119447754Y-96914463D01*
X119446646Y-96910688D01*
X119113707Y-95706440D01*
X119112718Y-95702631D01*
X119034596Y-95380608D01*
X118818127Y-94488313D01*
X118817276Y-94484541D01*
X118561370Y-93261525D01*
X118560641Y-93257744D01*
X118343663Y-92027197D01*
X118343050Y-92023372D01*
X118165223Y-90786554D01*
X118164733Y-90782715D01*
X118026235Y-89540865D01*
X118025872Y-89537064D01*
X117926848Y-88291490D01*
X117926599Y-88287564D01*
X117925319Y-88260692D01*
X117867144Y-87039459D01*
X117867021Y-87035546D01*
X117860028Y-86594855D01*
X117854906Y-86272022D01*
X121089450Y-86272022D01*
X121089450Y-86272024D01*
X121089450Y-86272025D01*
X121089451Y-94746155D01*
X121089451Y-94884143D01*
X121089451Y-94884145D01*
X121089450Y-94884145D01*
X121116369Y-95019471D01*
X121116372Y-95019481D01*
X121169173Y-95146956D01*
X121245838Y-95261694D01*
X121245839Y-95261695D01*
X126031857Y-100047712D01*
X126065342Y-100109035D01*
X126067704Y-100146200D01*
X126047417Y-100378082D01*
X126047417Y-100378085D01*
X126067249Y-100604770D01*
X126067251Y-100604781D01*
X126126143Y-100824572D01*
X126126146Y-100824581D01*
X126222316Y-101030816D01*
X126222317Y-101030818D01*
X126352839Y-101217225D01*
X126513743Y-101378129D01*
X126513746Y-101378131D01*
X126700151Y-101508652D01*
X126906389Y-101604823D01*
X127126193Y-101663719D01*
X127288115Y-101677885D01*
X127352883Y-101683552D01*
X127352885Y-101683552D01*
X127352886Y-101683552D01*
X127372758Y-101681813D01*
X127579577Y-101663719D01*
X127579582Y-101663717D01*
X127584767Y-101663264D01*
X127653267Y-101677030D01*
X127683256Y-101699111D01*
X145987556Y-120003413D01*
X145987557Y-120003414D01*
X146102295Y-120080079D01*
X146229770Y-120132880D01*
X146229775Y-120132882D01*
X146229779Y-120132882D01*
X146229780Y-120132883D01*
X146365106Y-120159802D01*
X146365109Y-120159802D01*
X146365110Y-120159802D01*
X152753433Y-120159802D01*
X152753437Y-120159803D01*
X152778100Y-120159803D01*
X152916090Y-120159803D01*
X153007134Y-120141692D01*
X153051422Y-120132883D01*
X153115163Y-120106480D01*
X153178901Y-120080080D01*
X153178902Y-120080079D01*
X153178905Y-120080078D01*
X153293637Y-120003417D01*
X153636897Y-119660155D01*
X153655736Y-119645919D01*
X153655248Y-119645217D01*
X153660250Y-119641738D01*
X153660252Y-119641738D01*
X154755759Y-118879987D01*
X154779079Y-118867243D01*
X154844264Y-118840244D01*
X155016321Y-118725280D01*
X155162643Y-118578958D01*
X155277607Y-118406901D01*
X155356796Y-118215723D01*
X155397166Y-118012768D01*
X155397166Y-117555838D01*
X155397165Y-117555833D01*
X161796167Y-117555833D01*
X161796167Y-118012772D01*
X161836535Y-118215715D01*
X161836537Y-118215723D01*
X161915725Y-118406899D01*
X162030691Y-118578960D01*
X162177009Y-118725278D01*
X162177012Y-118725280D01*
X162349069Y-118840244D01*
X162540247Y-118919433D01*
X162743197Y-118959802D01*
X162743201Y-118959803D01*
X162743202Y-118959803D01*
X162950133Y-118959803D01*
X162950134Y-118959802D01*
X163153087Y-118919433D01*
X163344265Y-118840244D01*
X163516322Y-118725280D01*
X163662644Y-118578958D01*
X163777608Y-118406901D01*
X163856797Y-118215723D01*
X163897167Y-118012768D01*
X163897167Y-117555838D01*
X163856797Y-117352883D01*
X163777608Y-117161705D01*
X163662644Y-116989648D01*
X163662642Y-116989645D01*
X163516324Y-116843327D01*
X163430293Y-116785844D01*
X163344265Y-116728362D01*
X163153087Y-116649173D01*
X163153079Y-116649171D01*
X162950136Y-116608803D01*
X162950132Y-116608803D01*
X162743202Y-116608803D01*
X162743197Y-116608803D01*
X162540254Y-116649171D01*
X162540246Y-116649173D01*
X162349070Y-116728361D01*
X162177009Y-116843327D01*
X162030691Y-116989645D01*
X161915725Y-117161706D01*
X161836537Y-117352882D01*
X161836535Y-117352890D01*
X161796167Y-117555833D01*
X155397165Y-117555833D01*
X155356796Y-117352883D01*
X155277607Y-117161705D01*
X155162643Y-116989648D01*
X155162641Y-116989645D01*
X155016323Y-116843327D01*
X154930292Y-116785844D01*
X154844264Y-116728362D01*
X154653086Y-116649173D01*
X154653078Y-116649171D01*
X154450135Y-116608803D01*
X154450131Y-116608803D01*
X154243201Y-116608803D01*
X154243196Y-116608803D01*
X154040253Y-116649171D01*
X154040245Y-116649173D01*
X153849069Y-116728361D01*
X153677008Y-116843327D01*
X153530690Y-116989645D01*
X153415724Y-117161706D01*
X153336535Y-117352884D01*
X153335010Y-117360553D01*
X153323031Y-117394286D01*
X153113994Y-117789924D01*
X152710323Y-118553938D01*
X152701825Y-118570021D01*
X152701823Y-118570023D01*
X152661382Y-118646560D01*
X152639428Y-118676310D01*
X152593257Y-118722482D01*
X152531934Y-118755968D01*
X152505575Y-118758802D01*
X146775622Y-118758802D01*
X146708583Y-118739117D01*
X146687941Y-118722483D01*
X137043541Y-109078082D01*
X141147417Y-109078082D01*
X141147417Y-109078085D01*
X141167249Y-109304770D01*
X141167251Y-109304781D01*
X141226143Y-109524572D01*
X141226146Y-109524581D01*
X141322316Y-109730816D01*
X141322317Y-109730818D01*
X141452839Y-109917225D01*
X141613743Y-110078129D01*
X141613746Y-110078131D01*
X141800151Y-110208652D01*
X142006389Y-110304823D01*
X142226193Y-110363719D01*
X142388115Y-110377885D01*
X142452883Y-110383552D01*
X142452885Y-110383552D01*
X142452887Y-110383552D01*
X142509558Y-110378593D01*
X142679577Y-110363719D01*
X142899381Y-110304823D01*
X143105619Y-110208652D01*
X143292024Y-110078131D01*
X143452932Y-109917223D01*
X143583453Y-109730818D01*
X143679624Y-109524580D01*
X143738520Y-109304776D01*
X143758353Y-109078084D01*
X143756880Y-109061252D01*
X143738520Y-108851397D01*
X143738520Y-108851392D01*
X143679624Y-108631588D01*
X143583453Y-108425350D01*
X143452932Y-108238945D01*
X143452930Y-108238942D01*
X143292026Y-108078038D01*
X143105619Y-107947516D01*
X143105617Y-107947515D01*
X142899382Y-107851345D01*
X142899373Y-107851342D01*
X142679582Y-107792450D01*
X142679578Y-107792449D01*
X142679577Y-107792449D01*
X142679576Y-107792448D01*
X142679571Y-107792448D01*
X142452887Y-107772616D01*
X142452883Y-107772616D01*
X142226198Y-107792448D01*
X142226187Y-107792450D01*
X142006396Y-107851342D01*
X142006387Y-107851345D01*
X141800152Y-107947515D01*
X141800150Y-107947516D01*
X141613743Y-108078038D01*
X141452839Y-108238942D01*
X141322317Y-108425349D01*
X141322316Y-108425351D01*
X141226146Y-108631586D01*
X141226143Y-108631595D01*
X141167251Y-108851386D01*
X141167249Y-108851397D01*
X141147417Y-109078082D01*
X137043541Y-109078082D01*
X129294355Y-101328896D01*
X138124117Y-101328896D01*
X138124117Y-101328897D01*
X139821173Y-103025952D01*
X141518229Y-104723009D01*
X141518229Y-104723008D01*
X141518230Y-104723009D01*
X143710261Y-102530978D01*
X140386860Y-99066154D01*
X140386859Y-99066154D01*
X138124117Y-101328896D01*
X129294355Y-101328896D01*
X128673912Y-100708453D01*
X128640427Y-100647130D01*
X128638065Y-100609964D01*
X128638518Y-100604782D01*
X128638520Y-100604776D01*
X128658353Y-100378084D01*
X128638520Y-100151392D01*
X128579624Y-99931588D01*
X128483453Y-99725350D01*
X128352932Y-99538945D01*
X128352930Y-99538942D01*
X128192026Y-99378038D01*
X128005619Y-99247516D01*
X128005617Y-99247515D01*
X127799382Y-99151345D01*
X127799373Y-99151342D01*
X127579582Y-99092450D01*
X127579578Y-99092449D01*
X127579577Y-99092449D01*
X127579576Y-99092448D01*
X127579571Y-99092448D01*
X127352887Y-99072616D01*
X127352883Y-99072616D01*
X127121003Y-99092903D01*
X127052503Y-99079136D01*
X127022515Y-99057056D01*
X122526769Y-94561310D01*
X122493284Y-94499987D01*
X122490450Y-94473629D01*
X122490450Y-93537372D01*
X143712939Y-93537372D01*
X143733420Y-93679828D01*
X143757121Y-93731724D01*
X143793209Y-93810745D01*
X143887458Y-93919515D01*
X144008533Y-93997325D01*
X144008536Y-93997326D01*
X144008535Y-93997326D01*
X144146622Y-94037871D01*
X144146624Y-94037872D01*
X144146625Y-94037872D01*
X144290548Y-94037872D01*
X144290548Y-94037871D01*
X144428639Y-93997325D01*
X144549714Y-93919515D01*
X144643963Y-93810745D01*
X144703751Y-93679829D01*
X144724233Y-93537372D01*
X144722925Y-93528277D01*
X144732865Y-93459121D01*
X144757982Y-93422945D01*
X144841851Y-93339078D01*
X144903174Y-93305593D01*
X144929531Y-93302760D01*
X147750282Y-93302760D01*
X147817321Y-93322445D01*
X147837963Y-93339079D01*
X149569195Y-95070311D01*
X149602680Y-95131634D01*
X149605514Y-95157992D01*
X149605514Y-97351910D01*
X149585829Y-97418949D01*
X149569195Y-97439591D01*
X148037962Y-98970824D01*
X147976639Y-99004309D01*
X147950281Y-99007143D01*
X147854151Y-99007143D01*
X147716064Y-99047688D01*
X147594988Y-99125499D01*
X147500738Y-99234269D01*
X147500737Y-99234271D01*
X147440949Y-99365186D01*
X147420468Y-99507643D01*
X147440949Y-99650099D01*
X147472018Y-99718129D01*
X147500738Y-99781016D01*
X147594987Y-99889786D01*
X147716062Y-99967596D01*
X147716065Y-99967597D01*
X147716064Y-99967597D01*
X147854151Y-100008142D01*
X147854153Y-100008143D01*
X147854154Y-100008143D01*
X147998077Y-100008143D01*
X147998077Y-100008142D01*
X148136168Y-99967596D01*
X148257243Y-99889786D01*
X148351492Y-99781016D01*
X148411280Y-99650100D01*
X148431762Y-99507643D01*
X148430454Y-99498548D01*
X148440394Y-99429392D01*
X148465507Y-99393220D01*
X150146474Y-97712255D01*
X150186035Y-97643733D01*
X150206514Y-97567306D01*
X150206514Y-96355077D01*
X159845697Y-96355077D01*
X159866178Y-96497533D01*
X159925966Y-96628448D01*
X159925967Y-96628450D01*
X160020216Y-96737220D01*
X160020219Y-96737221D01*
X160020557Y-96737612D01*
X160049582Y-96801168D01*
X160050844Y-96818815D01*
X160050844Y-99236086D01*
X160053907Y-99247516D01*
X160071323Y-99312512D01*
X160071324Y-99312516D01*
X160077450Y-99323127D01*
X160077455Y-99323133D01*
X160110883Y-99381033D01*
X160110885Y-99381036D01*
X164233763Y-103503914D01*
X164267248Y-103565237D01*
X164262264Y-103634929D01*
X164220392Y-103690862D01*
X164154928Y-103715279D01*
X164146082Y-103715595D01*
X164030015Y-103715595D01*
X163894687Y-103742513D01*
X163894677Y-103742516D01*
X163767205Y-103795316D01*
X163767192Y-103795323D01*
X163652468Y-103871980D01*
X163652464Y-103871983D01*
X163554899Y-103969548D01*
X163554893Y-103969556D01*
X163478237Y-104084280D01*
X163478235Y-104084284D01*
X163425430Y-104211765D01*
X163425428Y-104211771D01*
X163398510Y-104347097D01*
X163398510Y-104347100D01*
X163398510Y-104485088D01*
X163398510Y-104485090D01*
X163398509Y-104485090D01*
X163425428Y-104620417D01*
X163425431Y-104620427D01*
X163478231Y-104747899D01*
X163478238Y-104747912D01*
X163554895Y-104862636D01*
X163554898Y-104862640D01*
X164571698Y-105879443D01*
X164571702Y-105879446D01*
X164589813Y-105891547D01*
X164589816Y-105891551D01*
X164589817Y-105891550D01*
X164686428Y-105956104D01*
X164686441Y-105956111D01*
X164813913Y-106008911D01*
X164813918Y-106008913D01*
X164813922Y-106008913D01*
X164813923Y-106008914D01*
X164949250Y-106035833D01*
X164949253Y-106035833D01*
X171677087Y-106035833D01*
X171744126Y-106055518D01*
X171764768Y-106072152D01*
X174966173Y-109273557D01*
X175080911Y-109350222D01*
X175208386Y-109403023D01*
X175208391Y-109403025D01*
X175208395Y-109403025D01*
X175208396Y-109403026D01*
X175343722Y-109429945D01*
X175343725Y-109429945D01*
X175481715Y-109429945D01*
X175572761Y-109411834D01*
X175617048Y-109403025D01*
X175744531Y-109350220D01*
X175859262Y-109273559D01*
X175956833Y-109175988D01*
X176033494Y-109061256D01*
X176086299Y-108933773D01*
X176113219Y-108798439D01*
X176113219Y-108660451D01*
X176113219Y-108636014D01*
X176113217Y-108635896D01*
X176113217Y-107232485D01*
X176132902Y-107165447D01*
X176149536Y-107144805D01*
X176735184Y-106559158D01*
X181048002Y-102246343D01*
X181124663Y-102131611D01*
X181177468Y-102004129D01*
X181195668Y-101912631D01*
X181204388Y-101868796D01*
X181204388Y-101706144D01*
X181204387Y-101706138D01*
X181204387Y-100178084D01*
X184647238Y-100178084D01*
X184667719Y-100320540D01*
X184710482Y-100414176D01*
X184727508Y-100451457D01*
X184821757Y-100560227D01*
X184821760Y-100560228D01*
X184822098Y-100560619D01*
X184851123Y-100624175D01*
X184852385Y-100641822D01*
X184852385Y-102814347D01*
X184832700Y-102881386D01*
X184822098Y-102895549D01*
X184727511Y-103004707D01*
X184727508Y-103004713D01*
X184667720Y-103135628D01*
X184647239Y-103278085D01*
X184667720Y-103420541D01*
X184705796Y-103503914D01*
X184727509Y-103551458D01*
X184821758Y-103660228D01*
X184942833Y-103738038D01*
X184942836Y-103738039D01*
X184942835Y-103738039D01*
X185049993Y-103769502D01*
X185080734Y-103778529D01*
X185080922Y-103778584D01*
X185080924Y-103778585D01*
X185080925Y-103778585D01*
X185224848Y-103778585D01*
X185224848Y-103778584D01*
X185347692Y-103742515D01*
X185362936Y-103738039D01*
X185362936Y-103738038D01*
X185362939Y-103738038D01*
X185484014Y-103660228D01*
X185578263Y-103551458D01*
X185638051Y-103420542D01*
X185658533Y-103278085D01*
X185638051Y-103135628D01*
X185578263Y-103004712D01*
X185484014Y-102895942D01*
X185484012Y-102895941D01*
X185483672Y-102895548D01*
X185454647Y-102831992D01*
X185453385Y-102814345D01*
X185453385Y-100641822D01*
X185473070Y-100574783D01*
X185483672Y-100560619D01*
X185484009Y-100560228D01*
X185484013Y-100560227D01*
X185578262Y-100451457D01*
X185638050Y-100320541D01*
X185658532Y-100178084D01*
X185638050Y-100035627D01*
X185578262Y-99904711D01*
X185484013Y-99795941D01*
X185362938Y-99718131D01*
X185362936Y-99718130D01*
X185362934Y-99718129D01*
X185362935Y-99718129D01*
X185224848Y-99677584D01*
X185224846Y-99677584D01*
X185080924Y-99677584D01*
X185080921Y-99677584D01*
X184942834Y-99718129D01*
X184821758Y-99795940D01*
X184727508Y-99904710D01*
X184727507Y-99904712D01*
X184667719Y-100035627D01*
X184647238Y-100178084D01*
X181204387Y-100178084D01*
X181204387Y-97488164D01*
X181177468Y-97352837D01*
X181177467Y-97352836D01*
X181177467Y-97352832D01*
X181148868Y-97283787D01*
X181124665Y-97225355D01*
X181124663Y-97225351D01*
X181124662Y-97225349D01*
X181075430Y-97151668D01*
X181048001Y-97110617D01*
X181047999Y-97110614D01*
X181047996Y-97110611D01*
X177669110Y-93731724D01*
X177635625Y-93670401D01*
X177640609Y-93600709D01*
X177682481Y-93544776D01*
X177747945Y-93520359D01*
X177756791Y-93520043D01*
X183189177Y-93520043D01*
X183280221Y-93501932D01*
X183324509Y-93493123D01*
X183388250Y-93466720D01*
X183451988Y-93440320D01*
X183451989Y-93440319D01*
X183451992Y-93440318D01*
X183566724Y-93363657D01*
X185749548Y-91180833D01*
X188171167Y-91180833D01*
X188171167Y-91387772D01*
X188211535Y-91590715D01*
X188211537Y-91590723D01*
X188290725Y-91781899D01*
X188405691Y-91953960D01*
X188552009Y-92100278D01*
X188552012Y-92100280D01*
X188724069Y-92215244D01*
X188915247Y-92294433D01*
X189118187Y-92334800D01*
X189118197Y-92334802D01*
X189118201Y-92334803D01*
X189118202Y-92334803D01*
X189575133Y-92334803D01*
X189575134Y-92334802D01*
X189778087Y-92294433D01*
X189969265Y-92215244D01*
X190141322Y-92100280D01*
X190287644Y-91953958D01*
X190402608Y-91781901D01*
X190481797Y-91590723D01*
X190522167Y-91387768D01*
X190522167Y-91180838D01*
X190522166Y-91180835D01*
X190522166Y-91180833D01*
X190481798Y-90977890D01*
X190481798Y-90977888D01*
X190481797Y-90977883D01*
X190402608Y-90786705D01*
X190287644Y-90614648D01*
X190287642Y-90614645D01*
X190141324Y-90468327D01*
X190055293Y-90410844D01*
X189969265Y-90353362D01*
X189969260Y-90353360D01*
X189778087Y-90274173D01*
X189778079Y-90274171D01*
X189575136Y-90233803D01*
X189575132Y-90233803D01*
X189118202Y-90233803D01*
X189118197Y-90233803D01*
X188915254Y-90274171D01*
X188915246Y-90274173D01*
X188724070Y-90353361D01*
X188552009Y-90468327D01*
X188405691Y-90614645D01*
X188290725Y-90786706D01*
X188211537Y-90977882D01*
X188211535Y-90977890D01*
X188171167Y-91180833D01*
X185749548Y-91180833D01*
X187409261Y-89521120D01*
X187470584Y-89487635D01*
X187496942Y-89484801D01*
X188385171Y-89484801D01*
X188452210Y-89504486D01*
X188472847Y-89521115D01*
X188552012Y-89600280D01*
X188724069Y-89715244D01*
X188915247Y-89794433D01*
X189118197Y-89834802D01*
X189118201Y-89834803D01*
X189118202Y-89834803D01*
X189575133Y-89834803D01*
X189575134Y-89834802D01*
X189778087Y-89794433D01*
X189969265Y-89715244D01*
X190141322Y-89600280D01*
X190287644Y-89453958D01*
X190402608Y-89281901D01*
X190481797Y-89090723D01*
X190522167Y-88887768D01*
X190522167Y-88680838D01*
X190481797Y-88477883D01*
X190402608Y-88286705D01*
X190287644Y-88114648D01*
X190287642Y-88114645D01*
X190141324Y-87968327D01*
X190034505Y-87896954D01*
X189969265Y-87853362D01*
X189778087Y-87774173D01*
X189778079Y-87774171D01*
X189575136Y-87733803D01*
X189575132Y-87733803D01*
X189118202Y-87733803D01*
X189118197Y-87733803D01*
X188915254Y-87774171D01*
X188915246Y-87774173D01*
X188724070Y-87853361D01*
X188593646Y-87940507D01*
X188552012Y-87968326D01*
X188472854Y-88047483D01*
X188411534Y-88080967D01*
X188385175Y-88083801D01*
X187086427Y-88083801D01*
X186951100Y-88110719D01*
X186951090Y-88110722D01*
X186823615Y-88163523D01*
X186708877Y-88240188D01*
X186708876Y-88240189D01*
X182866343Y-92082724D01*
X182805020Y-92116209D01*
X182778662Y-92119043D01*
X175980277Y-92119043D01*
X175941396Y-92111309D01*
X175941073Y-92112375D01*
X175935240Y-92110605D01*
X175799913Y-92083687D01*
X175799911Y-92083687D01*
X175661923Y-92083687D01*
X175661921Y-92083687D01*
X175526594Y-92110605D01*
X175526584Y-92110608D01*
X175399109Y-92163409D01*
X175284371Y-92240074D01*
X175186804Y-92337641D01*
X175110141Y-92452377D01*
X175057337Y-92579857D01*
X175057335Y-92579863D01*
X175030417Y-92715190D01*
X175030417Y-92715193D01*
X175030417Y-92853181D01*
X175030417Y-92853183D01*
X175030416Y-92853183D01*
X175057335Y-92988509D01*
X175057338Y-92988519D01*
X175110139Y-93115994D01*
X175186804Y-93230732D01*
X176373370Y-94417298D01*
X179767069Y-97810998D01*
X179800553Y-97872319D01*
X179803387Y-97898677D01*
X179803387Y-101458279D01*
X179783702Y-101525318D01*
X179767068Y-101545960D01*
X175558661Y-105754365D01*
X175497338Y-105787850D01*
X175427646Y-105782866D01*
X175371713Y-105740994D01*
X175347296Y-105675530D01*
X175348243Y-105649034D01*
X175352680Y-105618178D01*
X175352680Y-105618177D01*
X175332198Y-105475720D01*
X175272410Y-105344805D01*
X175272409Y-105344803D01*
X175178161Y-105236034D01*
X175057086Y-105158224D01*
X175057084Y-105158223D01*
X175057082Y-105158222D01*
X175057083Y-105158222D01*
X174918996Y-105117677D01*
X174918994Y-105117677D01*
X174775072Y-105117677D01*
X174775069Y-105117677D01*
X174636982Y-105158222D01*
X174515905Y-105236033D01*
X174515903Y-105236035D01*
X174482246Y-105274878D01*
X174423467Y-105312652D01*
X174388533Y-105317675D01*
X174315757Y-105317675D01*
X174248718Y-105297990D01*
X174228076Y-105281356D01*
X172725249Y-103778529D01*
X172725241Y-103778523D01*
X172656732Y-103738970D01*
X172656727Y-103738967D01*
X172631250Y-103732140D01*
X172580299Y-103718488D01*
X172580297Y-103718488D01*
X165349641Y-103718488D01*
X165282602Y-103698803D01*
X165261960Y-103682169D01*
X160688163Y-99108372D01*
X160654678Y-99047049D01*
X160651844Y-99020691D01*
X160651844Y-97557160D01*
X160906357Y-97557160D01*
X160926838Y-97699616D01*
X160986626Y-97830531D01*
X160986627Y-97830533D01*
X161080876Y-97939303D01*
X161201951Y-98017113D01*
X161201954Y-98017114D01*
X161201953Y-98017114D01*
X161340040Y-98057659D01*
X161340042Y-98057660D01*
X161340043Y-98057660D01*
X161483966Y-98057660D01*
X161483966Y-98057659D01*
X161622057Y-98017113D01*
X161743132Y-97939303D01*
X161776792Y-97900456D01*
X161835571Y-97862683D01*
X161870505Y-97857660D01*
X162778788Y-97857660D01*
X162845827Y-97877345D01*
X162866469Y-97893979D01*
X167451775Y-102479285D01*
X167507724Y-102535234D01*
X167507726Y-102535235D01*
X167507730Y-102535238D01*
X167564728Y-102568145D01*
X167576246Y-102574795D01*
X167652673Y-102595274D01*
X167731797Y-102595274D01*
X171489394Y-102595274D01*
X171556433Y-102614959D01*
X171583106Y-102638070D01*
X171616767Y-102676917D01*
X171737842Y-102754727D01*
X171737845Y-102754728D01*
X171737844Y-102754728D01*
X171875931Y-102795273D01*
X171875933Y-102795274D01*
X171875934Y-102795274D01*
X172019857Y-102795274D01*
X172019857Y-102795273D01*
X172157948Y-102754727D01*
X172279023Y-102676917D01*
X172373272Y-102568147D01*
X172433060Y-102437231D01*
X172453542Y-102294774D01*
X172433060Y-102152317D01*
X172373272Y-102021401D01*
X172279023Y-101912631D01*
X172157948Y-101834821D01*
X172157946Y-101834820D01*
X172157944Y-101834819D01*
X172157945Y-101834819D01*
X172019858Y-101794274D01*
X172019856Y-101794274D01*
X171875934Y-101794274D01*
X171875931Y-101794274D01*
X171737844Y-101834819D01*
X171616768Y-101912630D01*
X171616767Y-101912630D01*
X171616767Y-101912631D01*
X171591100Y-101942253D01*
X171583107Y-101951477D01*
X171524328Y-101989251D01*
X171489394Y-101994274D01*
X167868068Y-101994274D01*
X167801029Y-101974589D01*
X167780387Y-101957955D01*
X163139133Y-97316701D01*
X163139125Y-97316695D01*
X163070616Y-97277142D01*
X163070611Y-97277139D01*
X163045134Y-97270312D01*
X162994183Y-97256660D01*
X162994181Y-97256660D01*
X161870505Y-97256660D01*
X161803466Y-97236975D01*
X161776792Y-97213863D01*
X161743132Y-97175017D01*
X161622057Y-97097207D01*
X161622055Y-97097206D01*
X161622053Y-97097205D01*
X161622054Y-97097205D01*
X161483967Y-97056660D01*
X161483965Y-97056660D01*
X161340043Y-97056660D01*
X161340040Y-97056660D01*
X161201953Y-97097205D01*
X161080877Y-97175016D01*
X160986627Y-97283786D01*
X160986626Y-97283788D01*
X160926838Y-97414703D01*
X160906357Y-97557160D01*
X160651844Y-97557160D01*
X160651844Y-96818815D01*
X160671529Y-96751776D01*
X160682131Y-96737612D01*
X160682468Y-96737221D01*
X160682472Y-96737220D01*
X160776721Y-96628450D01*
X160836509Y-96497534D01*
X160856991Y-96355077D01*
X160836509Y-96212620D01*
X160776721Y-96081704D01*
X160682472Y-95972934D01*
X160561397Y-95895124D01*
X160561395Y-95895123D01*
X160561393Y-95895122D01*
X160561394Y-95895122D01*
X160423307Y-95854577D01*
X160423305Y-95854577D01*
X160279383Y-95854577D01*
X160279380Y-95854577D01*
X160141293Y-95895122D01*
X160020217Y-95972933D01*
X159925967Y-96081703D01*
X159925966Y-96081705D01*
X159866178Y-96212620D01*
X159845697Y-96355077D01*
X150206514Y-96355077D01*
X150206514Y-94942597D01*
X150186035Y-94866170D01*
X150182866Y-94860681D01*
X150146478Y-94797654D01*
X150146472Y-94797646D01*
X149936136Y-94587310D01*
X164017627Y-94587310D01*
X164038108Y-94729766D01*
X164097896Y-94860681D01*
X164097897Y-94860683D01*
X164192146Y-94969453D01*
X164313221Y-95047263D01*
X164313224Y-95047264D01*
X164313223Y-95047264D01*
X164391716Y-95070311D01*
X164448554Y-95087000D01*
X164451310Y-95087809D01*
X164451312Y-95087810D01*
X164547441Y-95087810D01*
X164614480Y-95107495D01*
X164635122Y-95124129D01*
X168596166Y-99085173D01*
X168652115Y-99141122D01*
X168652117Y-99141123D01*
X168652121Y-99141126D01*
X168720630Y-99180679D01*
X168720637Y-99180683D01*
X168797064Y-99201162D01*
X170216428Y-99201162D01*
X170283467Y-99220847D01*
X170304109Y-99237481D01*
X172908189Y-101841562D01*
X172941674Y-101902885D01*
X172943246Y-101911595D01*
X172947654Y-101942253D01*
X172947655Y-101942258D01*
X173007442Y-102073171D01*
X173007443Y-102073173D01*
X173101692Y-102181943D01*
X173222767Y-102259753D01*
X173222770Y-102259754D01*
X173222769Y-102259754D01*
X173360856Y-102300299D01*
X173360858Y-102300300D01*
X173360859Y-102300300D01*
X173504782Y-102300300D01*
X173504782Y-102300299D01*
X173642873Y-102259753D01*
X173763948Y-102181943D01*
X173858197Y-102073173D01*
X173917985Y-101942257D01*
X173938467Y-101799800D01*
X173917985Y-101657343D01*
X173858197Y-101526427D01*
X173763948Y-101417657D01*
X173642873Y-101339847D01*
X173642871Y-101339846D01*
X173642869Y-101339845D01*
X173642870Y-101339845D01*
X173504783Y-101299300D01*
X173504781Y-101299300D01*
X173360859Y-101299300D01*
X173319368Y-101311482D01*
X173249498Y-101311480D01*
X173196754Y-101280185D01*
X171895500Y-99978931D01*
X170576772Y-98660202D01*
X170576770Y-98660201D01*
X170576765Y-98660197D01*
X170508256Y-98620644D01*
X170508251Y-98620641D01*
X170482774Y-98613814D01*
X170431823Y-98600162D01*
X170431821Y-98600162D01*
X169012459Y-98600162D01*
X168945420Y-98580477D01*
X168924778Y-98563843D01*
X165872558Y-95511623D01*
X165839073Y-95450300D01*
X165844057Y-95380608D01*
X165885929Y-95324675D01*
X165951393Y-95300258D01*
X165960239Y-95299942D01*
X166032365Y-95299942D01*
X166099404Y-95319627D01*
X166120045Y-95336260D01*
X168384031Y-97600247D01*
X168384032Y-97600248D01*
X168439981Y-97656197D01*
X168439983Y-97656198D01*
X168439987Y-97656201D01*
X168508496Y-97695754D01*
X168508503Y-97695758D01*
X168584930Y-97716237D01*
X175024752Y-97716237D01*
X175091791Y-97735922D01*
X175112433Y-97752556D01*
X177277486Y-99917608D01*
X177310971Y-99978931D01*
X177312543Y-100022935D01*
X177311235Y-100032032D01*
X177331716Y-100174489D01*
X177333358Y-100178084D01*
X177391505Y-100305406D01*
X177485754Y-100414176D01*
X177606829Y-100491986D01*
X177606832Y-100491987D01*
X177606831Y-100491987D01*
X177744918Y-100532532D01*
X177744920Y-100532533D01*
X177744921Y-100532533D01*
X177888844Y-100532533D01*
X177888844Y-100532532D01*
X178026935Y-100491986D01*
X178148010Y-100414176D01*
X178242259Y-100305406D01*
X178302047Y-100174490D01*
X178322529Y-100032033D01*
X178302047Y-99889576D01*
X178242259Y-99758660D01*
X178148010Y-99649890D01*
X178026935Y-99572080D01*
X178026933Y-99572079D01*
X178026931Y-99572078D01*
X178026932Y-99572078D01*
X177888845Y-99531533D01*
X177888843Y-99531533D01*
X177792715Y-99531533D01*
X177725676Y-99511848D01*
X177705034Y-99495214D01*
X175385099Y-97175279D01*
X175385096Y-97175277D01*
X175378578Y-97171514D01*
X175343912Y-97151499D01*
X175316575Y-97135716D01*
X175291098Y-97128889D01*
X175240147Y-97115237D01*
X175240145Y-97115237D01*
X168800325Y-97115237D01*
X168733286Y-97095552D01*
X168712644Y-97078918D01*
X166547593Y-94913866D01*
X166514108Y-94852543D01*
X166512537Y-94808536D01*
X166513845Y-94799442D01*
X166493363Y-94656985D01*
X166433575Y-94526069D01*
X166339326Y-94417299D01*
X166218251Y-94339489D01*
X166218249Y-94339488D01*
X166218247Y-94339487D01*
X166218248Y-94339487D01*
X166080161Y-94298942D01*
X166080159Y-94298942D01*
X165936237Y-94298942D01*
X165936234Y-94298942D01*
X165798147Y-94339487D01*
X165677071Y-94417298D01*
X165582821Y-94526068D01*
X165582820Y-94526070D01*
X165523032Y-94656985D01*
X165502551Y-94799442D01*
X165502551Y-94799444D01*
X165506988Y-94830308D01*
X165497044Y-94899466D01*
X165451288Y-94952270D01*
X165384248Y-94971953D01*
X165317209Y-94952267D01*
X165296569Y-94935634D01*
X165062669Y-94701734D01*
X165029184Y-94640411D01*
X165027613Y-94596404D01*
X165028921Y-94587310D01*
X165008439Y-94444853D01*
X164948651Y-94313937D01*
X164854402Y-94205167D01*
X164733327Y-94127357D01*
X164733325Y-94127356D01*
X164733323Y-94127355D01*
X164733324Y-94127355D01*
X164595237Y-94086810D01*
X164595235Y-94086810D01*
X164451313Y-94086810D01*
X164451310Y-94086810D01*
X164313223Y-94127355D01*
X164192147Y-94205166D01*
X164097897Y-94313936D01*
X164097896Y-94313938D01*
X164038108Y-94444853D01*
X164017627Y-94587310D01*
X149936136Y-94587310D01*
X148110627Y-92761801D01*
X148110626Y-92761800D01*
X148091140Y-92750550D01*
X148091140Y-92750548D01*
X148091137Y-92750548D01*
X148042109Y-92722241D01*
X148042106Y-92722239D01*
X148003890Y-92711999D01*
X147965677Y-92701760D01*
X144714135Y-92701760D01*
X144683564Y-92709951D01*
X144637705Y-92722239D01*
X144637704Y-92722240D01*
X144588673Y-92750549D01*
X144588672Y-92750550D01*
X144569187Y-92761799D01*
X144569184Y-92761801D01*
X144330432Y-93000553D01*
X144269109Y-93034038D01*
X144242751Y-93036872D01*
X144146622Y-93036872D01*
X144008535Y-93077417D01*
X143887459Y-93155228D01*
X143793209Y-93263998D01*
X143793208Y-93264000D01*
X143733420Y-93394915D01*
X143712939Y-93537372D01*
X122490450Y-93537372D01*
X122490450Y-91180831D01*
X124171169Y-91180831D01*
X124171169Y-91387770D01*
X124211537Y-91590713D01*
X124211539Y-91590721D01*
X124290728Y-91781899D01*
X124348210Y-91867927D01*
X124405693Y-91953958D01*
X124552011Y-92100276D01*
X124552014Y-92100278D01*
X124724071Y-92215242D01*
X124915249Y-92294431D01*
X125118199Y-92334800D01*
X125118203Y-92334801D01*
X125118204Y-92334801D01*
X125575135Y-92334801D01*
X125575136Y-92334800D01*
X125778089Y-92294431D01*
X125969267Y-92215242D01*
X126141324Y-92100278D01*
X126287646Y-91953956D01*
X126402610Y-91781899D01*
X126481799Y-91590721D01*
X126522169Y-91387766D01*
X126522169Y-91193199D01*
X168260267Y-91193199D01*
X168280748Y-91335655D01*
X168325625Y-91433919D01*
X168340537Y-91466572D01*
X168434786Y-91575342D01*
X168555861Y-91653152D01*
X168555864Y-91653153D01*
X168555863Y-91653153D01*
X168693950Y-91693698D01*
X168693952Y-91693699D01*
X168693953Y-91693699D01*
X168837876Y-91693699D01*
X168837876Y-91693698D01*
X168975967Y-91653152D01*
X169097042Y-91575342D01*
X169130701Y-91536497D01*
X169189479Y-91498722D01*
X169224415Y-91493699D01*
X172309773Y-91493699D01*
X172365279Y-91509997D01*
X172366171Y-91508045D01*
X172374234Y-91511727D01*
X172374237Y-91511729D01*
X172458590Y-91536497D01*
X172512328Y-91552276D01*
X172512329Y-91552276D01*
X172656252Y-91552276D01*
X172656252Y-91552275D01*
X172794343Y-91511729D01*
X172915418Y-91433919D01*
X173009667Y-91325149D01*
X173069455Y-91194233D01*
X173089937Y-91051776D01*
X173069455Y-90909319D01*
X173009667Y-90778403D01*
X172915418Y-90669633D01*
X172794343Y-90591823D01*
X172794341Y-90591822D01*
X172794339Y-90591821D01*
X172794340Y-90591821D01*
X172656253Y-90551276D01*
X172656251Y-90551276D01*
X172512329Y-90551276D01*
X172512326Y-90551276D01*
X172374239Y-90591821D01*
X172253163Y-90669632D01*
X172158911Y-90778404D01*
X172158911Y-90778405D01*
X172139819Y-90820211D01*
X172094064Y-90873015D01*
X172027025Y-90892699D01*
X169224415Y-90892699D01*
X169157376Y-90873014D01*
X169130701Y-90849901D01*
X169097042Y-90811056D01*
X169097040Y-90811055D01*
X168975967Y-90733246D01*
X168975965Y-90733245D01*
X168975963Y-90733244D01*
X168975964Y-90733244D01*
X168837877Y-90692699D01*
X168837875Y-90692699D01*
X168693953Y-90692699D01*
X168693950Y-90692699D01*
X168555863Y-90733244D01*
X168434787Y-90811055D01*
X168340537Y-90919825D01*
X168340536Y-90919827D01*
X168280748Y-91050742D01*
X168260267Y-91193199D01*
X126522169Y-91193199D01*
X126522169Y-91180836D01*
X126522168Y-91180833D01*
X126522168Y-91180831D01*
X126502999Y-91084460D01*
X126481799Y-90977881D01*
X126402610Y-90786703D01*
X126287646Y-90614646D01*
X126287645Y-90614645D01*
X126287644Y-90614643D01*
X126141326Y-90468325D01*
X126055295Y-90410842D01*
X125969267Y-90353360D01*
X125866004Y-90310587D01*
X125778089Y-90274171D01*
X125778081Y-90274169D01*
X125575138Y-90233801D01*
X125575134Y-90233801D01*
X125118204Y-90233801D01*
X125118199Y-90233801D01*
X124915256Y-90274169D01*
X124915248Y-90274171D01*
X124724072Y-90353359D01*
X124552011Y-90468325D01*
X124405693Y-90614643D01*
X124290727Y-90786704D01*
X124211539Y-90977880D01*
X124211537Y-90977888D01*
X124171169Y-91180831D01*
X122490450Y-91180831D01*
X122490450Y-88859745D01*
X165502551Y-88859745D01*
X165523032Y-89002201D01*
X165582820Y-89133116D01*
X165582821Y-89133118D01*
X165677070Y-89241888D01*
X165798145Y-89319698D01*
X165798148Y-89319699D01*
X165798147Y-89319699D01*
X165936234Y-89360244D01*
X165936236Y-89360245D01*
X165936237Y-89360245D01*
X166080160Y-89360245D01*
X166080160Y-89360244D01*
X166218251Y-89319698D01*
X166218252Y-89319696D01*
X166226316Y-89316015D01*
X166227207Y-89317966D01*
X166282716Y-89301668D01*
X180810011Y-89301668D01*
X180877050Y-89321353D01*
X180897692Y-89337987D01*
X182029239Y-90469535D01*
X182062724Y-90530858D01*
X182064296Y-90574862D01*
X182062988Y-90583959D01*
X182083469Y-90726416D01*
X182111002Y-90786703D01*
X182143258Y-90857333D01*
X182237507Y-90966103D01*
X182358582Y-91043913D01*
X182358585Y-91043914D01*
X182358584Y-91043914D01*
X182496671Y-91084459D01*
X182496673Y-91084460D01*
X182496674Y-91084460D01*
X182640597Y-91084460D01*
X182640597Y-91084459D01*
X182778688Y-91043913D01*
X182899763Y-90966103D01*
X182994012Y-90857333D01*
X183053800Y-90726417D01*
X183074282Y-90583960D01*
X183053800Y-90441503D01*
X182994012Y-90310587D01*
X182899763Y-90201817D01*
X182778688Y-90124007D01*
X182778686Y-90124006D01*
X182778684Y-90124005D01*
X182778685Y-90124005D01*
X182640598Y-90083460D01*
X182640596Y-90083460D01*
X182544469Y-90083460D01*
X182477430Y-90063775D01*
X182456788Y-90047141D01*
X181170356Y-88760709D01*
X181170355Y-88760708D01*
X181140991Y-88743755D01*
X181140991Y-88743754D01*
X181140987Y-88743753D01*
X181127325Y-88735865D01*
X181101834Y-88721147D01*
X181101835Y-88721147D01*
X181063619Y-88710907D01*
X181025406Y-88700668D01*
X181025404Y-88700668D01*
X166565462Y-88700668D01*
X166498423Y-88680983D01*
X166452668Y-88628179D01*
X166433577Y-88586375D01*
X166433574Y-88586371D01*
X166339326Y-88477602D01*
X166218251Y-88399792D01*
X166218249Y-88399791D01*
X166218247Y-88399790D01*
X166218248Y-88399790D01*
X166080161Y-88359245D01*
X166080159Y-88359245D01*
X165936237Y-88359245D01*
X165936234Y-88359245D01*
X165798147Y-88399790D01*
X165677071Y-88477601D01*
X165677070Y-88477601D01*
X165677070Y-88477602D01*
X165664488Y-88492122D01*
X165582821Y-88586371D01*
X165582820Y-88586373D01*
X165523032Y-88717288D01*
X165502551Y-88859745D01*
X122490450Y-88859745D01*
X122490450Y-88178085D01*
X134652885Y-88178085D01*
X139252885Y-88178085D01*
X139252885Y-87940507D01*
X166421790Y-87940507D01*
X166442271Y-88082963D01*
X166479062Y-88163523D01*
X166502060Y-88213880D01*
X166596309Y-88322650D01*
X166717384Y-88400460D01*
X166717387Y-88400461D01*
X166717386Y-88400461D01*
X166855473Y-88441006D01*
X166855475Y-88441007D01*
X166855476Y-88441007D01*
X166999399Y-88441007D01*
X166999399Y-88441006D01*
X167137490Y-88400460D01*
X167258565Y-88322650D01*
X167292225Y-88283803D01*
X167351004Y-88246030D01*
X167385938Y-88241007D01*
X180592238Y-88241007D01*
X180659277Y-88260692D01*
X180674591Y-88273960D01*
X180675172Y-88273291D01*
X180681868Y-88279092D01*
X180681872Y-88279097D01*
X180802947Y-88356907D01*
X180802950Y-88356908D01*
X180802949Y-88356908D01*
X180941036Y-88397453D01*
X180941038Y-88397454D01*
X180941039Y-88397454D01*
X181084962Y-88397454D01*
X181084962Y-88397453D01*
X181192121Y-88365989D01*
X181223050Y-88356908D01*
X181223050Y-88356907D01*
X181223053Y-88356907D01*
X181344128Y-88279097D01*
X181438377Y-88170327D01*
X181498165Y-88039411D01*
X181518647Y-87896954D01*
X181498165Y-87754497D01*
X181438377Y-87623581D01*
X181344128Y-87514811D01*
X181223053Y-87437001D01*
X181223051Y-87437000D01*
X181223049Y-87436999D01*
X181223050Y-87436999D01*
X181084963Y-87396454D01*
X181084961Y-87396454D01*
X180941039Y-87396454D01*
X180941036Y-87396454D01*
X180802949Y-87436999D01*
X180681872Y-87514811D01*
X180681870Y-87514812D01*
X180610474Y-87597209D01*
X180551696Y-87634984D01*
X180516761Y-87640007D01*
X167385938Y-87640007D01*
X167318899Y-87620322D01*
X167292225Y-87597210D01*
X167292224Y-87597209D01*
X167258565Y-87558364D01*
X167137490Y-87480554D01*
X167137488Y-87480553D01*
X167137486Y-87480552D01*
X167137487Y-87480552D01*
X166999400Y-87440007D01*
X166999398Y-87440007D01*
X166855476Y-87440007D01*
X166855473Y-87440007D01*
X166717386Y-87480552D01*
X166596310Y-87558363D01*
X166502060Y-87667133D01*
X166502059Y-87667135D01*
X166442271Y-87798050D01*
X166421790Y-87940507D01*
X139252885Y-87940507D01*
X139252885Y-81978085D01*
X134652885Y-81978085D01*
X134652885Y-88178085D01*
X122490450Y-88178085D01*
X122490450Y-86682536D01*
X122510135Y-86615497D01*
X122526769Y-86594855D01*
X123339288Y-85782336D01*
X124547137Y-84574486D01*
X124569029Y-84557060D01*
X125797677Y-83788169D01*
X125815994Y-83778728D01*
X125969264Y-83715243D01*
X126141321Y-83600279D01*
X126287643Y-83453957D01*
X126402607Y-83281900D01*
X126481796Y-83090722D01*
X126522166Y-82887767D01*
X126522166Y-82680837D01*
X126481796Y-82477882D01*
X126402607Y-82286704D01*
X126287643Y-82114647D01*
X126287641Y-82114644D01*
X126141323Y-81968326D01*
X126055292Y-81910843D01*
X125969264Y-81853361D01*
X125778086Y-81774172D01*
X125778078Y-81774170D01*
X125575135Y-81733802D01*
X125575131Y-81733802D01*
X125118201Y-81733802D01*
X125118196Y-81733802D01*
X124915253Y-81774170D01*
X124915245Y-81774172D01*
X124724069Y-81853360D01*
X124552008Y-81968326D01*
X124405690Y-82114644D01*
X124290723Y-82286706D01*
X124220001Y-82457444D01*
X124212389Y-82472743D01*
X123574152Y-83560496D01*
X123554884Y-83585425D01*
X121245838Y-85894472D01*
X121245837Y-85894473D01*
X121242360Y-85899677D01*
X121221835Y-85930397D01*
X121219196Y-85934346D01*
X121219195Y-85934347D01*
X121169178Y-86009201D01*
X121169171Y-86009213D01*
X121116371Y-86136685D01*
X121116368Y-86136695D01*
X121089450Y-86272022D01*
X117854906Y-86272022D01*
X117847198Y-85786256D01*
X117847198Y-85782336D01*
X117867021Y-84533036D01*
X117867145Y-84529126D01*
X117870898Y-84450357D01*
X117926599Y-83281037D01*
X117926849Y-83277114D01*
X117931575Y-83217671D01*
X118025873Y-82031535D01*
X118026234Y-82027746D01*
X118164734Y-80785882D01*
X118165221Y-80782059D01*
X118343052Y-79545223D01*
X118343661Y-79541418D01*
X118560643Y-78310849D01*
X118561367Y-78307091D01*
X118817279Y-77084051D01*
X118818124Y-77080306D01*
X119112721Y-75865959D01*
X119113707Y-75862165D01*
X119126020Y-75817631D01*
X119446649Y-74657904D01*
X119447754Y-74654142D01*
X119457561Y-74622604D01*
X119790949Y-73550418D01*
X154860118Y-73550418D01*
X154880400Y-73756350D01*
X154896247Y-73808590D01*
X154940469Y-73954372D01*
X155038016Y-74136868D01*
X155062289Y-74166445D01*
X155169290Y-74296828D01*
X155221609Y-74339764D01*
X155329251Y-74428103D01*
X155511747Y-74525650D01*
X155709767Y-74585718D01*
X155709766Y-74585718D01*
X155728230Y-74587536D01*
X155915701Y-74606001D01*
X156121635Y-74585718D01*
X156319655Y-74525650D01*
X156502151Y-74428103D01*
X156662111Y-74296828D01*
X156793386Y-74136868D01*
X156890933Y-73954372D01*
X156894870Y-73941389D01*
X156899649Y-73928323D01*
X156900650Y-73925996D01*
X156900657Y-73925985D01*
X157257355Y-72806901D01*
X157263615Y-72787262D01*
X157302729Y-72729366D01*
X157366935Y-72701808D01*
X157381759Y-72700919D01*
X157531717Y-72700919D01*
X157598756Y-72720604D01*
X157644511Y-72773408D01*
X157654455Y-72842566D01*
X157627571Y-72903583D01*
X157578017Y-72963965D01*
X157480469Y-73146461D01*
X157420399Y-73344485D01*
X157400117Y-73550418D01*
X157420399Y-73756350D01*
X157436246Y-73808590D01*
X157480468Y-73954372D01*
X157578015Y-74136868D01*
X157602288Y-74166445D01*
X157709289Y-74296828D01*
X157761608Y-74339764D01*
X157869250Y-74428103D01*
X158051746Y-74525650D01*
X158249766Y-74585718D01*
X158249765Y-74585718D01*
X158268229Y-74587536D01*
X158455700Y-74606001D01*
X158661634Y-74585718D01*
X158859654Y-74525650D01*
X159042150Y-74428103D01*
X159202110Y-74296828D01*
X159333385Y-74136868D01*
X159430932Y-73954372D01*
X159491000Y-73756352D01*
X159511283Y-73550418D01*
X159491000Y-73344484D01*
X159430932Y-73146464D01*
X159333385Y-72963968D01*
X159283829Y-72903583D01*
X159256517Y-72839273D01*
X159268308Y-72770406D01*
X159315461Y-72718846D01*
X159379683Y-72700919D01*
X161004718Y-72700919D01*
X161071757Y-72720604D01*
X161092399Y-72737238D01*
X161427282Y-73072121D01*
X161460767Y-73133444D01*
X161455783Y-73203136D01*
X161413911Y-73259069D01*
X161348447Y-73283486D01*
X161339601Y-73283802D01*
X161274705Y-73283802D01*
X161136618Y-73324347D01*
X161015542Y-73402158D01*
X160921292Y-73510928D01*
X160921291Y-73510930D01*
X160861503Y-73641845D01*
X160841022Y-73784302D01*
X160861503Y-73926758D01*
X160891699Y-73992876D01*
X160921292Y-74057675D01*
X161015541Y-74166445D01*
X161015543Y-74166446D01*
X161015545Y-74166448D01*
X161136611Y-74244252D01*
X161136616Y-74244255D01*
X161136620Y-74244256D01*
X161144683Y-74247939D01*
X161144461Y-74248423D01*
X161149504Y-74250612D01*
X161149815Y-74249945D01*
X161312748Y-74325717D01*
X161573943Y-74447185D01*
X161609336Y-74471940D01*
X162147364Y-75009968D01*
X162180849Y-75071291D01*
X162175865Y-75140983D01*
X162147364Y-75185330D01*
X157423598Y-79909096D01*
X157423598Y-79909097D01*
X162939029Y-85424532D01*
X162939030Y-85424532D01*
X164059280Y-84304281D01*
X164120602Y-84270797D01*
X164190294Y-84275781D01*
X164246227Y-84317653D01*
X164270644Y-84383117D01*
X164270363Y-84404118D01*
X164267691Y-84431244D01*
X164267691Y-84450356D01*
X164271637Y-84490435D01*
X164290671Y-84586131D01*
X164290673Y-84586140D01*
X164302364Y-84624678D01*
X164302368Y-84624690D01*
X164309677Y-84642338D01*
X164309684Y-84642352D01*
X164328665Y-84677863D01*
X164328673Y-84677876D01*
X164385610Y-84763089D01*
X164388980Y-84767633D01*
X164397620Y-84779285D01*
X164400872Y-84783247D01*
X164403722Y-84786719D01*
X164403725Y-84786722D01*
X164417274Y-84801669D01*
X165400368Y-85784763D01*
X165400378Y-85784772D01*
X165400383Y-85784777D01*
X165415319Y-85798316D01*
X165419947Y-85802114D01*
X165422752Y-85804417D01*
X165432131Y-85811372D01*
X165438949Y-85816428D01*
X165524162Y-85873365D01*
X165559696Y-85892358D01*
X165577360Y-85899674D01*
X165577362Y-85899674D01*
X165577363Y-85899675D01*
X165577369Y-85899677D01*
X165615899Y-85911364D01*
X165615908Y-85911366D01*
X165647240Y-85917598D01*
X165711589Y-85930398D01*
X165751680Y-85934347D01*
X165751685Y-85934347D01*
X165770793Y-85934347D01*
X165770799Y-85934347D01*
X165810891Y-85930398D01*
X165906575Y-85911365D01*
X165945122Y-85899672D01*
X165962785Y-85892356D01*
X165998315Y-85873365D01*
X166083528Y-85816428D01*
X166099733Y-85804410D01*
X166107158Y-85798316D01*
X166122094Y-85784777D01*
X168378008Y-83528862D01*
X168391547Y-83513926D01*
X168397641Y-83506501D01*
X168409659Y-83490296D01*
X168466596Y-83405083D01*
X168485587Y-83369553D01*
X168492903Y-83351890D01*
X168504596Y-83313343D01*
X168523629Y-83217659D01*
X168527578Y-83177567D01*
X168527578Y-83158448D01*
X168523629Y-83118357D01*
X168504596Y-83022672D01*
X168504595Y-83022667D01*
X168492908Y-82984137D01*
X168492906Y-82984131D01*
X168492905Y-82984128D01*
X168485589Y-82966464D01*
X168466596Y-82930930D01*
X168441086Y-82892752D01*
X168420210Y-82826078D01*
X168438694Y-82758698D01*
X168456505Y-82736187D01*
X170785199Y-80407495D01*
X174441683Y-76751009D01*
X174503004Y-76717526D01*
X174572696Y-76722510D01*
X174617040Y-76751009D01*
X174876404Y-77010372D01*
X175780941Y-77914909D01*
X175814426Y-77976232D01*
X175809442Y-78045924D01*
X175780941Y-78090271D01*
X174463399Y-79407814D01*
X174449848Y-79422764D01*
X174434452Y-79441524D01*
X174434429Y-79441554D01*
X174422444Y-79457712D01*
X174422417Y-79457751D01*
X174377873Y-79524417D01*
X174358885Y-79559938D01*
X174340372Y-79604632D01*
X174340370Y-79604637D01*
X174328680Y-79643174D01*
X174328677Y-79643185D01*
X174315463Y-79709625D01*
X174315462Y-79709633D01*
X174311516Y-79749708D01*
X174311516Y-79798079D01*
X174315462Y-79838159D01*
X174315464Y-79838169D01*
X174328677Y-79904598D01*
X174330042Y-79909097D01*
X174340374Y-79943157D01*
X174358885Y-79987846D01*
X174358889Y-79987854D01*
X174377868Y-80023363D01*
X174377881Y-80023385D01*
X174422422Y-80090043D01*
X174422435Y-80090062D01*
X174434440Y-80106247D01*
X174449866Y-80125043D01*
X174463386Y-80139958D01*
X174463400Y-80139973D01*
X178123080Y-83799653D01*
X178123095Y-83799667D01*
X178138010Y-83813187D01*
X178138020Y-83813195D01*
X178138022Y-83813197D01*
X178156812Y-83828618D01*
X178164958Y-83834659D01*
X178172987Y-83840615D01*
X178172994Y-83840619D01*
X178173012Y-83840633D01*
X178239678Y-83885178D01*
X178275208Y-83904169D01*
X178319908Y-83922684D01*
X178319923Y-83922688D01*
X178319927Y-83922690D01*
X178358449Y-83934375D01*
X178358453Y-83934375D01*
X178358457Y-83934377D01*
X178424879Y-83947589D01*
X178464970Y-83951538D01*
X178464975Y-83951538D01*
X178513347Y-83951538D01*
X178513352Y-83951538D01*
X178553443Y-83947589D01*
X178619864Y-83934377D01*
X178658413Y-83922684D01*
X178703113Y-83904169D01*
X178738643Y-83885178D01*
X178805309Y-83840633D01*
X178821509Y-83828618D01*
X178840299Y-83813197D01*
X178855239Y-83799655D01*
X181595684Y-81059210D01*
X181609226Y-81044270D01*
X181624647Y-81025480D01*
X181636662Y-81009280D01*
X181681207Y-80942614D01*
X181700198Y-80907084D01*
X181718713Y-80862384D01*
X181730406Y-80823835D01*
X181743618Y-80757414D01*
X181747567Y-80717323D01*
X181747567Y-80668941D01*
X181743618Y-80628850D01*
X181730406Y-80562428D01*
X181718713Y-80523879D01*
X181700198Y-80479179D01*
X181681207Y-80443649D01*
X181636662Y-80376983D01*
X181636648Y-80376965D01*
X181636644Y-80376958D01*
X181630688Y-80368929D01*
X181624647Y-80360783D01*
X181609226Y-80341993D01*
X181609224Y-80341991D01*
X181609216Y-80341981D01*
X181595696Y-80327066D01*
X181595682Y-80327051D01*
X181449463Y-80180832D01*
X188171166Y-80180832D01*
X188171166Y-80387771D01*
X188211534Y-80590714D01*
X188211536Y-80590722D01*
X188280582Y-80757414D01*
X188290725Y-80781900D01*
X188318745Y-80823835D01*
X188405690Y-80953959D01*
X188552008Y-81100277D01*
X188552011Y-81100279D01*
X188724068Y-81215243D01*
X188915246Y-81294432D01*
X189118196Y-81334801D01*
X189118200Y-81334802D01*
X189118201Y-81334802D01*
X189575132Y-81334802D01*
X189575133Y-81334801D01*
X189778086Y-81294432D01*
X189969264Y-81215243D01*
X190141321Y-81100279D01*
X190287643Y-80953957D01*
X190402607Y-80781900D01*
X190481796Y-80590722D01*
X190522166Y-80387767D01*
X190522166Y-80180837D01*
X190481796Y-79977882D01*
X190402607Y-79786704D01*
X190287643Y-79614647D01*
X190287641Y-79614644D01*
X190141323Y-79468326D01*
X190050759Y-79407814D01*
X189969264Y-79353361D01*
X189778086Y-79274172D01*
X189778078Y-79274170D01*
X189575135Y-79233802D01*
X189575131Y-79233802D01*
X189118201Y-79233802D01*
X189118196Y-79233802D01*
X188915253Y-79274170D01*
X188915245Y-79274172D01*
X188724069Y-79353360D01*
X188552008Y-79468326D01*
X188405690Y-79614644D01*
X188290724Y-79786705D01*
X188211536Y-79977881D01*
X188211534Y-79977889D01*
X188171166Y-80180832D01*
X181449463Y-80180832D01*
X178949463Y-77680832D01*
X188171166Y-77680832D01*
X188171166Y-77887771D01*
X188211534Y-78090714D01*
X188211536Y-78090722D01*
X188267832Y-78226633D01*
X188290725Y-78281900D01*
X188326158Y-78334930D01*
X188405690Y-78453959D01*
X188552008Y-78600277D01*
X188552011Y-78600279D01*
X188724068Y-78715243D01*
X188915246Y-78794432D01*
X189118196Y-78834801D01*
X189118200Y-78834802D01*
X189118201Y-78834802D01*
X189575132Y-78834802D01*
X189575133Y-78834801D01*
X189778086Y-78794432D01*
X189969264Y-78715243D01*
X190141321Y-78600279D01*
X190287643Y-78453957D01*
X190402607Y-78281900D01*
X190481796Y-78090722D01*
X190522166Y-77887767D01*
X190522166Y-77680837D01*
X190481796Y-77477882D01*
X190402607Y-77286704D01*
X190287643Y-77114647D01*
X190287641Y-77114644D01*
X190141323Y-76968326D01*
X189988247Y-76866045D01*
X189969264Y-76853361D01*
X189890556Y-76820759D01*
X189778086Y-76774172D01*
X189778078Y-76774170D01*
X189575135Y-76733802D01*
X189575131Y-76733802D01*
X189118201Y-76733802D01*
X189118196Y-76733802D01*
X188915253Y-76774170D01*
X188915245Y-76774172D01*
X188724069Y-76853360D01*
X188552008Y-76968326D01*
X188405690Y-77114644D01*
X188290724Y-77286705D01*
X188211536Y-77477881D01*
X188211534Y-77477889D01*
X188171166Y-77680832D01*
X178949463Y-77680832D01*
X177936002Y-76667371D01*
X177935987Y-76667357D01*
X177921072Y-76653837D01*
X177902280Y-76638413D01*
X177902274Y-76638409D01*
X177900692Y-76637236D01*
X177886875Y-76625317D01*
X176199609Y-74938053D01*
X176166124Y-74876730D01*
X176163888Y-74838212D01*
X176164332Y-74833706D01*
X176164332Y-74814592D01*
X176164332Y-74814588D01*
X176160383Y-74774497D01*
X176141350Y-74678812D01*
X176141349Y-74678807D01*
X176129662Y-74640277D01*
X176129660Y-74640271D01*
X176129659Y-74640268D01*
X176122343Y-74622604D01*
X176103350Y-74587070D01*
X176046413Y-74501857D01*
X176038834Y-74491637D01*
X176034402Y-74485660D01*
X176032099Y-74482855D01*
X176028301Y-74478227D01*
X176014762Y-74463291D01*
X176014757Y-74463286D01*
X176014748Y-74463276D01*
X175935773Y-74384301D01*
X177841200Y-74384301D01*
X177841200Y-74384304D01*
X177861032Y-74610989D01*
X177861034Y-74611000D01*
X177919926Y-74830791D01*
X177919929Y-74830800D01*
X178016099Y-75037035D01*
X178016100Y-75037037D01*
X178146622Y-75223444D01*
X178307526Y-75384348D01*
X178307529Y-75384350D01*
X178493934Y-75514871D01*
X178700172Y-75611042D01*
X178919976Y-75669938D01*
X179081898Y-75684104D01*
X179146666Y-75689771D01*
X179146668Y-75689771D01*
X179146670Y-75689771D01*
X179203341Y-75684812D01*
X179373360Y-75669938D01*
X179593164Y-75611042D01*
X179799402Y-75514871D01*
X179985807Y-75384350D01*
X180146715Y-75223442D01*
X180277236Y-75037037D01*
X180373407Y-74830799D01*
X180432303Y-74610995D01*
X180452136Y-74384303D01*
X180432303Y-74157611D01*
X180373407Y-73937807D01*
X180277236Y-73731569D01*
X180146715Y-73545164D01*
X180146713Y-73545161D01*
X179985809Y-73384257D01*
X179799402Y-73253735D01*
X179799400Y-73253734D01*
X179593165Y-73157564D01*
X179593156Y-73157561D01*
X179373365Y-73098669D01*
X179373361Y-73098668D01*
X179373360Y-73098668D01*
X179373359Y-73098667D01*
X179373354Y-73098667D01*
X179146670Y-73078835D01*
X179146666Y-73078835D01*
X178919981Y-73098667D01*
X178919970Y-73098669D01*
X178700179Y-73157561D01*
X178700170Y-73157564D01*
X178493935Y-73253734D01*
X178493933Y-73253735D01*
X178307526Y-73384257D01*
X178146622Y-73545161D01*
X178016100Y-73731568D01*
X178016099Y-73731570D01*
X177919929Y-73937805D01*
X177919926Y-73937814D01*
X177861034Y-74157605D01*
X177861032Y-74157616D01*
X177841200Y-74384301D01*
X175935773Y-74384301D01*
X174465968Y-72914496D01*
X174465949Y-72914479D01*
X174451018Y-72900944D01*
X174443625Y-72894876D01*
X174443584Y-72894842D01*
X174431932Y-72886202D01*
X174427388Y-72882832D01*
X174355468Y-72834777D01*
X174342180Y-72825898D01*
X174342162Y-72825887D01*
X174306651Y-72806906D01*
X174306637Y-72806899D01*
X174288989Y-72799590D01*
X174288977Y-72799586D01*
X174250439Y-72787895D01*
X174250430Y-72787893D01*
X174201590Y-72778178D01*
X174154746Y-72768861D01*
X174154742Y-72768860D01*
X174154734Y-72768859D01*
X174118960Y-72765336D01*
X174114656Y-72764913D01*
X174095542Y-72764913D01*
X174091655Y-72765295D01*
X174055463Y-72768859D01*
X174055453Y-72768860D01*
X174055452Y-72768861D01*
X173959764Y-72787894D01*
X173935478Y-72795260D01*
X173921219Y-72799586D01*
X173903560Y-72806900D01*
X173903558Y-72806901D01*
X173868023Y-72825893D01*
X173868020Y-72825894D01*
X173868018Y-72825896D01*
X173787093Y-72879967D01*
X173782802Y-72882835D01*
X173771125Y-72891495D01*
X173766568Y-72894876D01*
X173759214Y-72900913D01*
X173759180Y-72900942D01*
X173759173Y-72900948D01*
X173744248Y-72914478D01*
X173744247Y-72914479D01*
X173744241Y-72914484D01*
X172478278Y-74180447D01*
X172478273Y-74180453D01*
X172464744Y-74195377D01*
X172464707Y-74195420D01*
X172458674Y-74202769D01*
X172458633Y-74202822D01*
X172446644Y-74218988D01*
X172446611Y-74219033D01*
X172389694Y-74304218D01*
X172389680Y-74304242D01*
X172370694Y-74339764D01*
X172363377Y-74357433D01*
X172363376Y-74357435D01*
X172351689Y-74395965D01*
X172351687Y-74395974D01*
X172332659Y-74491637D01*
X172332656Y-74491652D01*
X172332656Y-74491655D01*
X172328707Y-74531746D01*
X172328707Y-74550862D01*
X172332273Y-74587064D01*
X172332657Y-74590959D01*
X172342916Y-74642542D01*
X172342950Y-74642708D01*
X172344140Y-74648689D01*
X172344140Y-74648690D01*
X172351688Y-74686638D01*
X172363381Y-74725184D01*
X172363383Y-74725190D01*
X172370698Y-74742853D01*
X172370700Y-74742857D01*
X172389681Y-74778368D01*
X172389689Y-74778381D01*
X172446626Y-74863594D01*
X172449996Y-74868138D01*
X172458636Y-74879790D01*
X172461888Y-74883752D01*
X172464738Y-74887224D01*
X172464741Y-74887227D01*
X172478290Y-74902174D01*
X173306066Y-75729950D01*
X173339551Y-75791273D01*
X173334567Y-75860965D01*
X173306066Y-75905312D01*
X170107872Y-79103506D01*
X170046549Y-79136991D01*
X169976857Y-79132007D01*
X169932510Y-79103506D01*
X168082845Y-77253841D01*
X168049360Y-77192518D01*
X168047789Y-77148511D01*
X168049097Y-77139417D01*
X168028615Y-76996960D01*
X167968827Y-76866044D01*
X167874578Y-76757274D01*
X167753503Y-76679464D01*
X167753501Y-76679463D01*
X167753499Y-76679462D01*
X167753500Y-76679462D01*
X167615413Y-76638917D01*
X167615411Y-76638917D01*
X167471489Y-76638917D01*
X167395130Y-76661337D01*
X167325261Y-76661336D01*
X167266483Y-76623561D01*
X167237459Y-76560004D01*
X167237344Y-76558398D01*
X167215715Y-76407962D01*
X167155927Y-76277046D01*
X167061678Y-76168276D01*
X167061675Y-76168274D01*
X167061676Y-76168274D01*
X166940605Y-76090466D01*
X166932541Y-76086784D01*
X166932760Y-76086303D01*
X166927708Y-76084109D01*
X166927399Y-76084774D01*
X166503273Y-75887534D01*
X166467881Y-75862779D01*
X164718191Y-74113086D01*
X164693436Y-74077693D01*
X164636086Y-73954374D01*
X164498765Y-73659091D01*
X164490815Y-73647961D01*
X164478927Y-73627404D01*
X164455929Y-73577045D01*
X164361680Y-73468275D01*
X164240605Y-73390465D01*
X164240603Y-73390464D01*
X164240601Y-73390463D01*
X164240602Y-73390463D01*
X164102515Y-73349918D01*
X164102513Y-73349918D01*
X163958591Y-73349918D01*
X163958588Y-73349918D01*
X163820501Y-73390463D01*
X163699425Y-73468274D01*
X163605175Y-73577044D01*
X163605174Y-73577046D01*
X163545386Y-73707961D01*
X163524905Y-73850418D01*
X163545386Y-73992875D01*
X163545387Y-73992876D01*
X163551893Y-74007122D01*
X163561837Y-74076280D01*
X163532812Y-74139836D01*
X163474034Y-74177610D01*
X163404164Y-74177610D01*
X163351418Y-74146314D01*
X161365065Y-72159961D01*
X161364667Y-72159731D01*
X161358056Y-72155914D01*
X161358055Y-72155913D01*
X161296542Y-72120399D01*
X161296541Y-72120398D01*
X161271064Y-72113571D01*
X161220113Y-72099919D01*
X157105262Y-72099919D01*
X157026138Y-72099919D01*
X156949712Y-72120397D01*
X156949711Y-72120397D01*
X156949709Y-72120398D01*
X156949708Y-72120398D01*
X156881582Y-72159731D01*
X156855215Y-72171114D01*
X155543758Y-72564569D01*
X155533886Y-72567806D01*
X155526327Y-72570497D01*
X155526238Y-72570249D01*
X155520086Y-72572655D01*
X155511752Y-72575183D01*
X155511748Y-72575185D01*
X155413189Y-72627866D01*
X155329251Y-72672733D01*
X155329249Y-72672734D01*
X155329248Y-72672735D01*
X155169290Y-72804007D01*
X155038018Y-72963965D01*
X154940470Y-73146461D01*
X154880400Y-73344485D01*
X154860118Y-73550418D01*
X119790949Y-73550418D01*
X119818766Y-73460958D01*
X119819962Y-73457318D01*
X120228653Y-72276483D01*
X120229960Y-72272891D01*
X120675895Y-71105660D01*
X120677353Y-71102019D01*
X120753452Y-70920343D01*
X121160092Y-69949535D01*
X121161667Y-69945938D01*
X121162045Y-69945111D01*
X154860117Y-69945111D01*
X154880399Y-70151043D01*
X154880400Y-70151045D01*
X154940468Y-70349065D01*
X155038015Y-70531561D01*
X155038017Y-70531563D01*
X155169289Y-70691521D01*
X155265909Y-70770813D01*
X155329250Y-70822796D01*
X155511746Y-70920343D01*
X155709766Y-70980411D01*
X155709765Y-70980411D01*
X155728229Y-70982229D01*
X155915700Y-71000694D01*
X156121634Y-70980411D01*
X156319654Y-70920343D01*
X156502150Y-70822796D01*
X156662110Y-70691521D01*
X156793385Y-70531561D01*
X156890932Y-70349065D01*
X156951000Y-70151045D01*
X156971283Y-69945111D01*
X157400116Y-69945111D01*
X157420398Y-70151043D01*
X157420399Y-70151045D01*
X157480467Y-70349065D01*
X157578014Y-70531561D01*
X157578016Y-70531563D01*
X157709288Y-70691521D01*
X157805908Y-70770813D01*
X157869249Y-70822796D01*
X158051745Y-70920343D01*
X158249765Y-70980411D01*
X158249764Y-70980411D01*
X158268228Y-70982229D01*
X158455699Y-71000694D01*
X158661633Y-70980411D01*
X158859653Y-70920343D01*
X159042149Y-70822796D01*
X159202109Y-70691521D01*
X159333384Y-70531561D01*
X159430931Y-70349065D01*
X159430932Y-70349059D01*
X159433263Y-70343434D01*
X159433576Y-70343563D01*
X159434193Y-70342053D01*
X159433748Y-70341874D01*
X159619909Y-69879660D01*
X159969475Y-69011738D01*
X159996811Y-68970389D01*
X160432896Y-68534304D01*
X161091021Y-68534304D01*
X161111502Y-68676760D01*
X161171290Y-68807675D01*
X161171291Y-68807677D01*
X161265540Y-68916447D01*
X161386615Y-68994257D01*
X161386618Y-68994258D01*
X161386617Y-68994258D01*
X161524704Y-69034803D01*
X161524706Y-69034804D01*
X161524707Y-69034804D01*
X161668629Y-69034804D01*
X161806721Y-68994257D01*
X161821278Y-68984901D01*
X161826637Y-68981885D01*
X161830901Y-68979257D01*
X161830907Y-68979256D01*
X162211524Y-68744796D01*
X162276559Y-68726373D01*
X168017605Y-68726373D01*
X168084644Y-68746058D01*
X168130399Y-68798862D01*
X168140343Y-68868020D01*
X168111318Y-68931576D01*
X168105287Y-68938052D01*
X167516965Y-69526374D01*
X165814032Y-71229306D01*
X165775525Y-71267813D01*
X165775519Y-71267821D01*
X165735966Y-71336330D01*
X165735963Y-71336335D01*
X165735946Y-71336399D01*
X165715484Y-71412764D01*
X165715484Y-74128506D01*
X165718520Y-74139836D01*
X165735963Y-74204934D01*
X165735964Y-74204935D01*
X165768918Y-74262013D01*
X165768919Y-74262015D01*
X165775521Y-74273451D01*
X165775525Y-74273456D01*
X165992836Y-74490767D01*
X166017591Y-74526159D01*
X166212264Y-74944764D01*
X166220213Y-74955893D01*
X166232102Y-74976452D01*
X166255100Y-75026810D01*
X166349349Y-75135580D01*
X166470424Y-75213390D01*
X166470427Y-75213391D01*
X166470426Y-75213391D01*
X166608513Y-75253936D01*
X166608515Y-75253937D01*
X166608516Y-75253937D01*
X166752439Y-75253937D01*
X166752439Y-75253936D01*
X166890530Y-75213390D01*
X167011605Y-75135580D01*
X167105854Y-75026810D01*
X167165642Y-74895894D01*
X167186124Y-74753437D01*
X167165642Y-74610980D01*
X167105854Y-74480064D01*
X167011605Y-74371294D01*
X167011602Y-74371292D01*
X167011603Y-74371292D01*
X166890532Y-74293484D01*
X166882468Y-74289802D01*
X166882687Y-74289321D01*
X166877635Y-74287127D01*
X166877326Y-74287792D01*
X166453199Y-74090551D01*
X166417807Y-74065796D01*
X166352803Y-74000792D01*
X166319318Y-73939469D01*
X166316484Y-73913111D01*
X166316484Y-72447414D01*
X166336169Y-72380375D01*
X166388973Y-72334620D01*
X166458131Y-72324676D01*
X166475415Y-72328436D01*
X166496476Y-72334620D01*
X166544022Y-72348581D01*
X166544023Y-72348581D01*
X166687946Y-72348581D01*
X166687946Y-72348580D01*
X166826037Y-72308034D01*
X166947112Y-72230224D01*
X166980772Y-72191377D01*
X167039551Y-72153604D01*
X167074485Y-72148581D01*
X167700508Y-72148581D01*
X167767547Y-72168266D01*
X167788189Y-72184900D01*
X168050270Y-72446981D01*
X168083755Y-72508304D01*
X168085327Y-72552308D01*
X168084019Y-72561405D01*
X168104500Y-72703862D01*
X168150236Y-72804007D01*
X168164289Y-72834779D01*
X168258538Y-72943549D01*
X168379613Y-73021359D01*
X168379616Y-73021360D01*
X168379615Y-73021360D01*
X168517702Y-73061905D01*
X168517704Y-73061906D01*
X168517705Y-73061906D01*
X168661628Y-73061906D01*
X168661628Y-73061905D01*
X168799719Y-73021359D01*
X168920794Y-72943549D01*
X169015043Y-72834779D01*
X169074831Y-72703863D01*
X169095313Y-72561406D01*
X169074831Y-72418949D01*
X169015043Y-72288033D01*
X168920794Y-72179263D01*
X168799719Y-72101453D01*
X168799717Y-72101452D01*
X168799715Y-72101451D01*
X168799716Y-72101451D01*
X168661629Y-72060906D01*
X168661627Y-72060906D01*
X168565499Y-72060906D01*
X168498460Y-72041221D01*
X168477818Y-72024587D01*
X168060853Y-71607622D01*
X168060845Y-71607616D01*
X167992336Y-71568063D01*
X167992331Y-71568060D01*
X167966854Y-71561233D01*
X167915903Y-71547581D01*
X167915901Y-71547581D01*
X167074485Y-71547581D01*
X167007446Y-71527896D01*
X166980772Y-71504784D01*
X166947112Y-71465938D01*
X166826037Y-71388128D01*
X166826035Y-71388127D01*
X166826033Y-71388126D01*
X166826034Y-71388126D01*
X166778512Y-71374173D01*
X166719734Y-71336399D01*
X166690708Y-71272844D01*
X166700651Y-71203685D01*
X166725762Y-71167518D01*
X168530588Y-69362694D01*
X168591911Y-69329209D01*
X168618269Y-69326375D01*
X170482060Y-69326375D01*
X170549099Y-69346060D01*
X170575772Y-69369171D01*
X170609433Y-69408018D01*
X170730508Y-69485828D01*
X170730511Y-69485829D01*
X170730510Y-69485829D01*
X170868597Y-69526374D01*
X170868599Y-69526375D01*
X170868600Y-69526375D01*
X171012523Y-69526375D01*
X171012523Y-69526374D01*
X171150614Y-69485828D01*
X171271689Y-69408018D01*
X171365938Y-69299248D01*
X171425726Y-69168332D01*
X171446208Y-69025875D01*
X171425726Y-68883418D01*
X171424464Y-68874640D01*
X171426281Y-68874378D01*
X171426280Y-68815441D01*
X171464053Y-68756662D01*
X171527608Y-68727636D01*
X171545258Y-68726373D01*
X181824841Y-68726373D01*
X181891880Y-68746058D01*
X181912522Y-68762692D01*
X182813489Y-69663659D01*
X182846974Y-69724982D01*
X182848546Y-69768986D01*
X182847238Y-69778083D01*
X182867719Y-69920540D01*
X182880964Y-69949542D01*
X182927508Y-70051457D01*
X183021757Y-70160227D01*
X183142832Y-70238037D01*
X183142835Y-70238038D01*
X183142834Y-70238038D01*
X183280921Y-70278583D01*
X183280923Y-70278584D01*
X183280924Y-70278584D01*
X183424847Y-70278584D01*
X183424847Y-70278583D01*
X183562938Y-70238037D01*
X183684013Y-70160227D01*
X183778262Y-70051457D01*
X183838050Y-69920541D01*
X183858532Y-69778084D01*
X183838050Y-69635627D01*
X183778262Y-69504711D01*
X183684013Y-69395941D01*
X183562938Y-69318131D01*
X183562936Y-69318130D01*
X183562934Y-69318129D01*
X183562935Y-69318129D01*
X183424848Y-69277584D01*
X183424846Y-69277584D01*
X183328718Y-69277584D01*
X183261679Y-69257899D01*
X183241037Y-69241265D01*
X182185186Y-68185414D01*
X182185178Y-68185408D01*
X182156190Y-68168672D01*
X182156190Y-68168671D01*
X182156187Y-68168671D01*
X182116668Y-68145854D01*
X182116665Y-68145852D01*
X182078449Y-68135612D01*
X182040236Y-68125373D01*
X182040234Y-68125373D01*
X162228735Y-68125373D01*
X162203402Y-68122123D01*
X162203376Y-68122291D01*
X162197688Y-68121390D01*
X162197442Y-68121359D01*
X162197369Y-68121340D01*
X162197364Y-68121339D01*
X162197361Y-68121338D01*
X161757854Y-68051761D01*
X161704836Y-68043368D01*
X161689293Y-68039871D01*
X161668629Y-68033804D01*
X161652484Y-68033804D01*
X161637821Y-68032934D01*
X161626563Y-68031593D01*
X161624810Y-68031453D01*
X161620578Y-68031157D01*
X161620577Y-68031157D01*
X161614782Y-68032121D01*
X161594425Y-68033804D01*
X161524704Y-68033804D01*
X161386617Y-68074349D01*
X161265541Y-68152160D01*
X161171291Y-68260930D01*
X161171290Y-68260932D01*
X161111502Y-68391847D01*
X161091021Y-68534304D01*
X160432896Y-68534304D01*
X162179965Y-66787236D01*
X162241288Y-66753751D01*
X162267646Y-66750917D01*
X171350408Y-66750917D01*
X171417446Y-66770601D01*
X171479331Y-66810371D01*
X171617418Y-66850916D01*
X171617420Y-66850917D01*
X171617421Y-66850917D01*
X171761344Y-66850917D01*
X171761344Y-66850916D01*
X171899435Y-66810370D01*
X172020510Y-66732560D01*
X172114759Y-66623790D01*
X172174547Y-66492874D01*
X172195029Y-66350417D01*
X172174547Y-66207960D01*
X172114759Y-66077044D01*
X172020510Y-65968274D01*
X171899435Y-65890464D01*
X171899433Y-65890463D01*
X171899431Y-65890462D01*
X171899432Y-65890462D01*
X171761345Y-65849917D01*
X171761343Y-65849917D01*
X171617421Y-65849917D01*
X171617418Y-65849917D01*
X171479332Y-65890462D01*
X171479330Y-65890462D01*
X171417446Y-65930233D01*
X171350408Y-65949917D01*
X162110731Y-65949917D01*
X162110715Y-65949916D01*
X162103119Y-65949916D01*
X161997665Y-65949916D01*
X161929758Y-65968112D01*
X161895804Y-65977210D01*
X161804476Y-66029939D01*
X161729910Y-66104506D01*
X159430422Y-68403992D01*
X159389067Y-68431332D01*
X158064529Y-68964807D01*
X158060012Y-68966699D01*
X158055502Y-68968322D01*
X158051741Y-68969880D01*
X157930282Y-69034803D01*
X157869249Y-69067426D01*
X157869247Y-69067427D01*
X157869246Y-69067428D01*
X157709288Y-69198700D01*
X157604510Y-69326375D01*
X157578014Y-69358661D01*
X157572396Y-69369172D01*
X157480468Y-69541154D01*
X157420398Y-69739178D01*
X157400116Y-69945111D01*
X156971283Y-69945111D01*
X156951000Y-69739177D01*
X156890932Y-69541157D01*
X156793385Y-69358661D01*
X156726847Y-69277584D01*
X156662110Y-69198700D01*
X156502152Y-69067428D01*
X156502153Y-69067428D01*
X156502150Y-69067426D01*
X156332254Y-68976613D01*
X156319656Y-68969880D01*
X156319655Y-68969879D01*
X156319654Y-68969879D01*
X156121634Y-68909811D01*
X156121632Y-68909810D01*
X156121634Y-68909810D01*
X155915700Y-68889528D01*
X155709767Y-68909810D01*
X155534392Y-68963009D01*
X155517763Y-68968054D01*
X155511743Y-68969880D01*
X155406986Y-69025875D01*
X155329250Y-69067426D01*
X155329248Y-69067427D01*
X155329247Y-69067428D01*
X155169289Y-69198700D01*
X155064511Y-69326375D01*
X155038015Y-69358661D01*
X155032397Y-69369172D01*
X154940469Y-69541154D01*
X154880399Y-69739178D01*
X154860117Y-69945111D01*
X121162045Y-69945111D01*
X121680729Y-68809349D01*
X121682358Y-68805926D01*
X122237264Y-67686292D01*
X122239001Y-67682922D01*
X122829155Y-66581452D01*
X122831009Y-66578120D01*
X123455772Y-65495997D01*
X123457785Y-65492636D01*
X123660869Y-65165327D01*
X124116563Y-64430887D01*
X124118627Y-64427676D01*
X124810799Y-63387307D01*
X124812980Y-63384140D01*
X125537777Y-62366304D01*
X125540051Y-62363214D01*
X125979871Y-61785299D01*
X158541201Y-61785299D01*
X158541201Y-61785302D01*
X158561033Y-62011987D01*
X158561035Y-62011998D01*
X158619927Y-62231789D01*
X158619930Y-62231798D01*
X158716100Y-62438033D01*
X158716101Y-62438035D01*
X158846623Y-62624442D01*
X159007527Y-62785346D01*
X159007530Y-62785348D01*
X159193935Y-62915869D01*
X159400173Y-63012040D01*
X159619977Y-63070936D01*
X159781899Y-63085102D01*
X159846667Y-63090769D01*
X159846669Y-63090769D01*
X159846671Y-63090769D01*
X159903342Y-63085810D01*
X160073361Y-63070936D01*
X160293165Y-63012040D01*
X160499403Y-62915869D01*
X160685808Y-62785348D01*
X160846716Y-62624440D01*
X160977237Y-62438035D01*
X161073408Y-62231797D01*
X161132304Y-62011993D01*
X161152137Y-61785301D01*
X161132304Y-61558609D01*
X161073408Y-61338805D01*
X160977237Y-61132567D01*
X160846716Y-60946162D01*
X160846714Y-60946159D01*
X160685810Y-60785255D01*
X160499403Y-60654733D01*
X160499401Y-60654732D01*
X160293166Y-60558562D01*
X160293157Y-60558559D01*
X160073366Y-60499667D01*
X160073362Y-60499666D01*
X160073361Y-60499666D01*
X160073360Y-60499665D01*
X160073355Y-60499665D01*
X159846671Y-60479833D01*
X159846667Y-60479833D01*
X159619982Y-60499665D01*
X159619971Y-60499667D01*
X159400180Y-60558559D01*
X159400171Y-60558562D01*
X159193936Y-60654732D01*
X159193934Y-60654733D01*
X159007527Y-60785255D01*
X158846623Y-60946159D01*
X158716101Y-61132566D01*
X158716100Y-61132568D01*
X158619930Y-61338803D01*
X158619927Y-61338812D01*
X158561035Y-61558603D01*
X158561033Y-61558614D01*
X158541201Y-61785299D01*
X125979871Y-61785299D01*
X126296816Y-61368839D01*
X126299146Y-61365875D01*
X127087098Y-60395986D01*
X127089536Y-60393081D01*
X127907833Y-59448715D01*
X127910425Y-59445819D01*
X128758222Y-58527947D01*
X128760872Y-58525167D01*
X129637412Y-57634609D01*
X129640146Y-57631918D01*
X130544496Y-56769621D01*
X130547322Y-56767010D01*
X131478545Y-55933870D01*
X131481486Y-55931322D01*
X131600399Y-55831541D01*
X132438671Y-55128147D01*
X132441637Y-55125737D01*
X133423873Y-54353298D01*
X133426968Y-54350944D01*
X133875365Y-54020796D01*
X152310418Y-54020796D01*
X152337337Y-54156123D01*
X152337340Y-54156133D01*
X152390140Y-54283605D01*
X152390147Y-54283618D01*
X152466804Y-54398342D01*
X152466807Y-54398346D01*
X152564373Y-54495912D01*
X152564377Y-54495915D01*
X152679101Y-54572572D01*
X152679114Y-54572579D01*
X152806586Y-54625379D01*
X152806591Y-54625381D01*
X152806595Y-54625381D01*
X152806596Y-54625382D01*
X152941923Y-54652301D01*
X152941926Y-54652301D01*
X153079914Y-54652301D01*
X153170960Y-54634190D01*
X153215247Y-54625381D01*
X153342730Y-54572576D01*
X153457461Y-54495915D01*
X153555033Y-54398343D01*
X153631694Y-54283612D01*
X153684499Y-54156129D01*
X153711419Y-54020794D01*
X153711419Y-53252046D01*
X153731104Y-53185007D01*
X153783908Y-53139252D01*
X153853066Y-53129308D01*
X153916622Y-53158333D01*
X153942805Y-53190045D01*
X153980403Y-53255166D01*
X154087553Y-53362316D01*
X154218783Y-53438082D01*
X154365152Y-53477301D01*
X154365154Y-53477301D01*
X154516682Y-53477301D01*
X154516684Y-53477301D01*
X154663053Y-53438082D01*
X154794283Y-53362316D01*
X154901433Y-53255166D01*
X154977199Y-53123936D01*
X155016418Y-52977567D01*
X155016418Y-52826035D01*
X159645420Y-52826035D01*
X159645420Y-52977566D01*
X159684639Y-53123937D01*
X159722522Y-53189551D01*
X159760405Y-53255166D01*
X159867555Y-53362316D01*
X159998785Y-53438082D01*
X160145154Y-53477301D01*
X160145156Y-53477301D01*
X160296684Y-53477301D01*
X160296686Y-53477301D01*
X160443055Y-53438082D01*
X160574285Y-53362316D01*
X160681435Y-53255166D01*
X160719032Y-53190045D01*
X160769599Y-53141830D01*
X160838206Y-53128607D01*
X160903071Y-53154575D01*
X160943599Y-53211490D01*
X160950419Y-53252046D01*
X160950419Y-54020794D01*
X160950419Y-54020796D01*
X160950418Y-54020796D01*
X160977337Y-54156123D01*
X160977340Y-54156133D01*
X161030140Y-54283605D01*
X161030147Y-54283618D01*
X161106804Y-54398342D01*
X161106807Y-54398346D01*
X161204373Y-54495912D01*
X161204377Y-54495915D01*
X161319101Y-54572572D01*
X161319114Y-54572579D01*
X161446586Y-54625379D01*
X161446591Y-54625381D01*
X161446595Y-54625381D01*
X161446596Y-54625382D01*
X161581923Y-54652301D01*
X161581926Y-54652301D01*
X161719914Y-54652301D01*
X161810960Y-54634190D01*
X161855247Y-54625381D01*
X161982730Y-54572576D01*
X162097461Y-54495915D01*
X162195033Y-54398343D01*
X162271694Y-54283612D01*
X162324499Y-54156129D01*
X162351419Y-54020794D01*
X162351419Y-52782808D01*
X162351419Y-52782805D01*
X162324500Y-52647478D01*
X162324499Y-52647477D01*
X162324499Y-52647473D01*
X162324497Y-52647468D01*
X162271697Y-52519996D01*
X162271690Y-52519983D01*
X162195033Y-52405259D01*
X162195030Y-52405255D01*
X162097464Y-52307689D01*
X162097460Y-52307686D01*
X161982736Y-52231029D01*
X161982723Y-52231022D01*
X161855251Y-52178222D01*
X161855241Y-52178219D01*
X161719914Y-52151301D01*
X161719912Y-52151301D01*
X161581926Y-52151301D01*
X161581924Y-52151301D01*
X161446596Y-52178219D01*
X161446586Y-52178222D01*
X161319114Y-52231022D01*
X161319101Y-52231029D01*
X161204377Y-52307686D01*
X161204373Y-52307689D01*
X161106807Y-52405255D01*
X161106804Y-52405259D01*
X161030147Y-52519983D01*
X161030140Y-52519996D01*
X160975008Y-52653100D01*
X160973211Y-52652356D01*
X160939822Y-52703277D01*
X160876003Y-52731718D01*
X160806939Y-52721140D01*
X160754557Y-52674902D01*
X160752096Y-52670824D01*
X160741433Y-52652356D01*
X160681435Y-52548436D01*
X160574285Y-52441286D01*
X160508670Y-52403403D01*
X160443056Y-52365520D01*
X160369870Y-52345910D01*
X160296686Y-52326301D01*
X160145154Y-52326301D01*
X159998783Y-52365520D01*
X159867555Y-52441286D01*
X159867552Y-52441288D01*
X159760407Y-52548433D01*
X159760405Y-52548436D01*
X159684639Y-52679664D01*
X159645420Y-52826035D01*
X155016418Y-52826035D01*
X154977199Y-52679666D01*
X154974448Y-52674902D01*
X154961431Y-52652356D01*
X154901433Y-52548436D01*
X154794283Y-52441286D01*
X154728668Y-52403403D01*
X154663054Y-52365520D01*
X154589868Y-52345910D01*
X154516684Y-52326301D01*
X154365152Y-52326301D01*
X154218781Y-52365520D01*
X154087553Y-52441286D01*
X154087550Y-52441288D01*
X153980405Y-52548433D01*
X153980399Y-52548442D01*
X153909740Y-52670824D01*
X153859173Y-52719039D01*
X153790566Y-52732261D01*
X153725701Y-52706293D01*
X153687597Y-52652782D01*
X153686830Y-52653100D01*
X153685448Y-52649765D01*
X153685173Y-52649378D01*
X153684755Y-52648092D01*
X153631697Y-52519996D01*
X153631690Y-52519983D01*
X153555033Y-52405259D01*
X153555030Y-52405255D01*
X153457464Y-52307689D01*
X153457460Y-52307686D01*
X153342736Y-52231029D01*
X153342723Y-52231022D01*
X153215251Y-52178222D01*
X153215241Y-52178219D01*
X153079914Y-52151301D01*
X153079912Y-52151301D01*
X152941926Y-52151301D01*
X152941924Y-52151301D01*
X152806596Y-52178219D01*
X152806586Y-52178222D01*
X152679114Y-52231022D01*
X152679101Y-52231029D01*
X152564377Y-52307686D01*
X152564373Y-52307689D01*
X152466807Y-52405255D01*
X152466804Y-52405259D01*
X152390147Y-52519983D01*
X152390140Y-52519996D01*
X152337340Y-52647468D01*
X152337337Y-52647478D01*
X152310419Y-52782805D01*
X152310419Y-52782808D01*
X152310419Y-54020794D01*
X152310419Y-54020796D01*
X152310418Y-54020796D01*
X133875365Y-54020796D01*
X133875368Y-54020794D01*
X134433155Y-53610103D01*
X134436296Y-53607866D01*
X135465522Y-52899296D01*
X135468737Y-52897158D01*
X136519859Y-52221643D01*
X136523195Y-52219573D01*
X136592263Y-52178222D01*
X137595253Y-51577728D01*
X137598651Y-51575768D01*
X138690514Y-50968271D01*
X138693864Y-50966475D01*
X139804568Y-50393868D01*
X139807976Y-50392178D01*
X140936251Y-49855117D01*
X140939786Y-49853504D01*
X141311567Y-49690796D01*
X152310418Y-49690796D01*
X152337337Y-49826123D01*
X152337340Y-49826133D01*
X152390140Y-49953605D01*
X152390147Y-49953618D01*
X152466804Y-50068342D01*
X152466807Y-50068346D01*
X152564373Y-50165912D01*
X152564377Y-50165915D01*
X152679101Y-50242572D01*
X152679114Y-50242579D01*
X152806586Y-50295379D01*
X152806591Y-50295381D01*
X152806595Y-50295381D01*
X152806596Y-50295382D01*
X152941923Y-50322301D01*
X152941926Y-50322301D01*
X153079914Y-50322301D01*
X153170960Y-50304190D01*
X153215247Y-50295381D01*
X153342730Y-50242576D01*
X153457461Y-50165915D01*
X153555033Y-50068343D01*
X153631694Y-49953612D01*
X153684499Y-49826129D01*
X153711419Y-49690796D01*
X160950418Y-49690796D01*
X160977337Y-49826123D01*
X160977340Y-49826133D01*
X161030140Y-49953605D01*
X161030147Y-49953618D01*
X161106804Y-50068342D01*
X161106807Y-50068346D01*
X161204373Y-50165912D01*
X161204377Y-50165915D01*
X161319101Y-50242572D01*
X161319114Y-50242579D01*
X161446586Y-50295379D01*
X161446591Y-50295381D01*
X161446595Y-50295381D01*
X161446596Y-50295382D01*
X161581923Y-50322301D01*
X161581926Y-50322301D01*
X161719914Y-50322301D01*
X161810960Y-50304190D01*
X161855247Y-50295381D01*
X161982730Y-50242576D01*
X162097461Y-50165915D01*
X162195033Y-50068343D01*
X162271694Y-49953612D01*
X162324499Y-49826129D01*
X162351419Y-49690794D01*
X162351419Y-48752808D01*
X162351419Y-48752805D01*
X162324500Y-48617478D01*
X162324499Y-48617477D01*
X162324499Y-48617473D01*
X162321485Y-48610196D01*
X162271697Y-48489996D01*
X162271690Y-48489983D01*
X162195033Y-48375259D01*
X162195030Y-48375255D01*
X162097464Y-48277689D01*
X162097460Y-48277686D01*
X161982736Y-48201029D01*
X161982723Y-48201022D01*
X161855251Y-48148222D01*
X161855241Y-48148219D01*
X161719914Y-48121301D01*
X161719912Y-48121301D01*
X161581926Y-48121301D01*
X161581924Y-48121301D01*
X161446596Y-48148219D01*
X161446586Y-48148222D01*
X161319114Y-48201022D01*
X161319101Y-48201029D01*
X161204377Y-48277686D01*
X161204373Y-48277689D01*
X161106807Y-48375255D01*
X161106804Y-48375259D01*
X161030147Y-48489983D01*
X161030140Y-48489996D01*
X160977340Y-48617468D01*
X160977337Y-48617478D01*
X160950419Y-48752805D01*
X160950419Y-48752808D01*
X160950419Y-49690794D01*
X160950419Y-49690796D01*
X160950418Y-49690796D01*
X153711419Y-49690796D01*
X153711419Y-49690794D01*
X153711419Y-48752808D01*
X153711419Y-48752805D01*
X153684500Y-48617478D01*
X153684499Y-48617477D01*
X153684499Y-48617473D01*
X153681485Y-48610196D01*
X153631697Y-48489996D01*
X153631690Y-48489983D01*
X153555033Y-48375259D01*
X153555030Y-48375255D01*
X153457464Y-48277689D01*
X153457460Y-48277686D01*
X153342736Y-48201029D01*
X153342723Y-48201022D01*
X153215251Y-48148222D01*
X153215241Y-48148219D01*
X153079914Y-48121301D01*
X153079912Y-48121301D01*
X152941926Y-48121301D01*
X152941924Y-48121301D01*
X152806596Y-48148219D01*
X152806586Y-48148222D01*
X152679114Y-48201022D01*
X152679101Y-48201029D01*
X152564377Y-48277686D01*
X152564373Y-48277689D01*
X152466807Y-48375255D01*
X152466804Y-48375259D01*
X152390147Y-48489983D01*
X152390140Y-48489996D01*
X152337340Y-48617468D01*
X152337337Y-48617478D01*
X152310419Y-48752805D01*
X152310419Y-48752808D01*
X152310419Y-49690794D01*
X152310419Y-49690796D01*
X152310418Y-49690796D01*
X141311567Y-49690796D01*
X142084454Y-49352546D01*
X142087976Y-49351070D01*
X143248069Y-48886638D01*
X143251632Y-48885277D01*
X144425830Y-48457903D01*
X144429490Y-48456637D01*
X145616665Y-48066731D01*
X145620286Y-48065605D01*
X146819220Y-47713567D01*
X146822945Y-47712537D01*
X148032485Y-47398704D01*
X148036182Y-47397808D01*
X149255040Y-47122517D01*
X149258771Y-47121736D01*
X150485776Y-46885250D01*
X150489551Y-46884584D01*
X151723414Y-46687153D01*
X151727199Y-46686608D01*
X152966684Y-46528427D01*
X152970493Y-46528001D01*
X154214440Y-46409218D01*
X154218279Y-46408914D01*
X155465238Y-46329667D01*
X155469128Y-46329481D01*
X156718016Y-46289837D01*
X156721950Y-46289775D01*
X157971384Y-46289775D01*
X157975318Y-46289837D01*
G37*
%TD.AperFunction*%
%TD*%
%TA.AperFunction,Conductor*%
%TO.N,NTC*%
G36*
X166334341Y-74261912D02*
G01*
X166785148Y-74471560D01*
X166791203Y-74478155D01*
X166791036Y-74486612D01*
X166683040Y-74749621D01*
X166676728Y-74755973D01*
X166676661Y-74756000D01*
X166413652Y-74863996D01*
X166404697Y-74863969D01*
X166398600Y-74858108D01*
X166188952Y-74407302D01*
X166188572Y-74398357D01*
X166191287Y-74394099D01*
X166321138Y-74264248D01*
X166329410Y-74260822D01*
X166334341Y-74261912D01*
G37*
%TD.AperFunction*%
%TD*%
%TA.AperFunction,Conductor*%
%TO.N,Net-(U1-CLPROG)*%
G36*
X164306331Y-73739885D02*
G01*
X164312429Y-73745747D01*
X164522075Y-74196550D01*
X164522456Y-74205497D01*
X164519739Y-74209757D01*
X164389891Y-74339605D01*
X164381618Y-74343032D01*
X164376684Y-74341941D01*
X164083288Y-74205497D01*
X163925880Y-74132294D01*
X163919825Y-74125699D01*
X163919991Y-74117243D01*
X164027988Y-73854232D01*
X164034298Y-73847882D01*
X164297377Y-73739858D01*
X164306331Y-73739885D01*
G37*
%TD.AperFunction*%
%TD*%
%TA.AperFunction,Conductor*%
%TO.N,/Li-ionBatteryCharger\u002CPowerPath/\u002ACHRG*%
G36*
X161610145Y-68236437D02*
G01*
X162165229Y-68324310D01*
X162172865Y-68328988D01*
X162175100Y-68335866D01*
X162175100Y-68519338D01*
X162171673Y-68527611D01*
X162169536Y-68529300D01*
X161723127Y-68804288D01*
X161714286Y-68805709D01*
X161707029Y-68800462D01*
X161706197Y-68798842D01*
X161596578Y-68536482D01*
X161595675Y-68531940D01*
X161596622Y-68247953D01*
X161600076Y-68239693D01*
X161608361Y-68236294D01*
X161610145Y-68236437D01*
G37*
%TD.AperFunction*%
%TD*%
%TA.AperFunction,Conductor*%
%TO.N,/Li-ionBatteryCharger\u002CPowerPath/D2*%
G36*
X167314246Y-77877417D02*
G01*
X167319997Y-77883479D01*
X167429387Y-78146623D01*
X167429398Y-78155578D01*
X167429379Y-78155625D01*
X167320676Y-78415784D01*
X167314324Y-78422096D01*
X167305369Y-78422069D01*
X167304431Y-78421627D01*
X166803185Y-78157815D01*
X166797460Y-78150929D01*
X166798280Y-78142012D01*
X166800358Y-78139191D01*
X166928673Y-78010876D01*
X166933052Y-78008117D01*
X167305304Y-77876935D01*
X167314246Y-77877417D01*
G37*
%TD.AperFunction*%
%TD*%
%TA.AperFunction,Conductor*%
%TO.N,Net-(U1-CLPROG)*%
G36*
X166384414Y-76058894D02*
G01*
X166835221Y-76268542D01*
X166841276Y-76275137D01*
X166841109Y-76283594D01*
X166733113Y-76546603D01*
X166726801Y-76552955D01*
X166726734Y-76552982D01*
X166463725Y-76660978D01*
X166454770Y-76660951D01*
X166448673Y-76655090D01*
X166239025Y-76204284D01*
X166238645Y-76195339D01*
X166241360Y-76191081D01*
X166371211Y-76061230D01*
X166379483Y-76057804D01*
X166384414Y-76058894D01*
G37*
%TD.AperFunction*%
%TD*%
%TA.AperFunction,Conductor*%
%TO.N,/Li-ionBatteryCharger\u002CPowerPath/\u002ACHRG*%
G36*
X161622448Y-73673769D02*
G01*
X161628546Y-73679631D01*
X161838192Y-74130434D01*
X161838573Y-74139381D01*
X161835856Y-74143641D01*
X161706008Y-74273489D01*
X161697735Y-74276916D01*
X161692801Y-74275825D01*
X161399405Y-74139381D01*
X161241997Y-74066178D01*
X161235942Y-74059583D01*
X161236108Y-74051127D01*
X161344105Y-73788116D01*
X161350415Y-73781766D01*
X161613494Y-73673742D01*
X161622448Y-73673769D01*
G37*
%TD.AperFunction*%
%TD*%
%TA.AperFunction,Conductor*%
%TO.N,+6V*%
G36*
X153559231Y-117411067D02*
G01*
X154343294Y-117781668D01*
X154349101Y-117787762D01*
X154707636Y-118651934D01*
X154707641Y-118660889D01*
X154703508Y-118666024D01*
X153542934Y-119473017D01*
X153534186Y-119474927D01*
X153527982Y-119471684D01*
X152833899Y-118777601D01*
X152830472Y-118769328D01*
X152831827Y-118763862D01*
X152883521Y-118666024D01*
X153543886Y-117416178D01*
X153550781Y-117410465D01*
X153559231Y-117411067D01*
G37*
%TD.AperFunction*%
%TD*%
%TA.AperFunction,Conductor*%
%TO.N,/Li-ionBatteryCharger\u002CPowerPath/V_{IN}*%
G36*
X159518137Y-68604585D02*
G01*
X159521827Y-68607077D01*
X159793731Y-68878981D01*
X159797158Y-68887254D01*
X159796311Y-68891625D01*
X159245406Y-70259443D01*
X159239136Y-70265837D01*
X159230182Y-70265925D01*
X159230087Y-70265886D01*
X158459484Y-69947673D01*
X158453146Y-69941349D01*
X158134923Y-69170722D01*
X158134932Y-69161767D01*
X158141271Y-69155442D01*
X158141294Y-69155432D01*
X159509184Y-68604497D01*
X159518137Y-68604585D01*
G37*
%TD.AperFunction*%
%TD*%
%TA.AperFunction,Conductor*%
%TO.N,+6V*%
G36*
X124451827Y-82488974D02*
G01*
X125342957Y-82782142D01*
X125349587Y-82787680D01*
X125764704Y-83553442D01*
X125765634Y-83562348D01*
X125760625Y-83568936D01*
X124455081Y-84385947D01*
X124446250Y-84387431D01*
X124440601Y-84384302D01*
X123746474Y-83690175D01*
X123743047Y-83681902D01*
X123744655Y-83675983D01*
X124438083Y-82494166D01*
X124445224Y-82488767D01*
X124451827Y-82488974D01*
G37*
%TD.AperFunction*%
%TD*%
%TA.AperFunction,Conductor*%
%TO.N,/Li-ionBatteryCharger\u002CPowerPath/D2*%
G36*
X157133204Y-72305842D02*
G01*
X157138864Y-72312782D01*
X157139357Y-72316144D01*
X157139357Y-72498600D01*
X157138804Y-72502153D01*
X156704862Y-73863577D01*
X156699085Y-73870419D01*
X156690162Y-73871171D01*
X156689242Y-73870835D01*
X155919188Y-73552274D01*
X155912854Y-73545945D01*
X155912847Y-73545929D01*
X155595357Y-72777076D01*
X155595366Y-72768121D01*
X155601705Y-72761796D01*
X155602809Y-72761403D01*
X157124296Y-72304937D01*
X157133204Y-72305842D01*
G37*
%TD.AperFunction*%
%TD*%
%TA.AperFunction,Conductor*%
%TO.N,/Li-ionBatteryCharger\u002CPowerPath/\u002ACHRG*%
G36*
X168726879Y-79014784D02*
G01*
X168732741Y-79020882D01*
X168842353Y-79283223D01*
X168842380Y-79292178D01*
X168842353Y-79292245D01*
X168732741Y-79554585D01*
X168726389Y-79560897D01*
X168717932Y-79561063D01*
X168584185Y-79512227D01*
X168250925Y-79390540D01*
X168244329Y-79384484D01*
X168243238Y-79379550D01*
X168243238Y-79195917D01*
X168246665Y-79187644D01*
X168250925Y-79184927D01*
X168717935Y-79014403D01*
X168726879Y-79014784D01*
G37*
%TD.AperFunction*%
%TD*%
M02*
